<?xml version="1.0" encoding="utf-8"?>
<!-- Generator: Adobe Illustrator 16.0.0, SVG Export Plug-In . SVG Version: 6.00 Build 0)  -->
<!DOCTYPE svg PUBLIC "-//W3C//DTD SVG 1.1//EN" "http://www.w3.org/Graphics/SVG/1.1/DTD/svg11.dtd">
<svg version="1.1" xmlns="http://www.w3.org/2000/svg" xmlns:xlink="http://www.w3.org/1999/xlink" x="0px" y="0px" width="800px"
	 height="600px" viewBox="0 0 800 600" enable-background="new 0 0 800 600" xml:space="preserve">
<g id="Calque_1">
	<rect x="223" y="172" fill="#00FFFF" width="11" height="11"/>
	
		<image overflow="visible" width="2560" height="1600" xlink:href="../Pictures/1604277.jpg"  transform="matrix(0.3954 0 0 0.3954 -92.2295 -16.3252)">
	</image>
</g>
<g id="Calque_4">
	<image overflow="visible" width="800" height="600" xlink:href="essai-roulette.png"  transform="matrix(1 0 0 1 -1 0)">
	</image>
</g>
<g id="Calque_5">
	<rect x="256" y="116" fill="#6DF6E1" width="15" height="14"/>
	<rect x="265" y="149" fill="#9EF66D" width="15" height="14"/>
	<polyline fill="#6DCFF6" points="246,96 246,82 261,82 261,96 	"/>
	<rect x="562" y="283" fill="#6DF6E1" width="15" height="14"/>
	<rect x="561" y="335" fill="#9EF66D" width="15" height="14"/>
</g>
<g id="Calque_6">
	<rect x="316" y="301" fill="#6DF6E1" width="29" height="47"/>
	<rect x="362" y="317" fill="#9EF66D" width="30" height="31"/>
	<polyline fill="#6DCFF6" points="269,348 269,281 299,281 299,348 	"/>
	<rect x="412" y="301" fill="#6DF6E1" width="28" height="47"/>
	<text transform="matrix(1 0 0 1 271.9731 376.5)" fill="#FFFFFF" font-family="'HelveticaNeueLTPro-Roman'" font-size="21">Ps</text>
	<text transform="matrix(1 0 0 1 321.2192 376.5)" fill="#FFFFFF" font-family="'HelveticaNeueLTPro-Roman'" font-size="21">Ai</text>
	<text transform="matrix(1 0 0 1 351.5889 376.5)" fill="#FFFFFF" font-family="'HelveticaNeueLTPro-Roman'" font-size="17">Jquery</text>
	<text transform="matrix(1 0 0 1 407.6133 376.5)" fill="#FFFFFF" font-family="'HelveticaNeueLTPro-Roman'" font-size="17">Html</text>
	<rect x="337" y="498" fill="#6DF6E1" width="29" height="47"/>
	<polyline fill="#6DCFF6" points="246,545 246,478 276,478 276,545 	"/>
	<text transform="matrix(1 0 0 1 233.1792 570.499)" fill="#FFFFFF" font-family="'HelveticaNeueLTPro-Roman'" font-size="17">Anglais</text>
	<text transform="matrix(1 0 0 1 315.8735 570.499)" fill="#FFFFFF" font-family="'HelveticaNeueLTPro-Roman'" font-size="17">Espagnol</text>
</g>
<g id="Calque_2">
	<text transform="matrix(1 0 0 1 223.5 56)" fill="#FFFFFF" font-family="'HelveticaNeueLTPro-Roman'" font-size="30">Etudes</text>
</g>
<g id="Calque_3">
	<text transform="matrix(1 0 0 1 261.5 247.75)" fill="#FFFFFF" font-family="'HelveticaNeueLTPro-Roman'" font-size="30">Compétences</text>
	<text transform="matrix(1 0 0 1 551 247.75)" fill="#FFFFFF" font-family="'HelveticaNeueLTPro-Roman'" font-size="30">Experiences</text>
	<text transform="matrix(1 0 0 1 248.5 461)" fill="#FFFFFF" font-family="'HelveticaNeueLTPro-Roman'" font-size="30">Langues</text>
	<text transform="matrix(1 0 0 1 594.5 461)" fill="#FFFFFF" font-family="'HelveticaNeueLTPro-Roman'" font-size="30">Loisirs</text>
	<text transform="matrix(1 0 0 1 277 93.5005)" fill="#FFFFFF" font-family="'HelveticaNeueLTPro-Roman'" font-size="14">Master Pro Design d’interface multimedia et internet</text>
	<text transform="matrix(1 0 0 1 287 127.188)" fill="#FFFFFF" font-family="'HelveticaNeueLTPro-Roman'" font-size="14">Licence Pro Game et Level design</text>
	<text transform="matrix(1 0 0 1 296 160.2505)" fill="#FFFFFF" font-family="'HelveticaNeueLTPro-Roman'" font-size="14">DUT services et reseaux de communication </text>
	<text transform="matrix(1 0 0 1 588 297)"><tspan x="0" y="0" fill="#FFFFFF" font-family="'HelveticaNeueLTPro-Roman'" font-size="14">Stagiaire graphiste d’interface </tspan><tspan x="0" y="16.8" fill="#FFFFFF" font-family="'HelveticaNeueLTPro-Roman'" font-size="14">5 mois Battle Factory (2014)</tspan></text>
	<text transform="matrix(1 0 0 1 588 348)"><tspan x="0" y="0" fill="#FFFFFF" font-family="'HelveticaNeueLTPro-Roman'" font-size="14">Stagiaire graphiste d’interface</tspan><tspan x="0" y="16.8" fill="#FFFFFF" font-family="'HelveticaNeueLTPro-Roman'" font-size="14">3 mois Ubisoft (2013) </tspan></text>
	
		<image overflow="visible" width="67" height="78" xlink:href="../Pictures/basket-ball.png"  transform="matrix(1 0 0 1 569.5 492)">
	</image>
	<image overflow="visible" width="69" height="72" xlink:href="../Pictures/book.png"  transform="matrix(1 0 0 1 645.5 492)">
	</image>
</g>
<g id="Calque_7">
	<rect x="62" y="218" fill="#6DCFF6" width="162" height="177"/>
	
		<rect x="74" y="82" transform="matrix(-0.9874 0.1581 -0.1581 -0.9874 269.408 256.5698)" fill="#6DCFF6" width="101" height="114.001"/>
	<rect x="30" y="-50" transform="matrix(0.9245 -0.3812 0.3812 0.9245 3.4102 31.2157)" fill="#6DCFF6" width="101" height="114"/>
	<rect x="74" y="412" transform="matrix(0.978 0.2087 -0.2087 0.978 100.6329 -15.6562)" fill="#6DCFF6" width="101" height="114"/>
	<rect x="37" y="541" transform="matrix(0.9416 0.3368 -0.3368 0.9416 206.5112 5.4659)" fill="#6DCFF6" width="101" height="114"/>
</g>
</svg>
