<?xml version="1.0" encoding="utf-8"?>
<!-- Generator: Adobe Illustrator 18.1.0, SVG Export Plug-In . SVG Version: 6.00 Build 0)  -->
<!DOCTYPE svg PUBLIC "-//W3C//DTD SVG 1.1//EN" "http://www.w3.org/Graphics/SVG/1.1/DTD/svg11.dtd">
<svg version="1.1" id="Calque_1" xmlns="http://www.w3.org/2000/svg" xmlns:xlink="http://www.w3.org/1999/xlink" x="0px" y="0px"
	 viewBox="0 0 800 600" enable-background="new 0 0 800 600" xml:space="preserve">
<rect y="239.1" width="800" height="360.9"/>
<line fill="none" stroke="#000000" stroke-miterlimit="10" x1="266.5" y1="-1" x2="266.5" y2="239"/>
<line fill="none" stroke="#000000" stroke-miterlimit="10" x1="799" y1="35.5" x2="0" y2="35.5"/>
<line fill="none" stroke="#000000" stroke-miterlimit="10" x1="532.5" y1="-1" x2="532.5" y2="239"/>
<rect x="85.1" y="12.6" fill="none" width="102" height="35"/>
<text transform="matrix(1 0 0 1 85.1324 22.4329)" font-family="'Matiz'" font-size="13">CHAPITRES</text>
<rect x="366" y="12.6" fill="none" width="64" height="35"/>
<text transform="matrix(1 0 0 1 366 22.4329)" font-family="'Matiz'" font-size="13">THEMES</text>
<rect x="369" y="257" fill="none" width="61" height="35"/>
<text transform="matrix(1 0 0 1 369 269.0957)" fill="#FFFFFF" font-family="'Matiz'" font-size="16">SKILLS</text>
<rect x="104.5" y="306.2" fill="none" width="30" height="17.5"/>
<text transform="matrix(1 0 0 1 104.5052 315.3218)" fill="#FFFFFF" font-family="'Matiz'" font-size="12">WEB</text>
<rect x="359.1" y="306.2" fill="none" width="81.7" height="17.5"/>
<text transform="matrix(1 0 0 1 359.1443 315.3218)" fill="#FFFFFF" font-family="'Matiz'" font-size="12">GRAPHISME</text>
<rect x="605" y="306.2" fill="none" width="135.9" height="17.5"/>
<text transform="matrix(1 0 0 1 605.0352 315.3218)" fill="#FFFFFF" font-family="'Matiz'" font-size="12">GESTION DE PROJET</text>
<rect x="611" y="12.6" fill="none" width="134" height="35"/>
<text transform="matrix(1 0 0 1 611 22.4329)" font-family="'Matiz'" font-size="13">REALISATIONS</text>
<line fill="none" stroke="#FFFFFF" stroke-miterlimit="10" x1="369" y1="274.5" x2="430" y2="274.5"/>
<polygon fill="none" stroke="#FFFFFF" stroke-miterlimit="10" points="85.4,544.5 35.5,495.6 35.5,426.4 85.4,377.5 154.6,377.5 
	203.5,426.4 203.5,495.6 154.6,544.5 "/>
<polygon fill="none" stroke="#FFFFFF" stroke-miterlimit="10" points="90,533.5 47.5,491 47.5,431 90,388.5 150,388.5 192.5,431 
	192.5,491 150,533.5 "/>
<polygon fill="none" stroke="#FFFFFF" stroke-miterlimit="10" points="94.6,522.5 58.5,486.4 58.5,435.6 94.6,399.5 145.3,399.5 
	181.5,435.6 181.5,486.4 145.3,522.5 "/>
<polygon fill="none" stroke="#FFFFFF" stroke-miterlimit="10" points="99.2,511.5 69.5,481.8 69.5,440.2 99.2,410.5 140.7,410.5 
	170.5,440.2 170.5,481.8 140.7,511.5 "/>
<polygon fill="none" stroke="#FFFFFF" stroke-miterlimit="10" points="103.8,500.5 80.5,477.2 80.5,444.8 103.8,421.5 136.1,421.5 
	159.5,444.8 159.5,477.2 136.1,500.5 "/>
<line fill="none" stroke="#FFFFFF" stroke-miterlimit="10" x1="85.4" y1="377" x2="103.8" y2="421.5"/>
<line fill="none" stroke="#FFFFFF" stroke-miterlimit="10" x1="154.6" y1="377" x2="136.1" y2="421.5"/>
<line fill="none" stroke="#FFFFFF" stroke-miterlimit="10" x1="203.9" y1="426.4" x2="159.4" y2="444.8"/>
<line fill="none" stroke="#FFFFFF" stroke-miterlimit="10" x1="203.9" y1="495.6" x2="159.4" y2="477.2"/>
<line fill="none" stroke="#FFFFFF" stroke-miterlimit="10" x1="154.6" y1="545" x2="136.1" y2="500.5"/>
<line fill="none" stroke="#FFFFFF" stroke-miterlimit="10" x1="85.4" y1="545" x2="103.8" y2="500.5"/>
<line fill="none" stroke="#FFFFFF" stroke-miterlimit="10" x1="36" y1="495.6" x2="80.5" y2="477.2"/>
<line fill="none" stroke="#FFFFFF" stroke-miterlimit="10" x1="36" y1="426.4" x2="80.5" y2="444.8"/>
<polygon fill="none" stroke="#FFFFFF" stroke-miterlimit="10" points="365.6,544.5 316.5,495.6 316.5,426.4 365.6,377.5 
	434.8,377.5 484.5,426.4 484.5,495.6 434.8,544.5 "/>
<polygon fill="none" stroke="#FFFFFF" stroke-miterlimit="10" points="370.2,533.5 327.5,491 327.5,431 370.2,388.5 430.2,388.5 
	473.5,431 473.5,491 430.2,533.5 "/>
<polygon fill="none" stroke="#FFFFFF" stroke-miterlimit="10" points="374.8,522.5 338.5,486.4 338.5,435.6 374.8,399.5 
	425.6,399.5 461.5,435.6 461.5,486.4 425.6,522.5 "/>
<polygon fill="none" stroke="#FFFFFF" stroke-miterlimit="10" points="379.4,511.5 349.5,481.8 349.5,440.2 379.4,410.5 421,410.5 
	450.5,440.2 450.5,481.8 421,511.5 "/>
<polygon fill="none" stroke="#FFFFFF" stroke-miterlimit="10" points="384.1,500.5 360.5,477.2 360.5,444.8 384.1,421.5 
	416.4,421.5 439.5,444.8 439.5,477.2 416.4,500.5 "/>
<line fill="none" stroke="#FFFFFF" stroke-miterlimit="10" x1="365.6" y1="377" x2="384.1" y2="421.5"/>
<line fill="none" stroke="#FFFFFF" stroke-miterlimit="10" x1="434.8" y1="377" x2="416.4" y2="421.5"/>
<line fill="none" stroke="#FFFFFF" stroke-miterlimit="10" x1="484.2" y1="426.4" x2="439.7" y2="444.8"/>
<line fill="none" stroke="#FFFFFF" stroke-miterlimit="10" x1="484.2" y1="495.6" x2="439.7" y2="477.2"/>
<line fill="none" stroke="#FFFFFF" stroke-miterlimit="10" x1="434.8" y1="545" x2="416.4" y2="500.5"/>
<line fill="none" stroke="#FFFFFF" stroke-miterlimit="10" x1="365.6" y1="545" x2="384.1" y2="500.5"/>
<line fill="none" stroke="#FFFFFF" stroke-miterlimit="10" x1="316.3" y1="495.6" x2="360.7" y2="477.2"/>
<line fill="none" stroke="#FFFFFF" stroke-miterlimit="10" x1="316.3" y1="426.4" x2="360.7" y2="444.8"/>
<polygon fill="none" stroke="#FFFFFF" stroke-miterlimit="10" points="645.4,544.5 596.5,495.6 596.5,426.4 645.4,377.5 
	714.6,377.5 763.5,426.4 763.5,495.6 714.6,544.5 "/>
<polygon fill="none" stroke="#FFFFFF" stroke-miterlimit="10" points="650,533.5 607.5,491 607.5,431 650,388.5 710,388.5 
	752.5,431 752.5,491 710,533.5 "/>
<polygon fill="none" stroke="#FFFFFF" stroke-miterlimit="10" points="654.7,522.5 618.5,486.4 618.5,435.6 654.7,399.5 
	705.4,399.5 741.5,435.6 741.5,486.4 705.4,522.5 "/>
<polygon fill="none" stroke="#FFFFFF" stroke-miterlimit="10" points="659.3,511.5 629.5,481.8 629.5,440.2 659.3,410.5 
	700.8,410.5 730.5,440.2 730.5,481.8 700.8,511.5 "/>
<polygon fill="none" stroke="#FFFFFF" stroke-miterlimit="10" points="663.9,500.5 640.5,477.2 640.5,444.8 663.9,421.5 
	696.2,421.5 719.5,444.8 719.5,477.2 696.2,500.5 "/>
<line fill="none" stroke="#FFFFFF" stroke-miterlimit="10" x1="645.4" y1="377" x2="663.9" y2="421.5"/>
<line fill="none" stroke="#FFFFFF" stroke-miterlimit="10" x1="714.6" y1="377" x2="696.2" y2="421.5"/>
<line fill="none" stroke="#FFFFFF" stroke-miterlimit="10" x1="764" y1="426.4" x2="719.5" y2="444.8"/>
<line fill="none" stroke="#FFFFFF" stroke-miterlimit="10" x1="764" y1="495.6" x2="719.5" y2="477.2"/>
<line fill="none" stroke="#FFFFFF" stroke-miterlimit="10" x1="714.6" y1="545" x2="696.2" y2="500.5"/>
<line fill="none" stroke="#FFFFFF" stroke-miterlimit="10" x1="645.4" y1="545" x2="663.9" y2="500.5"/>
<line fill="none" stroke="#FFFFFF" stroke-miterlimit="10" x1="596.1" y1="495.6" x2="640.6" y2="477.2"/>
<line fill="none" stroke="#FFFFFF" stroke-miterlimit="10" x1="596.1" y1="426.4" x2="640.6" y2="444.8"/>
<rect x="73.8" y="358.9" fill="none" width="25.7" height="13.1"/>
<text transform="matrix(1 0 0 1 73.8203 366.5891)" fill="#FFFFFF" font-family="'AgencyFB-Reg'" font-size="10">HTML</text>
<rect x="150.3" y="358.9" fill="none" width="16.6" height="13.1"/>
<text transform="matrix(1 0 0 1 150.2663 366.5891)" fill="#FFFFFF" font-family="'AgencyFB-Reg'" font-size="10">CSS</text>
<rect x="16.8" y="419.9" fill="none" width="25.7" height="13.1"/>
<text transform="matrix(1 0 0 1 16.8265 427.5045)" fill="#FFFFFF" font-family="'AgencyFB-Reg'" font-size="10">JS</text>
<rect x="212.6" y="490.1" fill="none" width="25.7" height="13.1"/>
<text transform="matrix(1 0 0 1 212.6496 497.7017)" fill="#FFFFFF" font-family="'AgencyFB-Reg'" font-size="10">XML</text>
<rect x="150.8" y="553.8" fill="none" width="17.4" height="13.1"/>
<text transform="matrix(1 0 0 1 150.8244 561.4509)" fill="#FFFFFF" font-family="'AgencyFB-Reg'" font-size="10">SVG</text>
<rect x="332.1" y="358.9" fill="none" width="49.1" height="13.1"/>
<text transform="matrix(1 0 0 1 332.0871 366.5892)" fill="#FFFFFF" font-family="'AgencyFB-Reg'" font-size="10">PHOTOSHOP</text>
<rect x="415" y="358.9" fill="none" width="53.7" height="13.1"/>
<text transform="matrix(1 0 0 1 414.9611 366.5892)" fill="#FFFFFF" font-family="'AgencyFB-Reg'" font-size="10">ILLUSTRATOR</text>
<rect x="608.9" y="358.9" fill="none" width="62.6" height="13.1"/>
<text transform="matrix(1 0 0 1 608.883 366.5892)" fill="#FFFFFF" font-family="'AgencyFB-Reg'" font-size="10">RESPONSABILITE</text>
<rect x="696.2" y="358.9" fill="none" width="68.4" height="13.1"/>
<text transform="matrix(1 0 0 1 696.2158 366.5892)" fill="#FFFFFF" font-family="'AgencyFB-Reg'" font-size="10">RECONNAISSANCE</text>
<rect x="551.3" y="406.7" fill="none" width="41.4" height="35.7"/>
<text transform="matrix(1 0 0 1 551.2557 414.2987)"><tspan x="0" y="0" fill="#FFFFFF" font-family="'AgencyFB-Reg'" font-size="10">RESISTANCE</tspan><tspan x="0" y="12" fill="#FFFFFF" font-family="'AgencyFB-Reg'" font-size="10">AU</tspan><tspan x="0" y="24" fill="#FFFFFF" font-family="'AgencyFB-Reg'" font-size="10">STRESS</tspan></text>
<rect x="769" y="410.5" fill="none" width="36.7" height="13.1"/>
<text transform="matrix(1 0 0 1 768.9648 418.1395)" fill="#FFFFFF" font-family="'AgencyFB-Reg'" font-size="10">PATIENCE</text>
<rect x="762.3" y="502.2" fill="none" width="36.7" height="13.1"/>
<text transform="matrix(1 0 0 1 762.2558 509.796)" fill="#FFFFFF" font-family="'AgencyFB-Reg'" font-size="10">AUTONOMIE</text>
<rect x="700.6" y="553.6" fill="none" width="43.4" height="26.5"/>
<text transform="matrix(1 0 0 1 700.6464 561.2772)"><tspan x="0" y="0" fill="#FFFFFF" font-family="'AgencyFB-Reg'" font-size="10">RESPECT DU </tspan><tspan x="0" y="12" fill="#FFFFFF" font-family="'AgencyFB-Reg'" font-size="10">PLANNING</tspan></text>
<rect x="618.9" y="553.6" fill="none" width="43.4" height="26.5"/>
<text transform="matrix(1 0 0 1 618.88 561.2772)"><tspan x="0" y="0" fill="#FFFFFF" font-family="'AgencyFB-Reg'" font-size="10">GESTION DES</tspan><tspan x="0" y="12" fill="#FFFFFF" font-family="'AgencyFB-Reg'" font-size="10">RESSOURCES</tspan></text>
<rect x="551.6" y="483.4" fill="none" width="43.4" height="34.1"/>
<text transform="matrix(1 0 0 1 551.6321 490.9926)"><tspan x="0" y="0" fill="#FFFFFF" font-family="'AgencyFB-Reg'" font-size="10">ORGANISA°</tspan><tspan x="0" y="12" fill="#FFFFFF" font-family="'AgencyFB-Reg'" font-size="10">DU</tspan><tspan x="0" y="24" fill="#FFFFFF" font-family="'AgencyFB-Reg'" font-size="10">TRAVAIL</tspan></text>
<rect x="493.3" y="482.5" fill="none" width="34.1" height="26.2"/>
<text transform="matrix(1 0 0 1 493.2949 490.1438)"><tspan x="0" y="0" fill="#FFFFFF" font-family="'AgencyFB-Reg'" font-size="10">AFTER </tspan><tspan x="0" y="12" fill="#FFFFFF" font-family="'AgencyFB-Reg'" font-size="10">EFFECTS</tspan></text>
<rect x="424.8" y="553.8" fill="none" width="36.7" height="13.1"/>
<text transform="matrix(1 0 0 1 424.7821 561.4293)" fill="#FFFFFF" font-family="'AgencyFB-Reg'" font-size="10">3DS MAX</text>
<rect x="273.6" y="419.9" fill="none" width="45.7" height="13.1"/>
<text transform="matrix(1 0 0 1 273.6409 427.4938)" fill="#FFFFFF" font-family="'AgencyFB-Reg'" font-size="10">INDESIGN</text>
<rect x="265.6" y="489.1" fill="none" width="45.7" height="13.1"/>
<text transform="matrix(1 0 0 1 265.6409 496.6909)" fill="#FFFFFF" font-family="'AgencyFB-Reg'" font-size="10">LIGHTROOM</text>
<rect x="349.2" y="553.8" fill="none" width="32.9" height="13.1"/>
<text transform="matrix(1 0 0 1 349.1936 561.4293)" fill="#FFFFFF" font-family="'AgencyFB-Reg'" font-size="10">GLYPHS</text>
<rect x="493.3" y="419.9" fill="none" width="37.1" height="13.1"/>
<text transform="matrix(1 0 0 1 493.2949 427.5045)" fill="#FFFFFF" font-family="'AgencyFB-Reg'" font-size="10">SKETCH</text>
<rect x="64.2" y="553.8" fill="none" width="32.6" height="26.2"/>
<text transform="matrix(1 0 0 1 64.1929 561.4509)"><tspan x="0" y="0" fill="#FFFFFF" font-family="'AgencyFB-Reg'" font-size="10">EDGE </tspan><tspan x="0" y="12" fill="#FFFFFF" font-family="'AgencyFB-Reg'" font-size="10">ANIMATE</tspan></text>
<rect x="11.6" y="490.1" fill="none" width="17.4" height="13.1"/>
<text transform="matrix(1 0 0 1 11.5888 497.7017)" fill="#FFFFFF" font-family="'AgencyFB-Reg'" font-size="10">PHP</text>
<rect x="212.6" y="419.9" fill="none" width="25.7" height="13.1"/>
<text transform="matrix(1 0 0 1 212.6496 427.5045)" fill="#FFFFFF" font-family="'AgencyFB-Reg'" font-size="10">SQL</text>
</svg>
