<?xml version="1.0" encoding="utf-8"?>
<!-- Generator: Adobe Illustrator 16.0.0, SVG Export Plug-In . SVG Version: 6.00 Build 0)  -->
<!DOCTYPE svg PUBLIC "-//W3C//DTD SVG 1.1//EN" "http://www.w3.org/Graphics/SVG/1.1/DTD/svg11.dtd">
<svg version="1.1" id="Calque_1" xmlns="http://www.w3.org/2000/svg" xmlns:xlink="http://www.w3.org/1999/xlink" x="0px" y="0px"
	 width="800px" height="600px" viewBox="0 0 800 600" enable-background="new 0 0 800 600" xml:space="preserve">
<circle fill="#FFFFFF" stroke="#000000" stroke-miterlimit="10" cx="119" cy="300" r="20.194"/>
<g>
	<polygon points="83.515,387.466 257.782,177.935 258.804,179.112 198.999,216.372 139.104,253.486 79.044,290.333 48.964,308.675 
		18.821,326.916 18.716,326.746 48.478,307.89 78.302,289.134 138.052,251.786 197.967,214.705 257.972,177.77 262.14,175.204 
		258.994,178.948 83.668,387.595 	"/>
</g>
<rect x="270.734" y="155.482" fill="none" width="107.144" height="17.355"/>
<text transform="matrix(1 0 0 1 311.5508 354.7539)" font-family="'IrisUPC'" font-size="26">Coordonnées</text>
<rect x="311.551" y="218.865" fill="none" width="107.145" height="17.355"/>
<text transform="matrix(1 0 0 1 311.5508 231.3184)" font-family="'IrisUPC'" font-size="26">Compétences</text>
<rect x="328.306" y="280.607" fill="none" width="125.511" height="17.355"/>
<text transform="matrix(1 0 0 1 328.3057 293.0605)" font-family="'IrisUPC'" font-size="26">Florian BENOIST</text>
<rect x="318.551" y="343.076" fill="none" width="125.511" height="17.354"/>
<text transform="matrix(1 0 0 1 280.9385 167.9355)" font-family="'IrisUPC'" font-size="26">Localisation</text>
<rect x="280.938" y="406.502" fill="none" width="125.511" height="17.355"/>
<text transform="matrix(1 0 0 1 280.9385 418.9561)" font-family="'IrisUPC'" font-size="26">Contact</text>
<g>
	<polygon points="258.388,178.441 119.986,301.131 118.014,298.87 	"/>
</g>
<g>
	<polygon points="18.769,326.831 118.612,298.551 119.388,301.449 	"/>
</g>
<g>
	<polygon points="83.592,387.53 117.609,299.438 120.391,300.563 	"/>
</g>
<g>
	
		<image overflow="visible" enable-background="new    " width="13" height="343" xlink:href="E6EF717F.png"  transform="matrix(1 0 0 1 485 115.9995)">
	</image>
	<g>
		<line fill="none" stroke="#000000" stroke-miterlimit="10" x1="489.5" y1="122" x2="489.5" y2="453"/>
	</g>
</g>
</svg>
