<?xml version="1.0" encoding="UTF-8" standalone="no"?>
<!-- Generator: Adobe Illustrator 16.0.0, SVG Export Plug-In . SVG Version: 6.00 Build 0)  -->

<svg
   xmlns:dc="http://purl.org/dc/elements/1.1/"
   xmlns:cc="http://creativecommons.org/ns#"
   xmlns:rdf="http://www.w3.org/1999/02/22-rdf-syntax-ns#"
   xmlns:svg="http://www.w3.org/2000/svg"
   xmlns="http://www.w3.org/2000/svg"
   xmlns:sodipodi="http://sodipodi.sourceforge.net/DTD/sodipodi-0.dtd"
   xmlns:inkscape="http://www.inkscape.org/namespaces/inkscape"
   version="1.1"
   id="Calque_1"
   x="0px"
   y="0px"
   width="800px"
   height="600px"
   viewBox="0 0 800 600"
   enable-background="new 0 0 800 600"
   xml:space="preserve"
   inkscape:version="0.48.5 r10040"
   sodipodi:docname="benoistflorianSVG.svg"><metadata
   id="metadata53"><rdf:RDF><cc:Work
       rdf:about=""><dc:format>image/svg+xml</dc:format><dc:type
         rdf:resource="http://purl.org/dc/dcmitype/StillImage" /></cc:Work></rdf:RDF></metadata><defs
   id="defs51" /><sodipodi:namedview
   pagecolor="#ffffff"
   bordercolor="#666666"
   borderopacity="1"
   objecttolerance="10"
   gridtolerance="10"
   guidetolerance="10"
   inkscape:pageopacity="0"
   inkscape:pageshadow="2"
   inkscape:window-width="640"
   inkscape:window-height="480"
   id="namedview49"
   showgrid="false"
   inkscape:zoom="0.39333333"
   inkscape:cx="400"
   inkscape:cy="300"
   inkscape:window-x="0"
   inkscape:window-y="0"
   inkscape:window-maximized="0"
   inkscape:current-layer="Calque_1" />
<circle
   fill="#FFFFFF"
   stroke="#000000"
   stroke-miterlimit="10"
   cx="119"
   cy="300"
   r="20.194"
   id="circle3" />
<g
   id="g5">
	<polygon
   points="83.515,387.466 257.782,177.935 258.804,179.112 198.999,216.372 139.104,253.486 79.044,290.333 48.964,308.675    18.821,326.916 18.716,326.746 48.478,307.89 78.302,289.134 138.052,251.786 197.967,214.705 257.972,177.77 262.14,175.204    258.994,178.948 83.668,387.595  "
   id="polygon7" />
</g>
<rect
   x="270.734"
   y="155.482"
   fill="none"
   width="107.144"
   height="17.355"
   id="rect9" />
<text
   transform="matrix(1 0 0 1 311.5508 354.7539)"
   font-family="'IrisUPC'"
   font-size="26"
   id="text11">Coordonnées</text>

<rect
   x="311.551"
   y="218.865"
   fill="none"
   width="107.145"
   height="17.355"
   id="rect13" />
<text
   transform="matrix(1 0 0 1 311.5508 231.3184)"
   font-family="'IrisUPC'"
   font-size="26"
   id="text15">Compétences</text>

<rect
   x="328.306"
   y="280.607"
   fill="none"
   width="125.511"
   height="17.355"
   id="rect17" />
<text
   transform="matrix(1 0 0 1 328.3057 293.0605)"
   font-family="'IrisUPC'"
   font-size="26"
   id="text19">Florian BENOIST</text>

<rect
   x="318.551"
   y="343.076"
   fill="none"
   width="125.511"
   height="17.354"
   id="rect21" />
<text
   transform="matrix(1 0 0 1 280.9385 167.9355)"
   font-family="'IrisUPC'"
   font-size="26"
   id="text23">Localisation</text>

<rect
   x="280.938"
   y="406.502"
   fill="none"
   width="125.511"
   height="17.355"
   id="rect25" />
<text
   transform="matrix(1 0 0 1 280.9385 418.9561)"
   font-family="'IrisUPC'"
   font-size="26"
   id="text27">Contact</text>

<g
   id="g29">
	<polygon
   points="258.388,178.441 119.986,301.131 118.014,298.87  "
   id="polygon31" />
</g>
<g
   id="g33">
	<polygon
   points="18.769,326.831 118.612,298.551 119.388,301.449  "
   id="polygon35" />
</g>
<g
   id="g37">
	<polygon
   points="83.592,387.53 117.609,299.438 120.391,300.563  "
   id="polygon39" />
</g>

</svg>