<?xml version="1.0" encoding="utf-8"?>
<!-- Generator: Adobe Illustrator 15.0.0, SVG Export Plug-In . SVG Version: 6.00 Build 0)  -->
<!DOCTYPE svg PUBLIC "-//W3C//DTD SVG 1.1//EN" "http://www.w3.org/Graphics/SVG/1.1/DTD/svg11.dtd">
<svg version="1.1" xmlns="http://www.w3.org/2000/svg" xmlns:xlink="http://www.w3.org/1999/xlink" x="0px" y="0px" width="800px"
	 height="600px" viewBox="0 0 800 600" enable-background="new 0 0 800 600" xml:space="preserve">
<g id="Layer_1">
	<rect opacity="0.2" fill="#36A9E1" width="800" height="600"/>
</g>
<g id="Layer_2">
	<g display="none">
		<path display="inline" fill="none" stroke="#1D71B8" stroke-miterlimit="10" d="M503.5,492.225
			c0,6.503-5.337,11.775-11.922,11.775H389.422c-6.584,0-11.922-5.272-11.922-11.775v-61.949c0-6.504,5.338-11.775,11.922-11.775
			h102.156c6.585,0,11.922,5.271,11.922,11.775V492.225z"/>
		
			<ellipse display="inline" fill="none" stroke="#1D71B8" stroke-miterlimit="10" cx="408.955" cy="386.834" rx="31.455" ry="31.334"/>
		
			<ellipse display="inline" fill="none" stroke="#1D71B8" stroke-miterlimit="10" cx="471.955" cy="386.834" rx="31.455" ry="31.334"/>
		<polyline display="inline" fill="none" stroke="#1D71B8" stroke-miterlimit="10" points="377.5,436.333 341.667,418.667 
			341.667,504.001 377.5,486 		"/>
	</g>
	<g>
		<g>
			<path fill="#FFFFFF" stroke="#1D71B8" stroke-width="3" stroke-miterlimit="10" d="M163.351,358.686
				c0,4.194-3.4,7.595-7.595,7.595H79.595c-4.195,0-7.595-3.4-7.595-7.595V253.814c0-4.195,3.4-7.595,7.595-7.595h76.161
				c4.195,0,7.595,3.4,7.595,7.595V358.686z"/>
			<line fill="#FFFFFF" stroke="#1D71B8" stroke-miterlimit="10" x1="89.292" y1="269.057" x2="146.06" y2="269.057"/>
			<line fill="#FFFFFF" stroke="#1D71B8" stroke-miterlimit="10" x1="89.292" y1="337.414" x2="146.06" y2="337.414"/>
			<line fill="#FFFFFF" stroke="#1D71B8" stroke-miterlimit="10" x1="89.292" y1="286.146" x2="146.06" y2="286.146"/>
			<line fill="#FFFFFF" stroke="#1D71B8" stroke-miterlimit="10" x1="89.292" y1="303.235" x2="146.06" y2="303.235"/>
			<line fill="#FFFFFF" stroke="#1D71B8" stroke-miterlimit="10" x1="89.292" y1="320.324" x2="146.06" y2="320.324"/>
		</g>
		<g>
			<path fill="#FFFFFF" stroke="#1D71B8" stroke-width="3" stroke-miterlimit="10" d="M179.868,371.459
				c-1.705,3.832-6.194,5.557-10.027,3.852l-69.585-30.956c-3.833-1.705-5.557-6.194-3.852-10.026l42.626-95.818
				c1.705-3.833,6.194-5.557,10.027-3.852l69.585,30.956c3.833,1.705,5.557,6.194,3.852,10.027L179.868,371.459z"/>
			<line fill="#FFFFFF" stroke="#1D71B8" stroke-miterlimit="10" x1="148.633" y1="259.465" x2="200.5" y2="282.539"/>
			<line fill="#FFFFFF" stroke="#1D71B8" stroke-miterlimit="10" x1="120.849" y1="321.921" x2="172.716" y2="344.995"/>
			<line fill="#FFFFFF" stroke="#1D71B8" stroke-miterlimit="10" x1="141.687" y1="275.079" x2="193.554" y2="298.153"/>
			<line fill="#FFFFFF" stroke="#1D71B8" stroke-miterlimit="10" x1="134.741" y1="290.693" x2="186.608" y2="313.767"/>
			<line fill="#FFFFFF" stroke="#1D71B8" stroke-miterlimit="10" x1="127.795" y1="306.307" x2="179.662" y2="329.381"/>
		</g>
	</g>
	<g>
		<path fill="#FFFFFF" stroke="#1D71B8" stroke-width="3" stroke-miterlimit="10" d="M720,331.785c0,3.871-3.588,7.008-8.013,7.008
			H583.765c-4.424,0-8.014-3.137-8.014-7.008v-81.776c0-3.871,3.59-7.009,8.014-7.009h128.223c4.425,0,8.013,3.138,8.013,7.009
			V331.785z"/>
		<path fill="#FFFFFF" stroke="#1D71B8" stroke-miterlimit="10" d="M714.194,327.268c0,3.404-3.299,6.167-7.369,6.167H588.927
			c-4.068,0-7.369-2.763-7.369-6.167v-71.96c0-3.406,3.301-6.167,7.369-6.167h117.898c4.07,0,7.369,2.761,7.369,6.167V327.268z"/>
		<path fill="#FFFFFF" stroke="#1D71B8" stroke-width="3" stroke-miterlimit="10" d="M635.74,342.629c0,0-15.374,9.044-6.33,9.044
			s28.488,0,37.079,0c8.59,0-6.332-9.044-6.332-9.044"/>
		
			<rect x="635.818" y="339.061" fill="#FFFFFF" stroke="#1D71B8" stroke-width="3" stroke-miterlimit="10" width="24.116" height="3.484"/>
		<line fill="#FFFFFF" stroke="#1D71B8" stroke-miterlimit="10" x1="593.614" y1="260.863" x2="702.136" y2="260.863"/>
		<line fill="#FFFFFF" stroke="#1D71B8" stroke-miterlimit="10" x1="593.614" y1="272.922" x2="702.136" y2="272.922"/>
		<line fill="#FFFFFF" stroke="#1D71B8" stroke-miterlimit="10" x1="593.614" y1="284.979" x2="702.136" y2="284.979"/>
		<line fill="#FFFFFF" stroke="#1D71B8" stroke-miterlimit="10" x1="593.614" y1="297.037" x2="702.136" y2="297.037"/>
		<line fill="#FFFFFF" stroke="#1D71B8" stroke-miterlimit="10" x1="593.614" y1="309.095" x2="702.136" y2="309.095"/>
		<line fill="#FFFFFF" stroke="#1D71B8" stroke-miterlimit="10" x1="593.614" y1="321.153" x2="702.136" y2="321.153"/>
	</g>
	<g display="none">
		<circle display="inline" fill="#FFFFFF" stroke="#1D71B8" stroke-width="3" stroke-miterlimit="10" cx="225" cy="378" r="72"/>
	</g>
	<g>
		<g>
			<g>
				<g>
					<path fill="#FFFFFF" d="M351.565,426.695c-0.163-1.088,0.583-2.166,1.659-2.396l36.35-7.788
						c1.076-0.23,2.089,0.471,2.252,1.559l7.014,46.846c0.163,1.088-0.583,2.166-1.659,2.396l-36.349,7.788
						c-1.076,0.23-2.089-0.471-2.252-1.559L351.565,426.695z"/>
					<path fill="none" stroke="#1E72B8" stroke-width="3" stroke-miterlimit="10" d="M351.565,426.695
						c-0.163-1.088,0.583-2.166,1.659-2.396l36.35-7.788c1.076-0.23,2.089,0.471,2.252,1.559l7.014,46.846
						c0.163,1.088-0.583,2.166-1.659,2.396l-36.349,7.788c-1.076,0.23-2.089-0.471-2.252-1.559L351.565,426.695z"/>
				</g>
				<g>
					<path fill="#FFFFFF" d="M433.248,414.464c-0.163-1.088-1.192-1.9-2.288-1.806l-37.037,3.201
						c-1.096,0.095-1.859,1.062-1.696,2.149l7.015,46.846c0.163,1.088,1.193,1.9,2.289,1.806l37.036-3.201
						c1.096-0.095,1.859-1.062,1.696-2.149L433.248,414.464z"/>
					<path fill="none" stroke="#1E72B8" stroke-width="3" stroke-miterlimit="10" d="M433.248,414.464
						c-0.163-1.088-1.192-1.9-2.288-1.806l-37.037,3.201c-1.096,0.095-1.859,1.062-1.696,2.149l7.015,46.846
						c0.163,1.088,1.193,1.9,2.289,1.806l37.036-3.201c1.096-0.095,1.859-1.062,1.696-2.149L433.248,414.464z"/>
				</g>
				<line fill="#FFFFFF" stroke="#1E72B8" stroke-miterlimit="10" x1="360.03" y1="442.912" x2="387.707" y2="437.236"/>
				<line fill="#FFFFFF" stroke="#1E72B8" stroke-miterlimit="10" x1="361.063" y1="447.945" x2="388.739" y2="442.268"/>
				<line fill="#FFFFFF" stroke="#1E72B8" stroke-miterlimit="10" x1="364.158" y1="463.041" x2="391.834" y2="457.365"/>
				<line fill="#FFFFFF" stroke="#1E72B8" stroke-miterlimit="10" x1="359" y1="437.88" x2="386.676" y2="432.205"/>
				<line fill="#FFFFFF" stroke="#1E72B8" stroke-miterlimit="10" x1="363.127" y1="458.008" x2="390.804" y2="452.333"/>
				<line fill="#FFFFFF" stroke="#1E72B8" stroke-miterlimit="10" x1="362.095" y1="452.977" x2="389.771" y2="447.302"/>
				<line fill="#FFFFFF" stroke="#1E72B8" stroke-miterlimit="10" x1="357.968" y1="432.848" x2="385.645" y2="427.172"/>
				<line fill="#FFFFFF" stroke="#1E72B8" stroke-miterlimit="10" x1="427.874" y1="432.942" x2="399.75" y2="435.622"/>
				<line fill="#FFFFFF" stroke="#1E72B8" stroke-miterlimit="10" x1="428.361" y1="438.055" x2="400.237" y2="440.736"/>
				<line fill="#FFFFFF" stroke="#1E72B8" stroke-miterlimit="10" x1="429.823" y1="453.396" x2="401.699" y2="456.076"/>
				<line fill="#FFFFFF" stroke="#1E72B8" stroke-miterlimit="10" x1="427.387" y1="427.828" x2="399.263" y2="430.508"/>
				<line fill="#FFFFFF" stroke="#1E72B8" stroke-miterlimit="10" x1="429.336" y1="448.282" x2="401.212" y2="450.963"/>
				<line fill="#FFFFFF" stroke="#1E72B8" stroke-miterlimit="10" x1="428.849" y1="443.169" x2="400.725" y2="445.849"/>
				<line fill="#FFFFFF" stroke="#1E72B8" stroke-miterlimit="10" x1="426.899" y1="422.714" x2="398.775" y2="425.395"/>
			</g>
			<g>
				<path fill="#FFFFFF" stroke="#1E72B8" stroke-width="2" stroke-miterlimit="10" d="M443.283,410.021
					c0.422-0.57,1.226-0.691,1.796-0.269l0,0c0.569,0.421,0.69,1.226,0.269,1.795l-13.743,18.586
					c-0.422,0.57-1.227,0.691-1.797,0.27l0,0c-0.569-0.422-0.69-1.227-0.269-1.797L443.283,410.021z"/>
				<g>
					<path fill="#FFFFFF" stroke="#1E72B8" stroke-width="2" stroke-miterlimit="10" d="M428.566,429.92
						c0,0,0.269,1.796,2.065,1.527"/>
					
						<line fill="#FFFFFF" stroke="#1E72B8" stroke-width="2" stroke-miterlimit="10" x1="430.632" y1="431.447" x2="428.071" y2="432.749"/>
					
						<line fill="#FFFFFF" stroke="#1E72B8" stroke-width="2" stroke-miterlimit="10" x1="428.071" y1="432.749" x2="428.566" y2="429.92"/>
				</g>
			</g>
		</g>
		<g>
			<g>
				
					<ellipse transform="matrix(0.7071 0.7071 -0.7071 0.7071 439.6855 -114.5141)" fill="#FFFFFF" stroke="#1E72B8" stroke-width="3" stroke-miterlimit="10" cx="358.074" cy="473.494" rx="33.646" ry="22.499"/>
				
					<ellipse transform="matrix(0.7071 0.7071 -0.7071 0.7071 439.8475 -114.5306)" fill="#FFFFFF" stroke="#1E72B8" stroke-miterlimit="10" cx="358.171" cy="473.665" rx="31.028" ry="19.74"/>
				<path fill="#FFFFFF" stroke="#1E72B8" stroke-miterlimit="10" d="M389.967,505.389"/>
				<path fill="#FFFFFF" stroke="#1E72B8" stroke-width="3" stroke-miterlimit="10" d="M386.145,489.571
					c0,0,4.075,12.154,13.686,21.763"/>
				<path fill="#FFFFFF" stroke="#1E72B8" stroke-miterlimit="10" d="M385.077,492.701c0,0,4.29,11.043,13.369,20.121"/>
				<path fill="#FFFFFF" stroke="#1E72B8" stroke-miterlimit="10" d="M377.28,500.496c0,0,11.043,4.289,20.122,13.367"/>
				<path fill="#FFFFFF" stroke="#1E72B8" stroke-width="3" stroke-miterlimit="10" d="M374.15,501.566
					c0,0,12.176,4.096,21.811,13.729"/>
				<g>
					<path fill="#FFFFFF" d="M428.505,546.104c-0.777,0.777-2.051,0.777-2.828,0l-28.894-28.895c-0.778-0.777-0.778-2.051,0-2.828
						l2.18-2.18c0.778-0.777,2.051-0.777,2.828,0l28.895,28.896c0.777,0.777,0.777,2.051,0,2.828L428.505,546.104z"/>
					<path fill="none" stroke="#1E72B8" stroke-width="3" stroke-miterlimit="10" d="M428.505,546.104
						c-0.777,0.777-2.051,0.777-2.828,0l-28.894-28.895c-0.778-0.777-0.778-2.051,0-2.828l2.18-2.18
						c0.778-0.777,2.051-0.777,2.828,0l28.895,28.896c0.777,0.777,0.777,2.051,0,2.828L428.505,546.104z"/>
				</g>
			</g>
			<g>
				<path fill="#FFFFFF" stroke="#1E72B8" stroke-width="3" stroke-miterlimit="10" d="M356.451,455.769
					c0,1.21-0.485,2.32-1.265,3.125c-0.82,0.85-1.965,1.375-3.235,1.375s-2.415-0.525-3.235-1.375
					c-0.78-0.805-1.265-1.915-1.265-3.125s0.485-2.32,1.265-3.125c0.82-0.85,1.965-1.375,3.235-1.375s2.415,0.525,3.235,1.375
					C355.966,453.448,356.451,454.559,356.451,455.769z"/>
				<path fill="#FFFFFF" stroke="#1E72B8" stroke-miterlimit="10" d="M355.187,452.644c-0.82,0.85-1.965,1.375-3.235,1.375
					s-2.415-0.525-3.235-1.375c0.82-0.85,1.965-1.375,3.235-1.375S354.366,451.794,355.187,452.644z"/>
				<path fill="#FFFFFF" stroke="#1E72B8" stroke-miterlimit="10" d="M355.187,458.894c-0.82,0.85-1.965,1.375-3.235,1.375
					s-2.415-0.525-3.235-1.375c0.82-0.85,1.965-1.375,3.235-1.375S354.366,458.044,355.187,458.894z"/>
			</g>
		</g>
		<g>
			
				<ellipse fill="#FFFFFF" stroke="#1D71B8" stroke-width="3" stroke-miterlimit="10" cx="339.133" cy="522.098" rx="4.713" ry="3.771"/>
			
				<rect x="340.004" y="514.559" fill="#FFFFFF" stroke="#1D71B8" stroke-width="3" stroke-miterlimit="10" width="11.309" height="0.012"/>
			<circle fill="#FFFFFF" stroke="#1D71B8" stroke-width="3" stroke-miterlimit="10" cx="370.443" cy="537.387" r="15.289"/>
			<circle fill="#FFFFFF" stroke="#1D71B8" stroke-width="3" stroke-miterlimit="10" cx="370.443" cy="537.387" r="15.289"/>
			
				<ellipse fill="#FFFFFF" stroke="#1D71B8" stroke-width="3" stroke-miterlimit="10" cx="339.133" cy="522.098" rx="4.713" ry="3.771"/>
			
				<rect x="340.004" y="512.618" fill="#FFFFFF" stroke="#1D71B8" stroke-width="3" stroke-miterlimit="10" width="11.309" height="1.952"/>
			<circle fill="#FFFFFF" stroke="#1D71B8" stroke-miterlimit="10" cx="370.444" cy="537.387" r="11.519"/>
			<g>
				<path fill="#FFFFFF" d="M394.712,515.298c-1.022-0.407-2.758-0.739-3.858-0.739h-7.381c-1.1,0-2.402-0.805-2.895-1.789
					l-1.981-3.962c-0.492-0.984-1.794-1.789-2.895-1.789h-11.033c-1.1,0-2.407,0.803-2.904,1.784l-1.479,2.916
					c-0.498,0.981-1.023,2.021-1.168,2.313c-0.145,0.29-1.164,0.527-2.264,0.527h-3.541c-1.1,0-2,0.003-2,0.006s-0.9,0.006-2,0.006
					h-7.309c-1.1,0-2-0.003-2-0.006s-0.832-0.006-1.849-0.006c-1.018,0-2.686,0.332-3.708,0.739l-2.897,2.5
					c-0.495,0.982-0.899,2.687-0.899,3.786v31.605c0,1.1,0.405,2.804,0.899,3.786l2.897,2.5c1.022,0.406,2.758,0.739,3.858,0.739
					h52.548c1.1,0,2.836-0.333,3.858-0.739l2.897-2.5c0.494-0.982,0.899-2.687,0.899-3.786v-31.605c0-1.1-0.405-2.804-0.899-3.786
					L394.712,515.298z M339.133,525.868c-2.601,0-4.712-1.688-4.712-3.771c0-2.081,2.111-3.77,4.712-3.77s4.713,1.688,4.713,3.77
					C343.846,524.18,341.734,525.868,339.133,525.868z M370.444,552.676c-8.445,0-15.29-6.845-15.29-15.289
					s6.845-15.289,15.29-15.289c8.444,0,15.289,6.845,15.289,15.289S378.888,552.676,370.444,552.676z"/>
				<path fill="none" stroke="#1D71B8" stroke-width="3" stroke-miterlimit="10" d="M394.712,515.298
					c-1.022-0.407-2.758-0.739-3.858-0.739h-7.381c-1.1,0-2.402-0.805-2.895-1.789l-1.981-3.962
					c-0.492-0.984-1.794-1.789-2.895-1.789h-11.033c-1.1,0-2.407,0.803-2.904,1.784l-1.479,2.916
					c-0.498,0.981-1.023,2.021-1.168,2.313c-0.145,0.29-1.164,0.527-2.264,0.527h-3.541c-1.1,0-2,0.003-2,0.006s-0.9,0.006-2,0.006
					h-7.309c-1.1,0-2-0.003-2-0.006s-0.832-0.006-1.849-0.006c-1.018,0-2.686,0.332-3.708,0.739l-2.897,2.5
					c-0.495,0.982-0.899,2.687-0.899,3.786v31.605c0,1.1,0.405,2.804,0.899,3.786l2.897,2.5c1.022,0.406,2.758,0.739,3.858,0.739
					h52.548c1.1,0,2.836-0.333,3.858-0.739l2.897-2.5c0.494-0.982,0.899-2.687,0.899-3.786v-31.605c0-1.1-0.405-2.804-0.899-3.786
					L394.712,515.298z M339.133,525.868c-2.601,0-4.712-1.688-4.712-3.771c0-2.081,2.111-3.77,4.712-3.77s4.713,1.688,4.713,3.77
					C343.846,524.18,341.734,525.868,339.133,525.868z M370.444,552.676c-8.445,0-15.29-6.845-15.29-15.289
					s6.845-15.289,15.29-15.289c8.444,0,15.289,6.845,15.289,15.289S378.888,552.676,370.444,552.676z"/>
			</g>
		</g>
		<g>
			<path fill="#FFFFFF" stroke="#1D71B8" stroke-width="3" stroke-miterlimit="10" d="M423.1,484.099v30.835
				c0,3.156-1.977,5.853-4.758,6.909c-0.819,0.317-1.713,0.492-2.643,0.492c-4.087,0-7.401-3.31-7.401-7.401
				c0-4.086,3.314-7.4,7.401-7.4c0.93,0,1.823,0.175,2.643,0.491v-14.278H399.84v28.795c-0.164,3.24-2.426,5.931-5.461,6.73
				c-0.603,0.162-1.236,0.247-1.887,0.247c-4.065,0-7.359-3.293-7.359-7.358c0-1.273,0.328-2.474,0.899-3.521
				c1.247-2.289,3.674-3.838,6.46-3.838c0.65,0,1.284,0.085,1.887,0.249v-30.952H423.1z"/>
		</g>
		<path fill="#FFFFFF" stroke="#1D71B8" stroke-width="3" stroke-miterlimit="10" d="M469.776,476.577l0.706,4.235h-4.766
			l-6.353-9.529h-19.059l3.177,22.235h-4.766l-1.588-3.177l-11.117-19.059h-20.647c-2.633,0-4.765-2.132-4.765-4.765
			s2.132-4.765,4.765-4.765h20.647l11.117-19.059l1.588-3.177h4.766l-3.177,22.235h19.059l6.353-9.529h4.766l-0.706,4.235
			l-1.775,10.059L469.776,476.577z"/>
		<g>
			<path fill="#FFFFFF" stroke="#1E72B8" stroke-width="3" stroke-miterlimit="10" d="M490.402,545.478
				c0.59,3.076-1.566,6.074-4.811,6.696l-50.373,9.66c-3.247,0.622-6.357-1.365-6.947-4.442l-5.618-29.297
				c-0.589-3.074,1.564-6.073,4.812-6.696l50.372-9.659c3.245-0.623,6.358,1.367,6.946,4.44L490.402,545.478z"/>
			<path fill="#FFFFFF" stroke="#1E72B8" stroke-width="3" stroke-miterlimit="10" d="M423.203,530.96
				c0,0-21.388-16.001-17.67,3.389c3.719,19.391,0.847,4.414,4.505,23.49c3.657,19.073,17.669-3.389,17.669-3.389"/>
			<path fill="#FFFFFF" stroke="#1E72B8" stroke-width="3" stroke-miterlimit="10" d="M418.714,507.552
				c-1.569-8.186,4.101-16.151,12.669-17.794c8.564-1.643,16.783,3.659,18.353,11.845c1.569,8.184-4.104,16.147-12.669,17.79
				C428.497,521.035,420.283,515.734,418.714,507.552z"/>
			
				<ellipse transform="matrix(-0.9821 0.1883 -0.1883 -0.9821 1016.1654 900.6813)" fill="#FFFFFF" stroke="#1E72B8" stroke-width="3" stroke-miterlimit="10" cx="465.29" cy="498.62" rx="15.793" ry="15.09"/>
		</g>
	</g>
	<g display="none">
		<g display="inline">
			<path fill="#FFFFFF" d="M223.476,520.525c0.43,1.013,0.779,2.742,0.779,3.842V569.5c0,1.1-0.899,2-2,2h-3.189c-1.1,0-2-0.9-2-2
				v-45.211c0-1.1,0.354-2.828,0.784-3.84l2.024-4.746c0.431-1.012,1.135-1.011,1.563,0.002L223.476,520.525z"/>
			<path fill="none" stroke="#1E72B8" stroke-width="3" stroke-miterlimit="10" d="M223.476,520.525
				c0.43,1.013,0.779,2.742,0.779,3.842V569.5c0,1.1-0.899,2-2,2h-3.189c-1.1,0-2-0.9-2-2v-45.211c0-1.1,0.354-2.828,0.784-3.84
				l2.024-4.746c0.431-1.012,1.135-1.011,1.563,0.002L223.476,520.525z"/>
		</g>
		<g display="inline">
			<path fill="#FFFFFF" d="M220.273,512.949c0.212,0.503,0.032,1.742-0.398,2.754l-2.024,4.746c-0.431,1.012-1.138,2.668-1.569,3.68
				l-19.417,45.531c-0.432,1.012-1.685,1.84-2.784,1.84h-2.996c-1.101,0-1.65-0.829-1.221-1.842l23.604-55.78
				c0.428-1.013,1.679-1.842,2.779-1.842h1.643C218.988,512.036,220.062,512.447,220.273,512.949z"/>
			<path fill="none" stroke="#1E72B8" stroke-width="3" stroke-miterlimit="10" d="M220.273,512.949
				c0.212,0.503,0.032,1.742-0.398,2.754l-2.024,4.746c-0.431,1.012-1.138,2.668-1.569,3.68l-19.417,45.531
				c-0.432,1.012-1.685,1.84-2.784,1.84h-2.996c-1.101,0-1.65-0.829-1.221-1.842l23.604-55.78c0.428-1.013,1.679-1.842,2.779-1.842
				h1.643C218.988,512.036,220.062,512.447,220.273,512.949z"/>
		</g>
		<g display="inline">
			<path fill="#FFFFFF" d="M251.269,569.656c0.427,1.014-0.125,1.844-1.225,1.844h-2.996c-1.1,0-2.35-0.829-2.779-1.842
				l-19.234-45.449c-0.428-1.013-1.129-2.671-1.559-3.684l-2.039-4.82c-0.428-1.013-0.602-2.253-0.387-2.756
				c0.216-0.502,1.293-0.913,2.393-0.913h1.596c1.101,0,2.35,0.83,2.775,1.844L251.269,569.656z"/>
			<path fill="none" stroke="#1E72B8" stroke-width="3" stroke-miterlimit="10" d="M251.269,569.656
				c0.427,1.014-0.125,1.844-1.225,1.844h-2.996c-1.1,0-2.35-0.829-2.779-1.842l-19.234-45.449
				c-0.428-1.013-1.129-2.671-1.559-3.684l-2.039-4.82c-0.428-1.013-0.602-2.253-0.387-2.756c0.216-0.502,1.293-0.913,2.393-0.913
				h1.596c1.101,0,2.35,0.83,2.775,1.844L251.269,569.656z"/>
		</g>
		<g display="inline">
			<path fill="#FFFFFF" d="M228.863,505.375c1.101,0,2,0.9,2,2v2.661c0,1.1-0.899,2-2,2H212.07c-1.1,0-2-0.9-2-2v-2.661
				c0-1.1,0.9-2,2-2H228.863z"/>
			<path fill="none" stroke="#1E72B8" stroke-width="3" stroke-miterlimit="10" d="M228.863,505.375c1.101,0,2,0.9,2,2v2.661
				c0,1.1-0.899,2-2,2H212.07c-1.1,0-2-0.9-2-2v-2.661c0-1.1,0.9-2,2-2H228.863z"/>
		</g>
	</g>
	<g display="none">
		<g display="inline">
			<circle fill="none" stroke="#1D71B8" stroke-miterlimit="10" cx="399.024" cy="91.476" r="70.524"/>
			<circle fill="none" stroke="#1D71B8" stroke-miterlimit="10" cx="401.975" cy="91.476" r="70.525"/>
			<circle fill="none" stroke="#1D71B8" stroke-miterlimit="10" cx="401.975" cy="88.56" r="70.525"/>
			<circle fill="none" stroke="#1D71B8" stroke-miterlimit="10" cx="399.036" cy="88.56" r="70.524"/>
		</g>
		<g display="inline">
			<path fill="#1D71B8" d="M451.93,79.727c0,4.119-0.707,8.074-2.006,11.749c-3.715,10.515-12.277,18.739-23.004,21.982
				l-21.984-21.982h11.75c6.486,0,11.748-5.261,11.748-11.749c0-6.487-5.262-11.749-11.748-11.749h-35.246l-23.497-23.497h58.743
				c15.344,0,28.4,9.807,33.238,23.497C451.223,71.653,451.93,75.609,451.93,79.727z"/>
			<polygon fill="#1D71B8" points="438.256,138.423 405.005,138.423 357.943,91.43 391.197,91.43 419.639,119.832 			"/>
		</g>
	</g>
	<g>
		<g>
			<path fill="#1D71B8" d="M454.452,78.077c0,4.205-0.723,8.243-2.049,11.994c-3.791,10.735-12.533,19.131-23.484,22.443
				l-22.443-22.443h11.995c6.623,0,11.993-5.371,11.993-11.994c0-6.623-5.37-11.994-11.993-11.994h-35.983l-23.988-23.988h59.972
				c15.665,0,28.995,10.012,33.933,23.988C453.729,69.834,454.452,73.872,454.452,78.077z"/>
			<polygon fill="#1D71B8" points="440.493,138.001 406.546,138.001 358.499,90.024 392.45,90.024 421.485,119.021 			"/>
		</g>
		<circle fill="none" cx="400.499" cy="90" r="72"/>
		<text transform="matrix(0.1947 -0.9809 0.9809 0.1947 328.7578 81.5522)"><tspan x="0" y="0" fill="#1D71B8" font-family="'CenturyGothic'" font-size="12">W</tspan><tspan x="11.275" y="0.106" fill="#1D71B8" font-family="'CenturyGothic'" font-size="12" rotate="7.539">e</tspan><tspan x="18.801" y="1.08" fill="#1D71B8" font-family="'CenturyGothic'" font-size="12" rotate="13.768">b</tspan><tspan x="26.547" y="2.965" fill="#1D71B8" font-family="'CenturyGothic'" font-size="12" rotate="20.138">d</tspan><tspan x="34.052" y="5.717" fill="#1D71B8" font-family="'CenturyGothic'" font-size="12" rotate="26.312">e</tspan><tspan x="40.882" y="9.161" fill="#1D71B8" font-family="'CenturyGothic'" font-size="12" rotate="31.124">s</tspan><tspan x="44.771" y="11.537" fill="#1D71B8" font-family="'CenturyGothic'" font-size="12" rotate="33.835">i</tspan><tspan x="46.715" y="12.715" fill="#1D71B8" font-family="'CenturyGothic'" font-size="12" rotate="37.872">g</tspan><tspan x="52.923" y="17.554" fill="#1D71B8" font-family="'CenturyGothic'" font-size="12" rotate="43.803">n</tspan><tspan x="58.055" y="22.568" fill="#1D71B8" font-family="'CenturyGothic'" font-size="12" rotate="47.915">	</tspan><tspan x="7.214" y="144.199" fill="#1D71B8" font-family="'CenturyGothic'" font-size="12" rotate="-177.109">G</tspan><tspan x="-3.037" y="143.527" fill="#1D71B8" font-family="'CenturyGothic'" font-size="12" rotate="-171.619">r</tspan><tspan x="-6.467" y="143.12" fill="#1D71B8" font-family="'CenturyGothic'" font-size="12" rotate="-167.019">a</tspan><tspan x="-14.241" y="141.341" fill="#1D71B8" font-family="'CenturyGothic'" font-size="12" rotate="-160.663">p</tspan><tspan x="-21.762" y="138.688" fill="#1D71B8" font-family="'CenturyGothic'" font-size="12" rotate="-154.676">h</tspan><tspan x="-28.226" y="135.545" fill="#1D71B8" font-family="'CenturyGothic'" font-size="12" rotate="-150.927">i</tspan><tspan x="-30.276" y="134.437" fill="#1D71B8" font-family="'CenturyGothic'" font-size="12" rotate="-148.192">s</tspan><tspan x="-34.147" y="132.258" fill="#1D71B8" font-family="'CenturyGothic'" font-size="12" rotate="-142.086">m</tspan><tspan x="-42.774" y="125.418" fill="#1D71B8" font-family="'CenturyGothic'" font-size="12" rotate="-134.736">e</tspan></text>
	</g>
	<text transform="matrix(1 0 0 1 337.5 189)" fill="#1D71B8" font-family="'CenturyGothic'" font-size="14" letter-spacing="2">22 ans | Paris</text>
</g>
</svg>
