<?xml version="1.0" encoding="utf-8"?>
<!-- Generator: Adobe Illustrator 16.0.0, SVG Export Plug-In . SVG Version: 6.00 Build 0)  -->
<!DOCTYPE svg PUBLIC "-//W3C//DTD SVG 1.1//EN" "http://www.w3.org/Graphics/SVG/1.1/DTD/svg11.dtd">
<svg version="1.1" id="Layer_1" xmlns="http://www.w3.org/2000/svg" xmlns:xlink="http://www.w3.org/1999/xlink" x="0px" y="0px"
	 width="800px" height="600px" viewBox="0 0 800 600" enable-background="new 0 0 800 600" xml:space="preserve">
 
<defs>
<style type="text/css">
	   <![CDATA[
	    @font-face {
	        font-family: Simplifica;
	        src: url('fonts/simplifica.ttf');
	    }
		@font-face {
	        font-family: Sofia-Regular;
	        src: url('fonts/sofia.otf');
	    }
	   ]]>
	 </style>
</defs>

<g>
	<g>
		<path fill-rule="evenodd" clip-rule="evenodd" fill="#FFFFFF" d="M399.451,319.712c0-6.033,0-12.065,0-18.1
			c1.2,2.083,2.4,4.166,4.347,7.544c0-5.318-0.785-9.278,0.217-12.718c1.04-3.575,3.809-6.646,5.662-9.677
			c3.026,0.886,6.246,1.828,11.107,3.25c-0.68-4.707-0.084-9.083-1.865-10.526c-1.779-1.441-5.96,0.362-9.043,0.136
			c-1.624-0.119-4.205-1.246-4.526-2.417c-0.962-3.508-3.099-3.706-5.898-3.273c0-68.85,0-137.699,0-206.548
			c11.407,0,22.738,0,34.07,0c-0.751,3.592-1.502,7.183-2.067,9.891c5.711,6.854,16.143,4.143,20.476,10.846
			c1.555-0.831,3.376-1.667,5.044-2.74c1.35-0.868,3.422-1.89,3.596-3.076c0.587-4.009,3.646-4.93,6.526-6.042
			c3.316-1.28,6.74-2.311,10.18-3.214c0.627-0.164,1.553,0.807,2.635,1.421c-5.298,5.034-15.091,1.013-17.557,9.913
			c0.5,0.038,1,0.077,1.499,0.116c-0.265,2.986-0.529,5.972-0.729,8.236c8.896,8.01,17.607,15.853,26.303,23.683
			c1.194-2.436,1.57-4.797,2.883-5.573c3.584-2.118,4.199-5.014,1.565-8.311c-0.987-1.236-0.944-3.295-1.371-4.978
			c0.595-0.191,1.188-0.383,1.782-0.574c4.175,5.079,8.348,10.158,12.521,15.237c-0.621,1.187-2.019,2.614-1.737,3.521
			c1.815,5.875,3.997,11.636,6.058,17.433c0.557,0.006,1.112,0.013,1.67,0.019c0.196-1.455,0.663-2.938,0.518-4.357
			c-0.167-1.626-0.783-3.234-1.37-4.786c-1.537-4.067-3.163-8.1-4.754-12.145c-0.085-1.554,0.356-3.417-0.343-4.613
			c-4.006-6.845-7.839-13.863-12.585-20.18c-5.214-6.939-11.354-13.182-17.09-19.728c76.602,0,153.204,0,229.889,0
			c0,156.153,0,312.307,0,468.46c-12.356,0-24.769,0-37.181,0c0.064-1.292,0.129-2.583,0.229-4.552
			c1.764,1.528,2.967,2.57,4.398,3.811c0.491-1.661,0.834-2.819,1.245-4.212c2.225,1.403,4.394,2.773,6.982,4.407
			c1.075-2.076,1.971-3.807,3.388-6.544c-5.389,1.649-8.881,1.171-9.232-4.987c-1.435,1.591-2.233,2.477-3.402,3.773
			c-0.232-3.223-0.416-5.785-0.61-8.475c-1.813,0.136-3.149,0.235-3.363,0.251c-1.845-2.077-3.027-3.45-4.253-4.781
			c-4.545-4.939-12.558-6.021-14.893-13.526c-0.354-1.138-2.219-2.777-3.097-2.615c-4.547,0.836-5.87-3.223-8.411-5.234
			c-1.451-1.149-1.705-4.129-3.195-4.855c-7.634-3.726-15.416-7.191-23.327-10.28c-2.203-0.86-5.026-0.131-7.565-0.131
			c-0.263-0.594-0.525-1.188-0.787-1.782c2.817-1.974,5.395-4.867,8.516-5.688c3.916-1.03,8.318-0.074,12.42-0.635
			c0.987-0.136,2.188-2.854,2.235-4.415c0.037-1.271-1.501-2.591-2.236-3.729c-4.306,1.125-8.549,1.8-12.355,3.47
			c-1.279,0.563-5.593,0.392-3.696,4.355c-0.819,0.321-1.626,0.879-2.46,0.922c-2.919,0.153-6.658-1.019-8.627,0.375
			c-7.302,5.167-15.654,1.803-23.242,3.799c-0.81,0.213-2.127,0.266-2.581-0.209c-5.688-5.938-13.214-3.344-20.724-5.405
			c1.438,1.834,2.104,2.684,2.771,3.533c-5.51,3.854,1.227,4.151,1.891,6.196c0.632,1.948,1.909,3.688,2.902,5.519
			c-0.572,0.429-1.146,0.857-1.719,1.284c-2.326-1.302-4.651-2.604-6.978-3.907c-2.634,0.496-4.767-0.355-6.078-4.028
			c-0.426-1.195-1.689-2.283-2.836-2.992c-4.281-2.645-8.673-5.111-14.183-8.319c0,2.294-0.511,3.923,0.088,4.739
			c2.677,3.65,5.707,7.04,8.517,10.597c0.567,0.718,1.295,2.17,0.995,2.574c-2.591,3.485,0.574,6.001,1.277,8.909
			c0.861,3.566,1.707,7.137,2.559,10.706c-0.395,0.072-0.79,0.145-1.186,0.218c-3.45-7.196-6.9-14.393-10.351-21.59
			c-0.483,0.212-0.967,0.424-1.451,0.637c0,2.145,0,4.289,0,6.434c-0.366-0.225-0.732-0.448-1.098-0.672
			c-1.178,1.594-3.667,3.617-3.311,4.712c1.78,5.459,3.898,10.904,6.712,15.896c2.017,3.576,3.063,6.162-0.827,7.993
			c0.963,1.625,2.265,2.902,2.453,4.326c0.432,3.26,1.718,4.191,4.386,2.192c4.001-2.999,8.884-5.518,11.483-9.489
			c2.495-3.813,2.561-9.217,3.707-13.975c0.361,1.892,0.787,4.127,1.414,7.415c3.43-3.705,6.438-6.955,10.263-11.086
			c-0.105,7.259-3.385,11.436-7.406,15.201c-3.216,3.012-6.609,5.837-9.755,8.919c-3.717,3.642-7.241,7.478-10.882,11.199
			c-0.31,0.316-1.055,0.686-1.277,0.539c-4.009-2.612-4.335,1.663-6.104,3.212c-4.968,0-9.937,0-14.905,0
			c-1.105-2.702-2.211-5.404-3.317-8.106c-0.679,0.008-1.358,0.018-2.038,0.026c-0.699,2.693-1.397,5.387-2.097,8.08
			c-17.745,0-35.49,0-53.234,0c0-4.892,0-9.782,0-14.675c-0.199-0.015-0.398-0.029-0.598-0.043
			c-1.575,4.906-3.15,9.812-4.726,14.718c-1.774,0-3.55,0-5.324,0c3.763-5.684,4.597-13.757,0.728-18.686
			c-0.568,7.14,0.067,13.577-3.921,18.686c-12.776,0-25.553,0-38.329,0c0-38.683,0-77.367,0-116.05
			c1.038-1.748,2.076-3.496,3.206-5.399c2.061,1.164,3.934,2.223,5.825,3.291c1.618-1.716,3.05-3.234,3.878-4.112
			c3.753-1.008,6.515,4.586,9.85-0.097c0.146-0.205,1.852,0.237,2.251,0.795c0.504,0.701,0.766,1.953,0.493,2.747
			c-0.424,1.233-1.386,2.281-2.22,3.559c4.41,3.561,5.298,6.976-1.364,10.423c2.874,0.36,4.338,0.546,5.737,0.722
			c-2.851,7.437-5.628,14.686-8.408,21.939c-1.135-0.934-2.331-1.917-4.577-3.76c1.975,4.802,3.409,8.293,5.063,12.316
			c0.559-1.832,1.151-3.78,1.937-6.359c1.075,4.727,1.972,8.667,2.862,12.582c-0.101-0.019-1.095-0.201-2.384-0.438
			c1.797,5.291,3.411,10.045,5.532,16.289c0.505,1.032,1.729,3.149,2.572,5.409c0.482,1.29,0.348,2.812,0.504,4.352
			c6,2.787,5.396,8.781,4.197,15.06c3.053-0.307,5.662-0.567,9.127-0.915c-0.903,1.967-1.608,3.5-2.313,5.031
			c0.624,0.979,1.48,2.32,2.337,3.661c0.578,0.004,1.155,0.009,1.733,0.012c0.691-7.086,1.383-14.173,2.057-21.087
			c2.082,1.947,3.983,3.725,6.753,6.315c3.621-9.183,7.149-18.132,10.325-26.187c1.599-1.32,3.447-2.073,3.825-3.285
			c2.561-8.207,4.821-16.51,7.159-24.786c2.878-10.185,5.777-20.363,8.57-30.572c0.534-1.95,0.62-4.023,0.913-6.04
			c1.008,3.258,1.535,6.532,0.872,9.546c-0.791,3.59,0.236,8.03-3.934,10.498c-0.535,0.316-0.445,1.762-0.563,2.695
			c-0.613,4.855-0.823,9.799-1.873,14.557c-2.443,11.069-5.31,22.044-7.957,33.068c-0.849,3.53-1.59,7.087-2.278,10.651
			c-0.105,0.547,0.346,1.2,0.729,2.396c2.901-3.482,5.404-6.486,7.978-9.575c0.674,1.227,1.309,2.381,2.018,3.672
			c6.729-11.841,6.729-11.841,6.524-20.868c4.539-0.42,7.89-2.382,7.976-6.642c1.438,0.983,3.079,2.105,5.299,3.624
			c-2.176,0.994-3.557,1.626-5.098,2.33c0.88,1.111,1.803,2.275,2.959,3.735c-4.083,1.418-5.375,3.273-1.956,5.75
			c1.21-1.153,2.337-2.054,3.246-3.139c1.105-1.315,2.646-2.674,2.924-4.208c1.423-7.852,2.786-15.735,3.604-23.667
			c0.604-5.864,0.294-11.819,0.521-17.729c0.034-0.865,0.788-1.702,1.296-2.726c1.133,1.524,2.001,2.691,3.499,4.705
			c0.229-1.843,0.462-2.654,0.406-3.444c-0.83-11.702-1.711-23.401-2.552-35.103c-0.266-3.693-0.381-7.398-0.689-11.088
			c-0.256-3.057-1.302-6.188-0.868-9.118c0.379-2.558,2.333-4.882,4.231-8.543c0.623,6.705,2.082,11.673,1.291,16.252
			c-1.386,8.016,0.169,15.687,1.166,23.394c0.987,7.625,2.983,15.126,4.768,22.627c0.207,0.871,1.888,1.394,3.634,2.591
			c-0.902-7.126-1.66-13.118-2.514-19.867c2.048,0.795,3.179,1.233,3.904,1.515c0-3.838-0.365-7.865,0.08-11.801
			c0.792-7.002,3.087-14.009,2.685-20.894c-0.177-3.029,1.579-4.305,1.837-6.533c1.414-12.241,2.873-24.477,4.471-36.694
			c0.182-1.389,1.331-2.652,2.026-3.963c-0.594-0.176-1.274-0.378-0.593-0.176c0.39-4.024,0.693-7.161,1.015-10.474
			c3.754,5.186,6.109,36.642,3.527,41.434c1.264,1.007,3.578,2.199,3.435,2.839c-1.315,5.868,2.269,12.952-4.107,17.067
			c1.187,2.906,2.188,5.361,3.414,8.362c1.332-4.642,2.228-8.938,3.792-12.975c3.343-8.628-1.395-17.914,2.403-26.465
			c0.32-0.721,0.157-1.815-0.124-2.616c-0.978-2.779-2.606-5.422-3.071-8.268c-0.912-5.6-0.841-11.364-1.837-16.943
			c-2.321-13.003-4.923-25.96-7.689-38.877c-0.507-2.367-2.325-4.453-3.148-5.956c-0.32-2.22-0.528-5.707-0.87-5.72
			c-5.548-0.215-4.896-4.474-5.524-7.909c-1.007-5.492-2.018-10.982-3.026-16.474c-1.671,0.71-2.229,1.307-2.208,1.882
			c0.265,6.915,0.396,13.847,1.022,20.732c0.395,4.328,1.841,8.555,2.292,12.882c0.294,2.818-0.352,5.733-0.577,8.605
			c-0.736-0.062-1.473-0.122-2.209-0.183c0.068-1.097,0.206-2.196,0.189-3.292c-0.03-2.032,0.684-5.007-0.371-5.939
			c-5.989-5.29-6.446-12.499-7.552-19.496c-1.604-10.139-3.028-20.305-4.529-30.459c-1.923,3.95-2.558,7.895-3.42,11.79
			c-2.567,11.601-5.102,23.212-7.886,34.762c-2.217,9.201-4.618,18.363-7.239,27.457c-2.515,8.722-4.471,17.781-8.332,25.903
			c-10.114,21.272-28.221,34.885-47.86,46.537c-3.829,2.271-9.442,4.043-13.212,1.208c-5.199-3.911-11.654-6.082-15.936-11.294
			c-0.312-0.379-2.093,0.199-3.028,0.661c-0.742,0.366-1.236,1.235-1.841,1.883c0-4.613,0-9.229,0-13.842
			c5.544-0.036,10.98-0.805,14.591-5.468c1.449-1.872,2.328-4.729,2.188-7.062c-0.072-1.208-2.812-2.536-4.568-3.3
			c-3.035-1.319-6.244-2.241-9.38-3.329c0.087-0.644,0.174-1.286,0.261-1.93c15.207-6.3,30.526-11.93,47.791-7.463
			c2.861-6.125,2.861-6.125-4.791-9.832c-9.275,7.763-21.392,7.814-33.014,1.396c-4.349-2.4-6.455-1.172-7.988,2.207
			C402.698,320.617,401.075,320.165,399.451,319.712z M532.356,203.916c1.098,1.433,2.813,2.729,3.167,4.327
			c0.791,3.559,0.828,7.279,1.33,10.912c0.167,1.206,0.816,2.345,1.246,3.514c0.45-0.156,0.9-0.311,1.352-0.467
			c-1.118-7.065-2.236-14.13-3.547-22.405c-1.975,2.292-2.841,3.296-3.706,4.299c2.771-11.426,1.836-22.574-2.802-33.426
			c0.249,4.908,1.053,9.754,1.67,14.624c0.36,2.837,1.696,6.761,0.373,8.367C527.941,197.905,530.393,200.692,532.356,203.916z
			 M422.64,214.94c1.191,1.547,2.565,2.99,3.521,4.672c0.886,1.56,1.054,3.552,2.025,5.035c1.325,2.02,3.112,3.738,5.078,6.023
			c3.531,1.174,7.971,2.842,12.523,4.095c2.937,0.808,6.757,3.53,8.012-2.282c0.105-0.488,0.991-1.026,1.597-1.154
			c5.666-1.192,11.317-2.513,17.035-3.381c7.13-1.083,11.76-10.038,6.841-14.806c-5.259-5.099-11.558-9.624-19.024-11
			c-6.813-1.256-10.756-3.554-11.137-10.871c-9.311,0-18.643,0-27.975,0c-0.018,0.53-0.034,1.061-0.052,1.592
			c2.588,0.178,5.176,0.355,7.763,0.533c0.116,0.572,0.23,1.144,0.347,1.716c-2.33,0.804-4.661,1.607-6.991,2.411
			C416.246,203.278,421.737,209.657,422.64,214.94z M634.485,471.602c-4.459,0.699-8.28,1.215-12.052,1.978
			c-0.584,0.118-1.309,1.372-1.292,2.085c0.016,0.652,0.84,1.69,1.49,1.86c6.3,1.652,12.618,3.255,18.984,4.614
			c1.133,0.242,2.517-0.695,4.336-1.258c-2.734-2.983-5.104-5.566-7.629-8.32c-1.262,1.801-2.066,2.951-3.276,4.679
			C634.829,475.049,634.693,473.688,634.485,471.602z M509.705,226.083c0-11.227,0-20.996,0-31.277
			C504.824,199.3,504.377,220.447,509.705,226.083z M490.737,491.015c0.797,0.357,1.594,0.715,2.392,1.071
			c3.386-2.678,3.725-6.489,3.48-10.518c-0.465-0.197-0.931-0.394-1.396-0.59C493.721,484.324,492.229,487.67,490.737,491.015z"/>
		<path fill-rule="evenodd" clip-rule="evenodd" d="M399.451,369.753c0.604-0.647,1.099-1.517,1.841-1.883
			c0.936-0.462,2.717-1.04,3.028-0.661c4.281,5.212,10.736,7.383,15.936,11.294c3.77,2.835,9.383,1.063,13.212-1.208
			c19.64-11.652,37.746-25.265,47.86-46.537c3.861-8.122,5.817-17.182,8.332-25.903c2.621-9.094,5.022-18.256,7.239-27.457
			c2.784-11.55,5.318-23.161,7.886-34.762c0.862-3.895,1.497-7.84,3.42-11.79c1.501,10.154,2.926,20.32,4.529,30.459
			c1.105,6.997,1.563,14.206,7.552,19.496c1.055,0.932,0.341,3.907,0.371,5.939c0.017,1.096-0.121,2.195-0.189,3.292
			c0.736,0.062,1.473,0.122,2.209,0.183c0.226-2.872,0.871-5.787,0.577-8.605c-0.451-4.327-1.897-8.555-2.292-12.882
			c-0.627-6.885-0.758-13.817-1.022-20.732c-0.021-0.575,0.537-1.172,2.208-1.882c1.009,5.492,2.02,10.982,3.026,16.474
			c0.629,3.436-0.023,7.694,5.524,7.909c0.342,0.013,0.55,3.5,0.87,5.72c0.823,1.502,2.642,3.588,3.148,5.956
			c2.767,12.917,5.368,25.874,7.689,38.877c0.996,5.579,0.925,11.344,1.837,16.943c0.465,2.846,2.094,5.488,3.071,8.268
			c0.281,0.801,0.444,1.896,0.124,2.616c-3.798,8.551,0.939,17.837-2.403,26.465c-1.564,4.037-2.46,8.333-3.792,12.975
			c-1.226-3.001-2.228-5.456-3.414-8.362c6.376-4.115,2.792-11.199,4.107-17.067c0.144-0.64-2.171-1.832-3.435-2.839
			c2.582-4.792,0.227-36.248-3.527-41.434c-0.321,3.313-0.625,6.449-1.015,10.474c-0.682-0.202-0.001,0,0.593,0.176
			c-0.695,1.311-1.845,2.574-2.026,3.963c-1.598,12.218-3.057,24.453-4.471,36.694c-0.258,2.229-2.014,3.504-1.837,6.533
			c0.402,6.885-1.893,13.892-2.685,20.894c-0.445,3.936-0.08,7.963-0.08,11.801c-0.726-0.281-1.856-0.72-3.904-1.515
			c0.854,6.749,1.611,12.741,2.514,19.867c-1.746-1.197-3.427-1.72-3.634-2.591c-1.784-7.501-3.78-15.002-4.768-22.627
			c-0.997-7.707-2.552-15.378-1.166-23.394c0.791-4.579-0.668-9.547-1.291-16.252c-1.898,3.661-3.853,5.985-4.231,8.543
			c-0.434,2.931,0.612,6.062,0.868,9.118c0.309,3.689,0.424,7.395,0.689,11.088c0.841,11.701,1.722,23.4,2.552,35.103
			c0.056,0.79-0.178,1.602-0.406,3.444c-1.498-2.014-2.366-3.181-3.499-4.705c-0.508,1.023-1.262,1.86-1.296,2.726
			c-0.227,5.91,0.084,11.865-0.521,17.729c-0.818,7.932-2.182,15.815-3.604,23.667c-0.278,1.534-1.818,2.893-2.924,4.208
			c-0.909,1.085-2.036,1.985-3.246,3.139c-3.419-2.477-2.127-4.332,1.956-5.75c-1.156-1.46-2.079-2.624-2.959-3.735
			c1.541-0.704,2.922-1.336,5.098-2.33c-2.22-1.519-3.86-2.641-5.299-3.624c-0.086,4.26-3.437,6.222-7.976,6.642
			c0.204,9.027,0.204,9.027-6.524,20.868c-0.709-1.291-1.344-2.445-2.018-3.672c-2.573,3.089-5.076,6.093-7.978,9.575
			c-0.383-1.195-0.834-1.849-0.729-2.396c0.688-3.564,1.43-7.121,2.278-10.651c2.647-11.024,5.514-21.999,7.957-33.068
			c1.05-4.758,1.26-9.701,1.873-14.557c0.118-0.934,0.028-2.379,0.563-2.695c4.17-2.468,3.143-6.908,3.934-10.498
			c0.663-3.014,0.136-6.288-0.872-9.546c-0.293,2.017-0.379,4.09-0.913,6.04c-2.793,10.209-5.692,20.388-8.57,30.572
			c-2.338,8.276-4.599,16.579-7.159,24.786c-0.378,1.212-2.227,1.965-3.825,3.285c-3.176,8.055-6.704,17.004-10.325,26.187
			c-2.77-2.591-4.671-4.368-6.753-6.315c-0.674,6.914-1.365,14.001-2.057,21.087c-0.578-0.003-1.155-0.008-1.733-0.012
			c-0.856-1.341-1.713-2.683-2.337-3.661c0.704-1.531,1.409-3.064,2.313-5.031c-3.465,0.348-6.074,0.608-9.127,0.915
			c1.198-6.278,1.803-12.272-4.197-15.06c-0.156-1.54-0.021-3.062-0.504-4.352c-0.844-2.26-2.067-4.377-2.572-5.409
			c-2.121-6.244-3.735-10.998-5.532-16.289c1.289,0.236,2.283,0.419,2.384,0.438c-0.891-3.915-1.787-7.855-2.862-12.582
			c-0.785,2.579-1.378,4.527-1.937,6.359c-1.653-4.023-3.088-7.515-5.063-12.316c2.246,1.843,3.442,2.826,4.577,3.76
			c2.78-7.254,5.558-14.503,8.408-21.939c-1.399-0.176-2.863-0.361-5.737-0.722c6.662-3.447,5.774-6.862,1.364-10.423
			c0.834-1.277,1.796-2.325,2.22-3.559c0.272-0.794,0.011-2.046-0.493-2.747c-0.399-0.558-2.105-1-2.251-0.795
			c-3.335,4.683-6.097-0.911-9.85,0.097c-0.828,0.878-2.26,2.396-3.878,4.112c-1.892-1.068-3.765-2.127-5.825-3.291
			c-1.13,1.903-2.168,3.651-3.206,5.399C399.451,403.112,399.451,386.433,399.451,369.753z M497.37,371.321
			c0.431,0.19,0.86,0.381,1.29,0.571c3.011-6.87,6.022-13.739,9.034-20.608C503.058,353.031,502.026,355.362,497.37,371.321z
			 M484.902,408.224c0.62,0.211,1.24,0.422,1.86,0.633c2.23-8.335,4.462-16.67,6.693-25.005c-0.471-0.133-0.941-0.265-1.412-0.396
			C489.663,391.712,487.283,399.967,484.902,408.224z"/>
		<path fill-rule="evenodd" clip-rule="evenodd" d="M527.213,535.843c1.769-1.549,2.095-5.824,6.104-3.212
			c0.223,0.146,0.968-0.223,1.277-0.539c3.641-3.722,7.165-7.558,10.882-11.199c3.146-3.082,6.539-5.907,9.755-8.919
			c4.021-3.766,7.301-7.942,7.406-15.201c-3.824,4.131-6.833,7.381-10.263,11.086c-0.627-3.288-1.053-5.523-1.414-7.415
			c-1.146,4.758-1.212,10.161-3.707,13.975c-2.6,3.972-7.482,6.49-11.483,9.489c-2.668,1.999-3.954,1.067-4.386-2.192
			c-0.188-1.424-1.49-2.701-2.453-4.326c3.891-1.831,2.844-4.417,0.827-7.993c-2.813-4.992-4.932-10.438-6.712-15.896
			c-0.356-1.095,2.133-3.118,3.311-4.712c0.365,0.224,0.731,0.447,1.098,0.672c0-2.145,0-4.289,0-6.434
			c0.484-0.213,0.968-0.425,1.451-0.637c3.45,7.197,6.9,14.394,10.351,21.59c0.396-0.073,0.791-0.146,1.186-0.218
			c-0.852-3.569-1.697-7.14-2.559-10.706c-0.703-2.908-3.868-5.424-1.277-8.909c0.3-0.404-0.428-1.856-0.995-2.574
			c-2.81-3.557-5.84-6.946-8.517-10.597c-0.599-0.816-0.088-2.445-0.088-4.739c5.51,3.208,9.901,5.675,14.183,8.319
			c1.146,0.709,2.41,1.797,2.836,2.992c1.312,3.673,3.444,4.524,6.078,4.028c2.326,1.303,4.651,2.605,6.978,3.907
			c0.573-0.427,1.146-0.855,1.719-1.284c-0.993-1.831-2.271-3.57-2.902-5.519c-0.664-2.045-7.4-2.342-1.891-6.196
			c-0.666-0.85-1.332-1.699-2.771-3.533c7.51,2.062,15.035-0.533,20.724,5.405c0.454,0.475,1.771,0.422,2.581,0.209
			c7.588-1.996,15.94,1.368,23.242-3.799c1.969-1.394,5.708-0.222,8.627-0.375c0.834-0.043,1.641-0.601,2.46-0.922
			c-1.896-3.964,2.417-3.793,3.696-4.355c3.807-1.67,8.05-2.345,12.355-3.47c0.735,1.138,2.273,2.457,2.236,3.729
			c-0.047,1.562-1.248,4.279-2.235,4.415c-4.102,0.561-8.504-0.396-12.42,0.635c-3.121,0.82-5.698,3.714-8.516,5.688
			c0.262,0.594,0.524,1.188,0.787,1.782c2.539,0,5.362-0.729,7.565,0.131c7.911,3.089,15.693,6.555,23.327,10.28
			c1.49,0.727,1.744,3.706,3.195,4.855c2.541,2.012,3.864,6.07,8.411,5.234c0.878-0.162,2.743,1.478,3.097,2.615
			c2.335,7.505,10.348,8.587,14.893,13.526c1.226,1.331,2.408,2.704,4.253,4.781c0.214-0.016,1.55-0.115,3.363-0.251
			c0.194,2.689,0.378,5.252,0.61,8.475c1.169-1.297,1.968-2.183,3.402-3.773c0.352,6.158,3.844,6.637,9.232,4.987
			c-1.417,2.737-2.313,4.468-3.388,6.544c-2.589-1.634-4.758-3.004-6.982-4.407c-0.411,1.393-0.754,2.551-1.245,4.212
			c-1.432-1.24-2.635-2.282-4.398-3.811c-0.1,1.969-0.164,3.26-0.229,4.552C622.325,535.843,574.769,535.843,527.213,535.843z
			 M613.524,513.948c1.743-3.239,4.144-6.244,4.907-9.619c0.524-2.317-1.044-5.23-2.135-7.673c-0.181-0.404-3.269-0.306-4.06,0.498
			C609.319,500.122,610.281,510.04,613.524,513.948z M634.669,489.517c-2.714-0.489-4.481-0.809-5.701-1.029
			c-0.207,2.557-0.399,4.928-0.678,8.356C630.609,494.18,632.273,492.269,634.669,489.517z"/>
		<path fill-rule="evenodd" clip-rule="evenodd" d="M506.807,112.219c-4.174-5.079-8.347-10.158-12.521-15.237
			c-0.594,0.191-1.188,0.383-1.782,0.574c0.427,1.683,0.384,3.742,1.371,4.978c2.634,3.297,2.019,6.193-1.565,8.311
			c-1.313,0.776-1.688,3.137-2.883,5.573c-8.695-7.83-17.406-15.673-26.303-23.683c0.2-2.264,0.465-5.25,0.729-8.236
			c-0.499-0.04-0.999-0.078-1.499-0.116c2.466-8.9,12.259-4.879,17.557-9.913c-1.082-0.614-2.008-1.585-2.635-1.421
			c-3.439,0.903-6.863,1.934-10.18,3.214c-2.881,1.112-5.939,2.033-6.526,6.042c-0.174,1.186-2.246,2.208-3.596,3.076
			c-1.668,1.073-3.489,1.909-5.044,2.74c-4.333-6.703-14.765-3.992-20.476-10.846c0.565-2.708,1.316-6.299,2.067-9.891
			c14.55,0,29.102,0,43.651,0c5.736,6.546,11.876,12.789,17.09,19.728c4.746,6.317,8.579,13.335,12.585,20.18
			c0.699,1.196,0.258,3.059,0.343,4.613L506.807,112.219z"/>
		<path fill-rule="evenodd" clip-rule="evenodd" d="M399.451,319.712c1.624,0.453,3.247,0.905,5.09,1.419
			c1.533-3.379,3.64-4.607,7.988-2.207c11.622,6.419,23.738,6.367,33.014-1.396c7.652,3.707,7.652,3.707,4.791,9.832
			c-17.265-4.467-32.584,1.163-47.791,7.463c-0.087,0.644-0.174,1.286-0.261,1.93c3.136,1.088,6.345,2.01,9.38,3.329
			c1.757,0.764,4.496,2.092,4.568,3.3c0.14,2.332-0.739,5.189-2.188,7.062c-3.61,4.663-9.047,5.432-14.591,5.468
			C399.451,343.846,399.451,331.778,399.451,319.712z"/>
		<path fill-rule="evenodd" clip-rule="evenodd" d="M399.451,273.931c2.8-0.433,4.937-0.235,5.898,3.273
			c0.321,1.172,2.902,2.299,4.526,2.417c3.083,0.226,7.264-1.578,9.043-0.136c1.781,1.443,1.186,5.819,1.865,10.526
			c-4.861-1.422-8.081-2.365-11.107-3.25c-1.854,3.032-4.622,6.102-5.662,9.677c-1.002,3.439-0.217,7.399-0.217,12.718
			c-1.946-3.378-3.146-5.461-4.347-7.544C399.451,292.385,399.451,283.159,399.451,273.931z"/>
		<path fill-rule="evenodd" clip-rule="evenodd" d="M446.298,535.843c1.575-4.906,3.15-9.812,4.726-14.718
			c0.199,0.014,0.398,0.028,0.598,0.043c0,4.893,0,9.783,0,14.675C449.847,535.843,448.071,535.843,446.298,535.843z"/>
		<path fill-rule="evenodd" clip-rule="evenodd" d="M437.78,535.843c3.988-5.108,3.353-11.546,3.921-18.686
			c3.869,4.929,3.035,13.002-0.728,18.686C439.909,535.843,438.845,535.843,437.78,535.843z"/>
		<path fill-rule="evenodd" clip-rule="evenodd" d="M504.855,535.843c0.699-2.693,1.397-5.387,2.097-8.08
			c0.68-0.009,1.359-0.019,2.038-0.026c1.106,2.702,2.212,5.404,3.317,8.106C509.823,535.843,507.34,535.843,504.855,535.843z"/>
		<path fill-rule="evenodd" clip-rule="evenodd" d="M422.64,214.94c-0.902-5.283-6.394-11.662-0.438-17.418
			c2.33-0.804,4.661-1.607,6.991-2.411c-0.116-0.572-0.23-1.144-0.347-1.716c-2.587-0.178-5.175-0.355-7.763-0.533
			c0.018-0.531,0.034-1.062,0.052-1.592c9.332,0,18.664,0,27.975,0c0.381,7.317,4.324,9.615,11.137,10.871
			c7.467,1.377,13.766,5.902,19.024,11c4.919,4.768,0.289,13.722-6.841,14.806c-5.718,0.868-11.369,2.189-17.035,3.381
			c-0.605,0.128-1.491,0.667-1.597,1.154c-1.255,5.812-5.075,3.09-8.012,2.282c-4.553-1.253-8.992-2.921-12.523-4.095
			c-1.966-2.285-3.753-4.003-5.078-6.023c-0.972-1.483-1.14-3.475-2.025-5.035C425.205,217.93,423.831,216.487,422.64,214.94z
			 M461.407,223.547c0.638,0.677,1.274,1.354,1.911,2.03c1.579-1.311,3.158-2.621,4.737-3.932c-0.925-1.1-1.85-2.201-2.774-3.302
			C463.99,220.077,462.698,221.812,461.407,223.547z"/>
		<path fill-rule="evenodd" clip-rule="evenodd" d="M634.485,471.602c0.208,2.086,0.344,3.447,0.562,5.638
			c1.21-1.728,2.015-2.878,3.276-4.679c2.525,2.754,4.895,5.337,7.629,8.32c-1.819,0.563-3.203,1.5-4.336,1.258
			c-6.366-1.359-12.685-2.962-18.984-4.614c-0.65-0.17-1.475-1.208-1.49-1.86c-0.017-0.713,0.708-1.967,1.292-2.085
			C626.205,472.816,630.026,472.301,634.485,471.602z"/>
		<path fill-rule="evenodd" clip-rule="evenodd" d="M509.705,226.083c-5.328-5.635-4.881-26.782,0-31.277
			C509.705,205.086,509.705,214.855,509.705,226.083z"/>
		<path fill-rule="evenodd" clip-rule="evenodd" d="M532.337,203.939c-1.944-3.247-4.396-6.035-0.897-10.28
			c1.323-1.605-0.013-5.529-0.373-8.367c-0.617-4.869-1.421-9.715-1.67-14.624c4.638,10.853,5.572,22,2.802,33.426L532.337,203.939z
			"/>
		<path fill-rule="evenodd" clip-rule="evenodd" d="M507.19,111.904c1.591,4.045,3.217,8.078,4.754,12.145
			c0.587,1.552,1.203,3.16,1.37,4.786c0.146,1.42-0.321,2.903-0.518,4.357c-0.558-0.006-1.113-0.013-1.67-0.019
			c-2.061-5.797-4.242-11.559-6.058-17.433c-0.281-0.908,1.116-2.335,1.737-3.521L507.19,111.904z"/>
		<path fill-rule="evenodd" clip-rule="evenodd" d="M532.198,204.096c0.865-1.003,1.731-2.008,3.706-4.299
			c1.311,8.275,2.429,15.34,3.547,22.405c-0.451,0.156-0.901,0.311-1.352,0.467c-0.43-1.169-1.079-2.308-1.246-3.514
			c-0.502-3.633-0.539-7.353-1.33-10.912c-0.354-1.598-2.069-2.894-3.177-4.314C532.337,203.939,532.198,204.096,532.198,204.096z"
			/>
		<path fill-rule="evenodd" clip-rule="evenodd" d="M490.737,491.015c1.492-3.345,2.983-6.69,4.476-10.036
			c0.466,0.196,0.932,0.393,1.396,0.59c0.244,4.028-0.095,7.84-3.48,10.518C492.331,491.729,491.534,491.372,490.737,491.015z"/>
		<path fill-rule="evenodd" clip-rule="evenodd" fill="#FFFFFF" d="M497.37,371.321c4.656-15.959,5.688-18.29,10.324-20.037
			c-3.012,6.869-6.023,13.738-9.034,20.608C498.23,371.702,497.801,371.512,497.37,371.321z"/>
		<path fill-rule="evenodd" clip-rule="evenodd" fill="#FFFFFF" d="M484.902,408.224c2.381-8.257,4.761-16.512,7.142-24.769
			c0.471,0.132,0.941,0.264,1.412,0.396c-2.231,8.335-4.463,16.67-6.693,25.005C486.143,408.646,485.522,408.435,484.902,408.224z"
			/>
		<path fill-rule="evenodd" clip-rule="evenodd" fill="#FFFFFF" d="M613.524,513.948c-3.243-3.908-4.205-13.826-1.287-16.794
			c0.791-0.804,3.879-0.902,4.06-0.498c1.091,2.442,2.659,5.355,2.135,7.673C617.668,507.704,615.268,510.709,613.524,513.948z"/>
		<path fill-rule="evenodd" clip-rule="evenodd" fill="#FFFFFF" d="M634.669,489.517c-2.396,2.752-4.06,4.663-6.379,7.327
			c0.278-3.429,0.471-5.8,0.678-8.356C630.188,488.708,631.955,489.027,634.669,489.517z"/>
		<path fill-rule="evenodd" clip-rule="evenodd" fill="#FFFFFF" d="M461.407,223.547c1.291-1.735,2.583-3.47,3.874-5.204
			c0.925,1.101,1.85,2.202,2.774,3.302c-1.579,1.311-3.158,2.621-4.737,3.932C462.682,224.9,462.045,224.224,461.407,223.547z"/>
	</g>
</g>
<g>
	<g>
		<path fill-rule="evenodd" clip-rule="evenodd" fill="#FFFFFF" d="M400.27,111.221c0,52.651,0,105.301,0,157.952
			c-1.808,2.753-6.493,2.041-7.355,6.055c-0.04,0.189-1.794,0.389-2.401,0.016c-2.804-1.722-7.017-1.364-8.211-5.664
			c-0.165-0.591-2.747-1.257-3.593-0.785c-4.077,2.273-7.943,4.925-12.114,7.59c6.086,8.02,12.399,5.482,19.005,2.876
			c-0.534,0.671-1.067,1.343-1.6,2.015c8.543,6.9,8.543,6.9,6.551,9.356c3.379,0.515,6.549,1,9.719,1.483c0,2.354,0,4.706,0,7.059
			c-0.701-1.084-1.4-2.168-2.286-3.538c-2.662,2.262-4.455,3.785-6.399,5.437c-0.3-0.156-1.049-0.548-1.719-0.896
			c0,1.648,0,2.966,0,5.317c3.759-1.964,7.081-3.7,10.404-5.437c0,4.118,0,8.235,0,12.354c-1.736,0.002-3.484,0.132-5.207-0.018
			c-5.683-0.496-11.355-1.113-17.037-1.627c-0.701-0.063-1.611-0.019-2.124,0.371c-4.367,3.317-8.964,0.6-13.839,1.043
			c-1.02,4.008-4.593,2.331-7.311,1.953c-2.894-0.402-5.664-1.698-9.071-2.791c-0.446,0.197-1.588,0.701-3.867,1.708
			c1.258-1.588,1.747-2.203,1.764-2.226c-1.47-2.176-2.936-4.078-4.117-6.144c-3.431-5.997-3.381-5.987-10.944-4.908
			c-1.232,0.176-2.531-0.111-4.301-0.213c1.774-13.631,14.694-17.425,21.823-26.352c-4.203,0.15-8.024,0.938-11.788,1.943
			c-1.978,0.527-4.294,0.955-5.698,2.251c-5.764,5.322-11.51,10.72-16.678,16.602c-2.012,2.289-4.117,5.179-3.03,9.207
			c1.86,6.897,5.397,12.792,9.609,18.368c0.566,0.751,1.912,0.913,3.366,1.555c0-3.38,0-6.202,0-9.558
			c2.846,1.188,5.441,2.923,8.222,3.304c6.797,0.929,13.67,1.435,20.53,1.726c6.217,0.263,12.506,0.515,18.673-0.118
			c10.38-1.066,20.687-2.837,31.025-4.313c0,22.061,0,44.121,0,66.181c-0.63,1.732-1.259,3.466-2.079,5.726
			c-0.425-1.962-0.774-3.578-1.166-5.386c-0.677,2.027-0.89,3.816-1.806,5.105c-1.035,1.453-2.543,2.777-4.137,3.568
			c-1.695,0.842-5.063,1.854-5.415,1.31c-3.715-5.733-8.784-2.334-13.515-2.577c0.501-1.378,1.043-2.87,1.883-5.179
			c-3.505,1.931-6.203,3.415-9.303,5.122c-0.262-3.271-0.518-6.467-0.87-10.863c-2.9,1.741-4.966,2.982-6.799,4.083
			c-1.262-1.757-2.438-3.395-3.33-4.635c0.76-1.661,1.603-3.501,2.445-5.343c-1.684-0.58-3.334-1.358-5.066-1.643
			c-0.696-0.114-1.524,0.972-2.373,1.309c-1.918,0.762-3.866,1.473-5.846,2.052c-0.981,0.286-2.185-0.032-3.076,0.38
			c-5.116,2.368-5.475,3.593-4.24,9.354c0.359,1.676-0.425,3.595-0.685,5.401c-0.771-0.887-1.441-1.903-2.349-2.618
			c-0.643-0.507-1.62-0.571-2.423-0.893c-1.275-0.511-3.024-0.721-3.707-1.675c-2.614-3.664-4.711-7.696-7.321-11.364
			c-4.327-6.079-8.9-11.982-13.369-17.961c-0.37,0.25-0.74,0.501-1.11,0.751c1.254,2.31,2.713,4.532,3.723,6.943
			c3.25,7.766,5.787,15.887,9.678,23.306c2.48,4.729,6.117,10.506,10.583,12.146c6.665,2.449,7.611,8.827,12.113,12.514
			c3.969,3.249,6.274,8.469,10.068,12.01c3.718,3.469,6.173,8.053,8.886,11.899c2.527,3.583,4.281,5.497,8.37,6.656
			c2.375,0.673,5.591,1.054,6.992,4.734c0.879,2.313,4.083,4.127,6.638,5.316c3.089,1.438,8.317-2.516,9.688,3.831
			c0.045,0.209,3.03-0.305,3.124-0.006c1.006,3.218,3.742,2.027,5.793,2.513c0,26.767,0,53.533,0,80.3
			c-100.007,0-200.013,0-300.02,0c0-156.48,0-312.962,0-469.443c65.593,0,131.185,0,196.778,0
			c-2.854,6.211-13.085,12.393-15.88,9.651c-1.332,0.817-2.652,1.627-4.098,2.515c1.597,3.395-0.658,4.305-3.194,5.912
			c-3.344,2.119-6.114,5.208-8.915,8.089c-1.381,1.421-2.278,3.314-3.483,5.129c0.242,1.171,1.047,2.776,0.785,4.183
			c-1.246,6.681-3.176,13.256-4.062,19.974c-0.498,3.781-0.656,8.523,1.191,11.487c2.895,4.643,3.559,6.755-0.716,10.554
			c2.165,5.158-0.614,10.419,0.508,15.82c0.958,4.611-1.157,9.777-0.797,14.615c0.785,10.547,2.244,21.046,3.544,31.55
			c0.129,1.047,1.183,1.945,1.591,2.997c0.98,2.521,2.521,5.077,2.579,7.647c0.097,4.215,0.884,7.968,2.353,11.967
			c1.131,3.081,4.328,2.056,5.238,4.375c0.708-0.65,1.96-1.24,2.042-1.96c1.278-11.366,2.726-22.729,3.444-34.135
			c0.421-6.682-0.405-13.438-0.615-20.164c-0.277-8.878-0.445-17.759-0.804-26.634c-0.055-1.36-1.546-2.875-1.234-4.002
			c1.221-4.401,2.87-8.688,4.418-12.995c1.431-3.982,2.715-8.043,4.524-11.851c0.694-1.46,2.515-2.796,4.1-3.28
			c1.118-0.34,2.703,0.851,5.022,1.706c-0.021,0.027,0.68-0.827,1.269-1.752c1.711-2.691,2.802-6.193,5.187-7.95
			c4.331-3.192,8.86-5.974,11.902-10.593c1.258-1.909,2.781-3.643,4.183-5.457c0.328,0.228,0.656,0.454,0.984,0.682
			c-1.47,4.132-3.115,8.214-4.314,12.423c-0.411,1.442,0.135,3.25,0.592,4.787c0.134,0.452,1.929,0.986,2.16,0.737
			c1.031-1.11,2.017-2.396,2.556-3.796c0.72-1.872,1.013-3.909,1.489-5.875c0.541-0.083,1.082-0.165,1.624-0.247
			c0.764,1.602,1.674,3.153,2.253,4.819c0.659,1.9,1.022,3.902,1.837,7.144c1.778-4.05,2.97-6.766,4.268-9.724
			c-0.667,0-1.489,0-2.69,0c0.418-1.604,0.733-2.812,1.15-4.411c2.022,1.91,3.714,3.509,5.519,5.213
			c-0.349,0.912-0.726,1.899-1.268,3.318c3.034-2.657,5.921-4.753,8.253-7.349c2.232-2.483,3.591-5.771,5.903-8.152
			c1.499-1.545,3.506-3.958,6.411-1.899l-0.114-0.126c-0.574,4.047-1.147,8.093-1.839,12.973c0.495,0.453,1.842,1.688,2.573,2.357
			c6.46-5.145,12.261-9.765,19.071-15.189c-3.026,6.904-5.51,12.572-8.359,19.072c5.166-0.56,8.906-0.965,12.666-1.373
			c-2.904,3.113-5.347,5.732-8.606,9.228c2.517,0,4.194,0.511,4.803-0.08c5.839-5.66,13.182-6.827,20.915-7.064
			c-1.792-5.12,1.488-3.151,3.689-3.296c-0.734,1.002-1.229,1.678-1.869,2.552C398.253,111.221,399.261,111.221,400.27,111.221z
			 M305.876,206.558c0.487,0.298,0.973,0.596,1.46,0.895c6.272-2.604,12.466-4.788,19.499-2.398
			c2.593,0.881,5.757-0.023,8.647,0.132c1.436,0.077,3.943,0.471,4.083,1.123c0.86,4.036,4.8,2.991,6.134,2.595
			c6.07-1.8,12.057-4.143,17.682-7.047c2.046-1.057,3.128-4.149,4.423-6.441c1.268-2.242,2.32-4.618,3.317-6.998
			c0.4-0.953,0.898-2.442,0.463-3.032c-0.63-0.854-2.031-1.364-3.174-1.53c-0.667-0.097-1.474,0.762-2.218,1.19
			c-0.22-0.221-0.439-0.444-0.659-0.665c0.792-1.602,1.585-3.204,2.072-4.189c-3.283-0.404-7.119,0.233-9.212-1.383
			c-3.588-2.772-6.419-1.455-9.667-0.358c-2.967,1-5.897,2.154-8.925,2.918c-3.218,0.812-6.575,1.07-9.794,1.877
			c-7.169,1.795-12.96,5.884-17.28,11.765C310.089,198.599,308.136,202.691,305.876,206.558z M267.93,535.642
			c0.106-2.241,0.263-3.677,0.225-5.107c-0.145-5.456,0.786-11.257-0.752-16.299c-4.254-13.94-5.61-28.208-6.193-42.565
			c-0.481-11.861,0.144-23.764-0.153-35.638c-0.034-1.358-2.66-3.245-4.428-3.811c-2.022-0.647-2.621,1.024-2.618,3.163
			c0.007,4.802-0.532,9.603-0.61,14.407c-0.162,9.866-0.102,19.735-0.258,29.602c-0.138,8.74-0.307,17.484-0.719,26.215
			c-0.394,8.347-1.297,16.673-1.547,25.021c-0.05,1.641,1.695,4.636,2.887,4.783C258.349,535.979,263.046,535.642,267.93,535.642z
			 M317.456,535.541c-7.165-44.379-14.285-88.477-21.592-133.735c-0.984,1.822-2.362,3.162-2.272,4.395
			c0.986,13.482,2.117,26.955,3.385,40.415c0.841,8.921,2.108,17.802,2.909,26.725c0.4,4.457,0.008,8.979,0.288,13.452
			c0.307,4.903,0.851,9.802,1.524,14.67c0.52,3.756,2.439,7.62,1.903,11.158c-1.189,7.86,0.507,15.266,1.414,22.921
			C309.496,535.541,313.594,535.541,317.456,535.541z M303.104,168.919c3.609-1.963,6.147-3.346,8.687-4.724
			c8.376-4.544,17.177-4.603,26.125-2.282c2.854,0.74,5.393,1.23,7.021-2.321c1.297,0.981,2.274,2.311,3.375,2.422
			c1.956,0.199,3.986-0.339,5.986-0.569c-0.749-4.301,3.455-5.121,5.192-7.401c-0.611-0.554-1.581-1-1.745-1.648
			c-1.358-5.404-6.217-7.207-10.317-7.556c-11.872-1.014-22.885,2.788-33.231,8.469c-0.688,0.378-1.108,1.394-1.463,2.197
			c-0.777,1.76-1.227,4.988-2.171,5.125C306.036,161.286,306.083,165.491,303.104,168.919z M166.481,535.327
			c6.585,0,11.904,0,17.195,0c0.348-4.313,0.668-8.293,1.042-12.928c-0.672-0.54-1.995-1.603-3.33-2.675
			c0.637-0.705,1.148-1.271,1.091-1.208c-1.103-1.163-2.563-1.986-2.608-2.88c-0.175-3.463-3.548-6.582-1.136-10.329
			c0.242-0.375,0.044-1.163-0.161-1.676c-1.282-3.2-2.624-6.376-4.284-10.377c-0.976,1.193-2.183,2.024-2.414,3.07
			c-0.689,3.129-1.133,6.33-1.412,9.525c-0.254,2.917-0.117,5.864-0.242,8.795c-0.132,3.105-0.068,6.263-0.636,9.295
			C168.898,527.621,167.638,531.195,166.481,535.327z M363.877,208.37c-6.007-1.325-10.393-0.633-15.601,2.467
			c-1.224,0.729-2.158,2.125-3.443,2.535c-3.682,1.179-7.494,1.939-11.216,3.003c-2.19,0.625-4.304,1.517-7.042,2.5
			C338.582,222.651,355.932,217.647,363.877,208.37z M113.447,499.773c-3.069,11.789-0.418,22.195,0.806,32.637
			c0.356,3.036,2.493,4.108,4.856,3.025c1.021-0.469,1.662-3.191,1.431-4.733c-1.281-8.555-2.814-17.075-4.441-25.571
			C115.803,503.58,114.675,502.189,113.447,499.773z M212.639,530.247c2.001,2.182,3.375,3.679,4.867,5.304
			c1.109-2.019,1.882-3.426,2.914-5.304C217.931,530.247,215.956,530.247,212.639,530.247z M277.364,246.458
			c-0.433-4.248-0.735-7.216-1.037-10.184C275.576,239.398,273.17,242.656,277.364,246.458z"/>
		<path fill-rule="evenodd" clip-rule="evenodd" d="M400.27,111.221c-1.009,0-2.017,0-3.504,0c0.64-0.874,1.134-1.549,1.869-2.552
			c-2.201,0.145-5.481-1.823-3.689,3.296c-7.733,0.238-15.076,1.405-20.915,7.064c-0.609,0.591-2.286,0.08-4.803,0.08
			c3.26-3.496,5.703-6.115,8.606-9.228c-3.76,0.407-7.5,0.813-12.666,1.373c2.849-6.5,5.333-12.167,8.359-19.072
			c-6.81,5.424-12.61,10.044-19.071,15.189c-0.731-0.669-2.078-1.904-2.573-2.357c0.692-4.88,1.266-8.926,1.829-12.983
			c2.532-1.601,6.246-2.555,4.254-6.937c-4.1,1.169-5.374,3.476-4.13,7.073c-2.905-2.059-4.912,0.354-6.411,1.899
			c-2.312,2.381-3.671,5.669-5.903,8.152c-2.332,2.595-5.219,4.692-8.253,7.349c0.542-1.419,0.919-2.407,1.268-3.318
			c-1.805-1.705-3.496-3.303-5.519-5.213c-0.417,1.599-0.732,2.807-1.15,4.411c1.201,0,2.023,0,2.69,0
			c-1.298,2.958-2.49,5.673-4.268,9.724c-0.814-3.241-1.178-5.244-1.837-7.144c-0.579-1.666-1.489-3.217-2.253-4.819
			c-0.542,0.083-1.083,0.165-1.624,0.247c-0.476,1.966-0.769,4.004-1.489,5.875c-0.539,1.4-1.525,2.686-2.556,3.796
			c-0.231,0.249-2.025-0.285-2.16-0.737c-0.457-1.538-1.002-3.345-0.592-4.787c1.199-4.209,2.844-8.292,4.314-12.423
			c-0.328-0.228-0.656-0.454-0.984-0.682c-1.402,1.814-2.925,3.548-4.183,5.457c-3.042,4.619-7.571,7.401-11.902,10.593
			c-2.385,1.757-3.476,5.259-5.187,7.95c-0.588,0.925-1.289,1.779-1.269,1.752c-2.319-0.855-3.904-2.046-5.022-1.706
			c-1.585,0.483-3.406,1.82-4.1,3.28c-1.809,3.807-3.093,7.869-4.524,11.851c-1.548,4.307-3.197,8.593-4.418,12.995
			c-0.313,1.127,1.179,2.642,1.234,4.002c0.359,8.875,0.527,17.756,0.804,26.634c0.209,6.725,1.036,13.482,0.615,20.164
			c-0.719,11.407-2.166,22.769-3.444,34.135c-0.081,0.72-1.334,1.31-2.042,1.96c-0.91-2.319-4.107-1.294-5.238-4.375
			c-1.469-3.999-2.256-7.752-2.353-11.967c-0.059-2.57-1.599-5.126-2.579-7.647c-0.408-1.052-1.461-1.95-1.591-2.997
			c-1.3-10.504-2.759-21.003-3.544-31.55c-0.36-4.838,1.755-10.004,0.797-14.615c-1.123-5.401,1.656-10.662-0.508-15.82
			c4.275-3.798,3.61-5.911,0.716-10.554c-1.847-2.963-1.689-7.706-1.191-11.487c0.886-6.718,2.816-13.293,4.062-19.974
			c0.262-1.406-0.542-3.012-0.785-4.183c1.205-1.815,2.102-3.708,3.483-5.129c2.801-2.882,5.571-5.97,8.915-8.089
			c2.536-1.607,4.791-2.518,3.194-5.912c1.446-0.888,2.766-1.698,4.098-2.515c2.795,2.741,13.026-3.44,15.88-9.651
			c5,0,10,0,15.001,0c-3.447,3.72-6.937,7.401-10.31,11.186c-0.853,0.958-2.117,2.482-1.855,3.334
			c1.078,3.504-0.647,5.815-2.56,8.27c-0.397,0.511-0.237,1.568-0.085,2.322c0.042,0.208,1.088,0.473,1.502,0.301
			c2.873-1.194,5.701-2.497,8.736-3.851c0.684,1.458,1.249,2.665,1.907,4.07c-1.477,0.628-2.686,1.142-3.894,1.655
			c0.112,0.444,0.223,0.888,0.334,1.332c1.747-0.436,3.692-0.524,5.194-1.385c2.244-1.287,4.324-2.963,6.206-4.755
			c2.33-2.22,4.382-4.731,6.562-7.109c1.167-1.273,2.349-2.532,3.524-3.798c0.374,0.233,0.748,0.466,1.122,0.7
			c-1.134,3.608-2.269,7.217-3.403,10.826c1.646-3.358,4.729,4.213,6.542-0.773c0.932-2.564,1.658-5.202,2.768-8.728
			c0.171-0.09,1.382-0.729,3.612-1.906c-2.198,0-3.253,0-4.364,0c0.258-1.469,0.469-2.668,0.823-4.682
			c-2.132,1.617-3.468,2.629-4.803,3.642c-0.309-0.284-0.618-0.567-0.926-0.85c1.563-2.591,3.125-5.181,4.688-7.771
			c-0.25-0.273-0.5-0.546-0.751-0.819c-4.846,3.552-9.691,7.104-15.215,11.153c-0.305-4.002-0.624-8.183-0.942-12.363
			c27.943,0,55.886,0,83.83,0C400.27,81.807,400.27,96.514,400.27,111.221z"/>
		<path fill-rule="evenodd" clip-rule="evenodd" d="M400.27,456.243c-2.051-0.485-4.787,0.705-5.793-2.513
			c-0.093-0.299-3.078,0.215-3.124,0.006c-1.371-6.347-6.599-2.394-9.688-3.831c-2.556-1.189-5.759-3.004-6.638-5.316
			c-1.401-3.681-4.617-4.062-6.992-4.734c-4.089-1.159-5.842-3.073-8.37-6.656c-2.713-3.847-5.167-8.431-8.886-11.899
			c-3.794-3.541-6.1-8.761-10.068-12.01c-4.502-3.687-5.448-10.064-12.113-12.514c-4.465-1.64-8.103-7.417-10.583-12.146
			c-3.891-7.419-6.428-15.54-9.678-23.306c-1.009-2.411-2.469-4.634-3.723-6.943c0.37-0.25,0.74-0.501,1.11-0.751
			c4.469,5.979,9.042,11.882,13.369,17.961c2.609,3.668,4.707,7.7,7.321,11.364c0.682,0.954,2.431,1.164,3.707,1.675
			c0.804,0.321,1.781,0.386,2.423,0.893c0.908,0.715,1.578,1.731,2.349,2.618c0.26-1.807,1.044-3.726,0.685-5.401
			c-1.235-5.762-0.876-6.986,4.24-9.354c0.892-0.412,2.095-0.094,3.076-0.38c1.98-0.579,3.927-1.29,5.846-2.052
			c0.849-0.337,1.677-1.423,2.373-1.309c1.732,0.284,3.382,1.063,5.066,1.643c-0.843,1.842-1.686,3.682-2.445,5.343
			c0.892,1.24,2.068,2.878,3.33,4.635c1.833-1.101,3.898-2.342,6.799-4.083c0.352,4.396,0.608,7.592,0.87,10.863
			c3.1-1.707,5.798-3.191,9.303-5.122c-0.839,2.309-1.382,3.801-1.883,5.179c4.731,0.243,9.8-3.156,13.515,2.577
			c0.352,0.544,3.72-0.468,5.415-1.31c1.594-0.791,3.102-2.115,4.137-3.568c0.916-1.289,1.129-3.078,1.806-5.105
			c0.391,1.808,0.741,3.424,1.166,5.386c0.82-2.26,1.449-3.993,2.079-5.726C400.27,405.652,400.27,430.947,400.27,456.243z"/>
		<path fill-rule="evenodd" clip-rule="evenodd" d="M400.27,314.175c-10.338,1.476-20.646,3.246-31.025,4.313
			c-6.167,0.633-12.456,0.381-18.673,0.118c-6.859-0.291-13.733-0.797-20.53-1.726c-2.781-0.381-5.376-2.115-8.222-3.304
			c0,3.355,0,6.178,0,9.558c-1.454-0.642-2.799-0.804-3.366-1.555c-4.212-5.576-7.75-11.471-9.609-18.368
			c-1.086-4.028,1.019-6.918,3.03-9.207c5.168-5.882,10.914-11.28,16.678-16.602c1.403-1.296,3.72-1.724,5.698-2.251
			c3.764-1.005,7.585-1.793,11.788-1.943c-7.129,8.927-20.048,12.721-21.823,26.352c1.77,0.102,3.068,0.389,4.301,0.213
			c7.563-1.079,7.513-1.089,10.944,4.908c1.182,2.065,2.647,3.968,4.117,6.144c-0.017,0.022-0.505,0.638-1.764,2.226
			c2.279-1.007,3.421-1.511,3.867-1.708c3.408,1.093,6.177,2.389,9.071,2.791c2.718,0.378,6.291,2.055,7.311-1.953
			c4.875-0.443,9.472,2.274,13.839-1.043c0.513-0.39,1.422-0.435,2.124-0.371c5.682,0.514,11.354,1.131,17.037,1.627
			c1.723,0.149,3.471,0.02,5.207,0.018C400.27,312.999,400.27,313.587,400.27,314.175z"/>
		<path fill-rule="evenodd" clip-rule="evenodd" fill="#FFFFFF" d="M316.44,67.1c0.319,4.18,0.637,8.361,0.942,12.363
			c5.523-4.049,10.369-7.601,15.215-11.153c0.25,0.273,0.5,0.545,0.751,0.819c-1.563,2.59-3.126,5.181-4.688,7.771
			c0.309,0.283,0.618,0.566,0.926,0.85c1.335-1.013,2.671-2.025,4.803-3.642c-0.354,2.014-0.564,3.213-0.823,4.682
			c1.11,0,2.166,0,4.364,0c-2.23,1.177-3.44,1.815-3.612,1.906c-1.109,3.526-1.835,6.164-2.768,8.728
			c-1.813,4.986-4.896-2.585-6.542,0.773c1.134-3.609,2.269-7.218,3.403-10.826c-0.374-0.233-0.748-0.466-1.122-0.7
			c-1.175,1.266-2.357,2.525-3.524,3.798c-2.179,2.378-4.231,4.89-6.562,7.109c-1.882,1.792-3.962,3.469-6.206,4.755
			c-1.502,0.861-3.448,0.949-5.194,1.385c-0.111-0.444-0.223-0.888-0.334-1.332c1.208-0.514,2.417-1.027,3.894-1.655
			c-0.659-1.406-1.224-2.612-1.907-4.07c-3.035,1.354-5.863,2.656-8.736,3.851c-0.415,0.172-1.46-0.093-1.502-0.301
			c-0.152-0.754-0.313-1.811,0.085-2.322c1.913-2.455,3.638-4.766,2.56-8.27c-0.262-0.852,1.002-2.376,1.855-3.334
			c3.374-3.785,6.863-7.466,10.31-11.186C313.499,67.1,314.97,67.1,316.44,67.1z"/>
		<path fill-rule="evenodd" clip-rule="evenodd" d="M400.27,292.115c-3.17-0.483-6.339-0.968-9.719-1.483
			c1.992-2.456,1.992-2.456-6.551-9.356c0.533-0.671,1.066-1.343,1.6-2.015c-6.605,2.606-12.918,5.144-19.005-2.876
			c4.17-2.665,8.037-5.317,12.114-7.59c0.847-0.473,3.429,0.194,3.593,0.785c1.194,4.299,5.407,3.942,8.211,5.664
			c0.607,0.373,2.361,0.174,2.401-0.016c0.863-4.015,5.548-3.302,7.355-6.055C400.27,276.82,400.27,284.467,400.27,292.115z"/>
		<path fill-rule="evenodd" clip-rule="evenodd" d="M400.27,300.057c-3.323,1.736-6.645,3.473-10.404,5.437c0-2.352,0-3.669,0-5.317
			c0.67,0.349,1.419,0.74,1.719,0.896c1.944-1.651,3.737-3.175,6.399-5.437c0.886,1.37,1.585,2.454,2.286,3.538
			C400.27,299.468,400.27,299.763,400.27,300.057z"/>
		<path fill-rule="evenodd" clip-rule="evenodd" d="M305.876,206.558c2.26-3.867,4.213-7.959,6.85-11.549
			c4.32-5.881,10.111-9.97,17.28-11.765c3.22-0.807,6.577-1.065,9.794-1.877c3.028-0.764,5.958-1.917,8.925-2.918
			c3.248-1.096,6.079-2.414,9.667,0.358c2.093,1.617,5.929,0.979,9.212,1.383c-0.487,0.985-1.279,2.587-2.072,4.189
			c0.22,0.221,0.439,0.444,0.659,0.665c0.744-0.428,1.551-1.287,2.218-1.19c1.144,0.166,2.544,0.676,3.174,1.53
			c0.435,0.59-0.063,2.079-0.463,3.032c-0.998,2.38-2.049,4.756-3.317,6.998c-1.295,2.292-2.377,5.385-4.423,6.441
			c-5.625,2.905-11.611,5.247-17.682,7.047c-1.334,0.396-5.273,1.441-6.134-2.595c-0.139-0.652-2.646-1.046-4.083-1.123
			c-2.891-0.155-6.055,0.749-8.647-0.132c-7.032-2.389-13.226-0.206-19.499,2.398C306.849,207.154,306.363,206.856,305.876,206.558z
			"/>
		<path fill-rule="evenodd" clip-rule="evenodd" d="M267.93,535.642c-4.884,0-9.581,0.337-14.167-0.229
			c-1.192-0.147-2.937-3.143-2.887-4.783c0.25-8.348,1.153-16.674,1.547-25.021c0.412-8.73,0.581-17.475,0.719-26.215
			c0.156-9.866,0.096-19.735,0.258-29.602c0.079-4.805,0.617-9.605,0.61-14.407c-0.003-2.139,0.596-3.811,2.618-3.163
			c1.768,0.565,4.394,2.452,4.428,3.811c0.297,11.874-0.328,23.776,0.153,35.638c0.583,14.357,1.938,28.625,6.193,42.565
			c1.538,5.042,0.608,10.843,0.752,16.299C268.193,531.965,268.036,533.4,267.93,535.642z"/>
		<path fill-rule="evenodd" clip-rule="evenodd" d="M317.456,535.541c-3.862,0-7.96,0-12.443,0
			c-0.907-7.655-2.603-15.061-1.414-22.921c0.536-3.538-1.384-7.402-1.903-11.158c-0.673-4.868-1.217-9.767-1.524-14.67
			c-0.28-4.473,0.112-8.995-0.288-13.452c-0.801-8.923-2.068-17.804-2.909-26.725c-1.268-13.46-2.398-26.933-3.385-40.415
			c-0.09-1.232,1.289-2.572,2.272-4.395C303.171,447.064,310.291,491.162,317.456,535.541z"/>
		<path fill-rule="evenodd" clip-rule="evenodd" d="M303.104,168.919c2.979-3.429,2.932-7.633,7.46-8.289
			c0.944-0.137,1.394-3.365,2.171-5.125c0.355-0.803,0.775-1.818,1.463-2.197c10.346-5.681,21.359-9.483,33.231-8.469
			c4.1,0.35,8.958,2.152,10.317,7.556c0.164,0.649,1.133,1.095,1.745,1.648c-1.738,2.28-5.941,3.1-5.192,7.401
			c-2,0.23-4.03,0.769-5.986,0.569c-1.102-0.112-2.079-1.441-3.375-2.422c-1.628,3.551-4.167,3.061-7.021,2.321
			c-8.948-2.321-17.749-2.262-26.125,2.282C309.251,165.573,306.713,166.957,303.104,168.919z"/>
		<path fill-rule="evenodd" clip-rule="evenodd" d="M166.481,535.327c1.157-4.132,2.417-7.706,3.106-11.387
			c0.568-3.032,0.503-6.189,0.636-9.295c0.125-2.931-0.012-5.878,0.242-8.795c0.278-3.195,0.722-6.396,1.412-9.525
			c0.23-1.046,1.438-1.877,2.414-3.07c1.66,4.001,3.002,7.177,4.284,10.377c0.205,0.513,0.402,1.301,0.161,1.676
			c-2.412,3.747,0.961,6.866,1.136,10.329c0.045,0.894,1.506,1.717,2.608,2.88c0.058-0.063-0.454,0.503-1.091,1.208
			c1.335,1.072,2.658,2.135,3.33,2.675c-0.374,4.635-0.694,8.615-1.042,12.928C178.385,535.327,173.066,535.327,166.481,535.327z"/>
		<path fill-rule="evenodd" clip-rule="evenodd" d="M363.877,208.37c-7.946,9.278-25.295,14.281-37.302,10.505
			c2.738-0.983,4.853-1.875,7.042-2.5c3.722-1.064,7.534-1.824,11.216-3.003c1.285-0.411,2.219-1.807,3.443-2.535
			C353.485,207.736,357.87,207.045,363.877,208.37z"/>
		<path fill-rule="evenodd" clip-rule="evenodd" d="M113.447,499.773c1.229,2.416,2.356,3.807,2.653,5.357
			c1.627,8.496,3.16,17.017,4.441,25.571c0.231,1.542-0.41,4.265-1.431,4.733c-2.364,1.083-4.5,0.011-4.856-3.025
			C113.028,521.969,110.377,511.563,113.447,499.773z"/>
		<path fill-rule="evenodd" clip-rule="evenodd" d="M212.639,530.247c3.316,0,5.292,0,7.781,0c-1.032,1.878-1.805,3.285-2.914,5.304
			C216.014,533.926,214.641,532.429,212.639,530.247z"/>
		<path fill-rule="evenodd" clip-rule="evenodd" d="M277.364,246.458c-4.193-3.803-1.788-7.06-1.037-10.184
			C276.629,239.243,276.931,242.21,277.364,246.458z"/>
		<path fill-rule="evenodd" clip-rule="evenodd" fill="#FFFFFF" d="M353.836,92.168c-1.244-3.598,0.03-5.904,4.13-7.073
			c1.992,4.382-1.722,5.336-4.254,6.937C353.722,92.042,353.836,92.168,353.836,92.168z"/>
	</g>
</g>
<g>
	<polygon fill="none" points="309.5,48 329.875,48 319.665,20.833 	"/>
	<path fill="#AA2B2C" d="M253.689,10.144v47.333h131.333V10.144H253.689z M309.5,48l10.165-27.167L329.875,48H309.5z"/>
</g>
<path fill="#AA2B2C" d="M424.086,10.769v47.333h131.333V10.769H424.086z M481.5,47l10.165-27.167L501.875,47H481.5z"/>
<path fill="#AA2B2C" d="M253.689,545.501v47.333h131.333v-47.333H253.689z M319.71,583.166L309.5,556h20.375L319.71,583.166z"/>
<path fill="#AA2B2C" d="M424.083,545.501v47.333h131.333v-47.333H424.083z M489.71,583.166L479.5,556h20.375L489.71,583.166z"/>
<rect y="269" width="169" height="19"/>
<rect y="189" width="169" height="19"/>
<rect y="309" width="169" height="19"/>
<rect y="229" width="169" height="19"/>
<rect y="429" width="169" height="19"/>
<rect y="389" width="169" height="19"/>
<rect y="349" width="169" height="19"/>
<text transform="matrix(1 0 0 1 33.2695 186.832)" font-family="'Simplifica'" font-size="20">PHOTOSHOP</text>
<text transform="matrix(1 0 0 1 30.5996 225.4453)" font-family="'Simplifica'" font-size="20">ILLUSTRATOR</text>
<text transform="matrix(1 0 0 1 41.7397 265.499)" font-family="'Simplifica'" font-size="20">INDESIGN</text>
<text transform="matrix(1 0 0 1 36.7695 305.498)" font-family="'Simplifica'" font-size="20">HTML/CSS</text>
<text transform="matrix(1 0 0 1 33.3296 344.498)" font-family="'Simplifica'" font-size="20">PHP/MySQL</text>
<text transform="matrix(1 0 0 1 31.5195 385.248)" font-family="'Simplifica'" font-size="20">JAVASCRIPT</text>
<text transform="matrix(1 0 0 1 15.6011 425.832)" font-family="'Simplifica'" font-size="20">GESTION DE PROJET</text>
<rect x="631" y="269" width="169" height="19"/>
<rect x="631" y="189" width="169" height="19"/>
<rect x="631" y="309" width="169" height="19"/>
<rect x="631" y="229" width="169" height="19"/>
<rect x="631" y="429" width="169" height="19"/>
<rect x="631" y="389" width="169" height="19"/>
<rect x="631" y="349" width="169" height="19"/>
<text transform="matrix(1 0 0 1 699.2695 186.832)" font-family="'Simplifica'" font-size="20">PHOTOSHOP</text>
<text transform="matrix(1 0 0 1 696.5996 225.4453)" font-family="'Simplifica'" font-size="20">ILLUSTRATOR</text>
<text transform="matrix(1 0 0 1 707.7402 265.499)" font-family="'Simplifica'" font-size="20">INDESIGN</text>
<text transform="matrix(1 0 0 1 702.7695 305.498)" font-family="'Simplifica'" font-size="20">HTML/CSS</text>
<text transform="matrix(1 0 0 1 699.3301 344.498)" font-family="'Simplifica'" font-size="20">PHP/MySQL</text>
<text transform="matrix(1 0 0 1 697.5195 385.248)" font-family="'Simplifica'" font-size="20">JAVASCRIPT</text>
<text transform="matrix(1 0 0 1 681.6016 425.832)" font-family="'Simplifica'" font-size="20">GESTION DE PROJET</text>
<rect x="717" y="269" fill="#AA2B2C" width="83" height="19"/>
<rect x="717" y="309" fill="#AA2B2C" width="83" height="19"/>
<rect x="685" y="189" fill="#AA2B2C" width="115" height="19"/>
<rect x="695" y="229" fill="#AA2B2C" width="105" height="19"/>
<rect x="670" y="429" fill="#AA2B2C" width="130" height="19"/>
<rect x="785" y="389" fill="#AA2B2C" width="15" height="19"/>
<rect x="792" y="349" fill="#AA2B2C" width="8" height="19"/>
<rect y="189" fill="#AA2B2C" width="108" height="19"/>
<rect y="229" fill="#AA2B2C" width="122" height="19"/>
<rect y="269" fill="#AA2B2C" width="91" height="19"/>
<rect y="309" fill="#AA2B2C" width="157" height="19"/>
<rect y="349" fill="#AA2B2C" width="100" height="19"/>
<rect y="389" fill="#AA2B2C" width="114" height="19"/>
<rect y="429" fill="#AA2B2C" width="65" height="19"/>
<text transform="matrix(1 0 0 1 56.7847 95.1099)" fill="#AA2B2C" font-family="'Sofia-Regular'" font-size="37">Pierrick</text>
<text transform="matrix(1 0 0 1 617.0518 95.1099)" fill="#AA2B2C" font-family="'Sofia-Regular'" font-size="37">Pauline</text>
<text transform="matrix(1 0 0 1 600.6504 143.9521)" font-family="'Simplifica'" font-size="62">COURTOIS</text>
<text transform="matrix(1 0 0 1 68.6499 143.9521)" font-family="'Simplifica'" font-size="62">FABRE</text>
</svg>
