<?xml version="1.0" encoding="utf-8"?>
<!-- Generator: Adobe Illustrator 16.0.0, SVG Export Plug-In . SVG Version: 6.00 Build 0)  -->
<!DOCTYPE svg PUBLIC "-//W3C//DTD SVG 1.1//EN" "http://www.w3.org/Graphics/SVG/1.1/DTD/svg11.dtd">
<svg version="1.1" id="Layer_1" xmlns="http://www.w3.org/2000/svg" xmlns:xlink="http://www.w3.org/1999/xlink" x="0px" y="0px"
	 width="800px" height="600px" viewBox="0 0 800 600" enable-background="new 0 0 800 600" xml:space="preserve">
<defs>
<style type="text/css">
	   <![CDATA[
	    @font-face {
	        font-family: Origami;
	        src: url('../public/fonts/origami/ORIGAMI_.TTF');
	    }
	   ]]>
	 </style>
</defs>
	 	 
<rect x="4.522" y="2" fill-rule="evenodd" clip-rule="evenodd" fill="none" width="800" height="600"/>
<g>
	<path fill-rule="evenodd" clip-rule="evenodd" fill="#FFFFFF" d="M89.204,534.825c-5.313,0-10.625,0-15.938,0
		c0-155.843,0-311.686,0-467.53c72.609,0,145.219,0,217.827,0c-4.17,3.114-7.938,7.416-12.625,9.012
		c-4.831,1.644-9.229,1.732-12.007,7.467c-1.647,3.403-7.042,4.844-10.335,7.653c-2.031,1.732-3.277,4.383-4.066,5.488
		c-0.463,3.123-0.793,5.213-1.079,7.309c-1.25,9.138-2.967,18.254-3.446,27.434c-0.151,2.91,3.017,5.993,4.638,8.945
		c-1.738,1.302-2.993,2.242-4.451,3.335c0,8.64,0.034,17.306-0.006,25.975c-0.069,14.511-0.23,28.987,7.793,42.061
		c1.177,1.919,1.262,4.791,1.123,7.178c-0.43,7.421,1.896,11.026,10.316,13.795c1.249-11.795,3.087-23.348,3.532-34.953
		c0.463-12.094-0.247-24.247-0.796-36.357c-0.221-4.892-2.34-9.84-1.853-14.583c0.541-5.28,2.167-10.936,5.011-15.335
		c2.195-3.396,4.078-6.462,5.208-10.41c0.881-3.084,4.599-4.637,7.312-2.415c3.194,2.618,3.104,0.869,4.188-1.527
		c1.192-2.631,2.956-5.222,5.081-7.158c3.885-3.542,8.324-6.466,12.324-9.89c2.067-1.769,3.686-4.06,5.508-6.115
		c0.49,0.336,0.979,0.671,1.469,1.008c-1.908,3.951-4.066,7.811-5.578,11.91c-0.477,1.29,0.289,4.149,1.328,4.697
		c4.851,2.559,4.177-1.579,4.924-4.326c0.393-1.442,1.792-2.61,2.734-3.904c0.89,1.118,1.955,2.14,2.631,3.375
		c1.101,2.01,1.947,4.159,3.24,6.986c1.485-3.398,2.611-5.974,3.2-7.32c-0.594-2.301-0.947-3.674-1.624-6.296
		c3.235,2.525,5.184,4.047,6.92,5.405c-0.45,0.996-0.844,1.872-1.738,3.857c7.706-7.149,14.421-13.381,21.136-19.612l-0.014-0.061
		c2.761,4.027,0.318,7.966-0.096,11.966c-0.144,1.396,0.296,3.079,1.055,4.249c0.393,0.603,2.414,0.89,3.107,0.428
		c2.817-1.875,5.405-4.095,8.076-6.189c3.299-2.583,6.594-5.169,9.892-7.754c0.21,0.161,0.419,0.321,0.629,0.481
		c-2.468,5.512-4.935,11.021-7.887,17.608c5.261-0.526,9.329-0.934,13.17-1.317c-2.851,2.982-5.428,5.681-8.004,8.378
		c0.356,0.492,0.715,0.984,1.071,1.476c1.169-0.404,2.501-0.573,3.481-1.25c5.936-4.099,12.468-6.183,19.669-6.361
		c3.612-0.089,5.208,1.103,3.231,4.999c1.972-0.456,3.576-0.826,5.242-1.212c0-16.386,0-32.257,0-48.127
		c124.32,0,248.641,0,372.961,0c0,155.845,0,311.688,0,467.53c-20.541,0-41.086,0-61.629,0c0.527-1.744,1.051-3.486,1.607-5.336
		c-7.521,0.432-7.521,0.432-10.064-5.006c-0.871,0.943-1.672,1.816-2.795,3.033c-0.254-3.162-0.457-5.701-0.656-8.148
		c-2.227,0-3.912,0-5.043,0c-0.891-1.699-1.234-3.443-2.273-4.139c-3.822-2.547-7.916-4.676-11.811-7.117
		c-1.215-0.762-2.145-1.99-3.168-3.043c-2.117-2.186-3.84-5.291-6.414-6.357c-2.918-1.209-5.152-3.316-7.553-4.467
		c-3.123-1.494-3.152-4.813-5.016-5.695c-8.588-4.074-17.449-7.615-26.387-10.857c-2.223-0.805-5.107,0.223-8.084,0.436
		c1.93-4.623,7.139-6.941,10.529-7.09c5.408-0.232,10.771-1.578,16.746-2.549c-2.283-3.148-3.596-4.951-5.006-6.895
		c-6.266,2.039-12.508,4.07-18.648,6.07c0.834,0.996,1.324,1.588,1.818,2.176c-0.896,0.385-1.783,1.068-2.684,1.09
		c-1.908,0.043-3.879-0.631-5.723-0.354c-6.258,0.943-12.439,2.414-18.707,3.211c-4.678,0.596-10.826,2.42-13.898,0.262
		c-7.221-5.082-14.824-2.516-23.33-4.98c1.902,1.941,2.6,2.656,3.297,3.367c-4.664,4.477,0.773,5.021,2.764,6.334
		c2.717,1.787,3.656,3.512,1.607,6.645c-1.371-3.465-8.313,2.234-7.564-3.281c-2.953-1.613-5.371-2.75-7.574-4.211
		c-1.264-0.838-1.998-2.518-3.285-3.273c-4.494-2.635-9.125-5.031-14.994-8.219c0.105,2.305-0.348,4.029,0.318,4.852
		c2.914,3.609,6.189,6.924,9.242,10.428c0.594,0.684,1.348,2.15,1.061,2.531c-2.6,3.465,0.529,6,1.232,8.902
		c0.865,3.576,1.742,7.15,2.611,10.725c-0.295,0.014-0.59,0.029-0.885,0.047c-3.975-7.113-7.947-14.23-11.92-21.346
		c-0.418,0.201-0.834,0.404-1.254,0.604c0,2.145,0,4.285,0,6.32c-1.781,1.721-7.268-0.801-5.461,4.229
		c1.973,5.494,4.711,10.803,7.756,15.801c2.156,3.537,3.064,6.152-0.535,7.824c0.889,1.955,1.414,3.596,2.33,4.971
		c0.76,1.143,2.676,2.955,2.898,2.801c5.432-3.848,11.473-7.26,15.707-12.205c2.4-2.803,1.793-8.184,2.719-13.41
		c0.592,3.016,1.025,5.238,1.652,8.441c3.813-3.611,7.186-6.807,11.76-11.143c-0.855,3.35-0.785,5.732-1.932,7.086
		c-4.154,4.914-8.475,9.748-13.188,14.117c-5.383,4.99-11.254,9.455-16.914,14.146c-0.082-0.189-0.166-0.381-0.25-0.568
		c-1.904,1.08-3.809,2.162-5.713,3.242c-6.021,0-12.043,0-18.064,0c-1.229-2.352-2.459-4.705-3.688-7.059
		c-0.494,0.049-0.99,0.094-1.488,0.143c-0.752,2.307-1.508,4.611-2.262,6.916c-3.896,0-7.791,0-11.689,0
		c-0.422-3.875-0.846-7.754-1.271-11.629c-0.637,0.043-1.275,0.084-1.916,0.127c0,3.834,0,7.668,0,11.502
		c-14.521,0-29.043,0-43.564,0c0.234-4.518,0.471-9.037,0.707-13.555c-1.51,1.574-1.584,4.283-2.496,4.604
		c-4.918,1.732-4.141,5.287-3.523,8.951c-1.773,0-3.543,0-5.313,0c0.723-5.389,4.627-10.643,0.252-16.143
		c-0.805,2.154,0.135,4.434-0.375,6.324c-0.918,3.396-2.703,6.561-4.129,9.818c-43.564,0-87.131,0-130.695,0
		c-2.094-7.719-4.684-15.346-6.163-23.184c-2.267-12.02-3.529-24.225-5.658-36.273c-2.548-14.396-5.691-28.686-8.325-43.068
		c-1.812-9.89-3.194-19.858-5.06-31.624c-1.145,2.596-2.337,4.002-2.256,5.326c0.679,11.066,1.415,22.135,2.484,33.169
		c1.096,11.316,2.69,22.586,3.866,33.898c0.854,8.215,2.661,16.625,1.658,24.652c-0.851,6.795,5.687,12.789,1.092,19.447
		c-0.212,0.311,0.128,1.014,0.231,1.529c1.083,5.377,2.169,10.752,3.253,16.127c-13.813,0-27.625,0-41.441,0
		c-0.7-9.148-0.983-18.352-2.223-27.426c-1.142-8.377-3.875-16.547-4.859-24.932c-0.922-7.846-0.506-15.855-0.608-23.791
		c-0.098-7.682,0.159-15.381-0.38-23.027c-0.107-1.494-3.149-2.781-4.836-4.166c-0.712,1.404-1.9,2.766-2.043,4.227
		c-0.397,4.074-0.434,8.188-0.485,12.287c-0.285,21.863-0.482,43.729-0.826,65.594c-0.071,4.57,0.676,9.857-1.333,13.502
		c-1.963,3.563-0.667,5.258,0.593,7.732c-25.147,0-50.294,0-75.442,0c-0.037-1.576-0.436-3.25-0.045-4.715
		c1.44-5.408,0-9.471-3.344-14.146c-1.961-2.742-5.81-7.563-2.161-11.715c-1.719-3.811-3.314-7.344-5.318-11.785
		c-0.91,1.367-2.002,2.279-2.113,3.295c-0.773,7.119-1.337,14.26-1.983,21.393c-0.202,2.227-0.428,4.451-0.688,6.672
		c-0.43,3.672-0.897,7.336-1.349,11.002c-17.709,0-35.419,0-53.128,0c0.074-2.189,0.532-4.447,0.153-6.559
		c-1.263-7.064-2.742-14.096-4.313-21.1c-0.55-2.457-1.601-4.803-2.423-7.197c-0.525,0.174-1.052,0.352-1.576,0.523
		c-0.292,1.795-0.952,3.621-0.815,5.383C87.364,515.534,88.317,525.177,89.204,534.825z M548.058,204.622
		c1.043,1.433,2.082,2.864,3.715,5.109c0.75,3.693,1.744,8.599,2.738,13.506c0.564-0.12,1.129-0.242,1.695-0.364
		c-1.127-7.101-2.254-14.203-3.379-21.305c-0.893-0.448-1.783-0.898-2.674-1.345c-0.75,1.527-1.504,3.052-2.256,4.581
		c3.879-11.5,1.389-22.511-2.775-33.369c0.221,4.918,1.039,9.764,1.658,14.635c0.359,2.823,1.66,6.708,0.342,8.33
		C543.677,198.634,546.085,201.414,548.058,204.622z M520.431,113.105c-0.621,1.18-2.012,2.598-1.734,3.503
		c1.754,5.734,3.879,11.354,5.975,17.28c1.244-0.3,2.514-0.604,3.791-0.913c-1.396-3.783-2.693-7.367-4.045-10.933
		c-1.172-3.095-2.4-6.17-3.604-9.253c-1.674-4.966-2.766-10.245-5.205-14.801c-2.006-3.746-5.498-6.747-8.533-9.882
		c-6.012-6.214-12.082-12.382-18.342-18.342c-1.088-1.035-3.23-1.32-4.889-1.333c-12.025-0.106-24.051,0.075-36.07-0.108
		c-5.434-0.083-10.443-0.375-9.074,7.561c0.145,0.841-0.943,1.894-1.266,2.491c2.637,1.745,4.781,3.42,7.158,4.641
		c1.451,0.744,3.266,0.755,4.904,1.154c4.283,1.043,9.145,1.001,10.998,5.095c1.303-0.913,2.74-1.882,4.139-2.91
		c2.01-1.481,4.057-2.929,5.959-4.544c0.982-0.833,1.49-2.524,2.549-2.917c4.951-1.841,10.008-3.411,15.072-4.918
		c0.459-0.137,1.254,0.854,2.035,1.424c-5.209,5.554-15.645,0.483-18.432,9.793c0.459,0.029,0.918,0.059,1.379,0.087
		c-0.191,3.003-0.383,6.005-0.566,8.874c9.385,7.57,18.963,15.298,29.037,23.424c0.465-2.705,0.756-4.398,1.049-6.092
		c2.254-0.439,4.355-1.617,4.836-3.27c0.395-1.353-1.047-3.316-1.857-4.919c-0.467-0.929-2.002-1.965-1.807-2.453
		c0.471-1.183,1.676-2.074,2.576-3.076C511.454,103.245,515.942,108.175,520.431,113.105z M548.526,329.33
		c8.551-1.131-0.016-7.715,3.143-10.383c3.896,5.461,6.234,37.152,3.428,41.357c1.301,1.129,3.754,2.469,3.586,3.232
		c-1.291,5.865,2.141,12.922-3.957,16.82c1.121,3.01,2.018,5.41,3.01,8.066c1.055-2.881,2.422-5.557,2.988-8.391
		c1.342-6.686,3.016-13.445,3.061-20.184c0.02-2.762,0.041-5.104,0.951-7.729c1.127-3.244,1.721-6.803-3.174-7.922
		c1.684-1.332,5.221-2.342,0.504-4.281c-0.578-0.238-1.275-1.51-1.102-2.037c2.006-6.168-1.813-11.553-2.467-17.359
		c-1.377-12.199-4.229-24.258-6.953-36.267c-0.672-2.964-3.178-5.51-4.801-8.184c2.09-0.997,1.197-4.727-0.398-4.936
		c-5.402-0.715-4.719-4.569-5.492-7.981c-1.248-5.515-2.719-10.982-4.402-17.695c-5.322,9.084-1.361,16.567-0.791,24.019
		c0.332,4.319,1.822,8.539,2.268,12.859c0.287,2.759-0.389,5.616-0.633,8.429c-0.703-0.058-1.406-0.118-2.107-0.178
		c-0.047-1.033-0.117-2.065-0.135-3.1c-0.035-2.146,0.869-5.319-0.207-6.272c-6.154-5.462-6.695-13.209-8.371-20.207
		c-2.297-9.605-3.195-19.54-4.693-29.334c-3.236,10.276-5.592,20.375-8.074,30.443c-1.379,5.578-2.766,11.172-4.512,16.643
		c-2.363,7.401-5.395,14.598-7.551,22.053c-2.18,7.534-2.875,15.561-5.598,22.86c-3.947,10.58-10.514,19.807-18.84,27.514
		c-5.744,5.318-11.699,10.492-18.049,15.047c-5.271,3.781-11.303,6.488-16.918,9.811c-6.596,3.898-13.801,6.117-20.09,0.916
		c-4.809-3.984-11.814-4.225-15.385-9.898c-0.209-0.332-1.607,0.086-2.309,0.143c-0.59,5.986-1.154,11.719-1.854,18.82
		c-0.928-2.9-1.414-4.424-1.502-4.703c-3.313,2.869-6.298,5.793-9.672,8.168c-0.987,0.693-3.555,0.406-4.572-0.432
		c-3.394-2.807-9.996-3.232-14.184,0.504c0.759-2.854,1.233-4.639,1.762-6.631c-3.515,1.473-6.72,2.814-9.982,4.18
		c-0.325-3.732-0.579-6.633-0.926-10.613c-2.902,1.791-4.744,2.928-6.559,4.047c-1.555-1.643-3.047-3.225-4.533-4.795
		c1.328-1.623,2.586-3.162,4.131-5.049c-3.832-1.465-6.739-3.395-9.877,0.533c-0.974,1.219-3.859,1.436-5.793,1.266
		c-5.41-0.475-8.797,3.047-8.012,8.326c0.322,2.166-0.335,4.477-0.546,6.719c-1.286-1.025-2.568-2.055-3.857-3.078
		c-0.136-0.105-0.302-0.203-0.468-0.238c-5.8-1.256-8.186-6.307-11.417-10.365c-5.554-6.977-10.986-14.049-16.468-21.078
		c-0.837,1.184-0.809,1.848-0.536,2.389c3.734,7.402,8.303,14.506,11.063,22.254c3.501,9.828,9.678,16.428,18.891,20.684
		c1.079,0.494,2.161,1.301,2.863,2.246c2.842,3.84,5.284,7.996,8.341,11.643c5.225,6.236,10.645,12.328,16.287,18.19
		c3.953,4.104,7.067,9.408,13.832,10.035c1.699,0.156,3.165,2.57,4.784,3.889c3.771,3.07,7.184,6.801,12.962,5.346
		c1.479-0.371,4.049,0.004,4.806,1.018c2.607,3.488,5.932,4.641,11.114,4.992c0-13.795,0-27.133,0-40.472
		c0.309-0.424,0.615-0.852,0.924-1.275c4.875,5.633,8.813,4.811,11.203,0.105c4.133-0.65,7.086,4.656,10.629-0.029
		c0.197-0.26,1.854,0.107,2.305,0.633c0.566,0.666,1.012,1.941,0.754,2.693c-0.426,1.244-1.457,2.277-2.357,3.584
		c4.01,3.51,5.729,6.955-1.314,10.374c2.74,0.41,4.17,0.625,5.908,0.885c-1.563,3.713-3.137,7.164-4.473,10.707
		c-1.406,3.727-2.586,7.539-4.006,11.727c-1.637-1.105-3.266-2.211-5.514-3.732c1.779,4.379,3.203,7.889,5.201,12.814
		c1.006-2.66,1.758-4.648,2.658-7.027c1.059,4.344,2.025,8.311,2.979,12.225c-0.342-0.07-1.264-0.256-2.588-0.521
		c1.826,5.236,3.525,10.109,5.223,14.982c0.627,1.6,0.756,3.418,1.652,4.699c1.164,1.672,2.936,2.916,5.004,4.871
		c-2.158,0.553-3.443,0.883-4.732,1.211c5.092-1.238,5.939,2.686,6.703,5.805c0.73,2.973,0.51,6.176,0.723,9.563
		c2.725-0.344,5.563-0.705,10.307-1.307c-2.117,2.572-3.373,4.102-4.256,5.174c1.137,1.066,2.531,2.379,5.217,4.898
		c0.732-8.238,1.354-15.23,1.938-21.793c2.391,1.688,4.68,3.307,7.785,5.5c3.941-8.658,7.998-17.568,12.061-26.49
		c2.424,1.047,3.031-0.943,3.539-3.529c0.416-2.115,1.17-4.191,2.016-6.184c1.027-2.424,2.715-4.627,3.404-7.123
		c1.941-7.014,3.268-14.199,5.307-21.18c1.912-6.547,4.516-12.89,6.629-19.384c0.674-2.068,0.75-4.334,1.098-6.508
		c-0.072,7.146,3.758,15.215-4.408,20.55c-0.42,0.275-0.197,1.494-0.32,2.268c-0.965,6.023-1.805,12.066-2.945,18.055
		c-1.396,7.355-3.143,14.639-4.559,21.988c-0.984,5.111-5.271,9.537-3.238,15.299c0.016,0.043-0.959,0.26-1.111,0.568
		c-0.568,1.176-0.988,2.42-1.463,3.639c0.51,0.334,1.021,0.664,1.533,0.998c2.828-3.096,5.656-6.189,8.508-9.309
		c0.508,0.947,1.154,2.148,1.85,3.441c7.74-12.188,7.74-12.188,7.672-20.574c3.906-1.484,8.938-1.617,8.906-8.055
		c1.799,1.621,3.254,2.938,5.246,4.734c-1.941,1.002-3.381,1.746-4.816,2.486c0.82,1.127,1.697,2.328,2.881,3.951
		c-5.229,0.908-4.373,3.104-2.068,5.652c7.102-6.436,9.445-14.832,10.285-23.766c0.859-9.17,1.408-18.367,2.141-28.165
		c1.352,1.848,2.219,3.035,3.09,4.224c1.076-2.204,1.246-4.249,1.047-6.253c-0.766-7.771-1.822-15.516-2.43-23.297
		c-0.498-6.348,0.541-13.016-1.08-19.006c-1.309-4.836-0.494-8.789,0.756-13.004c0.365-1.232,1.906-2.115,2.295-2.52
		c4.893,10.48,0.338,21.105,3.115,32.168c2.514,9.994,4.141,20.088,7.492,29.773c0.564-0.131,1.129-0.262,1.691-0.395
		c-0.715-6.076-1.43-12.152-2.266-19.246c2.365,1.322,3.617,2.02,5.916,3.307c-0.596-2.396-1.162-3.912-1.318-5.467
		c-0.309-3.094-1.779-7.441-0.313-9.098c5.471-6.182,0.457-13.977,4.084-20.146c-4.092-2.941,1.174-4.158,1.357-6.529
		c0.951-12.254,2.645-24.451,4.301-36.639c0.125-0.922,1.984-1.596,3.012-2.416c0.16-0.129,0.178-0.43,0.328-0.828
		C550.515,329.602,549.521,329.465,548.526,329.33z M438.081,230.961c2.135,0.67,3.992,1.203,5.811,1.838
		c3.701,1.289,7.291,3.21,11.094,3.788c3.477,0.531,5.98-2.323,8.904-4.081c4.947-2.98,11.922-2.365,17.754-4.189
		c3.59-1.122,7.484-3.357,9.604-6.279c1.201-1.655,0.111-6.933-1.717-8.461c-6.029-5.027-12.639-9.696-20.752-10.771
		c-5.174-0.685-10.174-2.457-11.615-7.267c-1.502-5.02-4.088-4.406-7.584-3.862c-1.814,0.282-3.676,0.325-5.516,0.336
		c-5.902,0.041-11.801,0.015-17.701,0.015c0,0.53,0.004,1.06,0.008,1.59c2.598,0.157,5.199,0.318,7.803,0.476
		c0.092,0.594,0.189,1.188,0.283,1.782c-2.361,0.791-4.719,1.582-5.572,1.869c-2.271,3.407-3.842,5.76-4.996,7.492
		c1.154,3.74,2.311,7.48,3.541,11.458c3.967-2.41,3.912,1.501,3.938,3.813c0.041,4.079,2.023,5.687,5.672,6.119
		c0.256,0.029,0.459,0.465,0.77,0.797C437.905,228.702,438.013,230.103,438.081,230.961z M369.161,179.128
		c-3.322,0-6.567,0.99-8.476-0.187c-5.705-3.519-11.067-1.913-16.647-0.362c-4.352,1.209-8.727,2.339-13.102,3.457
		c-2.52,0.649-5.344,0.694-7.542,1.902c-5.281,2.901-10.895,5.674-15.184,9.751c-3.383,3.216-7.169,7.258-6.794,13.319
		c7.718-3.213,15.221-4.518,23.177-2.404c2.5,0.665,5.34-0.045,8.009,0.121c1.597,0.101,3.232,0.506,4.723,1.097
		c1.219,0.485,2.328,2.175,3.353,2.066c3.837-0.408,7.605-1.458,11.43-2.046c12.002-1.846,17.418-10.156,20.843-21.421
		c-2.614-0.173-4.976-0.331-7.949-0.528C366.503,182.174,367.633,180.879,369.161,179.128z M344.255,273.169
		c-7.109-0.007-14.187,0.082-20.007,4.693c-5.641,4.47-11.316,9.002-16.28,14.175c-2.476,2.58-5.113,6.879-4.694,10
		c1.086,8.088,6.341,14.363,12.284,19.846c0.263,0.244,0.986-0.018,1.896-0.066c0-2.941,0-5.801,0-9.027
		c4.654,1.678,8.791,4.352,13.006,4.479c14.908,0.449,29.854,0.32,44.764-0.201c6.455-0.227,12.847-2.012,19.289-2.961
		c2.946-0.438,5.937-0.557,8.91-0.82c-4.299-1.66-8.42-2.59-12.524-2.518c-8.021,0.131-16.029,0.857-24.047,1.25
		c-1.683,0.084-4.103-0.986-4.956-0.195c-4.579,4.227-9.163,1.436-13.74,0.535c-2.317-0.453-4.583-1.174-7.608-1.969
		c-1.328-2.697-2.262-8.188-5.326-9.922c-4.03-2.287-9.733-1.62-15.176-2.279C323.483,285.523,335.584,281.248,344.255,273.169z
		 M367.463,275.994c6.412,8.008,13.021,5.141,18.431,2.487c1.632,2.065,2.638,3.666,3.964,4.929
		c1.519,1.445,4.942,3.015,4.736,3.791c-1.172,4.458,3.024,4.133,4.207,3.965c5.142-0.725,5.027,2.024,4.794,3.985
		c-4.229,2.057-7.502,3.649-10.905,5.304c0.093,0.853,0.222,2.029,0.413,3.783c3.583-1.238,7.042-2.432,10.214-3.526
		c0.686,2.286,1.484,4.958,2.285,7.631c1.209-3.994,0.578-8.03,1.771-11.422c1.289-3.653,4.289-6.706,6.523-9.995
		c1.76,0.726,3.461,1.747,5.293,2.097c1.791,0.34,5.043,0.542,5.328-0.152c0.926-2.255,1.447-5.131,0.811-7.402
		c-0.383-1.363-3.148-2.674-4.955-2.854c-1.924-0.19-3.959,1.115-5.998,1.51c-1.445,0.283-3.693,0.786-4.334,0.069
		c-2.621-2.917-4.76-6.264-7.311-9.78c-1.434,0.337-4.062,0.223-4.596,1.225c-1.5,2.808-2.892,4.283-6.1,2.601
		c-2.303-1.206-6.129-1.7-6.783-3.445c-1.975-5.282-5.366-2.683-7.667-1.642C374.15,270.708,371.216,273.378,367.463,275.994z
		 M298.286,166.521c0.307,0.336,0.613,0.671,0.92,1.008c3.024-1.632,5.894-3.708,9.101-4.809c9.091-3.117,18.372-3.981,27.795-1.172
		c1.424,0.424,3.868,0.691,4.501-0.076c2.53-3.066,4.204-1.281,6.66,0.042c1.371,0.737,4.32,0.3,5.519-0.77
		c2.298-2.055,3.858-4.94,5.848-7.652c-6.82-9.34-12.526-9.78-21.738-8.886c-5.175,0.503-10.209,2.453-15.305,3.759
		c-6.104,1.564-12.596,2.505-14.941,9.841c-0.305,0.955-1.062,1.84-1.797,2.563C302.712,162.473,300.48,164.478,298.286,166.521z
		 M453.003,317.879c-8.828,7.508-24.264,7.951-36.059,1.734c-4.24-2.23-7.221-2.357-9.352,2.326c-1.143-0.537-2.281-1.074-4.1-1.93
		c0.295,6.252,0.559,11.787,0.822,17.391c-0.518-0.463-1.063-0.953-2.504-2.252c0.934,7.65,1.75,14.344,2.766,22.684
		c4.699-2.414,9.189-4.082,12.83-6.861c1.883-1.438,2.865-4.814,3.014-7.387c0.057-0.977-3.264-2.404-5.223-3.188
		c-3.172-1.273-6.49-2.186-9.748-3.25c0.082-0.543,0.162-1.09,0.242-1.635c3.754-1.471,7.395-3.414,11.279-4.313
		c6.658-1.541,13.633-1.854,20.168-3.746c7.363-2.135,14.273-2.961,21.242,1.813c1.059-2.955,3.305-6.465,2.479-7.486
		C459.245,319.785,455.911,319.182,453.003,317.879z M363.28,207.39c-5.927,0.031-11.298-0.526-16.764,2.848
		c-4.568,2.818-10.27,3.812-15.484,5.569c-2.306,0.777-4.649,1.449-8.206,2.549C336.486,222.176,358.063,216.067,363.28,207.39z
		 M672.892,481.206c-1.951-2.516-3.363-4.766-5.195-6.584c-1.828-1.807-3.961-2.785-5.014,0.959
		c-0.137,0.492-0.848,0.822-1.547,1.455c-0.189-1.834-0.332-3.197-0.545-5.223c-4.521,0.645-8.84,1.188-13.119,1.959
		c-0.557,0.102-1.27,1.389-1.238,2.098c0.027,0.646,0.871,1.664,1.521,1.816c7.029,1.65,14.08,3.236,21.162,4.643
		C669.958,482.536,671.2,481.714,672.892,481.206z M523.325,225.379c0-9.781,0-19.566,0-29.642
		C518.595,199.501,517.892,220.704,523.325,225.379z M509.753,481.81c-0.4-0.188-0.801-0.373-1.203-0.561
		c-1.869,2.389-3.939,4.66-5.482,7.246c-0.439,0.734,0.646,2.383,1.035,3.615c1.154-0.527,3.01-0.777,3.336-1.621
		C508.509,487.71,509.026,484.72,509.753,481.81z M689.558,506.372c-0.246-6.266-2.322-7.686-7.434-5.787
		C684.95,502.786,687.255,504.581,689.558,506.372z"/>
	<path fill-rule="evenodd" clip-rule="evenodd" d="M543.985,534.825c1.904-1.08,3.809-2.162,5.713-3.242
		c0.084,0.188,0.168,0.379,0.25,0.568c5.66-4.691,11.531-9.156,16.914-14.146c4.713-4.369,9.033-9.203,13.188-14.117
		c1.146-1.354,1.076-3.736,1.932-7.086c-4.574,4.336-7.947,7.531-11.76,11.143c-0.627-3.203-1.061-5.426-1.652-8.441
		c-0.926,5.227-0.318,10.607-2.719,13.41c-4.234,4.945-10.275,8.357-15.707,12.205c-0.223,0.154-2.139-1.658-2.898-2.801
		c-0.916-1.375-1.441-3.016-2.33-4.971c3.6-1.672,2.691-4.287,0.535-7.824c-3.045-4.998-5.783-10.307-7.756-15.801
		c-1.807-5.029,3.68-2.508,5.461-4.229c0-2.035,0-4.176,0-6.32c0.42-0.199,0.836-0.402,1.254-0.604
		c3.973,7.115,7.945,14.232,11.92,21.346c0.295-0.018,0.59-0.033,0.885-0.047c-0.869-3.574-1.746-7.148-2.611-10.725
		c-0.703-2.902-3.832-5.438-1.232-8.902c0.287-0.381-0.467-1.848-1.061-2.531c-3.053-3.504-6.328-6.818-9.242-10.428
		c-0.666-0.822-0.213-2.547-0.318-4.852c5.869,3.188,10.5,5.584,14.994,8.219c1.287,0.756,2.021,2.436,3.285,3.273
		c2.203,1.461,4.621,2.598,7.574,4.211c-0.748,5.516,6.193-0.184,7.564,3.281c2.049-3.133,1.109-4.857-1.607-6.645
		c-1.99-1.313-7.428-1.857-2.764-6.334c-0.697-0.711-1.395-1.426-3.297-3.367c8.506,2.465,16.109-0.102,23.33,4.98
		c3.072,2.158,9.221,0.334,13.898-0.262c6.268-0.797,12.449-2.268,18.707-3.211c1.844-0.277,3.814,0.396,5.723,0.354
		c0.9-0.021,1.787-0.705,2.684-1.09c-0.494-0.588-0.984-1.18-1.818-2.176c6.141-2,12.383-4.031,18.648-6.07
		c1.41,1.943,2.723,3.746,5.006,6.895c-5.975,0.971-11.338,2.316-16.746,2.549c-3.391,0.148-8.6,2.467-10.529,7.09
		c2.977-0.213,5.861-1.24,8.084-0.436c8.938,3.242,17.799,6.783,26.387,10.857c1.863,0.883,1.893,4.201,5.016,5.695
		c2.4,1.15,4.635,3.258,7.553,4.467c2.574,1.066,4.297,4.172,6.414,6.357c1.023,1.053,1.953,2.281,3.168,3.043
		c3.895,2.441,7.988,4.57,11.811,7.117c1.039,0.695,1.383,2.439,2.273,4.139c1.131,0,2.816,0,5.043,0
		c0.199,2.447,0.402,4.986,0.656,8.148c1.123-1.217,1.924-2.09,2.795-3.033c2.543,5.438,2.543,5.438,10.064,5.006
		c-0.557,1.85-1.08,3.592-1.607,5.336C658.034,534.825,601.011,534.825,543.985,534.825z M637.437,513.858
		c1.898-2.813,3.588-5.662,5.613-8.246c2.561-3.268,1.281-5.994-1.35-7.92c-1.281-0.936-4.42-1.234-5.379-0.359
		C633.251,500.142,634.317,510.167,637.437,513.858z M655.155,488.554c-0.34,2.314-0.68,4.648-1.203,8.23
		c2.41-2.428,4.363-4.402,6.93-6.986C658.112,489.196,656.341,488.812,655.155,488.554z M675.712,514.374
		c-0.471,0.629-0.941,1.26-1.414,1.891c3.064,2.371,6.121,4.742,9.178,7.111c0.432-0.531,0.863-1.066,1.291-1.598
		C681.749,519.31,678.731,516.839,675.712,514.374z"/>
	<path fill-rule="evenodd" clip-rule="evenodd" d="M403.726,67.295c0,15.87,0,31.741,0,48.127c-1.666,0.386-3.27,0.757-5.242,1.212
		c1.976-3.896,0.381-5.088-3.231-4.999c-7.201,0.178-13.734,2.262-19.669,6.361c-0.98,0.678-2.312,0.847-3.481,1.25
		c-0.356-0.491-0.715-0.984-1.071-1.476c2.576-2.697,5.153-5.396,8.004-8.378c-3.842,0.383-7.909,0.791-13.17,1.317
		c2.952-6.587,5.418-12.096,7.887-17.608c-0.209-0.16-0.418-0.32-0.629-0.481c-3.298,2.585-6.593,5.171-9.892,7.754
		c-2.67,2.094-5.258,4.313-8.076,6.189c-0.693,0.461-2.714,0.175-3.107-0.428c-0.759-1.17-1.199-2.852-1.055-4.249
		c0.414-4,2.857-7.939,0.1-11.958c1.952-0.125,4.112,0.203,5.767-0.563c0.968-0.449,1.129-2.642,1.65-4.052
		c-0.639-0.358-1.281-0.716-1.919-1.073c-1.829,1.914-3.659,3.828-5.488,5.741c-6.715,6.231-13.43,12.463-21.136,19.612
		c0.895-1.985,1.289-2.862,1.738-3.857c-1.737-1.358-3.686-2.88-6.92-5.405c0.677,2.622,1.03,3.995,1.624,6.296
		c-0.588,1.346-1.715,3.922-3.2,7.32c-1.293-2.828-2.14-4.977-3.24-6.986c-0.676-1.234-1.741-2.256-2.631-3.375
		c-0.942,1.293-2.341,2.461-2.734,3.904c-0.748,2.747-0.073,6.885-4.924,4.326c-1.039-0.548-1.805-3.408-1.328-4.697
		c1.512-4.099,3.67-7.959,5.578-11.91c-0.49-0.337-0.979-0.672-1.469-1.008c-1.822,2.055-3.44,4.346-5.508,6.115
		c-4,3.424-8.439,6.348-12.324,9.89c-2.125,1.937-3.889,4.527-5.081,7.158c-1.084,2.396-0.994,4.145-4.188,1.527
		c-2.713-2.223-6.431-0.669-7.312,2.415c-1.13,3.948-3.013,7.015-5.208,10.41c-2.844,4.399-4.47,10.055-5.011,15.335
		c-0.487,4.744,1.632,9.692,1.853,14.583c0.55,12.11,1.259,24.263,0.796,36.357c-0.445,11.605-2.283,23.158-3.532,34.953
		c-8.421-2.769-10.746-6.374-10.316-13.795c0.139-2.387,0.054-5.258-1.123-7.178c-8.023-13.074-7.862-27.55-7.793-42.061
		c0.04-8.669,0.006-17.335,0.006-25.975c1.458-1.094,2.713-2.034,4.451-3.335c-1.621-2.952-4.79-6.035-4.638-8.945
		c0.479-9.179,2.197-18.295,3.446-27.434c0.286-2.095,0.616-4.186,1.079-7.309c0.789-1.105,2.035-3.755,4.066-5.488
		c3.293-2.81,8.688-4.25,10.335-7.653c2.778-5.735,7.177-5.823,12.007-7.467c4.688-1.596,8.455-5.898,12.625-9.012
		c4.604,0,9.208,0,13.813,0c-6.277,7.33-13.65,14.046-13.922,24.748c3.504-1.105,6.989-2.205,10.758-3.395
		c0.604,0.967,1.305,2.087,2.02,3.229c-1.291,0.903-2.384,1.665-3.475,2.427c10.1-2.052,16.733-9.334,23.531-16.365
		c0.505,0.457,1.011,0.916,1.517,1.372c-1.497,3.581-2.994,7.162-4.389,10.497c1.855,0.167,4.135,0.371,6.803,0.611
		c0.984-3.17,1.98-6.388,3.109-10.024c0.688-0.257,2.039-0.761,4.654-1.737c-2.629-0.27-3.856-0.396-5.275-0.542
		c0.65-1.307,1.1-2.212,1.547-3.113c-0.249-0.242-0.498-0.484-0.748-0.725c-1.601,0.898-3.202,1.798-4.802,2.698
		c-0.293-0.241-0.585-0.481-0.878-0.721c1.518-2.489,3.036-4.978,4.555-7.466c-0.252-0.228-0.505-0.455-0.758-0.682
		c-5.135,3.401-10.27,6.803-16.293,10.794c-0.167-3.732-0.341-7.669-0.517-11.606C342.804,67.295,373.264,67.295,403.726,67.295z"/>
	<path fill-rule="evenodd" clip-rule="evenodd" d="M241.151,534.825c-1.259-2.475-2.556-4.17-0.593-7.732
		c2.01-3.645,1.262-8.932,1.333-13.502c0.344-21.865,0.541-43.73,0.826-65.594c0.051-4.1,0.088-8.213,0.485-12.287
		c0.143-1.461,1.331-2.822,2.043-4.227c1.687,1.385,4.729,2.672,4.836,4.166c0.54,7.646,0.283,15.346,0.38,23.027
		c0.102,7.936-0.314,15.945,0.608,23.791c0.985,8.385,3.717,16.555,4.859,24.932c1.24,9.074,1.523,18.277,2.223,27.426
		C252.485,534.825,246.819,534.825,241.151,534.825z"/>
	<path fill-rule="evenodd" clip-rule="evenodd" d="M299.593,534.825c-1.084-5.375-2.171-10.75-3.253-16.127
		c-0.104-0.516-0.444-1.219-0.231-1.529c4.594-6.658-1.943-12.652-1.092-19.447c1.003-8.027-0.804-16.438-1.658-24.652
		c-1.175-11.313-2.77-22.582-3.866-33.898c-1.069-11.034-1.805-22.103-2.484-33.169c-0.081-1.324,1.112-2.73,2.256-5.326
		c1.865,11.766,3.248,21.734,5.06,31.624c2.634,14.383,5.777,28.672,8.325,43.068c2.129,12.049,3.391,24.254,5.658,36.273
		c1.479,7.838,4.069,15.465,6.163,23.184C309.511,534.825,304.552,534.825,299.593,534.825z"/>
	<path fill-rule="evenodd" clip-rule="evenodd" fill="#FFFFFF" d="M312.344,67.295c0.175,3.937,0.35,7.874,0.517,11.606
		c6.024-3.991,11.159-7.393,16.293-10.794c0.252,0.228,0.505,0.455,0.758,0.682c-1.519,2.488-3.037,4.977-4.555,7.466
		c0.293,0.239,0.585,0.48,0.878,0.721c1.6-0.9,3.202-1.8,4.802-2.698c0.25,0.241,0.499,0.483,0.748,0.725
		c-0.448,0.901-0.897,1.806-1.547,3.113c1.419,0.146,2.646,0.272,5.275,0.542c-2.615,0.976-3.966,1.479-4.654,1.737
		c-1.129,3.636-2.125,6.854-3.109,10.024c-2.668-0.24-4.948-0.445-6.803-0.611c1.395-3.335,2.892-6.916,4.389-10.497
		c-0.506-0.457-1.011-0.915-1.517-1.372c-6.798,7.031-13.432,14.313-23.531,16.365c1.091-0.762,2.184-1.524,3.475-2.427
		c-0.715-1.142-1.417-2.262-2.02-3.229c-3.77,1.19-7.254,2.29-10.758,3.395c0.272-10.702,7.645-17.417,13.922-24.748
		C307.387,67.295,309.865,67.295,312.344,67.295z"/>
	<path fill-rule="evenodd" clip-rule="evenodd" d="M148.708,534.825c0.452-3.666,0.919-7.33,1.349-11.002
		c0.26-2.221,0.486-4.445,0.688-6.672c0.646-7.133,1.209-14.273,1.983-21.393c0.11-1.016,1.203-1.928,2.113-3.295
		c2.004,4.441,3.6,7.975,5.318,11.785c-3.649,4.152,0.2,8.973,2.161,11.715c3.344,4.676,4.784,8.738,3.344,14.146
		c-0.39,1.465,0.008,3.139,0.045,4.715C160.042,534.825,154.376,534.825,148.708,534.825z"/>
	<path fill-rule="evenodd" clip-rule="evenodd" d="M89.204,534.825c-0.887-9.648-1.84-19.291-2.598-28.949
		c-0.137-1.762,0.523-3.588,0.815-5.383c0.524-0.172,1.051-0.35,1.576-0.523c0.822,2.395,1.873,4.74,2.423,7.197
		c1.57,7.004,3.05,14.035,4.313,21.1c0.379,2.111-0.079,4.369-0.153,6.559C93.455,534.825,91.329,534.825,89.204,534.825z"/>
	<path fill-rule="evenodd" clip-rule="evenodd" d="M454.729,534.825c-0.617-3.664-1.395-7.219,3.523-8.951
		c0.912-0.32,0.986-3.029,2.496-4.604c-0.236,4.518-0.473,9.037-0.707,13.555C458.271,534.825,456.499,534.825,454.729,534.825z"/>
	<path fill-rule="evenodd" clip-rule="evenodd" d="M445.165,534.825c1.426-3.258,3.211-6.422,4.129-9.818
		c0.51-1.891-0.43-4.17,0.375-6.324c4.375,5.5,0.471,10.754-0.252,16.143C447.999,534.825,446.583,534.825,445.165,534.825z"/>
	<path fill-rule="evenodd" clip-rule="evenodd" d="M518.483,534.825c0.754-2.305,1.51-4.609,2.262-6.916
		c0.498-0.049,0.994-0.094,1.488-0.143c1.229,2.354,2.459,4.707,3.688,7.059C523.44,534.825,520.96,534.825,518.483,534.825z"/>
	<path fill-rule="evenodd" clip-rule="evenodd" d="M503.606,534.825c0-3.834,0-7.668,0-11.502c0.641-0.043,1.279-0.084,1.916-0.127
		c0.426,3.875,0.85,7.754,1.271,11.629C505.733,534.825,504.671,534.825,503.606,534.825z"/>
	<path fill-rule="evenodd" clip-rule="evenodd" d="M548.526,329.33c0.994,0.135,1.988,0.271,3.1,0.424
		c-0.15,0.398-0.168,0.699-0.328,0.828c-1.027,0.82-2.887,1.494-3.012,2.416c-1.656,12.188-3.35,24.385-4.301,36.639
		c-0.184,2.371-5.449,3.588-1.357,6.529c-3.627,6.17,1.387,13.965-4.084,20.146c-1.467,1.656,0.004,6.004,0.313,9.098
		c0.156,1.555,0.723,3.07,1.318,5.467c-2.299-1.287-3.551-1.984-5.916-3.307c0.836,7.094,1.551,13.17,2.266,19.246
		c-0.563,0.133-1.127,0.264-1.691,0.395c-3.352-9.686-4.979-19.779-7.492-29.773c-2.777-11.063,1.777-21.688-3.115-32.168
		c-0.389,0.404-1.93,1.287-2.295,2.52c-1.25,4.215-2.064,8.168-0.756,13.004c1.621,5.99,0.582,12.658,1.08,19.006
		c0.607,7.781,1.664,15.525,2.43,23.297c0.199,2.004,0.029,4.049-1.047,6.253c-0.871-1.188-1.738-2.376-3.09-4.224
		c-0.732,9.798-1.281,18.995-2.141,28.165c-0.84,8.934-3.184,17.33-10.285,23.766c-2.305-2.549-3.16-4.744,2.068-5.652
		c-1.184-1.623-2.061-2.824-2.881-3.951c1.436-0.74,2.875-1.484,4.816-2.486c-1.992-1.797-3.447-3.113-5.246-4.734
		c0.031,6.438-5,6.57-8.902,8.057c0.064,8.385,0.064,8.385-7.676,20.572c-0.695-1.293-1.342-2.494-1.85-3.441
		c-2.852,3.119-5.68,6.213-8.508,9.309c-0.512-0.334-1.023-0.664-1.533-0.998c0.475-1.219,0.895-2.463,1.463-3.639
		c0.152-0.309,1.127-0.525,1.111-0.568c-2.033-5.762,2.254-10.188,3.238-15.299c1.416-7.35,3.162-14.633,4.559-21.988
		c1.141-5.988,1.98-12.031,2.945-18.055c0.123-0.773-0.1-1.992,0.32-2.268c8.166-5.335,4.336-13.403,4.408-20.55
		c-0.348,2.174-0.424,4.439-1.098,6.508c-2.113,6.494-4.717,12.837-6.629,19.384c-2.039,6.98-3.365,14.166-5.307,21.18
		c-0.689,2.496-2.377,4.699-3.404,7.123c-0.846,1.992-1.6,4.068-2.016,6.184c-0.508,2.586-1.115,4.576-3.539,3.529
		c-4.063,8.922-8.119,17.832-12.061,26.49c-3.105-2.193-5.395-3.813-7.785-5.5c-0.584,6.563-1.205,13.555-1.938,21.793
		c-2.686-2.52-4.08-3.832-5.217-4.898c0.883-1.072,2.139-2.602,4.256-5.174c-4.744,0.602-7.582,0.963-10.307,1.307
		c-0.213-3.387,0.008-6.59-0.723-9.563c-0.764-3.119-1.611-7.043-6.703-5.805c1.289-0.328,2.574-0.658,4.732-1.211
		c-2.068-1.955-3.84-3.199-5.004-4.871c-0.896-1.281-1.025-3.1-1.652-4.699c-1.697-4.873-3.396-9.746-5.223-14.982
		c1.324,0.266,2.246,0.451,2.588,0.521c-0.953-3.914-1.92-7.881-2.979-12.225c-0.9,2.379-1.652,4.367-2.658,7.027
		c-1.998-4.926-3.422-8.436-5.201-12.814c2.248,1.521,3.877,2.627,5.514,3.732c1.42-4.188,2.6-8,4.006-11.727
		c1.336-3.543,2.91-6.994,4.473-10.707c-1.738-0.26-3.168-0.475-5.908-0.885c7.043-3.419,5.324-6.864,1.314-10.374
		c0.9-1.307,1.932-2.34,2.357-3.584c0.258-0.752-0.188-2.027-0.754-2.693c-0.451-0.525-2.107-0.893-2.305-0.633
		c-3.543,4.686-6.496-0.621-10.629,0.029c-2.391,4.705-6.328,5.527-11.203-0.105c-0.309,0.424-0.615,0.852-0.924,1.275
		c0,13.339,0,26.677,0,40.472c-5.182-0.352-8.506-1.504-11.114-4.992c-0.757-1.014-3.328-1.389-4.806-1.018
		c-5.778,1.455-9.192-2.275-12.962-5.346c-1.62-1.318-3.085-3.732-4.784-3.889c-6.765-0.627-9.878-5.932-13.832-10.035
		c-5.642-5.862-11.062-11.954-16.287-18.19c-3.057-3.646-5.499-7.803-8.341-11.643c-0.702-0.945-1.784-1.752-2.863-2.246
		c-9.213-4.256-15.39-10.855-18.891-20.684c-2.759-7.748-7.329-14.852-11.063-22.254c-0.272-0.541-0.301-1.205,0.536-2.389
		c5.482,7.029,10.914,14.102,16.468,21.078c3.23,4.059,5.617,9.109,11.417,10.365c0.167,0.035,0.333,0.133,0.468,0.238
		c1.289,1.023,2.571,2.053,3.857,3.078c0.211-2.242,0.869-4.553,0.546-6.719c-0.785-5.279,2.603-8.801,8.012-8.326
		c1.934,0.17,4.819-0.047,5.793-1.266c3.139-3.928,6.045-1.998,9.877-0.533c-1.545,1.887-2.803,3.426-4.131,5.049
		c1.486,1.57,2.978,3.152,4.533,4.795c1.815-1.119,3.657-2.256,6.559-4.047c0.347,3.98,0.602,6.881,0.926,10.613
		c3.263-1.365,6.467-2.707,9.982-4.18c-0.529,1.992-1.003,3.777-1.762,6.631c4.188-3.736,10.79-3.311,14.184-0.504
		c1.017,0.838,3.584,1.125,4.572,0.432c3.374-2.375,6.359-5.299,9.672-8.168c0.088,0.279,0.574,1.803,1.502,4.703
		c0.699-7.102,1.264-12.834,1.854-18.82c0.701-0.057,2.1-0.475,2.309-0.143c3.57,5.674,10.576,5.914,15.385,9.898
		c6.289,5.201,13.494,2.982,20.09-0.916c5.615-3.322,11.646-6.029,16.918-9.811c6.35-4.555,12.305-9.729,18.049-15.047
		c8.326-7.707,14.893-16.934,18.84-27.514c2.723-7.299,3.418-15.326,5.598-22.86c2.156-7.455,5.188-14.651,7.551-22.053
		c1.746-5.471,3.133-11.065,4.512-16.643c2.482-10.068,4.838-20.167,8.074-30.443c1.498,9.795,2.396,19.729,4.693,29.334
		c1.676,6.998,2.217,14.745,8.371,20.207c1.076,0.953,0.172,4.126,0.207,6.272c0.018,1.035,0.088,2.067,0.135,3.1
		c0.701,0.06,1.404,0.12,2.107,0.178c0.244-2.813,0.92-5.67,0.633-8.429c-0.445-4.32-1.936-8.54-2.268-12.859
		c-0.57-7.451-4.531-14.934,0.791-24.019c1.684,6.712,3.154,12.18,4.402,17.695c0.773,3.412,0.09,7.267,5.492,7.981
		c1.596,0.209,2.488,3.939,0.398,4.936c1.623,2.674,4.129,5.22,4.801,8.184c2.725,12.008,5.576,24.067,6.953,36.267
		c0.654,5.807,4.473,11.191,2.467,17.359c-0.174,0.527,0.523,1.799,1.102,2.037c4.717,1.939,1.18,2.949-0.504,4.281
		c4.895,1.119,4.301,4.678,3.174,7.922c-0.91,2.625-0.932,4.967-0.951,7.729c-0.045,6.738-1.719,13.498-3.061,20.184
		c-0.566,2.834-1.934,5.51-2.988,8.391c-0.992-2.656-1.889-5.057-3.01-8.066c6.098-3.898,2.666-10.955,3.957-16.82
		c0.168-0.764-2.285-2.104-3.586-3.232c2.807-4.205,0.469-35.896-3.428-41.357C548.511,321.615,557.077,328.199,548.526,329.33z
		 M509.663,371.518c0.525,0.242,1.049,0.486,1.576,0.73c3.432-6.805,6.867-13.607,10.301-20.414
		c-0.611-0.301-1.219-0.604-1.83-0.908C513.593,356.396,512.854,364.574,509.663,371.518z M505.729,383.18
		c-0.633-0.137-1.268-0.273-1.902-0.408c-2.441,8.627-4.885,17.256-7.326,25.887c0.547,0.146,1.092,0.299,1.639,0.449
		C500.671,400.463,503.2,391.82,505.729,383.18z"/>
	<path fill-rule="evenodd" clip-rule="evenodd" d="M438.081,230.961c-0.068-0.858-0.176-2.259-0.273-3.538
		c-0.311-0.333-0.514-0.768-0.77-0.797c-3.648-0.432-5.631-2.04-5.672-6.119c-0.025-2.312,0.029-6.223-3.938-3.813
		c-1.23-3.978-2.387-7.718-3.541-11.458c1.154-1.732,2.725-4.085,4.996-7.492c0.854-0.287,3.211-1.078,5.572-1.869
		c-0.094-0.594-0.191-1.188-0.283-1.782c-2.604-0.158-5.205-0.319-7.803-0.476c-0.004-0.531-0.008-1.06-0.008-1.59
		c5.9,0,11.799,0.026,17.701-0.015c1.84-0.011,3.701-0.054,5.516-0.336c3.496-0.544,6.082-1.157,7.584,3.862
		c1.441,4.811,6.441,6.583,11.615,7.267c8.113,1.074,14.723,5.743,20.752,10.771c1.828,1.528,2.918,6.807,1.717,8.461
		c-2.119,2.922-6.014,5.157-9.604,6.279c-5.832,1.824-12.807,1.209-17.754,4.189c-2.924,1.757-5.428,4.611-8.904,4.081
		c-3.803-0.578-7.393-2.499-11.094-3.788C442.073,232.164,440.216,231.631,438.081,230.961z M470.913,224.475
		c0.734,0.604,1.465,1.207,2.195,1.811c1.463-1.395,2.926-2.789,4.389-4.184c-0.992-1.023-1.982-2.047-2.973-3.072
		C473.321,220.845,472.118,222.659,470.913,224.475z"/>
	<path fill-rule="evenodd" clip-rule="evenodd" d="M520.431,113.105c-4.488-4.931-8.977-9.86-13.967-15.336
		c-0.9,1.002-2.105,1.893-2.576,3.076c-0.195,0.488,1.34,1.524,1.807,2.453c0.811,1.603,2.252,3.566,1.857,4.919
		c-0.48,1.652-2.582,2.831-4.836,3.27c-0.293,1.694-0.584,3.387-1.049,6.092c-10.074-8.126-19.652-15.854-29.037-23.424
		c0.184-2.869,0.375-5.871,0.566-8.874c-0.461-0.029-0.92-0.058-1.379-0.087c2.787-9.31,13.223-4.239,18.432-9.793
		c-0.781-0.57-1.576-1.561-2.035-1.424c-5.064,1.508-10.121,3.078-15.072,4.918c-1.059,0.394-1.566,2.084-2.549,2.917
		c-1.902,1.615-3.949,3.063-5.959,4.544c-1.398,1.028-2.836,1.997-4.139,2.91c-1.854-4.094-6.715-4.052-10.998-5.095
		c-1.639-0.399-3.453-0.41-4.904-1.154c-2.377-1.221-4.521-2.896-7.158-4.641c0.322-0.597,1.41-1.65,1.266-2.491
		c-1.369-7.936,3.641-7.643,9.074-7.561c12.02,0.183,24.045,0.002,36.07,0.108c1.658,0.014,3.801,0.298,4.889,1.333
		c6.26,5.96,12.33,12.128,18.342,18.342c3.035,3.136,6.527,6.136,8.533,9.882c2.439,4.556,3.531,9.835,5.205,14.801L520.431,113.105
		z"/>
	<path fill-rule="evenodd" clip-rule="evenodd" d="M369.161,179.128c-1.528,1.751-2.658,3.046-4.16,4.768
		c2.974,0.197,5.335,0.355,7.949,0.528c-3.425,11.265-8.84,19.575-20.843,21.421c-3.825,0.588-7.593,1.638-11.43,2.046
		c-1.025,0.108-2.133-1.581-3.353-2.066c-1.491-0.591-3.126-0.997-4.723-1.097c-2.669-0.166-5.509,0.544-8.009-0.121
		c-7.957-2.114-15.459-0.81-23.177,2.404c-0.375-6.062,3.411-10.104,6.794-13.319c4.29-4.077,9.903-6.851,15.184-9.751
		c2.198-1.208,5.022-1.253,7.542-1.902c4.375-1.118,8.75-2.248,13.102-3.457c5.581-1.551,10.942-3.157,16.647,0.362
		C362.594,180.118,365.839,179.128,369.161,179.128z"/>
	<path fill-rule="evenodd" clip-rule="evenodd" d="M344.255,273.169c-8.67,8.078-20.771,12.354-24.21,25.018
		c5.443,0.659,11.146-0.008,15.176,2.279c3.064,1.735,3.998,7.225,5.326,9.922c3.025,0.795,5.291,1.516,7.608,1.969
		c4.577,0.9,9.161,3.691,13.74-0.535c0.854-0.791,3.273,0.279,4.956,0.195c8.018-0.393,16.026-1.119,24.047-1.25
		c4.104-0.072,8.226,0.857,12.524,2.518c-2.973,0.264-5.963,0.383-8.91,0.82c-6.441,0.949-12.834,2.734-19.289,2.961
		c-14.911,0.521-29.856,0.65-44.764,0.201c-4.215-0.127-8.353-2.801-13.006-4.479c0,3.227,0,6.086,0,9.027
		c-0.91,0.049-1.633,0.311-1.896,0.066c-5.943-5.482-11.198-11.758-12.284-19.846c-0.419-3.121,2.218-7.419,4.694-10
		c4.964-5.173,10.64-9.706,16.28-14.175C330.068,273.251,337.146,273.163,344.255,273.169z"/>
	<path fill-rule="evenodd" clip-rule="evenodd" d="M367.463,275.994c3.753-2.616,6.687-5.286,10.124-6.841
		c2.301-1.041,5.692-3.64,7.667,1.642c0.654,1.745,4.48,2.239,6.783,3.445c3.208,1.683,4.6,0.207,6.1-2.601
		c0.534-1.002,3.163-0.888,4.596-1.225c2.551,3.516,4.689,6.863,7.311,9.78c0.641,0.717,2.889,0.214,4.334-0.069
		c2.039-0.395,4.074-1.7,5.998-1.51c1.807,0.18,4.572,1.491,4.955,2.854c0.637,2.271,0.115,5.147-0.811,7.402
		c-0.285,0.694-3.537,0.492-5.328,0.152c-1.832-0.351-3.533-1.371-5.293-2.097c-2.234,3.289-5.234,6.342-6.523,9.995
		c-1.193,3.393-0.563,7.428-1.771,11.422c-0.801-2.674-1.6-5.346-2.285-7.631c-3.172,1.094-6.631,2.288-10.214,3.526
		c-0.191-1.754-0.32-2.93-0.413-3.783c3.402-1.654,6.676-3.247,10.905-5.304c0.232-1.961,0.348-4.71-4.794-3.985
		c-1.183,0.167-5.379,0.493-4.207-3.965c0.206-0.776-3.217-2.346-4.736-3.791c-1.327-1.264-2.332-2.864-3.964-4.929
		C380.485,281.134,373.875,284.001,367.463,275.994z"/>
	<path fill-rule="evenodd" clip-rule="evenodd" d="M298.286,166.521c2.195-2.043,4.426-4.049,6.563-6.151
		c0.735-0.723,1.492-1.608,1.797-2.563c2.345-7.336,8.837-8.277,14.941-9.841c5.096-1.307,10.13-3.256,15.305-3.759
		c9.212-0.894,14.918-0.455,21.738,8.886c-1.99,2.711-3.55,5.597-5.848,7.652c-1.198,1.07-4.147,1.507-5.519,0.77
		c-2.456-1.323-4.129-3.108-6.66-0.042c-0.633,0.767-3.077,0.5-4.501,0.076c-9.423-2.809-18.704-1.945-27.795,1.172
		c-3.207,1.101-6.077,3.177-9.101,4.809C298.899,167.192,298.593,166.857,298.286,166.521z"/>
	<path fill-rule="evenodd" clip-rule="evenodd" d="M453.003,317.879c2.908,1.303,6.242,1.906,7.857,3.9
		c0.826,1.021-1.42,4.531-2.479,7.486c-6.969-4.773-13.879-3.947-21.242-1.813c-6.535,1.893-13.51,2.205-20.168,3.746
		c-3.885,0.898-7.525,2.842-11.279,4.313c-0.08,0.545-0.16,1.092-0.242,1.635c3.258,1.064,6.576,1.977,9.748,3.25
		c1.959,0.783,5.279,2.211,5.223,3.188c-0.148,2.572-1.131,5.949-3.014,7.387c-3.641,2.779-8.131,4.447-12.83,6.861
		c-1.016-8.34-1.832-15.033-2.766-22.684c1.441,1.299,1.986,1.789,2.504,2.252c-0.264-5.604-0.527-11.139-0.822-17.391
		c1.818,0.855,2.957,1.393,4.1,1.93c2.131-4.684,5.111-4.557,9.352-2.326C428.739,325.83,444.175,325.387,453.003,317.879z"/>
	<path fill-rule="evenodd" clip-rule="evenodd" d="M363.28,207.39c-5.217,8.677-26.794,14.786-40.454,10.966
		c3.556-1.1,5.899-1.772,8.206-2.549c5.214-1.757,10.916-2.75,15.484-5.569C351.982,206.864,357.353,207.421,363.28,207.39z"/>
	<path fill-rule="evenodd" clip-rule="evenodd" d="M672.892,481.206c-1.691,0.508-2.934,1.33-3.975,1.123
		c-7.082-1.406-14.133-2.992-21.162-4.643c-0.65-0.152-1.494-1.17-1.521-1.816c-0.031-0.709,0.682-1.996,1.238-2.098
		c4.279-0.771,8.598-1.314,13.119-1.959c0.213,2.025,0.355,3.389,0.545,5.223c0.699-0.633,1.41-0.963,1.547-1.455
		c1.053-3.744,3.186-2.766,5.014-0.959C669.528,476.44,670.94,478.69,672.892,481.206z"/>
	<path fill-rule="evenodd" clip-rule="evenodd" d="M523.325,225.379c-5.434-4.676-4.73-25.878,0-29.642
		C523.325,205.813,523.325,215.598,523.325,225.379z"/>
	<path fill-rule="evenodd" clip-rule="evenodd" d="M548.038,204.647c-1.953-3.233-4.361-6.014-0.916-10.247
		c1.318-1.622,0.018-5.507-0.342-8.33c-0.619-4.871-1.438-9.717-1.658-14.635c4.164,10.857,6.654,21.869,2.775,33.369
		L548.038,204.647z"/>
	<path fill-rule="evenodd" clip-rule="evenodd" d="M520.813,112.79c1.203,3.083,2.432,6.158,3.604,9.253
		c1.352,3.565,2.648,7.15,4.045,10.933c-1.277,0.308-2.547,0.613-3.791,0.913c-2.096-5.926-4.221-11.546-5.975-17.28
		c-0.277-0.905,1.113-2.323,1.734-3.503L520.813,112.79z"/>
	<path fill-rule="evenodd" clip-rule="evenodd" d="M547.897,204.804c0.752-1.528,1.506-3.054,2.256-4.581
		c0.891,0.446,1.781,0.896,2.674,1.345c1.125,7.103,2.252,14.205,3.379,21.305c-0.566,0.122-1.131,0.244-1.695,0.364
		c-0.994-4.907-1.988-9.813-2.738-13.506c-1.633-2.245-2.672-3.676-3.723-5.095C548.038,204.647,547.897,204.804,547.897,204.804z"
		/>
	<path fill-rule="evenodd" clip-rule="evenodd" d="M509.753,481.81c-0.727,2.91-1.244,5.9-2.314,8.68
		c-0.326,0.844-2.182,1.094-3.336,1.621c-0.389-1.232-1.475-2.881-1.035-3.615c1.543-2.586,3.613-4.857,5.482-7.246
		C508.952,481.437,509.353,481.622,509.753,481.81z"/>
	<path fill-rule="evenodd" clip-rule="evenodd" d="M689.558,506.372c-2.303-1.791-4.607-3.586-7.434-5.787
		C687.235,498.687,689.312,500.106,689.558,506.372z"/>
	<path fill-rule="evenodd" clip-rule="evenodd" fill="#FFFFFF" d="M637.437,513.858c-3.119-3.691-4.186-13.717-1.115-16.525
		c0.959-0.875,4.098-0.576,5.379,0.359c2.631,1.926,3.91,4.652,1.35,7.92C641.024,508.196,639.335,511.046,637.437,513.858z"/>
	<path fill-rule="evenodd" clip-rule="evenodd" fill="#FFFFFF" d="M655.155,488.554c1.186,0.258,2.957,0.643,5.727,1.244
		c-2.566,2.584-4.52,4.559-6.93,6.986C654.476,493.202,654.815,490.868,655.155,488.554z"/>
	<path fill-rule="evenodd" clip-rule="evenodd" fill="#FFFFFF" d="M675.712,514.374c3.02,2.465,6.037,4.936,9.055,7.404
		c-0.428,0.531-0.859,1.066-1.291,1.598c-3.057-2.369-6.113-4.74-9.178-7.111C674.771,515.634,675.241,515.003,675.712,514.374z"/>
	<path fill-rule="evenodd" clip-rule="evenodd" fill="#FFFFFF" d="M351.102,89.984c1.829-1.913,3.659-3.827,5.488-5.741
		c0.639,0.357,1.28,0.715,1.919,1.073c-0.521,1.41-0.682,3.603-1.65,4.052c-1.655,0.765-3.815,0.438-5.767,0.563
		C351.088,89.923,351.102,89.984,351.102,89.984z"/>
	<path fill-rule="evenodd" clip-rule="evenodd" fill="#FFFFFF" d="M509.663,371.518c3.191-6.943,3.93-15.121,10.047-20.592
		c0.611,0.305,1.219,0.607,1.83,0.908c-3.434,6.807-6.869,13.609-10.301,20.414C510.712,372.004,510.188,371.76,509.663,371.518z"/>
	<path fill-rule="evenodd" clip-rule="evenodd" fill="#FFFFFF" d="M505.729,383.18c-2.529,8.641-5.059,17.283-7.59,25.928
		c-0.547-0.15-1.092-0.303-1.639-0.449c2.441-8.631,4.885-17.26,7.326-25.887C504.462,382.906,505.097,383.043,505.729,383.18z"/>
	<path fill-rule="evenodd" clip-rule="evenodd" fill="#FFFFFF" d="M470.913,224.475c1.205-1.815,2.408-3.63,3.611-5.445
		c0.99,1.024,1.98,2.048,2.973,3.072c-1.463,1.395-2.926,2.789-4.389,4.184C472.378,225.681,471.647,225.078,470.913,224.475z"/>
</g>
<rect x="253.689" y="545.501" fill-rule="evenodd" clip-rule="evenodd" fill="#AA2B2C" width="131.333" height="47.333"/>
<rect x="424.083" y="545.501" fill-rule="evenodd" clip-rule="evenodd" fill="#AA2B2C" width="131.333" height="47.333"/>
<rect x="253.689" y="10.144" fill-rule="evenodd" clip-rule="evenodd" fill="#AA2B2C" width="131.333" height="47.333"/>
<rect x="424.086" y="10.769" fill-rule="evenodd" clip-rule="evenodd" fill="#AA2B2C" width="131.333" height="47.333"/>
<g>
	<path d="M70.696,104.086v15.872h11.718v2.046H70.696v21.948H68.65V102.04h2.046h14.26v2.046H70.696z"/>
	<path d="M106.78,143.952l-2.914-13.144H91.838l-2.914,13.144h-2.108l9.3-41.912h3.472l9.3,41.912H106.78z M92.271,128.762h11.16
		l-5.58-25.048L92.271,128.762z"/>
	<path d="M124.449,118.16c1.736,0.62,3.162,1.685,4.278,3.193c1.116,1.509,1.674,3.235,1.674,5.177v8.556
		c0,1.24-0.238,2.398-0.713,3.472c-0.476,1.075-1.116,2.015-1.922,2.821c-0.806,0.806-1.747,1.437-2.821,1.891
		c-1.075,0.456-2.232,0.682-3.472,0.682h-8.06h-0.992h-1.054V102.04h1.054h0.992h6.014c1.24,0,2.396,0.228,3.472,0.682
		c1.074,0.455,2.015,1.085,2.821,1.891c0.806,0.806,1.446,1.747,1.922,2.821c0.475,1.075,0.713,2.232,0.713,3.472
		c0,1.53-0.352,2.924-1.054,4.185C126.598,116.353,125.647,117.375,124.449,118.16z M113.413,104.086v13.578h6.262
		c0.909-0.041,1.767-0.237,2.573-0.589c0.806-0.351,1.508-0.837,2.108-1.457c0.599-0.62,1.075-1.333,1.426-2.139
		c0.351-0.806,0.527-1.663,0.527-2.573c0-0.951-0.186-1.839-0.558-2.666c-0.372-0.827-0.868-1.55-1.488-2.17
		c-0.62-0.62-1.344-1.105-2.17-1.457c-0.827-0.351-1.716-0.527-2.666-0.527H113.413z M128.355,126.53
		c0-0.909-0.176-1.777-0.527-2.604c-0.352-0.827-0.827-1.55-1.426-2.17c-0.6-0.62-1.313-1.105-2.139-1.457
		c-0.827-0.351-1.716-0.547-2.666-0.589h-1.922h-0.248h-6.014v22.196h8.06c0.95,0,1.839-0.175,2.666-0.527
		c0.826-0.351,1.55-0.837,2.17-1.457c0.62-0.62,1.116-1.343,1.488-2.17c0.372-0.826,0.558-1.714,0.558-2.666V126.53z"/>
	<path d="M141.871,126.282h-5.084v17.67h-2.046v-17.67v-2.046v-20.15v-2.046h2.046h5.495c1.234,0,2.397,0.228,3.488,0.682
		c1.091,0.455,2.037,1.085,2.839,1.891c0.802,0.806,1.44,1.747,1.914,2.821c0.473,1.075,0.71,2.232,0.71,3.472v1.116v5.394
		c0,1.075-0.186,2.088-0.558,3.038c-0.372,0.951-0.889,1.819-1.55,2.604c-0.662,0.786-1.426,1.437-2.294,1.953
		c-0.868,0.517-1.819,0.878-2.852,1.085l7.564,17.856h-2.17L141.871,126.282z M136.787,124.236h5.518
		c0.95,0,1.839-0.175,2.666-0.527c0.826-0.351,1.55-0.837,2.17-1.457c0.62-0.62,1.116-1.342,1.488-2.17
		c0.372-0.826,0.558-1.714,0.558-2.666v-5.394v-1.116c0-0.909-0.186-1.777-0.558-2.604c-0.372-0.827-0.868-1.55-1.488-2.17
		c-0.62-0.62-1.344-1.116-2.17-1.488c-0.827-0.372-1.716-0.558-2.666-0.558h-5.518V124.236z"/>
	<path d="M157.991,104.086v15.872h11.718v2.046h-11.718v19.902h14.26v2.046h-14.26h-2.046V102.04h2.046h14.26v2.046H157.991z"/>
</g>
<g>
	<path fill="#AA2B2C" d="M70.976,86.526c-1.591,0-3.034-0.37-4.07-0.777v5.476c0,5.551-1.184,8.511-4.736,8.511
		c-1.887,0-2.96-1.628-2.96-4.551c0-3.441,2.59-6.549,4.218-8.141V71.06c-1.998,0.925-3.626,2.331-3.626,3.922
		c0,0.814,0.222,1.369,0.222,1.369s-0.222,0.444-1.11,0.444c-0.814,0-1.776-0.74-1.776-2.035c0-2.257,2.442-4.811,6.291-5.995
		v-1.406c0-1.591,0.962-2.257,1.813-2.257c1.036,0,1.517,0.518,1.517,0.518v2.516c0.37,0,0.74-0.037,1.11-0.037
		c8.289,0.037,13.358,3.145,13.358,9.362C81.226,83.011,77.081,86.526,70.976,86.526z M63.427,88.784
		c-1.184,1.443-2.627,3.811-2.627,6.512c0,2.257,0.518,2.998,1.332,2.998C63.168,98.293,63.427,96.702,63.427,88.784z
		 M67.904,69.912c-0.37,0-0.74,0.037-1.036,0.111v13.765c1.11,0.481,2.442,0.814,3.812,0.814c4.81,0,6.994-2.701,6.994-7.141
		C77.673,72.688,74.195,69.912,67.904,69.912z"/>
	<path fill="#AA2B2C" d="M83.444,70.875c1.221,0,2.22,0.999,2.22,2.22c0,1.221-0.999,2.183-2.22,2.183s-2.183-0.962-2.183-2.183
		C81.261,71.874,82.223,70.875,83.444,70.875z M92.51,86.23c0.296,0,0.666,0.37,0.666,1.961c0,3.737-2.257,6.919-5.514,6.919
		c-4.07,0-5.92-2.59-5.92-6.808v-7.771c0-1.591,0.925-2.257,1.924-2.257c1.036,0,1.406,0.518,1.406,0.518v10.62
		c0,2.886,1.221,4.255,3.034,4.255c1.443,0,3.848-1.517,3.848-7.215C91.955,86.453,92.029,86.23,92.51,86.23z"/>
	<path fill="#AA2B2C" d="M107.568,86.674c0.481,0,0.777,0.481,0.777,1.184c0,3.108-2.146,7.252-7.438,7.252
		c-5.439,0-8.844-2.812-8.844-8.104c0-5.772,3.256-8.732,7.363-8.732c3.367,0,4.478,2.257,4.478,4.181
		c0,3.7-3.404,6.438-8.215,6.438c0.481,3.256,2.479,4.773,5.218,4.773c2.923,0,6.105-1.998,6.105-6.771
		C107.013,86.896,107.05,86.674,107.568,86.674z M95.58,87.525c2.479-0.333,5.662-1.517,5.662-4.847c0-1.924-0.888-2.96-2.405-2.96
		c-2.294,0-3.256,1.999-3.256,7.475V87.525z"/>
	<path fill="#AA2B2C" d="M110.454,94.593c0,0-0.37,0.518-1.406,0.518c-0.999,0-1.924-0.666-1.924-2.257V78.793
		c0,0,0.37-0.518,1.406-0.518c1,0,1.924,0.666,1.924,2.257v2.812c0.962-2.405,2.553-4.588,5.106-4.588
		c3.367,0,4.477,2.257,4.477,4.181c0,1.295-0.962,2.035-1.776,2.035c-0.888,0-1.11-0.444-1.11-0.444s0.222-0.555,0.222-1.369
		c0-1.665-1.073-2.96-2.405-2.96c-2.59,0-4.514,6.179-4.514,8.51V94.593z"/>
	<path fill="#AA2B2C" d="M124.846,94.593c0,0-0.37,0.518-1.406,0.518c-0.999,0-1.924-0.666-1.924-2.257V78.793
		c0,0,0.37-0.518,1.406-0.518c1,0,1.924,0.666,1.924,2.257v2.812c0.962-2.405,2.553-4.588,5.106-4.588
		c3.367,0,4.477,2.257,4.477,4.181c0,1.295-0.962,2.035-1.776,2.035c-0.888,0-1.11-0.444-1.11-0.444s0.222-0.555,0.222-1.369
		c0-1.665-1.073-2.96-2.405-2.96c-2.59,0-4.514,6.179-4.514,8.51V94.593z"/>
	<path fill="#AA2B2C" d="M137.685,70.875c1.221,0,2.22,0.999,2.22,2.22c0,1.221-0.999,2.183-2.22,2.183
		c-1.221,0-2.183-0.962-2.183-2.183C135.501,71.874,136.464,70.875,137.685,70.875z M146.75,86.23c0.296,0,0.666,0.37,0.666,1.961
		c0,3.737-2.257,6.919-5.514,6.919c-4.07,0-5.92-2.59-5.92-6.808v-7.771c0-1.591,0.925-2.257,1.924-2.257
		c1.036,0,1.406,0.518,1.406,0.518v10.62c0,2.886,1.221,4.255,3.034,4.255c1.443,0,3.848-1.517,3.848-7.215
		C146.195,86.453,146.27,86.23,146.75,86.23z"/>
	<path fill="#AA2B2C" d="M161.772,87.415c0.481,0,0.777,0.481,0.777,1.184c0,2.368-2.146,6.512-7.438,6.512
		c-5.439,0-8.844-2.812-8.844-8.104c0-5.772,3.256-8.732,7.363-8.732c3.368,0,4.478,2.257,4.478,4.181
		c0,1.295-0.962,2.035-1.776,2.035c-0.888,0-1.11-0.444-1.11-0.444s0.222-0.555,0.222-1.369c0-1.665-1.073-2.96-2.405-2.96
		c-2.294,0-3.256,1.999-3.256,7.475c0,4.44,2.146,6.476,5.329,6.476c3.293,0,6.105-1.998,6.105-6.031
		C161.217,87.637,161.254,87.415,161.772,87.415z"/>
	<path fill="#AA2B2C" d="M181.012,86.23c0.296,0,0.666,0.37,0.666,1.961c0,4.107-2.035,6.919-5.069,6.919
		c-3.811,0-6.068-2.812-6.624-5.624c-1.517,0.629-3.33,1.073-5.365,1.184v3.922c0,0-0.37,0.518-1.406,0.518
		c-0.999,0-1.924-0.666-1.924-2.257V74.315c0-5.957,0.777-9.14,4.477-9.14c1.887,0,2.96,1.628,2.96,4.551
		c0,3.368-2.479,6.438-4.107,8.067v3.552c1.073-1.961,2.886-3.071,5.329-3.071c3.034,0,5.18,1.702,5.18,4.551
		c0,1.887-0.888,3.626-2.442,4.995c0.222,2.738,1.813,5.847,4.367,5.847c1.665,0,3.404-1.887,3.404-7.215
		C180.457,86.453,180.494,86.23,181.012,86.23z M167.136,69.616c0-2.257-0.518-2.997-1.332-2.997c-0.999,0-1.184,1.406-1.184,9.398
		C165.767,74.538,167.136,72.244,167.136,69.616z M171.873,82.863c0-2.109-1.036-3.293-2.368-3.293
		c-2.257,0-4.884,1.887-4.884,9.658C168.949,88.784,171.873,85.86,171.873,82.863z"/>
</g>
<g>
	<path d="M611.123,142.216c0.951,0,1.839-0.186,2.666-0.558c0.826-0.372,1.551-0.868,2.17-1.488c0.62-0.62,1.116-1.353,1.488-2.201
		c0.372-0.847,0.559-1.746,0.559-2.697h2.045c0,1.24-0.238,2.409-0.713,3.503c-0.475,1.096-1.115,2.046-1.922,2.852
		c-0.806,0.806-1.746,1.447-2.82,1.922c-1.076,0.475-2.232,0.713-3.473,0.713s-2.408-0.238-3.503-0.713
		c-1.096-0.475-2.046-1.116-2.853-1.922c-0.805-0.806-1.447-1.756-1.922-2.852c-0.475-1.094-0.713-2.263-0.713-3.503v-24.49
		c0-1.24,0.238-2.407,0.713-3.503c0.475-1.095,1.117-2.046,1.922-2.852c0.807-0.806,1.757-1.446,2.853-1.922
		c1.095-0.475,2.263-0.713,3.503-0.713s2.396,0.231,3.473,0.693c1.074,0.461,2.015,1.092,2.82,1.891
		c0.807,0.799,1.447,1.747,1.922,2.841c0.475,1.096,0.713,2.263,0.713,3.503h-2.045c0-0.95-0.187-1.839-0.559-2.666
		c-0.372-0.826-0.868-1.55-1.488-2.17c-0.619-0.62-1.344-1.116-2.17-1.488c-0.827-0.372-1.715-0.558-2.666-0.558
		s-1.85,0.187-2.697,0.559c-0.848,0.373-1.58,0.87-2.201,1.491c-0.619,0.621-1.115,1.345-1.487,2.173
		c-0.372,0.828-0.558,1.718-0.558,2.67v24.53c0,0.953,0.186,1.853,0.558,2.702s0.868,1.584,1.487,2.205
		c0.621,0.621,1.354,1.118,2.201,1.49C609.273,142.03,610.172,142.216,611.123,142.216z"/>
	<path d="M633.381,144.262c-1.24,0-2.408-0.238-3.503-0.713c-1.096-0.475-2.046-1.116-2.853-1.922
		c-0.805-0.806-1.447-1.756-1.922-2.852c-0.475-1.094-0.713-2.263-0.713-3.503v-24.49c0-1.24,0.238-2.407,0.713-3.503
		c0.475-1.095,1.117-2.046,1.922-2.852c0.807-0.806,1.757-1.446,2.853-1.922c1.095-0.475,2.263-0.713,3.503-0.713
		s2.396,0.238,3.473,0.713c1.074,0.476,2.015,1.116,2.82,1.922c0.807,0.806,1.447,1.757,1.922,2.852
		c0.475,1.096,0.713,2.263,0.713,3.503v24.49c0,1.24-0.238,2.409-0.713,3.503c-0.475,1.096-1.115,2.046-1.922,2.852
		c-0.806,0.806-1.746,1.447-2.82,1.922C635.777,144.024,634.621,144.262,633.381,144.262z M633.381,103.838
		c-0.951,0-1.85,0.187-2.697,0.559c-0.848,0.373-1.58,0.87-2.201,1.491c-0.619,0.621-1.115,1.345-1.487,2.173
		c-0.372,0.828-0.558,1.718-0.558,2.67v24.53c0,0.953,0.186,1.853,0.558,2.702s0.868,1.584,1.487,2.205
		c0.621,0.621,1.354,1.118,2.201,1.49c0.848,0.373,1.746,0.559,2.697,0.559s1.839-0.186,2.666-0.559
		c0.826-0.372,1.551-0.869,2.17-1.49c0.62-0.621,1.116-1.356,1.488-2.205s0.559-1.749,0.559-2.702v-24.53
		c0-0.952-0.187-1.842-0.559-2.67c-0.372-0.828-0.868-1.552-1.488-2.173c-0.619-0.621-1.344-1.118-2.17-1.491
		C635.22,104.025,634.332,103.838,633.381,103.838z"/>
	<path d="M664.566,102.04v17.856v1.054v14.26c0,1.24-0.238,2.409-0.713,3.503c-0.475,1.095-1.115,2.046-1.922,2.852
		c-0.806,0.806-1.746,1.447-2.82,1.922c-1.076,0.475-2.232,0.713-3.473,0.713s-2.408-0.238-3.503-0.713
		c-1.096-0.475-2.046-1.116-2.853-1.922c-0.805-0.806-1.447-1.756-1.922-2.852c-0.475-1.095-0.713-2.263-0.713-3.503v-14.26v-1.054
		V102.04h2.047v17.856v1.054v14.26c0,0.952,0.186,1.851,0.558,2.697c0.372,0.848,0.868,1.581,1.487,2.201
		c0.621,0.62,1.354,1.116,2.201,1.488s1.746,0.558,2.697,0.558s1.839-0.186,2.666-0.558c0.826-0.372,1.551-0.868,2.17-1.488
		c0.62-0.62,1.116-1.353,1.488-2.201c0.372-0.847,0.559-1.746,0.559-2.697v-14.26v-1.054V102.04H664.566z"/>
	<path d="M676.037,126.282h-5.084v17.67h-2.047v-17.67v-2.046v-20.15v-2.046h2.047h5.494c1.234,0,2.396,0.228,3.488,0.682
		c1.09,0.455,2.037,1.085,2.839,1.891c0.802,0.806,1.44,1.747,1.914,2.821c0.474,1.075,0.71,2.232,0.71,3.472v1.116v5.394
		c0,1.075-0.186,2.088-0.558,3.038c-0.372,0.951-0.89,1.819-1.55,2.604c-0.662,0.786-1.426,1.437-2.295,1.953
		c-0.867,0.517-1.818,0.878-2.852,1.085l7.564,17.856h-2.17L676.037,126.282z M670.953,124.236h5.518
		c0.95,0,1.839-0.175,2.666-0.527c0.826-0.351,1.55-0.837,2.17-1.457c0.62-0.62,1.116-1.342,1.488-2.17
		c0.371-0.826,0.558-1.714,0.558-2.666v-5.394v-1.116c0-0.909-0.187-1.777-0.558-2.604c-0.372-0.827-0.868-1.55-1.488-2.17
		c-0.62-0.62-1.344-1.116-2.17-1.488c-0.827-0.372-1.716-0.558-2.666-0.558h-5.518V124.236z"/>
	<path d="M705.486,104.086h-8.37v39.866h-2.046v-39.866h-8.37v-2.046h8.37h2.046h8.37V104.086z"/>
	<path d="M716.956,144.262c-1.24,0-2.409-0.238-3.503-0.713c-1.096-0.475-2.047-1.116-2.853-1.922
		c-0.806-0.806-1.447-1.756-1.922-2.852c-0.476-1.094-0.713-2.263-0.713-3.503v-24.49c0-1.24,0.237-2.407,0.713-3.503
		c0.475-1.095,1.116-2.046,1.922-2.852c0.806-0.806,1.757-1.446,2.853-1.922c1.094-0.475,2.263-0.713,3.503-0.713
		c1.239,0,2.396,0.238,3.472,0.713c1.074,0.476,2.016,1.116,2.821,1.922c0.806,0.806,1.446,1.757,1.922,2.852
		c0.475,1.096,0.713,2.263,0.713,3.503v24.49c0,1.24-0.238,2.409-0.713,3.503c-0.476,1.096-1.116,2.046-1.922,2.852
		c-0.806,0.806-1.747,1.447-2.821,1.922C719.353,144.024,718.195,144.262,716.956,144.262z M716.956,103.838
		c-0.952,0-1.851,0.187-2.697,0.559c-0.848,0.373-1.581,0.87-2.201,1.491c-0.62,0.621-1.116,1.345-1.487,2.173
		c-0.373,0.828-0.559,1.718-0.559,2.67v24.53c0,0.953,0.186,1.853,0.559,2.702c0.371,0.849,0.867,1.584,1.487,2.205
		c0.62,0.621,1.354,1.118,2.201,1.49c0.847,0.373,1.745,0.559,2.697,0.559c0.95,0,1.839-0.186,2.665-0.559
		c0.827-0.372,1.551-0.869,2.171-1.49c0.62-0.621,1.116-1.356,1.487-2.205c0.373-0.849,0.559-1.749,0.559-2.702v-24.53
		c0-0.952-0.186-1.842-0.559-2.67c-0.371-0.828-0.867-1.552-1.487-2.173c-0.62-0.621-1.344-1.118-2.171-1.491
		C718.795,104.025,717.906,103.838,716.956,103.838z"/>
	<path d="M730.224,143.952V102.04h2.046v41.912H730.224z"/>
	<path d="M746.033,121.783c1.033,0.828,2.056,1.688,3.069,2.578c1.013,0.89,1.922,1.863,2.728,2.918
		c0.807,1.056,1.457,2.235,1.953,3.539c0.496,1.304,0.744,2.784,0.744,4.44c0,1.242-0.238,2.412-0.713,3.509
		c-0.476,1.096-1.116,2.049-1.922,2.855c-0.807,0.808-1.747,1.45-2.821,1.925c-1.075,0.476-2.231,0.714-3.472,0.714
		s-2.408-0.238-3.504-0.713c-1.096-0.475-2.045-1.116-2.852-1.922c-0.806-0.806-1.447-1.756-1.922-2.852
		c-0.476-1.094-0.713-2.263-0.713-3.503h2.046c0,0.952,0.187,1.851,0.558,2.697c0.373,0.848,0.869,1.581,1.488,2.201
		c0.62,0.62,1.354,1.116,2.201,1.488c0.847,0.372,1.746,0.558,2.697,0.558c0.95,0,1.838-0.186,2.666-0.558
		c0.826-0.372,1.55-0.868,2.17-1.488c0.619-0.62,1.115-1.353,1.488-2.201c0.371-0.847,0.558-1.746,0.558-2.697
		c0-1.404-0.218-2.666-0.651-3.782c-0.434-1.116-1.014-2.139-1.736-3.069c-0.723-0.93-1.549-1.798-2.479-2.604
		c-0.93-0.806-1.892-1.601-2.883-2.387c-0.992-0.785-1.975-1.602-2.945-2.449c-0.972-0.847-1.839-1.767-2.604-2.759
		c-0.766-0.992-1.386-2.087-1.86-3.286c-0.476-1.198-0.713-2.583-0.713-4.154c0-1.24,0.237-2.407,0.713-3.503
		c0.475-1.095,1.116-2.046,1.922-2.852c0.807-0.806,1.756-1.446,2.852-1.922c1.096-0.475,2.264-0.713,3.504-0.713
		s2.396,0.231,3.472,0.693c1.074,0.461,2.015,1.092,2.821,1.891c0.806,0.799,1.446,1.747,1.922,2.841
		c0.475,1.096,0.713,2.263,0.713,3.503h-2.046c0-0.95-0.187-1.839-0.558-2.666c-0.373-0.826-0.869-1.55-1.488-2.17
		c-0.62-0.62-1.344-1.116-2.17-1.488c-0.828-0.372-1.716-0.558-2.666-0.558c-0.951,0-1.851,0.187-2.697,0.559
		c-0.848,0.373-1.581,0.87-2.201,1.491c-0.619,0.621-1.115,1.345-1.488,2.173c-0.371,0.828-0.558,1.718-0.558,2.67
		c0,1.325,0.206,2.494,0.62,3.509c0.412,1.014,0.961,1.956,1.643,2.825c0.683,0.87,1.467,1.688,2.356,2.453
		C744.162,120.284,745.082,121.039,746.033,121.783z"/>
</g>
<g>
	<g>
		<path fill="#AA2B2C" d="M629.955,86.526c-1.591,0-3.034-0.37-4.07-0.777v5.476c0,5.551-1.184,8.511-4.736,8.511
			c-1.887,0-2.96-1.628-2.96-4.551c0-3.441,2.59-6.549,4.218-8.141V71.06c-1.998,0.925-3.626,2.331-3.626,3.922
			c0,0.814,0.222,1.369,0.222,1.369s-0.222,0.444-1.109,0.444c-0.814,0-1.776-0.74-1.776-2.035c0-2.257,2.442-4.811,6.29-5.995
			v-1.406c0-1.591,0.963-2.257,1.813-2.257c1.036,0,1.517,0.518,1.517,0.518v2.516c0.371,0,0.74-0.037,1.111-0.037
			c8.288,0.037,13.357,3.145,13.357,9.362C640.205,83.011,636.061,86.526,629.955,86.526z M622.406,88.784
			c-1.184,1.443-2.627,3.811-2.627,6.512c0,2.257,0.518,2.998,1.332,2.998C622.147,98.293,622.406,96.702,622.406,88.784z
			 M626.884,69.912c-0.37,0-0.739,0.037-1.036,0.111v13.765c1.11,0.481,2.442,0.814,3.812,0.814c4.81,0,6.993-2.701,6.993-7.141
			C636.652,72.688,633.174,69.912,626.884,69.912z"/>
		<path fill="#AA2B2C" d="M661.221,86.23c0.296,0,0.666,0.37,0.666,1.961c0,4.107-1.85,6.919-5.143,6.919
			c-2.554,0-4.182-1.184-4.959-3.293c-0.889,1.924-2.553,3.293-4.699,3.293c-4.07,0-6.476-2.442-6.476-8.474
			c0-6.031,3.257-8.362,7.363-8.362c1.888,0,2.997,0.444,3.626,1.073c0.334-0.74,1-1.073,1.703-1.073
			c1.035,0,1.406,0.518,1.406,0.518v10.62c0,2.886,0.998,4.255,2.479,4.255c2.035,0,3.479-1.887,3.479-7.215
			C660.666,86.453,660.703,86.23,661.221,86.23z M651.342,88.672v-5.069c0-2.442-1.518-3.885-3.035-3.885
			c-2.441,0-4.182,0.74-4.182,6.919c0,6.18,1.592,7.031,3.404,7.031C648.788,93.668,651.342,91.966,651.342,88.672z"/>
		<path fill="#AA2B2C" d="M680.756,86.23c0.297,0,0.666,0.37,0.666,1.961c0,4.107-1.85,6.919-5.143,6.919
			c-2.664,0-4.33-1.295-5.107-3.515c-0.924,2.257-2.664,3.515-5.291,3.515c-2.96,0-5.105-1.813-5.105-5.365v-9.213
			c0-1.591,0.924-2.257,1.924-2.257c1.035,0,1.406,0.518,1.406,0.518v10.62c0,3.256,0.888,4.403,2.22,4.403
			c1.961,0,4.366-2.405,4.366-7.623v-5.661c0-1.591,1.11-2.257,2.109-2.257c1.036,0,1.406,0.518,1.443,0.518v10.62
			c0,2.886,0.998,4.255,2.479,4.255c1.295,0,3.479-1.147,3.479-7.215C680.201,86.453,680.238,86.23,680.756,86.23z"/>
		<path fill="#AA2B2C" d="M691.115,86.23c0.296,0,0.666,0.37,0.666,1.961c0,3.737-2.258,6.919-5.514,6.919
			c-4.07,0-5.957-2.59-5.957-6.808V74.39c0-6.031,0.999-9.214,4.514-9.214c2.442,0,3.664,1.591,3.664,4.958
			c0,5.662-2.998,8.289-4.811,9.362v9.917c0,2.886,1.221,4.255,3.034,4.255c1.442,0,3.849-1.517,3.849-7.215
			C690.561,86.453,690.635,86.23,691.115,86.23z M686.896,70.171c0-2.516-0.74-3.552-1.775-3.552c-1.11,0-1.443,0.962-1.443,11.323
			C685.047,76.943,686.896,74.796,686.896,70.171z"/>
		<path fill="#AA2B2C" d="M692.372,70.875c1.222,0,2.22,0.999,2.22,2.22c0,1.221-0.998,2.183-2.22,2.183
			c-1.221,0-2.183-0.962-2.183-2.183C690.189,71.874,691.151,70.875,692.372,70.875z M701.438,86.23c0.297,0,0.666,0.37,0.666,1.961
			c0,3.737-2.257,6.919-5.514,6.919c-4.07,0-5.92-2.59-5.92-6.808v-7.771c0-1.591,0.926-2.257,1.924-2.257
			c1.037,0,1.406,0.518,1.406,0.518v10.62c0,2.886,1.221,4.255,3.035,4.255c1.442,0,3.848-1.517,3.848-7.215
			C700.883,86.453,700.957,86.23,701.438,86.23z"/>
		<path fill="#AA2B2C" d="M720.975,86.23c0.295,0,0.666,0.37,0.666,1.961c0,4.107-1.851,6.919-5.145,6.919
			c-3.736,0-5.513-2.59-5.513-6.808v-4.33c0-3.256-0.888-4.403-2.22-4.403c-2.258,0-4.479,1.887-4.479,8.696v6.327
			c0,0-0.369,0.518-1.405,0.518c-0.999,0-1.925-0.666-1.925-2.257V78.793c0,0,0.371-0.518,1.406-0.518c1,0,1.924,0.592,1.924,2.775
			c1-1.776,2.591-2.775,4.922-2.775c3.108,0,5.254,1.998,5.254,5.883v5.254c0,2.886,1,4.255,2.479,4.255
			c1.665,0,3.479-1.517,3.479-7.215C720.419,86.453,720.456,86.23,720.975,86.23z"/>
		<path fill="#AA2B2C" d="M736.033,86.674c0.48,0,0.777,0.481,0.777,1.184c0,3.108-2.146,7.252-7.438,7.252
			c-5.438,0-8.843-2.812-8.843-8.104c0-5.772,3.256-8.732,7.363-8.732c3.367,0,4.477,2.257,4.477,4.181
			c0,3.7-3.404,6.438-8.215,6.438c0.481,3.256,2.48,4.773,5.218,4.773c2.923,0,6.105-1.998,6.105-6.771
			C735.478,86.896,735.515,86.674,736.033,86.674z M724.044,87.525c2.479-0.333,5.661-1.517,5.661-4.847
			c0-1.924-0.888-2.96-2.404-2.96c-2.295,0-3.257,1.999-3.257,7.475V87.525z"/>
	</g>
</g>
<polygon fill-rule="evenodd" clip-rule="evenodd" fill="#FFFFFF" points="309.5,48 319.665,20.833 329.875,48 "/>
<polygon fill-rule="evenodd" clip-rule="evenodd" fill="#FFFFFF" points="481.5,47 491.665,19.833 501.875,47 "/>
<polygon fill-rule="evenodd" clip-rule="evenodd" fill="#FFFFFF" points="329.875,556 319.71,583.166 309.5,556 "/>
<polygon fill-rule="evenodd" clip-rule="evenodd" fill="#FFFFFF" points="499.875,556 489.71,583.166 479.5,556 "/>
<rect y="269" fill-rule="evenodd" clip-rule="evenodd" width="169" height="19"/>
<rect y="189" fill-rule="evenodd" clip-rule="evenodd" width="169" height="19"/>
<rect y="309" fill-rule="evenodd" clip-rule="evenodd" width="169" height="19"/>
<rect y="229" fill-rule="evenodd" clip-rule="evenodd" width="169" height="19"/>
<rect y="429" fill-rule="evenodd" clip-rule="evenodd" width="169" height="19"/>
<rect y="389" fill-rule="evenodd" clip-rule="evenodd" width="169" height="19"/>
<rect y="349" fill-rule="evenodd" clip-rule="evenodd" width="169" height="19"/>
<text transform="matrix(1 0 0 1 33.2695 186.832)" font-family="'Simplifica'" font-size="20">PHOTOSHOP</text>
<text transform="matrix(1 0 0 1 30.5996 225.4453)" font-family="'Simplifica'" font-size="20">ILLUSTRATOR</text>
<text transform="matrix(1 0 0 1 41.7397 265.499)" font-family="'Simplifica'" font-size="20">INDESIGN</text>
<text transform="matrix(1 0 0 1 36.7695 305.498)" font-family="'Simplifica'" font-size="20">HTML/CSS</text>
<text transform="matrix(1 0 0 1 33.3296 344.498)" font-family="'Simplifica'" font-size="20">PHP/MySQL</text>
<text transform="matrix(1 0 0 1 31.5195 385.248)" font-family="'Simplifica'" font-size="20">JAVASCRIPT</text>
<text transform="matrix(1 0 0 1 15.6011 425.832)" font-family="'Simplifica'" font-size="20">GESTION DE PROJET</text>
<rect x="631" y="269" fill-rule="evenodd" clip-rule="evenodd" width="169" height="19"/>
<rect x="631" y="189" fill-rule="evenodd" clip-rule="evenodd" width="169" height="19"/>
<rect x="631" y="309" fill-rule="evenodd" clip-rule="evenodd" width="169" height="19"/>
<rect x="631" y="229" fill-rule="evenodd" clip-rule="evenodd" width="169" height="19"/>
<rect x="631" y="429" fill-rule="evenodd" clip-rule="evenodd" width="169" height="19"/>
<rect x="631" y="389" fill-rule="evenodd" clip-rule="evenodd" width="169" height="19"/>
<rect x="631" y="349" fill-rule="evenodd" clip-rule="evenodd" width="169" height="19"/>
<text transform="matrix(1 0 0 1 699.2695 186.832)" font-family="'Simplifica'" font-size="20">PHOTOSHOP</text>
<text transform="matrix(1 0 0 1 696.5996 225.4453)" font-family="'Simplifica'" font-size="20">ILLUSTRATOR</text>
<text transform="matrix(1 0 0 1 707.7402 265.499)" font-family="'Simplifica'" font-size="20">INDESIGN</text>
<text transform="matrix(1 0 0 1 702.7695 305.498)" font-family="'Simplifica'" font-size="20">HTML/CSS</text>
<text transform="matrix(1 0 0 1 699.3301 344.498)" font-family="'Simplifica'" font-size="20">PHP/MySQL</text>
<text transform="matrix(1 0 0 1 697.5195 385.248)" font-family="'Simplifica'" font-size="20">JAVASCRIPT</text>
<text transform="matrix(1 0 0 1 681.6016 425.832)" font-family="'Simplifica'" font-size="20">GESTION DE PROJET</text>
<rect x="717" y="269" fill-rule="evenodd" clip-rule="evenodd" fill="#AA2B2C" width="83" height="19"/>
<rect x="717" y="309" fill-rule="evenodd" clip-rule="evenodd" fill="#AA2B2C" width="83" height="19"/>
<rect x="685" y="189" fill-rule="evenodd" clip-rule="evenodd" fill="#AA2B2C" width="115" height="19"/>
<rect x="695" y="229" fill-rule="evenodd" clip-rule="evenodd" fill="#AA2B2C" width="105" height="19"/>
<rect x="670" y="429" fill-rule="evenodd" clip-rule="evenodd" fill="#AA2B2C" width="130" height="19"/>
<rect x="785" y="389" fill-rule="evenodd" clip-rule="evenodd" fill="#AA2B2C" width="15" height="19"/>
<rect x="792" y="349" fill-rule="evenodd" clip-rule="evenodd" fill="#AA2B2C" width="8" height="19"/>
<rect y="189" fill-rule="evenodd" clip-rule="evenodd" fill="#AA2B2C" width="108" height="19"/>
<rect y="229" fill-rule="evenodd" clip-rule="evenodd" fill="#AA2B2C" width="122" height="19"/>
<rect y="269" fill-rule="evenodd" clip-rule="evenodd" fill="#AA2B2C" width="91" height="19"/>
<rect y="309" fill-rule="evenodd" clip-rule="evenodd" fill="#AA2B2C" width="157" height="19"/>
<rect y="349" fill-rule="evenodd" clip-rule="evenodd" fill="#AA2B2C" width="100" height="19"/>
<rect y="389" fill-rule="evenodd" clip-rule="evenodd" fill="#AA2B2C" width="114" height="19"/>
<rect y="429" fill-rule="evenodd" clip-rule="evenodd" fill="#AA2B2C" width="65" height="19"/>
</svg>
