<?xml version="1.0" encoding="UTF-8" standalone="no"?>
<!-- Created with Inkscape (http://www.inkscape.org/) -->

<svg
   xmlns:dc="http://purl.org/dc/elements/1.1/"
   xmlns:cc="http://creativecommons.org/ns#"
   xmlns:rdf="http://www.w3.org/1999/02/22-rdf-syntax-ns#"
   xmlns:svg="http://www.w3.org/2000/svg"
   xmlns="http://www.w3.org/2000/svg"
   version="1.1"
   width="800"
   height="600"
   viewBox="0 0 800 600"
   id="layer"
   xml:space="preserve"><metadata
   id="metadata141"><rdf:RDF><cc:Work
       rdf:about=""><dc:format>image/svg+xml</dc:format><dc:type
         rdf:resource="http://purl.org/dc/dcmitype/StillImage" /><dc:title></dc:title></cc:Work></rdf:RDF></metadata>


<defs
   id="defs5">
	<style
   type="text/css"
   id="style7" />
</defs><defs
   id="defs9">
	<style
   type="text/css"
   id="style11" />
</defs>

<g
   id="g13">
	<g
   id="g15">
		<path
   d="m 532.356,203.916 c 1.098,1.433 2.813,2.729 3.167,4.327 0.791,3.559 0.826,7.279 1.33,10.912 0.166,1.206 0.814,2.345 1.244,3.514 0.45,-0.156 0.9,-0.311 1.354,-0.467 -1.118,-7.065 -2.236,-14.13 -3.547,-22.405 -1.977,2.292 -2.842,3.296 -3.706,4.299 2.771,-11.426 1.836,-22.574 -2.802,-33.426 0.248,4.908 1.053,9.754 1.67,14.624 0.358,2.837 1.694,6.761 0.373,8.367 -3.498,4.244 -1.046,7.031 0.917,10.255 z M 422.64,214.94 c 1.191,1.547 2.565,2.99 3.521,4.672 0.886,1.56 1.054,3.552 2.023,5.035 1.325,2.02 3.112,3.738 5.078,6.023 3.531,1.174 7.973,2.842 12.523,4.095 2.937,0.808 6.757,3.53 8.012,-2.282 0.105,-0.488 0.991,-1.026 1.599,-1.154 5.664,-1.192 11.315,-2.513 17.033,-3.381 7.13,-1.083 11.762,-10.038 6.843,-14.806 -5.261,-5.099 -11.56,-9.624 -19.024,-11 -6.813,-1.256 -10.756,-3.554 -11.137,-10.871 -9.313,0 -18.645,0 -27.977,0 -0.018,0.53 -0.034,1.061 -0.052,1.592 2.588,0.178 5.176,0.355 7.763,0.533 0.116,0.572 0.23,1.144 0.349,1.716 -2.33,0.804 -4.661,1.607 -6.991,2.411 -5.957,5.755 -0.466,12.134 0.437,17.417 z m 211.845,256.662 c -4.459,0.699 -8.28,1.217 -12.054,1.979 -0.584,0.118 -1.309,1.372 -1.292,2.085 0.018,0.652 0.842,1.69 1.49,1.86 6.3,1.65 12.618,3.255 18.984,4.612 1.133,0.242 2.517,-0.693 4.336,-1.258 -2.734,-2.981 -5.104,-5.564 -7.629,-8.32 -1.264,1.803 -2.066,2.951 -3.276,4.681 -0.215,-2.192 -0.351,-3.553 -0.559,-5.639 z M 509.705,226.083 c 0,-11.227 0,-20.996 0,-31.277 -4.881,4.494 -5.328,25.641 0,31.277 z m -18.968,264.932 c 0.797,0.357 1.594,0.717 2.392,1.071 3.386,-2.678 3.725,-6.489 3.48,-10.518 -0.467,-0.197 -0.933,-0.396 -1.396,-0.59 -1.492,3.346 -2.984,6.692 -4.476,10.037 z"
   id="pierrick"
   style="fill:#ffffff" />
		<path
   d="m 446.298,535.843 h 5.324 v -14.675 c -0.2,-0.015 -0.399,-0.029 -0.598,-0.043 -1.576,4.906 -3.151,9.813 -4.726,14.718 z m -8.518,0 h 3.191 c 3.765,-5.684 4.599,-13.757 0.729,-18.686 -0.567,7.14 0.068,13.578 -3.92,18.686 z m 69.172,-8.08 c -0.7,2.693 -1.398,5.389 -2.097,8.08 h 7.45 c -1.104,-2.702 -2.211,-5.402 -3.315,-8.104 -0.679,0.005 -1.358,0.015 -2.038,0.024 z M 451.93,88.121 c 1.557,-0.831 3.376,-1.667 5.044,-2.74 1.352,-0.868 3.424,-1.89 3.598,-3.076 0.587,-4.009 3.645,-4.93 6.524,-6.042 3.317,-1.28 6.741,-2.311 10.182,-3.214 0.627,-0.164 1.553,0.807 2.635,1.421 -5.298,5.034 -15.091,1.013 -17.559,9.913 0.5,0.038 1,0.076 1.499,0.116 -0.264,2.986 -0.527,5.972 -0.729,8.236 8.896,8.01 17.608,15.853 26.303,23.683 1.195,-2.436 1.57,-4.797 2.883,-5.573 3.584,-2.118 4.199,-5.014 1.565,-8.311 -0.987,-1.236 -0.944,-3.295 -1.371,-4.978 0.594,-0.191 1.188,-0.383 1.782,-0.574 4.174,5.079 8.347,10.158 12.521,15.237 l 0.384,-0.314 c -0.085,-1.554 0.355,-3.417 -0.344,-4.613 -4.006,-6.845 -7.839,-13.863 -12.585,-20.18 -5.214,-6.939 -11.354,-13.182 -17.09,-19.728 h -43.65 c -0.752,3.592 -1.503,7.183 -2.066,9.891 5.709,6.854 16.141,4.143 20.474,10.846 z m 71.522,321.029 c 0,-3.839 -0.365,-7.865 0.08,-11.803 0.792,-7.002 3.087,-14.009 2.685,-20.894 -0.177,-3.029 1.579,-4.304 1.837,-6.533 1.414,-12.241 2.873,-24.476 4.473,-36.693 0.181,-1.39 1.331,-2.651 2.024,-3.964 -0.594,-0.176 -1.273,-0.378 -0.593,-0.176 0.39,-4.023 0.694,-7.161 1.015,-10.474 3.754,5.186 6.109,36.642 3.527,41.434 1.264,1.007 3.579,2.199 3.435,2.839 -1.313,5.868 2.271,12.952 -4.105,17.067 1.186,2.906 2.188,5.361 3.414,8.362 1.332,-4.644 2.228,-8.938 3.792,-12.977 3.342,-8.628 -1.396,-17.914 2.402,-26.465 0.319,-0.72 0.156,-1.815 -0.125,-2.616 -0.977,-2.778 -2.604,-5.422 -3.069,-8.268 -0.912,-5.601 -0.841,-11.364 -1.837,-16.943 -2.321,-13.003 -4.922,-25.96 -7.689,-38.877 -0.506,-2.368 -2.325,-4.454 -3.146,-5.956 -0.32,-2.22 -0.528,-5.707 -0.87,-5.72 -5.547,-0.215 -4.896,-4.473 -5.524,-7.909 -1.006,-5.492 -2.017,-10.982 -3.024,-16.474 -1.673,0.71 -2.229,1.307 -2.208,1.882 0.264,6.915 0.395,13.847 1.021,20.732 0.396,4.327 1.841,8.555 2.292,12.882 0.294,2.818 -0.351,5.733 -0.577,8.605 -0.734,-0.061 -1.473,-0.121 -2.209,-0.183 0.068,-1.097 0.206,-2.196 0.189,-3.292 -0.03,-2.032 0.684,-5.007 -0.371,-5.939 -5.989,-5.29 -6.447,-12.499 -7.552,-19.496 -1.604,-10.139 -3.028,-20.305 -4.529,-30.459 -1.923,3.95 -2.558,7.895 -3.42,11.79 -2.568,11.601 -5.104,23.212 -7.886,34.762 -2.219,9.201 -4.618,18.363 -7.239,27.458 -2.516,8.722 -4.471,17.78 -8.332,25.902 -10.114,21.272 -28.22,34.885 -47.86,46.537 -3.829,2.271 -9.44,4.043 -13.212,1.208 -5.2,-3.911 -11.654,-6.082 -15.936,-11.294 -0.313,-0.379 -2.093,0.199 -3.028,0.661 -0.742,0.366 -1.237,1.235 -1.841,1.883 0,16.68 0,33.359 -0.002,50.042 1.038,-1.748 2.076,-3.496 3.206,-5.398 2.06,1.164 3.933,2.224 5.824,3.291 1.617,-1.717 3.051,-3.233 3.878,-4.111 3.754,-1.008 6.516,4.586 9.851,-0.098 0.146,-0.205 1.852,0.236 2.251,0.795 0.504,0.701 0.765,1.953 0.493,2.747 -0.424,1.233 -1.386,2.281 -2.22,3.56 4.408,3.562 5.298,6.976 -1.364,10.423 2.874,0.361 4.338,0.546 5.736,0.723 -2.851,7.437 -5.629,14.686 -8.407,21.938 -1.137,-0.935 -2.331,-1.917 -4.577,-3.76 1.975,4.801 3.41,8.293 5.063,12.314 0.561,-1.832 1.152,-3.779 1.938,-6.357 1.075,4.727 1.971,8.667 2.862,12.582 -0.103,-0.021 -1.097,-0.202 -2.386,-0.438 1.797,5.291 3.411,10.045 5.532,16.289 0.505,1.032 1.729,3.149 2.572,5.409 0.481,1.29 0.348,2.812 0.504,4.352 6,2.788 5.395,8.782 4.197,15.062 3.053,-0.309 5.661,-0.567 9.127,-0.915 -0.904,1.967 -1.609,3.5 -2.313,5.03 0.624,0.979 1.481,2.319 2.337,3.66 0.578,0.005 1.155,0.011 1.733,0.014 0.691,-7.087 1.383,-14.174 2.057,-21.088 2.082,1.946 3.983,3.725 6.753,6.314 3.621,-9.183 7.149,-18.132 10.325,-26.187 1.598,-1.32 3.447,-2.073 3.825,-3.285 2.56,-8.207 4.821,-16.511 7.159,-24.786 2.878,-10.185 5.775,-20.363 8.568,-30.572 0.534,-1.949 0.62,-4.021 0.913,-6.04 1.009,3.259 1.535,6.532 0.872,9.546 -0.791,3.591 0.236,8.03 -3.934,10.498 -0.535,0.316 -0.445,1.762 -0.563,2.695 -0.611,4.855 -0.821,9.799 -1.873,14.557 -2.441,11.069 -5.31,22.045 -7.957,33.068 -0.848,3.53 -1.59,7.087 -2.276,10.65 -0.105,0.548 0.346,1.201 0.729,2.396 2.902,-3.481 5.405,-6.485 7.979,-9.575 0.674,1.229 1.309,2.382 2.018,3.673 6.729,-11.842 6.729,-11.842 6.524,-20.868 4.539,-0.42 7.89,-2.382 7.976,-6.643 1.439,0.983 3.079,2.105 5.299,3.624 -2.176,0.994 -3.557,1.626 -5.098,2.33 0.88,1.111 1.803,2.274 2.959,3.735 -4.083,1.418 -5.375,3.271 -1.956,5.75 1.21,-1.154 2.337,-2.056 3.246,-3.141 1.106,-1.313 2.646,-2.674 2.924,-4.208 1.422,-7.852 2.786,-15.733 3.604,-23.667 0.604,-5.863 0.294,-11.818 0.521,-17.729 0.034,-0.866 0.788,-1.703 1.296,-2.728 1.134,1.524 2.001,2.691 3.499,4.705 0.229,-1.842 0.462,-2.653 0.406,-3.443 -0.83,-11.702 -1.711,-23.401 -2.552,-35.104 -0.267,-3.692 -0.38,-7.398 -0.689,-11.088 -0.256,-3.056 -1.302,-6.188 -0.868,-9.118 0.379,-2.558 2.333,-4.882 4.231,-8.543 0.623,6.705 2.082,11.673 1.291,16.252 -1.386,8.017 0.169,15.688 1.166,23.395 0.988,7.625 2.984,15.127 4.768,22.628 0.207,0.87 1.89,1.394 3.636,2.591 -0.903,-7.126 -1.66,-13.118 -2.516,-19.867 2.043,0.8 3.173,1.239 3.899,1.52 z m -36.69,-0.293 c -0.62,-0.211 -1.238,-0.424 -1.858,-0.635 2.381,-8.257 4.761,-16.512 7.141,-24.768 0.471,0.131 0.941,0.263 1.412,0.396 -2.233,8.338 -4.465,16.672 -6.695,25.007 z m 11.898,-36.965 c -0.43,-0.188 -0.859,-0.381 -1.29,-0.569 4.656,-15.959 5.688,-18.29 10.324,-20.037 -3.012,6.867 -6.023,13.736 -9.034,20.606 z m 33.677,-167.953 c -0.025,-0.042 -0.051,-0.083 -0.075,-0.124 -0.021,0.093 -0.04,0.186 -0.063,0.279 l 0.138,-0.155 z m -0.897,-10.28 c -3.454,4.19 -1.11,6.962 0.82,10.156 2.688,-11.328 1.735,-22.382 -2.864,-33.147 0.25,4.909 1.054,9.755 1.671,14.624 0.36,2.838 1.696,6.762 0.373,8.367 z m -21.735,32.424 v -31.277 c -4.881,4.495 -5.328,25.642 0,31.277 z m 167.186,297.683 c -1.435,1.592 -2.232,2.478 -3.401,3.773 -0.232,-3.223 -0.416,-5.786 -0.61,-8.475 -1.813,0.136 -3.147,0.233 -3.362,0.251 -1.846,-2.077 -3.026,-3.45 -4.254,-4.781 -4.545,-4.939 -12.558,-6.021 -14.893,-13.526 -0.354,-1.137 -2.219,-2.775 -3.097,-2.614 -4.548,0.837 -5.87,-3.223 -8.411,-5.233 -1.451,-1.149 -1.705,-4.128 -3.195,-4.855 -7.634,-3.725 -15.416,-7.189 -23.327,-10.278 -2.203,-0.86 -5.025,-0.133 -7.563,-0.133 -0.265,-0.594 -0.525,-1.188 -0.787,-1.78 2.816,-1.976 5.395,-4.868 8.516,-5.688 3.916,-1.031 8.318,-0.074 12.42,-0.635 0.987,-0.136 2.188,-2.854 2.235,-4.415 0.037,-1.272 -1.501,-2.591 -2.236,-3.729 -4.305,1.125 -8.548,1.801 -12.354,3.471 -1.279,0.562 -5.593,0.391 -3.696,4.354 -0.819,0.321 -1.626,0.879 -2.46,0.922 -2.919,0.153 -6.658,-1.019 -8.627,0.375 -7.303,5.167 -15.654,1.805 -23.242,3.801 -0.811,0.213 -2.127,0.266 -2.581,-0.209 -5.688,-5.938 -13.214,-3.345 -20.724,-5.405 1.438,1.834 2.104,2.683 2.771,3.533 -5.509,3.854 1.229,4.149 1.893,6.194 0.631,1.949 1.908,3.688 2.9,5.521 -0.572,0.429 -1.146,0.855 -1.719,1.284 -2.327,-1.304 -4.652,-2.604 -6.979,-3.907 -2.635,0.496 -4.767,-0.355 -6.077,-4.028 -0.428,-1.194 -1.69,-2.283 -2.836,-2.992 -4.282,-2.644 -8.674,-5.109 -14.185,-8.317 0,2.294 -0.511,3.923 0.088,4.738 2.678,3.65 5.707,7.039 8.519,10.598 0.565,0.718 1.295,2.17 0.994,2.574 -2.592,3.483 0.573,6.001 1.276,8.907 0.862,3.566 1.707,7.139 2.561,10.706 -0.396,0.072 -0.79,0.146 -1.188,0.219 -3.45,-7.195 -6.9,-14.394 -10.351,-21.591 -0.483,0.213 -0.968,0.425 -1.451,0.639 v 6.434 c -0.367,-0.225 -0.733,-0.448 -1.099,-0.672 -1.179,1.594 -3.667,3.617 -3.312,4.712 1.78,5.458 3.898,10.904 6.712,15.896 2.018,3.574 3.064,6.16 -0.827,7.991 0.964,1.625 2.266,2.902 2.453,4.326 0.433,3.259 1.718,4.191 4.387,2.192 4.001,-2.999 8.883,-5.519 11.482,-9.489 2.495,-3.813 2.562,-9.217 3.707,-13.975 0.361,1.892 0.787,4.127 1.414,7.415 3.43,-3.705 6.438,-6.955 10.263,-11.086 -0.104,7.259 -3.385,11.435 -7.405,15.199 -3.217,3.014 -6.608,5.838 -9.756,8.919 -3.717,3.643 -7.24,7.479 -10.882,11.199 -0.309,0.316 -1.054,0.687 -1.276,0.539 -4.01,-2.611 -4.335,1.663 -6.104,3.212 H 669.88 c 0.065,-1.292 0.129,-2.583 0.229,-4.552 1.763,1.529 2.966,2.571 4.396,3.811 0.491,-1.659 0.834,-2.817 1.245,-4.212 2.225,1.403 4.394,2.773 6.982,4.407 1.074,-2.076 1.971,-3.807 3.388,-6.544 -5.386,1.646 -8.878,1.167 -9.229,-4.991 z m -58.46,-19.437 c -0.763,3.375 -3.164,6.38 -4.905,9.619 -3.243,-3.908 -4.205,-13.826 -1.288,-16.794 0.791,-0.806 3.879,-0.902 4.06,-0.498 1.089,2.443 2.657,5.356 2.133,7.673 z m 9.859,-7.485 c 0.279,-3.428 0.471,-5.799 0.678,-8.354 1.22,0.22 2.987,0.54 5.701,1.027 -2.396,2.752 -4.06,4.663 -6.379,7.327 z M 404.014,296.438 c 1.04,-3.575 3.81,-6.645 5.662,-9.677 3.026,0.885 6.246,1.828 11.107,3.25 -0.681,-4.707 -0.084,-9.083 -1.865,-10.526 -1.779,-1.442 -5.96,0.362 -9.043,0.136 -1.624,-0.118 -4.205,-1.245 -4.526,-2.417 -0.961,-3.508 -3.098,-3.706 -5.896,-3.273 0,9.228 0,18.454 -10e-4,27.68 1.201,2.084 2.399,4.166 4.347,7.545 -0.002,-5.319 -0.787,-9.279 0.215,-12.718 z M 422.64,214.94 c 1.191,1.547 2.565,2.99 3.521,4.671 0.885,1.56 1.053,3.552 2.023,5.035 1.325,2.02 3.112,3.738 5.078,6.023 3.531,1.174 7.972,2.842 12.523,4.095 2.937,0.808 6.757,3.53 8.012,-2.282 0.106,-0.487 0.992,-1.026 1.597,-1.154 5.666,-1.192 11.317,-2.513 17.035,-3.381 7.13,-1.084 11.762,-10.038 6.843,-14.806 -5.26,-5.098 -11.559,-9.623 -19.024,-11 -6.813,-1.256 -10.756,-3.554 -11.137,-10.871 h -27.977 c -0.018,0.53 -0.034,1.061 -0.052,1.592 2.588,0.178 5.176,0.355 7.763,0.533 0.117,0.572 0.231,1.144 0.349,1.716 -2.33,0.804 -4.661,1.607 -6.991,2.411 -5.957,5.756 -0.465,12.135 0.437,17.418 z m 42.641,3.403 c 0.924,1.101 1.849,2.202 2.772,3.302 -1.579,1.311 -3.156,2.621 -4.735,3.932 -0.639,-0.676 -1.273,-1.353 -1.911,-2.03 1.291,-1.735 2.583,-3.47 3.874,-5.204 z M 450.334,327.36 c 2.861,-6.125 2.861,-6.125 -4.791,-9.832 -9.276,7.763 -21.392,7.813 -33.014,1.396 -4.35,-2.398 -6.455,-1.172 -7.988,2.207 -1.843,-0.514 -3.466,-0.966 -5.09,-1.419 v 36.2 c 5.544,-0.036 10.979,-0.805 14.591,-5.468 1.449,-1.873 2.328,-4.73 2.188,-7.063 -0.072,-1.208 -2.813,-2.536 -4.568,-3.3 -3.035,-1.319 -6.244,-2.241 -9.38,-3.329 0.087,-0.644 0.174,-1.286 0.261,-1.93 15.207,-6.299 30.526,-11.929 47.791,-7.462 z m 44.879,153.619 c -1.493,3.348 -2.984,6.691 -4.476,10.036 0.797,0.357 1.594,0.714 2.392,1.072 3.385,-2.678 3.724,-6.49 3.48,-10.518 -0.464,-0.197 -0.93,-0.394 -1.396,-0.59 z"
   id="pierrick_4_" />
		<path
   d="m 497.37,371.321 c 4.656,-15.959 5.688,-18.29 10.324,-20.037 -3.014,6.869 -6.023,13.738 -9.034,20.606 -0.43,-0.188 -0.859,-0.378 -1.29,-0.569 z"
   id="pierrick_5_"
   style="fill:#ffffff" />
		<path
   d="m 484.902,408.224 c 2.381,-8.257 4.761,-16.512 7.142,-24.769 0.471,0.132 0.941,0.264 1.412,0.396 -2.231,8.335 -4.463,16.671 -6.693,25.007 -0.62,-0.212 -1.241,-0.423 -1.861,-0.634 z"
   id="pierrick_6_"
   style="fill:#ffffff" />
		<path
   d="m 613.524,513.948 c -3.243,-3.908 -4.205,-13.826 -1.287,-16.794 0.791,-0.806 3.879,-0.902 4.06,-0.498 1.091,2.44 2.659,5.354 2.135,7.673 -0.764,3.375 -3.164,6.38 -4.908,9.619 z"
   id="pierrick_7_"
   style="fill:#ffffff" />
		<path
   d="m 634.669,489.517 c -2.396,2.752 -4.06,4.663 -6.379,7.327 0.278,-3.429 0.471,-5.8 0.678,-8.354 1.22,0.218 2.987,0.537 5.701,1.027 z"
   id="pierrick_8_"
   style="fill:#ffffff" />
		<path
   d="m 461.407,223.547 c 1.291,-1.735 2.583,-3.47 3.874,-5.204 0.925,1.101 1.85,2.202 2.772,3.302 -1.579,1.311 -3.156,2.621 -4.735,3.932 -0.636,-0.677 -1.273,-1.353 -1.911,-2.03 z"
   id="pierrick_9_"
   style="fill:#ffffff" />
	</g>
</g>
<g
   id="g24">
	<g
   id="g26">
		<path
   d="m 400.27,111.221 c 0,52.651 0,105.301 0,157.952 -1.808,2.753 -6.493,2.041 -7.354,6.055 -0.04,0.189 -1.794,0.389 -2.401,0.016 -2.804,-1.722 -7.017,-1.364 -8.211,-5.664 -0.165,-0.591 -2.747,-1.257 -3.593,-0.785 -4.077,2.273 -7.943,4.925 -12.114,7.59 6.086,8.02 12.399,5.482 19.005,2.876 -0.534,0.671 -1.067,1.343 -1.6,2.015 8.543,6.9 8.543,6.9 6.551,9.356 3.379,0.515 6.549,1 9.719,1.483 0,2.354 0,4.706 0,7.059 -0.699,-1.084 -1.398,-2.168 -2.284,-3.538 -2.663,2.262 -4.457,3.785 -6.399,5.438 -0.3,-0.156 -1.049,-0.549 -1.719,-0.896 0,1.648 0,2.967 0,5.317 3.759,-1.966 7.081,-3.7 10.402,-5.437 0,4.118 0,8.235 0,12.354 -1.734,0.002 -3.482,0.132 -5.207,-0.02 -5.683,-0.496 -11.355,-1.111 -17.037,-1.627 -0.701,-0.063 -1.611,-0.019 -2.124,0.371 -4.367,3.317 -8.964,0.602 -13.839,1.043 -1.02,4.008 -4.593,2.331 -7.311,1.953 -2.894,-0.402 -5.664,-1.698 -9.071,-2.791 -0.446,0.197 -1.588,0.701 -3.867,1.708 1.258,-1.588 1.747,-2.203 1.764,-2.226 -1.47,-2.176 -2.936,-4.078 -4.117,-6.146 -3.431,-5.997 -3.381,-5.987 -10.944,-4.908 -1.232,0.176 -2.531,-0.111 -4.301,-0.213 1.774,-13.631 14.694,-17.425 21.823,-26.352 -4.203,0.15 -8.024,0.938 -11.788,1.943 -1.978,0.527 -4.294,0.955 -5.698,2.251 -5.764,5.322 -11.51,10.72 -16.678,16.602 -2.012,2.289 -4.117,5.179 -3.03,9.207 1.86,6.896 5.397,12.792 9.609,18.368 0.566,0.751 1.912,0.913 3.366,1.555 0,-3.38 0,-6.202 0,-9.558 2.846,1.188 5.441,2.923 8.222,3.304 6.797,0.929 13.67,1.435 20.53,1.726 6.217,0.265 12.506,0.517 18.673,-0.116 10.38,-1.066 20.687,-2.837 31.024,-4.313 0,22.063 0,44.121 0,66.181 -0.631,1.732 -1.26,3.468 -2.078,5.728 -0.427,-1.962 -0.774,-3.578 -1.166,-5.386 -0.679,2.025 -0.892,3.814 -1.807,5.104 -1.035,1.453 -2.543,2.777 -4.137,3.568 -1.695,0.842 -5.063,1.854 -5.415,1.31 -3.715,-5.731 -8.784,-2.334 -13.515,-2.577 0.501,-1.378 1.043,-2.868 1.883,-5.179 -3.505,1.931 -6.203,3.415 -9.303,5.122 -0.262,-3.271 -0.518,-6.467 -0.87,-10.863 -2.9,1.741 -4.966,2.982 -6.799,4.083 -1.262,-1.757 -2.438,-3.395 -3.33,-4.635 0.76,-1.661 1.603,-3.501 2.445,-5.343 -1.684,-0.58 -3.334,-1.358 -5.066,-1.645 -0.696,-0.112 -1.524,0.974 -2.373,1.311 -1.918,0.762 -3.866,1.473 -5.846,2.052 -0.981,0.286 -2.185,-0.032 -3.076,0.38 -5.116,2.368 -5.475,3.593 -4.24,9.354 0.359,1.676 -0.425,3.595 -0.685,5.399 -0.771,-0.887 -1.441,-1.901 -2.349,-2.617 -0.643,-0.508 -1.62,-0.57 -2.423,-0.894 -1.275,-0.511 -3.024,-0.721 -3.707,-1.675 -2.614,-3.664 -4.711,-7.696 -7.321,-11.364 -4.327,-6.079 -8.9,-11.98 -13.369,-17.961 -0.37,0.25 -0.74,0.501 -1.11,0.751 1.254,2.312 2.713,4.532 3.723,6.943 3.25,7.766 5.787,15.887 9.678,23.306 2.48,4.729 6.117,10.506 10.583,12.146 6.665,2.447 7.611,8.825 12.113,12.514 3.969,3.249 6.274,8.469 10.068,12.01 3.718,3.469 6.173,8.053 8.886,11.899 2.527,3.583 4.281,5.497 8.37,6.654 2.375,0.675 5.591,1.056 6.992,4.734 0.879,2.313 4.083,4.127 6.638,5.316 3.089,1.438 8.317,-2.518 9.688,3.831 0.045,0.209 3.03,-0.307 3.124,-0.008 1.006,3.22 3.742,2.027 5.792,2.515 0,26.767 0,53.532 0,80.3 -100.007,0 -200.013,0 -300.02,0 0,-156.48 0,-312.962 0,-469.443 65.593,0 131.185,0 196.778,0 -2.854,6.211 -13.085,12.393 -15.88,9.651 -1.332,0.817 -2.652,1.627 -4.098,2.515 1.597,3.395 -0.658,4.305 -3.194,5.912 -3.344,2.119 -6.114,5.208 -8.915,8.089 -1.381,1.421 -2.278,3.314 -3.483,5.129 0.242,1.171 1.047,2.776 0.785,4.183 -1.246,6.681 -3.176,13.256 -4.062,19.974 -0.498,3.781 -0.656,8.523 1.191,11.487 2.895,4.643 3.559,6.755 -0.716,10.554 2.165,5.158 -0.614,10.419 0.508,15.82 0.958,4.611 -1.157,9.777 -0.797,14.615 0.785,10.547 2.244,21.046 3.544,31.55 0.129,1.047 1.183,1.945 1.591,2.997 0.98,2.521 2.521,5.077 2.579,7.646 0.097,4.215 0.884,7.968 2.353,11.967 1.131,3.081 4.328,2.056 5.238,4.375 0.708,-0.65 1.96,-1.24 2.042,-1.96 1.278,-11.366 2.726,-22.729 3.444,-34.135 0.421,-6.682 -0.405,-13.438 -0.615,-20.164 -0.277,-8.878 -0.445,-17.759 -0.804,-26.634 -0.055,-1.36 -1.546,-2.875 -1.234,-4.002 1.221,-4.401 2.87,-8.688 4.418,-12.995 1.431,-3.982 2.715,-8.043 4.524,-11.851 0.694,-1.46 2.515,-2.796 4.1,-3.28 1.118,-0.34 2.703,0.851 5.022,1.706 -0.021,0.027 0.68,-0.827 1.269,-1.752 1.711,-2.691 2.802,-6.193 5.187,-7.95 4.331,-3.192 8.86,-5.974 11.902,-10.593 1.258,-1.909 2.781,-3.643 4.183,-5.457 0.328,0.228 0.656,0.454 0.984,0.682 -1.47,4.132 -3.115,8.214 -4.314,12.423 -0.411,1.442 0.135,3.25 0.592,4.787 0.134,0.452 1.929,0.986 2.16,0.737 1.031,-1.11 2.017,-2.396 2.556,-3.796 0.72,-1.872 1.013,-3.909 1.489,-5.875 0.541,-0.083 1.082,-0.165 1.624,-0.247 0.764,1.602 1.674,3.153 2.253,4.819 0.659,1.9 1.022,3.902 1.837,7.144 1.778,-4.05 2.97,-6.766 4.268,-9.724 -0.667,0 -1.489,0 -2.69,0 0.418,-1.604 0.733,-2.813 1.15,-4.411 2.022,1.91 3.714,3.509 5.519,5.213 -0.349,0.912 -0.726,1.899 -1.268,3.318 3.034,-2.657 5.921,-4.753 8.253,-7.349 2.232,-2.483 3.591,-5.771 5.903,-8.152 1.499,-1.545 3.506,-3.958 6.411,-1.899 l -0.114,-0.126 c -0.574,4.047 -1.147,8.093 -1.839,12.973 0.495,0.453 1.842,1.688 2.573,2.357 6.46,-5.145 12.261,-9.765 19.071,-15.189 -3.026,6.904 -5.51,12.572 -8.359,19.072 5.166,-0.56 8.906,-0.965 12.666,-1.373 -2.904,3.113 -5.347,5.732 -8.606,9.228 2.517,0 4.194,0.511 4.803,-0.08 5.839,-5.66 13.182,-6.827 20.915,-7.064 -1.792,-5.12 1.487,-3.151 3.688,-3.296 -0.732,1.002 -1.229,1.678 -1.869,2.552 1.488,0.006 2.496,0.006 3.505,0.006 z m -94.394,95.337 c 0.487,0.298 0.973,0.596 1.46,0.895 6.272,-2.604 12.466,-4.788 19.499,-2.398 2.593,0.881 5.757,-0.023 8.647,0.132 1.436,0.077 3.943,0.471 4.083,1.123 0.86,4.036 4.8,2.991 6.134,2.595 6.07,-1.8 12.057,-4.143 17.682,-7.047 2.046,-1.057 3.128,-4.149 4.423,-6.441 1.268,-2.242 2.32,-4.618 3.317,-6.998 0.4,-0.953 0.898,-2.442 0.463,-3.032 -0.63,-0.854 -2.031,-1.364 -3.174,-1.53 -0.667,-0.097 -1.474,0.762 -2.218,1.19 -0.22,-0.221 -0.439,-0.444 -0.659,-0.665 0.792,-1.602 1.585,-3.204 2.072,-4.189 -3.283,-0.404 -7.119,0.233 -9.212,-1.383 -3.588,-2.772 -6.419,-1.455 -9.667,-0.358 -2.967,1 -5.897,2.154 -8.925,2.918 -3.218,0.812 -6.575,1.07 -9.794,1.877 -7.169,1.795 -12.96,5.884 -17.28,11.765 -2.638,3.587 -4.591,7.679 -6.851,11.546 z M 267.93,535.642 c 0.106,-2.239 0.263,-3.677 0.225,-5.105 -0.145,-5.456 0.786,-11.257 -0.752,-16.299 -4.254,-13.94 -5.61,-28.208 -6.193,-42.565 -0.481,-11.861 0.144,-23.764 -0.153,-35.638 -0.034,-1.358 -2.66,-3.245 -4.428,-3.813 -2.022,-0.646 -2.621,1.024 -2.618,3.163 0.007,4.803 -0.532,9.604 -0.61,14.407 -0.162,9.866 -0.102,19.735 -0.258,29.602 -0.138,8.74 -0.307,17.484 -0.719,26.217 -0.394,8.347 -1.297,16.673 -1.547,25.021 -0.05,1.643 1.695,4.636 2.887,4.783 4.585,0.564 9.282,0.227 14.166,0.227 z m 49.526,-0.101 c -7.165,-44.379 -14.285,-88.477 -21.592,-133.735 -0.984,1.822 -2.362,3.162 -2.272,4.396 0.986,13.48 2.117,26.955 3.385,40.415 0.841,8.921 2.108,17.802 2.909,26.725 0.4,4.457 0.008,8.979 0.288,13.452 0.307,4.903 0.851,9.802 1.524,14.67 0.52,3.756 2.439,7.62 1.903,11.158 -1.189,7.86 0.507,15.266 1.414,22.921 4.481,-0.002 8.579,-0.002 12.441,-0.002 z M 303.104,168.919 c 3.609,-1.963 6.147,-3.346 8.687,-4.724 8.376,-4.544 17.177,-4.603 26.125,-2.282 2.854,0.74 5.393,1.23 7.021,-2.321 1.297,0.981 2.274,2.311 3.375,2.422 1.956,0.199 3.986,-0.339 5.986,-0.569 -0.749,-4.301 3.455,-5.121 5.192,-7.401 -0.611,-0.554 -1.581,-1 -1.745,-1.648 -1.358,-5.404 -6.217,-7.207 -10.317,-7.556 -11.872,-1.014 -22.885,2.788 -33.231,8.469 -0.688,0.378 -1.108,1.394 -1.463,2.197 -0.777,1.76 -1.227,4.988 -2.171,5.125 -4.527,0.655 -4.48,4.86 -7.459,8.288 z M 166.481,535.327 c 6.585,0 11.904,0 17.195,0 0.348,-4.313 0.668,-8.293 1.042,-12.928 -0.672,-0.54 -1.995,-1.604 -3.33,-2.677 0.637,-0.703 1.148,-1.271 1.091,-1.208 -1.103,-1.161 -2.563,-1.984 -2.608,-2.88 -0.175,-3.463 -3.548,-6.582 -1.136,-10.329 0.242,-0.375 0.044,-1.162 -0.161,-1.676 -1.282,-3.2 -2.624,-6.376 -4.284,-10.377 -0.976,1.193 -2.183,2.024 -2.414,3.07 -0.689,3.129 -1.133,6.33 -1.412,9.523 -0.254,2.917 -0.117,5.864 -0.242,8.796 -0.132,3.104 -0.068,6.264 -0.636,9.295 -0.688,3.685 -1.948,7.259 -3.105,11.391 z M 363.877,208.37 c -6.007,-1.325 -10.393,-0.633 -15.601,2.467 -1.224,0.729 -2.158,2.125 -3.443,2.535 -3.682,1.179 -7.494,1.939 -11.216,3.003 -2.19,0.625 -4.304,1.517 -7.042,2.5 12.007,3.776 29.357,-1.228 37.302,-10.505 z m -250.43,291.403 c -3.069,11.789 -0.418,22.193 0.806,32.637 0.356,3.036 2.493,4.106 4.856,3.025 1.021,-0.471 1.662,-3.191 1.431,-4.733 -1.281,-8.555 -2.814,-17.075 -4.441,-25.571 -0.296,-1.551 -1.424,-2.942 -2.652,-5.358 z m 99.192,30.474 c 2.001,2.182 3.375,3.679 4.867,5.304 1.109,-2.019 1.882,-3.426 2.914,-5.304 -2.489,0 -4.464,0 -7.781,0 z m 64.725,-283.789 c -0.433,-4.248 -0.735,-7.216 -1.037,-10.184 -0.751,3.124 -3.157,6.382 1.037,10.184 z"
   id="pauline"
   style="fill:#ffffff" />
		<path
   d="m 116.1,505.13 c -0.297,-1.55 -1.424,-2.939 -2.653,-5.355 -3.07,11.789 -0.419,22.194 0.807,32.636 0.356,3.036 2.492,4.106 4.856,3.023 1.021,-0.468 1.662,-3.189 1.431,-4.731 -1.281,-8.557 -2.814,-17.077 -4.441,-25.573 z M 277.364,246.458 c -0.433,-4.248 -0.735,-7.215 -1.037,-10.184 -0.751,3.124 -3.156,6.381 1.037,10.184 z m -59.858,289.093 c 1.109,-2.019 1.882,-3.426 2.914,-5.304 h -7.781 c 2.002,2.182 3.375,3.679 4.867,5.304 z M 182.48,518.517 c -1.102,-1.163 -2.563,-1.984 -2.608,-2.88 -0.175,-3.463 -3.548,-6.582 -1.136,-10.329 0.241,-0.375 0.044,-1.163 -0.161,-1.676 -1.282,-3.2 -2.624,-6.376 -4.284,-10.377 -0.976,1.193 -2.184,2.024 -2.414,3.07 -0.69,3.129 -1.134,6.33 -1.412,9.523 -0.254,2.917 -0.117,5.864 -0.242,8.795 -0.133,3.106 -0.068,6.265 -0.636,9.297 -0.689,3.681 -1.949,7.255 -3.106,11.387 6.585,0 11.904,0 17.196,10e-4 0.348,-4.313 0.668,-8.293 1.042,-12.928 -0.672,-0.54 -1.995,-1.604 -3.33,-2.677 0.637,-0.703 1.149,-1.269 1.091,-1.206 z m 84.922,-4.281 c -4.255,-13.94 -5.61,-28.208 -6.193,-42.565 -0.481,-11.862 0.144,-23.764 -0.153,-35.638 -0.034,-1.359 -2.66,-3.246 -4.428,-3.813 -2.022,-0.646 -2.621,1.024 -2.618,3.163 0.007,4.804 -0.531,9.604 -0.61,14.407 -0.162,9.867 -0.102,19.736 -0.258,29.602 -0.138,8.74 -0.307,17.485 -0.719,26.217 -0.394,8.347 -1.297,16.673 -1.547,25.021 -0.05,1.64 1.695,4.636 2.887,4.783 4.586,0.565 9.283,0.229 14.167,0.229 0.106,-2.24 0.263,-3.677 0.224,-5.105 -0.144,-5.458 0.786,-11.259 -0.752,-16.301 z m 28.435,-395.739 c 1.711,-2.691 2.802,-6.193 5.187,-7.95 4.331,-3.192 8.86,-5.974 11.902,-10.593 1.258,-1.909 2.781,-3.643 4.183,-5.457 0.328,0.228 0.656,0.454 0.984,0.682 -1.47,4.131 -3.115,8.214 -4.314,12.423 -0.41,1.442 0.135,3.249 0.592,4.787 0.135,0.452 1.929,0.986 2.16,0.737 1.031,-1.11 2.017,-2.396 2.556,-3.796 0.72,-1.871 1.013,-3.909 1.489,-5.875 0.541,-0.082 1.082,-0.164 1.624,-0.247 0.764,1.602 1.674,3.153 2.253,4.819 0.659,1.9 1.023,3.903 1.837,7.144 1.778,-4.051 2.97,-6.766 4.268,-9.724 h -2.69 c 0.418,-1.604 0.733,-2.813 1.15,-4.411 2.023,1.91 3.714,3.508 5.519,5.213 -0.349,0.911 -0.726,1.899 -1.268,3.318 3.034,-2.657 5.921,-4.754 8.253,-7.349 2.232,-2.483 3.591,-5.771 5.903,-8.152 1.476,-1.521 3.447,-3.875 6.28,-1.981 -0.561,4.039 -1.132,8.071 -1.822,12.93 0.495,0.453 1.842,1.688 2.573,2.357 6.461,-5.145 12.261,-9.765 19.071,-15.189 -3.026,6.905 -5.51,12.572 -8.359,19.072 5.166,-0.56 8.906,-0.966 12.666,-1.373 -2.903,3.113 -5.346,5.732 -8.606,9.228 2.517,0 4.194,0.511 4.803,-0.08 5.839,-5.659 13.182,-6.826 20.915,-7.064 -1.792,-5.119 1.487,-3.151 3.688,-3.296 -0.733,1.003 -1.229,1.678 -1.869,2.552 h 3.505 V 67.1 h -83.83 c 0.318,4.18 0.637,8.361 0.942,12.363 5.524,-4.049 10.369,-7.601 15.215,-11.153 0.251,0.273 0.501,0.546 0.751,0.819 -1.563,2.59 -3.125,5.18 -4.688,7.771 0.308,0.283 0.617,0.566 0.926,0.85 1.335,-1.013 2.671,-2.025 4.803,-3.642 -0.354,2.014 -0.565,3.213 -0.823,4.682 h 4.364 c -2.23,1.177 -3.441,1.816 -3.612,1.906 -1.11,3.526 -1.836,6.164 -2.768,8.728 -1.813,4.986 -4.896,-2.585 -6.542,0.773 1.134,-3.609 2.269,-7.218 3.403,-10.826 -0.374,-0.234 -0.748,-0.467 -1.122,-0.7 -1.175,1.266 -2.357,2.525 -3.524,3.798 -2.18,2.378 -4.232,4.889 -6.562,7.109 -1.882,1.792 -3.962,3.468 -6.206,4.755 -1.502,0.861 -3.447,0.949 -5.194,1.385 -0.111,-0.444 -0.222,-0.888 -0.334,-1.332 1.208,-0.513 2.417,-1.027 3.894,-1.655 -0.658,-1.405 -1.223,-2.612 -1.907,-4.07 -3.035,1.354 -5.863,2.657 -8.736,3.851 -0.414,0.172 -1.46,-0.093 -1.502,-0.301 -0.152,-0.754 -0.312,-1.811 0.085,-2.322 1.913,-2.455 3.638,-4.766 2.56,-8.27 -0.262,-0.852 1.002,-2.376 1.855,-3.334 3.373,-3.785 6.863,-7.466 10.31,-11.186 h -15.001 c -2.854,6.211 -13.085,12.392 -15.88,9.651 -1.332,0.817 -2.652,1.627 -4.098,2.515 1.597,3.394 -0.658,4.305 -3.194,5.912 -3.344,2.119 -6.114,5.207 -8.915,8.089 -1.381,1.421 -2.278,3.314 -3.483,5.129 0.243,1.171 1.047,2.777 0.785,4.183 -1.246,6.681 -3.176,13.256 -4.062,19.974 -0.498,3.781 -0.656,8.524 1.191,11.487 2.894,4.643 3.559,6.756 -0.716,10.554 2.164,5.158 -0.615,10.419 0.508,15.82 0.958,4.611 -1.157,9.777 -0.797,14.615 0.785,10.547 2.244,21.046 3.544,31.55 0.13,1.047 1.183,1.945 1.591,2.997 0.98,2.521 2.52,5.077 2.579,7.647 0.097,4.215 0.884,7.968 2.353,11.967 1.131,3.081 4.328,2.056 5.238,4.375 0.708,-0.65 1.961,-1.24 2.042,-1.96 1.278,-11.366 2.725,-22.728 3.444,-34.135 0.421,-6.682 -0.406,-13.438 -0.615,-20.164 -0.277,-8.878 -0.445,-17.759 -0.804,-26.634 -0.055,-1.36 -1.547,-2.875 -1.234,-4.002 1.221,-4.402 2.87,-8.688 4.418,-12.995 1.431,-3.982 2.715,-8.044 4.524,-11.851 0.694,-1.46 2.515,-2.797 4.1,-3.28 1.118,-0.34 2.703,0.851 5.022,1.706 -0.02,0.027 0.681,-0.827 1.269,-1.752 z m 62.129,-33.403 c 1.975,4.343 -1.655,5.32 -4.185,6.896 -1.14,-3.494 0.154,-5.746 4.185,-6.896 z m -39.512,236.485 c 0.567,0.751 1.912,0.913 3.366,1.555 v -9.558 c 2.846,1.188 5.441,2.923 8.222,3.304 6.797,0.929 13.671,1.437 20.53,1.728 6.217,0.263 12.506,0.515 18.673,-0.118 10.379,-1.067 20.687,-2.837 31.023,-4.313 v -1.763 c -1.734,0.002 -3.482,0.131 -5.207,-0.02 -5.683,-0.494 -11.355,-1.111 -17.037,-1.627 -0.702,-0.063 -1.611,-0.019 -2.124,0.371 -4.367,3.317 -8.964,0.602 -13.839,1.043 -1.02,4.009 -4.593,2.331 -7.311,1.953 -2.894,-0.4 -5.663,-1.698 -9.071,-2.791 -0.446,0.197 -1.588,0.701 -3.867,1.708 1.259,-1.588 1.747,-2.204 1.764,-2.226 -1.47,-2.176 -2.935,-4.079 -4.117,-6.144 -3.431,-5.999 -3.381,-5.989 -10.944,-4.91 -1.233,0.176 -2.531,-0.111 -4.301,-0.213 1.775,-13.631 14.694,-17.425 21.823,-26.352 -4.203,0.15 -8.024,0.938 -11.788,1.943 -1.978,0.527 -4.295,0.955 -5.698,2.251 -5.764,5.322 -11.51,10.72 -16.678,16.602 -2.011,2.289 -4.116,5.179 -3.03,9.207 1.861,6.899 5.399,12.794 9.611,18.37 z M 293.59,406.2 c 0.987,13.48 2.117,26.955 3.385,40.415 0.841,8.921 2.108,17.802 2.909,26.725 0.4,4.457 0.008,8.979 0.288,13.452 0.307,4.903 0.851,9.802 1.524,14.67 0.519,3.756 2.439,7.62 1.903,11.158 -1.189,7.86 0.507,15.266 1.414,22.921 h 12.443 c -7.165,-44.379 -14.285,-88.477 -21.594,-133.736 -0.983,1.823 -2.362,3.163 -2.272,4.395 z m 104.602,-20.117 c -0.427,-1.962 -0.775,-3.578 -1.166,-5.386 -0.679,2.025 -0.892,3.814 -1.806,5.104 -1.035,1.453 -2.543,2.777 -4.137,3.568 -1.695,0.842 -5.063,1.854 -5.415,1.31 -3.715,-5.731 -8.784,-2.334 -13.515,-2.577 0.501,-1.378 1.044,-2.868 1.883,-5.179 -3.505,1.933 -6.203,3.415 -9.303,5.122 -0.262,-3.271 -0.518,-6.467 -0.87,-10.863 -2.901,1.741 -4.966,2.982 -6.799,4.083 -1.262,-1.757 -2.438,-3.395 -3.33,-4.635 0.759,-1.661 1.602,-3.501 2.445,-5.343 -1.684,-0.58 -3.334,-1.359 -5.066,-1.645 -0.696,-0.112 -1.524,0.974 -2.373,1.311 -1.919,0.762 -3.866,1.473 -5.846,2.052 -0.981,0.286 -2.184,-0.032 -3.076,0.38 -5.116,2.368 -5.475,3.594 -4.24,9.354 0.359,1.675 -0.425,3.594 -0.685,5.399 -0.771,-0.887 -1.441,-1.901 -2.349,-2.616 -0.642,-0.509 -1.619,-0.572 -2.423,-0.895 -1.276,-0.511 -3.025,-0.721 -3.707,-1.675 -2.614,-3.664 -4.712,-7.696 -7.321,-11.364 -4.327,-6.079 -8.9,-11.98 -13.369,-17.961 -0.37,0.25 -0.74,0.501 -1.11,0.751 1.254,2.311 2.714,4.532 3.723,6.943 3.25,7.766 5.787,15.887 9.678,23.306 2.48,4.729 6.118,10.506 10.583,12.146 6.665,2.448 7.611,8.825 12.113,12.514 3.968,3.249 6.274,8.469 10.068,12.01 3.719,3.468 6.173,8.052 8.886,11.899 2.528,3.583 4.281,5.497 8.37,6.656 2.375,0.672 5.591,1.053 6.992,4.732 0.879,2.313 4.082,4.127 6.638,5.316 3.089,1.437 8.317,-2.518 9.688,3.831 0.046,0.209 3.031,-0.307 3.124,-0.007 1.006,3.219 3.742,2.027 5.792,2.514 0,-25.296 0,-50.591 0.003,-75.887 -0.631,1.739 -1.26,3.472 -2.08,5.732 z m -38.701,-232.04 c -0.612,-0.553 -1.581,-0.999 -1.745,-1.648 -1.359,-5.404 -6.217,-7.206 -10.317,-7.556 -11.872,-1.014 -22.885,2.788 -33.231,8.469 -0.688,0.379 -1.108,1.394 -1.463,2.197 -0.777,1.76 -1.227,4.988 -2.171,5.125 -4.528,0.656 -4.481,4.86 -7.46,8.289 3.609,-1.962 6.147,-3.346 8.688,-4.725 8.376,-4.544 17.177,-4.603 26.125,-2.282 2.854,0.74 5.393,1.23 7.021,-2.321 1.296,0.981 2.273,2.31 3.375,2.422 1.956,0.2 3.986,-0.339 5.986,-0.569 -0.749,-4.301 3.454,-5.121 5.192,-7.401 z m 40.778,115.13 c -1.807,2.753 -6.492,2.04 -7.354,6.055 -0.04,0.19 -1.794,0.389 -2.401,0.016 -2.804,-1.722 -7.017,-1.365 -8.211,-5.664 -0.164,-0.591 -2.746,-1.258 -3.593,-0.785 -4.077,2.273 -7.944,4.925 -12.114,7.59 6.087,8.02 12.4,5.482 19.005,2.876 -0.534,0.672 -1.067,1.344 -1.6,2.015 8.543,6.9 8.543,6.9 6.551,9.356 3.38,0.515 6.549,1 9.72,1.483 -0.002,-7.648 -0.002,-15.295 -0.003,-22.942 z m -73.435,-64.121 c 2.592,0.881 5.756,-0.023 8.647,0.132 1.437,0.077 3.944,0.471 4.083,1.123 0.861,4.036 4.8,2.991 6.134,2.595 6.071,-1.8 12.057,-4.142 17.682,-7.047 2.046,-1.056 3.128,-4.149 4.423,-6.441 1.268,-2.242 2.319,-4.618 3.317,-6.998 0.4,-0.953 0.898,-2.442 0.463,-3.032 -0.63,-0.854 -2.03,-1.364 -3.174,-1.53 -0.667,-0.097 -1.474,0.762 -2.218,1.19 -0.22,-0.221 -0.439,-0.444 -0.659,-0.665 0.793,-1.602 1.585,-3.204 2.072,-4.189 -3.283,-0.404 -7.119,0.234 -9.212,-1.383 -3.588,-2.772 -6.419,-1.454 -9.667,-0.358 -2.967,1.001 -5.897,2.154 -8.925,2.918 -3.217,0.812 -6.574,1.07 -9.794,1.877 -7.169,1.795 -12.96,5.884 -17.28,11.765 -2.637,3.59 -4.59,7.682 -6.85,11.549 0.487,0.298 0.973,0.596 1.459,0.892 6.273,-2.604 12.467,-4.787 19.499,-2.398 z m 21.442,5.785 c -1.224,0.728 -2.158,2.124 -3.443,2.535 -3.682,1.179 -7.494,1.939 -11.216,3.003 -2.189,0.625 -4.304,1.517 -7.042,2.5 12.007,3.776 29.356,-1.227 37.302,-10.505 -6.007,-1.325 -10.392,-0.634 -15.601,2.467 z m 51.994,88.337 c -0.699,-1.084 -1.398,-2.168 -2.284,-3.538 -2.664,2.262 -4.457,3.786 -6.399,5.437 -0.3,-0.156 -1.049,-0.548 -1.719,-0.896 v 5.317 c 3.759,-1.965 7.081,-3.701 10.402,-5.437 v -0.883 l 0,0 z"
   id="pauline_2_" />
		<path
   d="m 353.836,92.168 c -1.244,-3.598 0.03,-5.904 4.13,-7.073 1.992,4.382 -1.722,5.336 -4.254,6.937 0.01,0.01 0.124,0.136 0.124,0.136 z"
   id="pauline_3_"
   style="fill:#ffffff" />
	</g>
</g>
<g
   id="g31">
	<polygon
   points="329.875,48 319.665,20.833 309.5,48 "
   id="polygon33"
   style="fill:none" />
	<a
   id="a35">
		<path
   d="M 253.689,10.144 V 57.477 H 385.022 V 10.144 H 253.689 z M 309.5,48 319.665,20.833 329.875,48 H 309.5 z"
   id="path37"
   style="fill:#aa2b2c" />
	</a>
</g>
<a
   id="a39">
	<path
   d="M 424.086,10.769 V 58.102 H 555.419 V 10.769 H 424.086 z M 481.5,47 491.665,19.833 501.875,47 H 481.5 z"
   id="path41"
   style="fill:#aa2b2c" />
</a>
<a
   id="a43">
	<path
   d="m 253.689,545.501 v 47.333 H 385.022 V 545.501 H 253.689 z M 319.71,583.166 309.5,556 h 20.375 l -10.165,27.166 z"
   id="path45"
   style="fill:#aa2b2c" />
</a>
<a
   id="a47">
	<path
   d="m 424.083,545.501 v 47.333 H 555.416 V 545.501 H 424.083 z M 489.71,583.166 479.5,556 h 20.375 l -10.165,27.166 z"
   id="path49"
   style="fill:#aa2b2c" />
</a>
<rect
   width="169"
   height="19"
   x="0"
   y="269"
   id="rect51" />
<rect
   width="169"
   height="19"
   x="0"
   y="189"
   id="rect53" />
<rect
   width="169"
   height="19"
   x="0"
   y="309"
   id="rect55" />
<rect
   width="169"
   height="19"
   x="0"
   y="229"
   id="rect57" />
<rect
   width="169"
   height="19"
   x="0"
   y="429"
   id="rect59" />
<rect
   width="169"
   height="19"
   x="0"
   y="389"
   id="rect61" />
<rect
   width="169"
   height="19"
   x="0"
   y="349"
   id="rect63" />
<text
   transform="translate(33.2695,186.832)"
   id="text65"
   style="font-size:20px;font-family:Simplifica">PHOTOSHOP</text>

<text
   transform="translate(30.5996,225.4453)"
   id="text67"
   style="font-size:20px;font-family:Simplifica">ILLUSTRATOR</text>

<text
   transform="translate(41.7397,265.499)"
   id="text69"
   style="font-size:20px;font-family:Simplifica">INDESIGN</text>

<text
   transform="translate(36.7695,305.498)"
   id="text71"
   style="font-size:20px;font-family:Simplifica">HTML/CSS</text>

<text
   transform="translate(33.3296,344.498)"
   id="text73"
   style="font-size:20px;font-family:Simplifica">PHP/MySQL</text>

<text
   transform="translate(31.5195,385.248)"
   id="text75"
   style="font-size:20px;font-family:Simplifica">JAVASCRIPT</text>

<text
   transform="translate(15.6011,425.832)"
   id="text77"
   style="font-size:20px;font-family:Simplifica">GESTION DE PROJET</text>

<rect
   width="169"
   height="19"
   x="631"
   y="269"
   id="rect79" />
<rect
   width="169"
   height="19"
   x="631"
   y="189"
   id="rect81" />
<rect
   width="169"
   height="19"
   x="631"
   y="309"
   id="rect83" />
<rect
   width="169"
   height="19"
   x="631"
   y="229"
   id="rect85" />
<rect
   width="169"
   height="19"
   x="631"
   y="429"
   id="rect87" />
<rect
   width="169"
   height="19"
   x="631"
   y="389"
   id="rect89" />
<rect
   width="169"
   height="19"
   x="631"
   y="349"
   id="rect91" />
<text
   transform="translate(699.2695,186.832)"
   id="text93"
   style="font-size:20px;font-family:Simplifica">PHOTOSHOP</text>

<text
   transform="translate(696.5996,225.4453)"
   id="text95"
   style="font-size:20px;font-family:Simplifica">ILLUSTRATOR</text>

<text
   transform="translate(707.7402,265.499)"
   id="text97"
   style="font-size:20px;font-family:Simplifica">INDESIGN</text>

<text
   transform="translate(702.7695,305.498)"
   id="text99"
   style="font-size:20px;font-family:Simplifica">HTML/CSS</text>

<text
   transform="translate(699.3301,344.498)"
   id="text101"
   style="font-size:20px;font-family:Simplifica">PHP/MySQL</text>

<text
   transform="translate(697.5195,385.248)"
   id="text103"
   style="font-size:20px;font-family:Simplifica">JAVASCRIPT</text>

<text
   transform="translate(681.6016,425.832)"
   id="text105"
   style="font-size:20px;font-family:Simplifica">GESTION DE PROJET</text>

<rect
   width="83"
   height="19"
   x="717"
   y="269"
   id="rect107"
   style="fill:#aa2b2c" />
<rect
   width="83"
   height="19"
   x="717"
   y="309"
   id="rect109"
   style="fill:#aa2b2c" />
<rect
   width="115"
   height="19"
   x="685"
   y="189"
   id="rect111"
   style="fill:#aa2b2c" />
<rect
   width="105"
   height="19"
   x="695"
   y="229"
   id="rect113"
   style="fill:#aa2b2c" />
<rect
   width="130"
   height="19"
   x="670"
   y="429"
   id="rect115"
   style="fill:#aa2b2c" />
<rect
   width="15"
   height="19"
   x="785"
   y="389"
   id="rect117"
   style="fill:#aa2b2c" />
<rect
   width="8"
   height="19"
   x="792"
   y="349"
   id="rect119"
   style="fill:#aa2b2c" />
<rect
   width="108"
   height="19"
   x="0"
   y="189"
   id="rect121"
   style="fill:#aa2b2c" />
<rect
   width="122"
   height="19"
   x="0"
   y="229"
   id="rect123"
   style="fill:#aa2b2c" />
<rect
   width="91"
   height="19"
   x="0"
   y="269"
   id="rect125"
   style="fill:#aa2b2c" />
<rect
   width="157"
   height="19"
   x="0"
   y="309"
   id="rect127"
   style="fill:#aa2b2c" />
<rect
   width="100"
   height="19"
   x="0"
   y="349"
   id="rect129"
   style="fill:#aa2b2c" />
<rect
   width="114"
   height="19"
   x="0"
   y="389"
   id="rect131"
   style="fill:#aa2b2c" />
<rect
   width="65"
   height="19"
   x="0"
   y="429"
   id="rect133"
   style="fill:#aa2b2c" />
<text
   transform="translate(56.7847,95.1104)"
   id="prenom"
   style="font-size:37px;fill:#aa2b2c;font-family:Sofia-Regular">Pierrick</text>

<text
   transform="translate(617.0518,95.1104)"
   id="prenom_1_"
   style="font-size:37px;fill:#aa2b2c;font-family:Sofia-Regular">Pauline</text>

<text
   transform="translate(600.6504,143.9521)"
   id="nomfam"
   style="font-size:62px;font-family:Simplifica">COURTOIS</text>

<text
   transform="translate(68.6499,143.9521)"
   id="nomfam_1_"
   style="font-size:62px;font-family:Simplifica">FABRE</text>

</svg>