<?xml version="1.0" encoding="utf-8"?>
<!-- Generator: Adobe Illustrator 16.0.0, SVG Export Plug-In . SVG Version: 6.00 Build 0)  -->
<!DOCTYPE svg PUBLIC "-//W3C//DTD SVG 1.1//EN" "http://www.w3.org/Graphics/SVG/1.1/DTD/svg11.dtd">
<svg version="1.1" id="layer" xmlns="http://www.w3.org/2000/svg" xmlns:xlink="http://www.w3.org/1999/xlink" x="0px" y="0px"
	 width="800px" height="600px" viewBox="0 0 800 600" enable-background="new 0 0 800 600" xml:space="preserve">
<script  type="text/javascript" src="change.js"></script>

<defs>
	<style type="text/css">
	   <![CDATA[
	    @font-face {
	        font-family: Simplifica;
	        src: url('fonts/simplifica.ttf');
	    }
		@font-face {
	        font-family: Sofia-Regular;
	        src: url('fonts/sofia.otf');
	    }
	   ]]>
	 </style>
</defs><defs>
	<style type="text/css">
	   <![CDATA[
	    @font-face {
	        font-family: Simplifica;
	        src: url('fonts/simplifica.ttf');
	    }
		@font-face {
	        font-family: Sofia-Regular;
	        src: url('fonts/sofia.otf');
	    }
	   ]]>
	 </style>
</defs>

<g>
	<g>
		<path id="pierrick" fill="#FFFFFF" d="M532.356,203.916c1.098,1.433,2.813,2.729,3.167,4.327c0.791,3.559,0.826,7.279,1.33,10.912
			c0.166,1.206,0.814,2.345,1.244,3.514c0.45-0.156,0.9-0.311,1.354-0.467c-1.118-7.065-2.236-14.13-3.547-22.405
			c-1.977,2.292-2.842,3.296-3.706,4.299c2.771-11.426,1.836-22.574-2.802-33.426c0.248,4.908,1.053,9.754,1.67,14.624
			c0.358,2.837,1.694,6.761,0.373,8.367C527.941,197.905,530.393,200.692,532.356,203.916z M422.64,214.94
			c1.191,1.547,2.565,2.99,3.521,4.672c0.886,1.56,1.054,3.552,2.023,5.035c1.325,2.02,3.112,3.738,5.078,6.023
			c3.531,1.174,7.973,2.842,12.523,4.095c2.937,0.808,6.757,3.53,8.012-2.282c0.105-0.488,0.991-1.026,1.599-1.154
			c5.664-1.192,11.315-2.513,17.033-3.381c7.13-1.083,11.762-10.038,6.843-14.806c-5.261-5.099-11.56-9.624-19.024-11
			c-6.813-1.256-10.756-3.554-11.137-10.871c-9.313,0-18.645,0-27.977,0c-0.018,0.53-0.034,1.061-0.052,1.592
			c2.588,0.178,5.176,0.355,7.763,0.533c0.116,0.572,0.23,1.144,0.349,1.716c-2.33,0.804-4.661,1.607-6.991,2.411
			C416.246,203.278,421.737,209.657,422.64,214.94z M634.485,471.602c-4.459,0.699-8.28,1.217-12.054,1.979
			c-0.584,0.118-1.309,1.372-1.292,2.085c0.018,0.652,0.842,1.69,1.49,1.86c6.3,1.65,12.618,3.255,18.984,4.612
			c1.133,0.242,2.517-0.693,4.336-1.258c-2.734-2.981-5.104-5.564-7.629-8.32c-1.264,1.803-2.066,2.951-3.276,4.681
			C634.829,475.049,634.693,473.688,634.485,471.602z M509.705,226.083c0-11.227,0-20.996,0-31.277
			C504.824,199.3,504.377,220.447,509.705,226.083z M490.737,491.015c0.797,0.357,1.594,0.717,2.392,1.071
			c3.386-2.678,3.725-6.489,3.48-10.518c-0.467-0.197-0.933-0.396-1.396-0.59C493.721,484.324,492.229,487.67,490.737,491.015z"/>
		<path id="pierrick_4_" d="M446.298,535.843h5.324v-14.675c-0.2-0.015-0.399-0.029-0.598-0.043
			C449.448,526.031,447.873,530.938,446.298,535.843z M437.78,535.843h3.191c3.765-5.684,4.599-13.757,0.729-18.686
			C441.133,524.297,441.768,530.735,437.78,535.843z M506.952,527.763c-0.7,2.693-1.398,5.389-2.097,8.08h7.45
			c-1.104-2.702-2.211-5.402-3.315-8.104C508.311,527.744,507.632,527.754,506.952,527.763z M451.93,88.121
			c1.557-0.831,3.376-1.667,5.044-2.74c1.352-0.868,3.424-1.89,3.598-3.076c0.587-4.009,3.645-4.93,6.524-6.042
			c3.317-1.28,6.741-2.311,10.182-3.214c0.627-0.164,1.553,0.807,2.635,1.421c-5.298,5.034-15.091,1.013-17.559,9.913
			c0.5,0.038,1,0.076,1.499,0.116c-0.264,2.986-0.527,5.972-0.729,8.236c8.896,8.01,17.608,15.853,26.303,23.683
			c1.195-2.436,1.57-4.797,2.883-5.573c3.584-2.118,4.199-5.014,1.565-8.311c-0.987-1.236-0.944-3.295-1.371-4.978
			c0.594-0.191,1.188-0.383,1.782-0.574c4.174,5.079,8.347,10.158,12.521,15.237l0.384-0.314c-0.085-1.554,0.355-3.417-0.344-4.613
			c-4.006-6.845-7.839-13.863-12.585-20.18c-5.214-6.939-11.354-13.182-17.09-19.728h-43.65c-0.752,3.592-1.503,7.183-2.066,9.891
			C437.165,84.129,447.597,81.418,451.93,88.121z M523.452,409.15c0-3.839-0.365-7.865,0.08-11.803
			c0.792-7.002,3.087-14.009,2.685-20.894c-0.177-3.029,1.579-4.304,1.837-6.533c1.414-12.241,2.873-24.476,4.473-36.693
			c0.181-1.39,1.331-2.651,2.024-3.964c-0.594-0.176-1.273-0.378-0.593-0.176c0.39-4.023,0.694-7.161,1.015-10.474
			c3.754,5.186,6.109,36.642,3.527,41.434c1.264,1.007,3.579,2.199,3.435,2.839c-1.313,5.868,2.271,12.952-4.105,17.067
			c1.186,2.906,2.188,5.361,3.414,8.362c1.332-4.644,2.228-8.938,3.792-12.977c3.342-8.628-1.396-17.914,2.402-26.465
			c0.319-0.72,0.156-1.815-0.125-2.616c-0.977-2.778-2.604-5.422-3.069-8.268c-0.912-5.601-0.841-11.364-1.837-16.943
			c-2.321-13.003-4.922-25.96-7.689-38.877c-0.506-2.368-2.325-4.454-3.146-5.956c-0.32-2.22-0.528-5.707-0.87-5.72
			c-5.547-0.215-4.896-4.473-5.524-7.909c-1.006-5.492-2.017-10.982-3.024-16.474c-1.673,0.71-2.229,1.307-2.208,1.882
			c0.264,6.915,0.395,13.847,1.021,20.732c0.396,4.327,1.841,8.555,2.292,12.882c0.294,2.818-0.351,5.733-0.577,8.605
			c-0.734-0.061-1.473-0.121-2.209-0.183c0.068-1.097,0.206-2.196,0.189-3.292c-0.03-2.032,0.684-5.007-0.371-5.939
			c-5.989-5.29-6.447-12.499-7.552-19.496c-1.604-10.139-3.028-20.305-4.529-30.459c-1.923,3.95-2.558,7.895-3.42,11.79
			c-2.568,11.601-5.104,23.212-7.886,34.762c-2.219,9.201-4.618,18.363-7.239,27.458c-2.516,8.722-4.471,17.78-8.332,25.902
			c-10.114,21.272-28.22,34.885-47.86,46.537c-3.829,2.271-9.44,4.043-13.212,1.208c-5.2-3.911-11.654-6.082-15.936-11.294
			c-0.313-0.379-2.093,0.199-3.028,0.661c-0.742,0.366-1.237,1.235-1.841,1.883c0,16.68,0,33.359-0.002,50.042
			c1.038-1.748,2.076-3.496,3.206-5.398c2.06,1.164,3.933,2.224,5.824,3.291c1.617-1.717,3.051-3.233,3.878-4.111
			c3.754-1.008,6.516,4.586,9.851-0.098c0.146-0.205,1.852,0.236,2.251,0.795c0.504,0.701,0.765,1.953,0.493,2.747
			c-0.424,1.233-1.386,2.281-2.22,3.56c4.408,3.562,5.298,6.976-1.364,10.423c2.874,0.361,4.338,0.546,5.736,0.723
			c-2.851,7.437-5.629,14.686-8.407,21.938c-1.137-0.935-2.331-1.917-4.577-3.76c1.975,4.801,3.41,8.293,5.063,12.314
			c0.561-1.832,1.152-3.779,1.938-6.357c1.075,4.727,1.971,8.667,2.862,12.582c-0.103-0.021-1.097-0.202-2.386-0.438
			c1.797,5.291,3.411,10.045,5.532,16.289c0.505,1.032,1.729,3.149,2.572,5.409c0.481,1.29,0.348,2.812,0.504,4.352
			c6,2.788,5.395,8.782,4.197,15.062c3.053-0.309,5.661-0.567,9.127-0.915c-0.904,1.967-1.609,3.5-2.313,5.03
			c0.624,0.979,1.481,2.319,2.337,3.66c0.578,0.005,1.155,0.011,1.733,0.014c0.691-7.087,1.383-14.174,2.057-21.088
			c2.082,1.946,3.983,3.725,6.753,6.314c3.621-9.183,7.149-18.132,10.325-26.187c1.598-1.32,3.447-2.073,3.825-3.285
			c2.56-8.207,4.821-16.511,7.159-24.786c2.878-10.185,5.775-20.363,8.568-30.572c0.534-1.949,0.62-4.021,0.913-6.04
			c1.009,3.259,1.535,6.532,0.872,9.546c-0.791,3.591,0.236,8.03-3.934,10.498c-0.535,0.316-0.445,1.762-0.563,2.695
			c-0.611,4.855-0.821,9.799-1.873,14.557c-2.441,11.069-5.31,22.045-7.957,33.068c-0.848,3.53-1.59,7.087-2.276,10.65
			c-0.105,0.548,0.346,1.201,0.729,2.396c2.902-3.481,5.405-6.485,7.979-9.575c0.674,1.229,1.309,2.382,2.018,3.673
			c6.729-11.842,6.729-11.842,6.524-20.868c4.539-0.42,7.89-2.382,7.976-6.643c1.439,0.983,3.079,2.105,5.299,3.624
			c-2.176,0.994-3.557,1.626-5.098,2.33c0.88,1.111,1.803,2.274,2.959,3.735c-4.083,1.418-5.375,3.271-1.956,5.75
			c1.21-1.154,2.337-2.056,3.246-3.141c1.106-1.313,2.646-2.674,2.924-4.208c1.422-7.852,2.786-15.733,3.604-23.667
			c0.604-5.863,0.294-11.818,0.521-17.729c0.034-0.866,0.788-1.703,1.296-2.728c1.134,1.524,2.001,2.691,3.499,4.705
			c0.229-1.842,0.462-2.653,0.406-3.443c-0.83-11.702-1.711-23.401-2.552-35.104c-0.267-3.692-0.38-7.398-0.689-11.088
			c-0.256-3.056-1.302-6.188-0.868-9.118c0.379-2.558,2.333-4.882,4.231-8.543c0.623,6.705,2.082,11.673,1.291,16.252
			c-1.386,8.017,0.169,15.688,1.166,23.395c0.988,7.625,2.984,15.127,4.768,22.628c0.207,0.87,1.89,1.394,3.636,2.591
			c-0.903-7.126-1.66-13.118-2.516-19.867C521.596,408.43,522.726,408.869,523.452,409.15z M486.762,408.857
			c-0.62-0.211-1.238-0.424-1.858-0.635c2.381-8.257,4.761-16.512,7.141-24.768c0.471,0.131,0.941,0.263,1.412,0.396
			C491.224,392.188,488.992,400.522,486.762,408.857z M498.66,371.892c-0.43-0.188-0.859-0.381-1.29-0.569
			c4.656-15.959,5.688-18.29,10.324-20.037C504.682,358.153,501.671,365.022,498.66,371.892z M532.337,203.939
			c-0.025-0.042-0.051-0.083-0.075-0.124c-0.021,0.093-0.04,0.186-0.063,0.279L532.337,203.939z M531.44,193.659
			c-3.454,4.19-1.11,6.962,0.82,10.156c2.688-11.328,1.735-22.382-2.864-33.147c0.25,4.909,1.054,9.755,1.671,14.624
			C531.427,188.13,532.763,192.054,531.44,193.659z M509.705,226.083v-31.277C504.824,199.301,504.377,220.448,509.705,226.083z
			 M676.891,523.766c-1.435,1.592-2.232,2.478-3.401,3.773c-0.232-3.223-0.416-5.786-0.61-8.475
			c-1.813,0.136-3.147,0.233-3.362,0.251c-1.846-2.077-3.026-3.45-4.254-4.781c-4.545-4.939-12.558-6.021-14.893-13.526
			c-0.354-1.137-2.219-2.775-3.097-2.614c-4.548,0.837-5.87-3.223-8.411-5.233c-1.451-1.149-1.705-4.128-3.195-4.855
			c-7.634-3.725-15.416-7.189-23.327-10.278c-2.203-0.86-5.025-0.133-7.563-0.133c-0.265-0.594-0.525-1.188-0.787-1.78
			c2.816-1.976,5.395-4.868,8.516-5.688c3.916-1.031,8.318-0.074,12.42-0.635c0.987-0.136,2.188-2.854,2.235-4.415
			c0.037-1.272-1.501-2.591-2.236-3.729c-4.305,1.125-8.548,1.801-12.354,3.471c-1.279,0.562-5.593,0.391-3.696,4.354
			c-0.819,0.321-1.626,0.879-2.46,0.922c-2.919,0.153-6.658-1.019-8.627,0.375c-7.303,5.167-15.654,1.805-23.242,3.801
			c-0.811,0.213-2.127,0.266-2.581-0.209c-5.688-5.938-13.214-3.345-20.724-5.405c1.438,1.834,2.104,2.683,2.771,3.533
			c-5.509,3.854,1.229,4.149,1.893,6.194c0.631,1.949,1.908,3.688,2.9,5.521c-0.572,0.429-1.146,0.855-1.719,1.284
			c-2.327-1.304-4.652-2.604-6.979-3.907c-2.635,0.496-4.767-0.355-6.077-4.028c-0.428-1.194-1.69-2.283-2.836-2.992
			c-4.282-2.644-8.674-5.109-14.185-8.317c0,2.294-0.511,3.923,0.088,4.738c2.678,3.65,5.707,7.039,8.519,10.598
			c0.565,0.718,1.295,2.17,0.994,2.574c-2.592,3.483,0.573,6.001,1.276,8.907c0.862,3.566,1.707,7.139,2.561,10.706
			c-0.396,0.072-0.79,0.146-1.188,0.219c-3.45-7.195-6.9-14.394-10.351-21.591c-0.483,0.213-0.968,0.425-1.451,0.639v6.434
			c-0.367-0.225-0.733-0.448-1.099-0.672c-1.179,1.594-3.667,3.617-3.312,4.712c1.78,5.458,3.898,10.904,6.712,15.896
			c2.018,3.574,3.064,6.16-0.827,7.991c0.964,1.625,2.266,2.902,2.453,4.326c0.433,3.259,1.718,4.191,4.387,2.192
			c4.001-2.999,8.883-5.519,11.482-9.489c2.495-3.813,2.562-9.217,3.707-13.975c0.361,1.892,0.787,4.127,1.414,7.415
			c3.43-3.705,6.438-6.955,10.263-11.086c-0.104,7.259-3.385,11.435-7.405,15.199c-3.217,3.014-6.608,5.838-9.756,8.919
			c-3.717,3.643-7.24,7.479-10.882,11.199c-0.309,0.316-1.054,0.687-1.276,0.539c-4.01-2.611-4.335,1.663-6.104,3.212H669.88
			c0.065-1.292,0.129-2.583,0.229-4.552c1.763,1.529,2.966,2.571,4.396,3.811c0.491-1.659,0.834-2.817,1.245-4.212
			c2.225,1.403,4.394,2.773,6.982,4.407c1.074-2.076,1.971-3.807,3.388-6.544C680.734,530.403,677.242,529.924,676.891,523.766z
			 M618.431,504.329c-0.763,3.375-3.164,6.38-4.905,9.619c-3.243-3.908-4.205-13.826-1.288-16.794
			c0.791-0.806,3.879-0.902,4.06-0.498C617.387,499.099,618.955,502.012,618.431,504.329z M628.29,496.844
			c0.279-3.428,0.471-5.799,0.678-8.354c1.22,0.22,2.987,0.54,5.701,1.027C632.273,492.269,630.609,494.18,628.29,496.844z
			 M404.014,296.438c1.04-3.575,3.81-6.645,5.662-9.677c3.026,0.885,6.246,1.828,11.107,3.25c-0.681-4.707-0.084-9.083-1.865-10.526
			c-1.779-1.442-5.96,0.362-9.043,0.136c-1.624-0.118-4.205-1.245-4.526-2.417c-0.961-3.508-3.098-3.706-5.896-3.273
			c0,9.228,0,18.454-0.001,27.68c1.201,2.084,2.399,4.166,4.347,7.545C403.797,303.837,403.012,299.877,404.014,296.438z
			 M422.64,214.94c1.191,1.547,2.565,2.99,3.521,4.671c0.885,1.56,1.053,3.552,2.023,5.035c1.325,2.02,3.112,3.738,5.078,6.023
			c3.531,1.174,7.972,2.842,12.523,4.095c2.937,0.808,6.757,3.53,8.012-2.282c0.106-0.487,0.992-1.026,1.597-1.154
			c5.666-1.192,11.317-2.513,17.035-3.381c7.13-1.084,11.762-10.038,6.843-14.806c-5.26-5.098-11.559-9.623-19.024-11
			c-6.813-1.256-10.756-3.554-11.137-10.871h-27.977c-0.018,0.53-0.034,1.061-0.052,1.592c2.588,0.178,5.176,0.355,7.763,0.533
			c0.117,0.572,0.231,1.144,0.349,1.716c-2.33,0.804-4.661,1.607-6.991,2.411C416.246,203.278,421.738,209.657,422.64,214.94z
			 M465.281,218.343c0.924,1.101,1.849,2.202,2.772,3.302c-1.579,1.311-3.156,2.621-4.735,3.932
			c-0.639-0.676-1.273-1.353-1.911-2.03C462.698,221.812,463.99,220.077,465.281,218.343z M450.334,327.36
			c2.861-6.125,2.861-6.125-4.791-9.832c-9.276,7.763-21.392,7.813-33.014,1.396c-4.35-2.398-6.455-1.172-7.988,2.207
			c-1.843-0.514-3.466-0.966-5.09-1.419v36.2c5.544-0.036,10.979-0.805,14.591-5.468c1.449-1.873,2.328-4.73,2.188-7.063
			c-0.072-1.208-2.813-2.536-4.568-3.3c-3.035-1.319-6.244-2.241-9.38-3.329c0.087-0.644,0.174-1.286,0.261-1.93
			C417.75,328.523,433.069,322.893,450.334,327.36z M495.213,480.979c-1.493,3.348-2.984,6.691-4.476,10.036
			c0.797,0.357,1.594,0.714,2.392,1.072c3.385-2.678,3.724-6.49,3.48-10.518C496.145,481.372,495.679,481.175,495.213,480.979z"/>
		<path id="pierrick_5_" fill="#FFFFFF" d="M497.37,371.321c4.656-15.959,5.688-18.29,10.324-20.037
			c-3.014,6.869-6.023,13.738-9.034,20.606C498.23,371.702,497.801,371.512,497.37,371.321z"/>
		<path id="pierrick_6_" fill="#FFFFFF" d="M484.902,408.224c2.381-8.257,4.761-16.512,7.142-24.769
			c0.471,0.132,0.941,0.264,1.412,0.396c-2.231,8.335-4.463,16.671-6.693,25.007C486.143,408.646,485.522,408.435,484.902,408.224z"
			/>
		<path id="pierrick_7_" fill="#FFFFFF" d="M613.524,513.948c-3.243-3.908-4.205-13.826-1.287-16.794
			c0.791-0.806,3.879-0.902,4.06-0.498c1.091,2.44,2.659,5.354,2.135,7.673C617.668,507.704,615.268,510.709,613.524,513.948z"/>
		<path id="pierrick_8_" fill="#FFFFFF" d="M634.669,489.517c-2.396,2.752-4.06,4.663-6.379,7.327
			c0.278-3.429,0.471-5.8,0.678-8.354C630.188,488.708,631.955,489.027,634.669,489.517z"/>
		<path id="pierrick_9_" fill="#FFFFFF" d="M461.407,223.547c1.291-1.735,2.583-3.47,3.874-5.204
			c0.925,1.101,1.85,2.202,2.772,3.302c-1.579,1.311-3.156,2.621-4.735,3.932C462.682,224.9,462.045,224.224,461.407,223.547z"/>
	</g>
</g>
<g>
	<g>
		<path id="pauline" fill="#FFFFFF" d="M400.27,111.221c0,52.651,0,105.301,0,157.952c-1.808,2.753-6.493,2.041-7.354,6.055
			c-0.04,0.189-1.794,0.389-2.401,0.016c-2.804-1.722-7.017-1.364-8.211-5.664c-0.165-0.591-2.747-1.257-3.593-0.785
			c-4.077,2.273-7.943,4.925-12.114,7.59c6.086,8.02,12.399,5.482,19.005,2.876c-0.534,0.671-1.067,1.343-1.6,2.015
			c8.543,6.9,8.543,6.9,6.551,9.356c3.379,0.515,6.549,1,9.719,1.483c0,2.354,0,4.706,0,7.059c-0.699-1.084-1.398-2.168-2.284-3.538
			c-2.663,2.262-4.457,3.785-6.399,5.438c-0.3-0.156-1.049-0.549-1.719-0.896c0,1.648,0,2.967,0,5.317
			c3.759-1.966,7.081-3.7,10.402-5.437c0,4.118,0,8.235,0,12.354c-1.734,0.002-3.482,0.132-5.207-0.02
			c-5.683-0.496-11.355-1.111-17.037-1.627c-0.701-0.063-1.611-0.019-2.124,0.371c-4.367,3.317-8.964,0.602-13.839,1.043
			c-1.02,4.008-4.593,2.331-7.311,1.953c-2.894-0.402-5.664-1.698-9.071-2.791c-0.446,0.197-1.588,0.701-3.867,1.708
			c1.258-1.588,1.747-2.203,1.764-2.226c-1.47-2.176-2.936-4.078-4.117-6.146c-3.431-5.997-3.381-5.987-10.944-4.908
			c-1.232,0.176-2.531-0.111-4.301-0.213c1.774-13.631,14.694-17.425,21.823-26.352c-4.203,0.15-8.024,0.938-11.788,1.943
			c-1.978,0.527-4.294,0.955-5.698,2.251c-5.764,5.322-11.51,10.72-16.678,16.602c-2.012,2.289-4.117,5.179-3.03,9.207
			c1.86,6.896,5.397,12.792,9.609,18.368c0.566,0.751,1.912,0.913,3.366,1.555c0-3.38,0-6.202,0-9.558
			c2.846,1.188,5.441,2.923,8.222,3.304c6.797,0.929,13.67,1.435,20.53,1.726c6.217,0.265,12.506,0.517,18.673-0.116
			c10.38-1.066,20.687-2.837,31.024-4.313c0,22.063,0,44.121,0,66.181c-0.631,1.732-1.26,3.468-2.078,5.728
			c-0.427-1.962-0.774-3.578-1.166-5.386c-0.679,2.025-0.892,3.814-1.807,5.104c-1.035,1.453-2.543,2.777-4.137,3.568
			c-1.695,0.842-5.063,1.854-5.415,1.31c-3.715-5.731-8.784-2.334-13.515-2.577c0.501-1.378,1.043-2.868,1.883-5.179
			c-3.505,1.931-6.203,3.415-9.303,5.122c-0.262-3.271-0.518-6.467-0.87-10.863c-2.9,1.741-4.966,2.982-6.799,4.083
			c-1.262-1.757-2.438-3.395-3.33-4.635c0.76-1.661,1.603-3.501,2.445-5.343c-1.684-0.58-3.334-1.358-5.066-1.645
			c-0.696-0.112-1.524,0.974-2.373,1.311c-1.918,0.762-3.866,1.473-5.846,2.052c-0.981,0.286-2.185-0.032-3.076,0.38
			c-5.116,2.368-5.475,3.593-4.24,9.354c0.359,1.676-0.425,3.595-0.685,5.399c-0.771-0.887-1.441-1.901-2.349-2.617
			c-0.643-0.508-1.62-0.57-2.423-0.894c-1.275-0.511-3.024-0.721-3.707-1.675c-2.614-3.664-4.711-7.696-7.321-11.364
			c-4.327-6.079-8.9-11.98-13.369-17.961c-0.37,0.25-0.74,0.501-1.11,0.751c1.254,2.312,2.713,4.532,3.723,6.943
			c3.25,7.766,5.787,15.887,9.678,23.306c2.48,4.729,6.117,10.506,10.583,12.146c6.665,2.447,7.611,8.825,12.113,12.514
			c3.969,3.249,6.274,8.469,10.068,12.01c3.718,3.469,6.173,8.053,8.886,11.899c2.527,3.583,4.281,5.497,8.37,6.654
			c2.375,0.675,5.591,1.056,6.992,4.734c0.879,2.313,4.083,4.127,6.638,5.316c3.089,1.438,8.317-2.518,9.688,3.831
			c0.045,0.209,3.03-0.307,3.124-0.008c1.006,3.22,3.742,2.027,5.792,2.515c0,26.767,0,53.532,0,80.3c-100.007,0-200.013,0-300.02,0
			c0-156.48,0-312.962,0-469.443c65.593,0,131.185,0,196.778,0c-2.854,6.211-13.085,12.393-15.88,9.651
			c-1.332,0.817-2.652,1.627-4.098,2.515c1.597,3.395-0.658,4.305-3.194,5.912c-3.344,2.119-6.114,5.208-8.915,8.089
			c-1.381,1.421-2.278,3.314-3.483,5.129c0.242,1.171,1.047,2.776,0.785,4.183c-1.246,6.681-3.176,13.256-4.062,19.974
			c-0.498,3.781-0.656,8.523,1.191,11.487c2.895,4.643,3.559,6.755-0.716,10.554c2.165,5.158-0.614,10.419,0.508,15.82
			c0.958,4.611-1.157,9.777-0.797,14.615c0.785,10.547,2.244,21.046,3.544,31.55c0.129,1.047,1.183,1.945,1.591,2.997
			c0.98,2.521,2.521,5.077,2.579,7.646c0.097,4.215,0.884,7.968,2.353,11.967c1.131,3.081,4.328,2.056,5.238,4.375
			c0.708-0.65,1.96-1.24,2.042-1.96c1.278-11.366,2.726-22.729,3.444-34.135c0.421-6.682-0.405-13.438-0.615-20.164
			c-0.277-8.878-0.445-17.759-0.804-26.634c-0.055-1.36-1.546-2.875-1.234-4.002c1.221-4.401,2.87-8.688,4.418-12.995
			c1.431-3.982,2.715-8.043,4.524-11.851c0.694-1.46,2.515-2.796,4.1-3.28c1.118-0.34,2.703,0.851,5.022,1.706
			c-0.021,0.027,0.68-0.827,1.269-1.752c1.711-2.691,2.802-6.193,5.187-7.95c4.331-3.192,8.86-5.974,11.902-10.593
			c1.258-1.909,2.781-3.643,4.183-5.457c0.328,0.228,0.656,0.454,0.984,0.682c-1.47,4.132-3.115,8.214-4.314,12.423
			c-0.411,1.442,0.135,3.25,0.592,4.787c0.134,0.452,1.929,0.986,2.16,0.737c1.031-1.11,2.017-2.396,2.556-3.796
			c0.72-1.872,1.013-3.909,1.489-5.875c0.541-0.083,1.082-0.165,1.624-0.247c0.764,1.602,1.674,3.153,2.253,4.819
			c0.659,1.9,1.022,3.902,1.837,7.144c1.778-4.05,2.97-6.766,4.268-9.724c-0.667,0-1.489,0-2.69,0
			c0.418-1.604,0.733-2.813,1.15-4.411c2.022,1.91,3.714,3.509,5.519,5.213c-0.349,0.912-0.726,1.899-1.268,3.318
			c3.034-2.657,5.921-4.753,8.253-7.349c2.232-2.483,3.591-5.771,5.903-8.152c1.499-1.545,3.506-3.958,6.411-1.899l-0.114-0.126
			c-0.574,4.047-1.147,8.093-1.839,12.973c0.495,0.453,1.842,1.688,2.573,2.357c6.46-5.145,12.261-9.765,19.071-15.189
			c-3.026,6.904-5.51,12.572-8.359,19.072c5.166-0.56,8.906-0.965,12.666-1.373c-2.904,3.113-5.347,5.732-8.606,9.228
			c2.517,0,4.194,0.511,4.803-0.08c5.839-5.66,13.182-6.827,20.915-7.064c-1.792-5.12,1.487-3.151,3.688-3.296
			c-0.732,1.002-1.229,1.678-1.869,2.552C398.253,111.221,399.261,111.221,400.27,111.221z M305.876,206.558
			c0.487,0.298,0.973,0.596,1.46,0.895c6.272-2.604,12.466-4.788,19.499-2.398c2.593,0.881,5.757-0.023,8.647,0.132
			c1.436,0.077,3.943,0.471,4.083,1.123c0.86,4.036,4.8,2.991,6.134,2.595c6.07-1.8,12.057-4.143,17.682-7.047
			c2.046-1.057,3.128-4.149,4.423-6.441c1.268-2.242,2.32-4.618,3.317-6.998c0.4-0.953,0.898-2.442,0.463-3.032
			c-0.63-0.854-2.031-1.364-3.174-1.53c-0.667-0.097-1.474,0.762-2.218,1.19c-0.22-0.221-0.439-0.444-0.659-0.665
			c0.792-1.602,1.585-3.204,2.072-4.189c-3.283-0.404-7.119,0.233-9.212-1.383c-3.588-2.772-6.419-1.455-9.667-0.358
			c-2.967,1-5.897,2.154-8.925,2.918c-3.218,0.812-6.575,1.07-9.794,1.877c-7.169,1.795-12.96,5.884-17.28,11.765
			C310.089,198.599,308.136,202.691,305.876,206.558z M267.93,535.642c0.106-2.239,0.263-3.677,0.225-5.105
			c-0.145-5.456,0.786-11.257-0.752-16.299c-4.254-13.94-5.61-28.208-6.193-42.565c-0.481-11.861,0.144-23.764-0.153-35.638
			c-0.034-1.358-2.66-3.245-4.428-3.813c-2.022-0.646-2.621,1.024-2.618,3.163c0.007,4.803-0.532,9.604-0.61,14.407
			c-0.162,9.866-0.102,19.735-0.258,29.602c-0.138,8.74-0.307,17.484-0.719,26.217c-0.394,8.347-1.297,16.673-1.547,25.021
			c-0.05,1.643,1.695,4.636,2.887,4.783C258.349,535.979,263.046,535.642,267.93,535.642z M317.456,535.541
			c-7.165-44.379-14.285-88.477-21.592-133.735c-0.984,1.822-2.362,3.162-2.272,4.396c0.986,13.48,2.117,26.955,3.385,40.415
			c0.841,8.921,2.108,17.802,2.909,26.725c0.4,4.457,0.008,8.979,0.288,13.452c0.307,4.903,0.851,9.802,1.524,14.67
			c0.52,3.756,2.439,7.62,1.903,11.158c-1.189,7.86,0.507,15.266,1.414,22.921C309.496,535.541,313.594,535.541,317.456,535.541z
			 M303.104,168.919c3.609-1.963,6.147-3.346,8.687-4.724c8.376-4.544,17.177-4.603,26.125-2.282c2.854,0.74,5.393,1.23,7.021-2.321
			c1.297,0.981,2.274,2.311,3.375,2.422c1.956,0.199,3.986-0.339,5.986-0.569c-0.749-4.301,3.455-5.121,5.192-7.401
			c-0.611-0.554-1.581-1-1.745-1.648c-1.358-5.404-6.217-7.207-10.317-7.556c-11.872-1.014-22.885,2.788-33.231,8.469
			c-0.688,0.378-1.108,1.394-1.463,2.197c-0.777,1.76-1.227,4.988-2.171,5.125C306.036,161.286,306.083,165.491,303.104,168.919z
			 M166.481,535.327c6.585,0,11.904,0,17.195,0c0.348-4.313,0.668-8.293,1.042-12.928c-0.672-0.54-1.995-1.604-3.33-2.677
			c0.637-0.703,1.148-1.271,1.091-1.208c-1.103-1.161-2.563-1.984-2.608-2.88c-0.175-3.463-3.548-6.582-1.136-10.329
			c0.242-0.375,0.044-1.162-0.161-1.676c-1.282-3.2-2.624-6.376-4.284-10.377c-0.976,1.193-2.183,2.024-2.414,3.07
			c-0.689,3.129-1.133,6.33-1.412,9.523c-0.254,2.917-0.117,5.864-0.242,8.796c-0.132,3.104-0.068,6.264-0.636,9.295
			C168.898,527.621,167.638,531.195,166.481,535.327z M363.877,208.37c-6.007-1.325-10.393-0.633-15.601,2.467
			c-1.224,0.729-2.158,2.125-3.443,2.535c-3.682,1.179-7.494,1.939-11.216,3.003c-2.19,0.625-4.304,1.517-7.042,2.5
			C338.582,222.651,355.932,217.647,363.877,208.37z M113.447,499.773c-3.069,11.789-0.418,22.193,0.806,32.637
			c0.356,3.036,2.493,4.106,4.856,3.025c1.021-0.471,1.662-3.191,1.431-4.733c-1.281-8.555-2.814-17.075-4.441-25.571
			C115.803,503.58,114.675,502.189,113.447,499.773z M212.639,530.247c2.001,2.182,3.375,3.679,4.867,5.304
			c1.109-2.019,1.882-3.426,2.914-5.304C217.931,530.247,215.956,530.247,212.639,530.247z M277.364,246.458
			c-0.433-4.248-0.735-7.216-1.037-10.184C275.576,239.398,273.17,242.656,277.364,246.458z"/>
		<path id="pauline_2_" d="M116.1,505.13c-0.297-1.55-1.424-2.939-2.653-5.355c-3.07,11.789-0.419,22.194,0.807,32.636
			c0.356,3.036,2.492,4.106,4.856,3.023c1.021-0.468,1.662-3.189,1.431-4.731C119.26,522.146,117.727,513.626,116.1,505.13z
			 M277.364,246.458c-0.433-4.248-0.735-7.215-1.037-10.184C275.576,239.398,273.171,242.655,277.364,246.458z M217.506,535.551
			c1.109-2.019,1.882-3.426,2.914-5.304h-7.781C214.641,532.429,216.014,533.926,217.506,535.551z M182.48,518.517
			c-1.102-1.163-2.563-1.984-2.608-2.88c-0.175-3.463-3.548-6.582-1.136-10.329c0.241-0.375,0.044-1.163-0.161-1.676
			c-1.282-3.2-2.624-6.376-4.284-10.377c-0.976,1.193-2.184,2.024-2.414,3.07c-0.69,3.129-1.134,6.33-1.412,9.523
			c-0.254,2.917-0.117,5.864-0.242,8.795c-0.133,3.106-0.068,6.265-0.636,9.297c-0.689,3.681-1.949,7.255-3.106,11.387
			c6.585,0,11.904,0,17.196,0.001c0.348-4.313,0.668-8.293,1.042-12.928c-0.672-0.54-1.995-1.604-3.33-2.677
			C182.026,519.02,182.538,518.454,182.48,518.517z M267.402,514.236c-4.255-13.94-5.61-28.208-6.193-42.565
			c-0.481-11.862,0.144-23.764-0.153-35.638c-0.034-1.359-2.66-3.246-4.428-3.813c-2.022-0.646-2.621,1.024-2.618,3.163
			c0.007,4.804-0.531,9.604-0.61,14.407c-0.162,9.867-0.102,19.736-0.258,29.602c-0.138,8.74-0.307,17.485-0.719,26.217
			c-0.394,8.347-1.297,16.673-1.547,25.021c-0.05,1.64,1.695,4.636,2.887,4.783c4.586,0.565,9.283,0.229,14.167,0.229
			c0.106-2.24,0.263-3.677,0.224-5.105C268.01,525.079,268.94,519.278,267.402,514.236z M295.837,118.497
			c1.711-2.691,2.802-6.193,5.187-7.95c4.331-3.192,8.86-5.974,11.902-10.593c1.258-1.909,2.781-3.643,4.183-5.457
			c0.328,0.228,0.656,0.454,0.984,0.682c-1.47,4.131-3.115,8.214-4.314,12.423c-0.41,1.442,0.135,3.249,0.592,4.787
			c0.135,0.452,1.929,0.986,2.16,0.737c1.031-1.11,2.017-2.396,2.556-3.796c0.72-1.871,1.013-3.909,1.489-5.875
			c0.541-0.082,1.082-0.164,1.624-0.247c0.764,1.602,1.674,3.153,2.253,4.819c0.659,1.9,1.023,3.903,1.837,7.144
			c1.778-4.051,2.97-6.766,4.268-9.724h-2.69c0.418-1.604,0.733-2.813,1.15-4.411c2.023,1.91,3.714,3.508,5.519,5.213
			c-0.349,0.911-0.726,1.899-1.268,3.318c3.034-2.657,5.921-4.754,8.253-7.349c2.232-2.483,3.591-5.771,5.903-8.152
			c1.476-1.521,3.447-3.875,6.28-1.981c-0.561,4.039-1.132,8.071-1.822,12.93c0.495,0.453,1.842,1.688,2.573,2.357
			c6.461-5.145,12.261-9.765,19.071-15.189c-3.026,6.905-5.51,12.572-8.359,19.072c5.166-0.56,8.906-0.966,12.666-1.373
			c-2.903,3.113-5.346,5.732-8.606,9.228c2.517,0,4.194,0.511,4.803-0.08c5.839-5.659,13.182-6.826,20.915-7.064
			c-1.792-5.119,1.487-3.151,3.688-3.296c-0.733,1.003-1.229,1.678-1.869,2.552h3.505V67.1H316.44
			c0.318,4.18,0.637,8.361,0.942,12.363c5.524-4.049,10.369-7.601,15.215-11.153c0.251,0.273,0.501,0.546,0.751,0.819
			c-1.563,2.59-3.125,5.18-4.688,7.771c0.308,0.283,0.617,0.566,0.926,0.85c1.335-1.013,2.671-2.025,4.803-3.642
			c-0.354,2.014-0.565,3.213-0.823,4.682h4.364c-2.23,1.177-3.441,1.816-3.612,1.906c-1.11,3.526-1.836,6.164-2.768,8.728
			c-1.813,4.986-4.896-2.585-6.542,0.773c1.134-3.609,2.269-7.218,3.403-10.826c-0.374-0.234-0.748-0.467-1.122-0.7
			c-1.175,1.266-2.357,2.525-3.524,3.798c-2.18,2.378-4.232,4.889-6.562,7.109c-1.882,1.792-3.962,3.468-6.206,4.755
			c-1.502,0.861-3.447,0.949-5.194,1.385c-0.111-0.444-0.222-0.888-0.334-1.332c1.208-0.513,2.417-1.027,3.894-1.655
			c-0.658-1.405-1.223-2.612-1.907-4.07c-3.035,1.354-5.863,2.657-8.736,3.851c-0.414,0.172-1.46-0.093-1.502-0.301
			c-0.152-0.754-0.312-1.811,0.085-2.322c1.913-2.455,3.638-4.766,2.56-8.27c-0.262-0.852,1.002-2.376,1.855-3.334
			c3.373-3.785,6.863-7.466,10.31-11.186h-15.001c-2.854,6.211-13.085,12.392-15.88,9.651c-1.332,0.817-2.652,1.627-4.098,2.515
			c1.597,3.394-0.658,4.305-3.194,5.912c-3.344,2.119-6.114,5.207-8.915,8.089c-1.381,1.421-2.278,3.314-3.483,5.129
			c0.243,1.171,1.047,2.777,0.785,4.183c-1.246,6.681-3.176,13.256-4.062,19.974c-0.498,3.781-0.656,8.524,1.191,11.487
			c2.894,4.643,3.559,6.756-0.716,10.554c2.164,5.158-0.615,10.419,0.508,15.82c0.958,4.611-1.157,9.777-0.797,14.615
			c0.785,10.547,2.244,21.046,3.544,31.55c0.13,1.047,1.183,1.945,1.591,2.997c0.98,2.521,2.52,5.077,2.579,7.647
			c0.097,4.215,0.884,7.968,2.353,11.967c1.131,3.081,4.328,2.056,5.238,4.375c0.708-0.65,1.961-1.24,2.042-1.96
			c1.278-11.366,2.725-22.728,3.444-34.135c0.421-6.682-0.406-13.438-0.615-20.164c-0.277-8.878-0.445-17.759-0.804-26.634
			c-0.055-1.36-1.547-2.875-1.234-4.002c1.221-4.402,2.87-8.688,4.418-12.995c1.431-3.982,2.715-8.044,4.524-11.851
			c0.694-1.46,2.515-2.797,4.1-3.28c1.118-0.34,2.703,0.851,5.022,1.706C294.548,120.276,295.249,119.422,295.837,118.497z
			 M357.966,85.094c1.975,4.343-1.655,5.32-4.185,6.896C352.641,88.496,353.935,86.244,357.966,85.094z M318.454,321.579
			c0.567,0.751,1.912,0.913,3.366,1.555v-9.558c2.846,1.188,5.441,2.923,8.222,3.304c6.797,0.929,13.671,1.437,20.53,1.728
			c6.217,0.263,12.506,0.515,18.673-0.118c10.379-1.067,20.687-2.837,31.023-4.313v-1.763c-1.734,0.002-3.482,0.131-5.207-0.02
			c-5.683-0.494-11.355-1.111-17.037-1.627c-0.702-0.063-1.611-0.019-2.124,0.371c-4.367,3.317-8.964,0.602-13.839,1.043
			c-1.02,4.009-4.593,2.331-7.311,1.953c-2.894-0.4-5.663-1.698-9.071-2.791c-0.446,0.197-1.588,0.701-3.867,1.708
			c1.259-1.588,1.747-2.204,1.764-2.226c-1.47-2.176-2.935-4.079-4.117-6.144c-3.431-5.999-3.381-5.989-10.944-4.91
			c-1.233,0.176-2.531-0.111-4.301-0.213c1.775-13.631,14.694-17.425,21.823-26.352c-4.203,0.15-8.024,0.938-11.788,1.943
			c-1.978,0.527-4.295,0.955-5.698,2.251c-5.764,5.322-11.51,10.72-16.678,16.602c-2.011,2.289-4.116,5.179-3.03,9.207
			C310.704,310.108,314.242,316.003,318.454,321.579z M293.59,406.2c0.987,13.48,2.117,26.955,3.385,40.415
			c0.841,8.921,2.108,17.802,2.909,26.725c0.4,4.457,0.008,8.979,0.288,13.452c0.307,4.903,0.851,9.802,1.524,14.67
			c0.519,3.756,2.439,7.62,1.903,11.158c-1.189,7.86,0.507,15.266,1.414,22.921h12.443c-7.165-44.379-14.285-88.477-21.594-133.736
			C294.879,403.628,293.5,404.968,293.59,406.2z M398.192,386.083c-0.427-1.962-0.775-3.578-1.166-5.386
			c-0.679,2.025-0.892,3.814-1.806,5.104c-1.035,1.453-2.543,2.777-4.137,3.568c-1.695,0.842-5.063,1.854-5.415,1.31
			c-3.715-5.731-8.784-2.334-13.515-2.577c0.501-1.378,1.044-2.868,1.883-5.179c-3.505,1.933-6.203,3.415-9.303,5.122
			c-0.262-3.271-0.518-6.467-0.87-10.863c-2.901,1.741-4.966,2.982-6.799,4.083c-1.262-1.757-2.438-3.395-3.33-4.635
			c0.759-1.661,1.602-3.501,2.445-5.343c-1.684-0.58-3.334-1.359-5.066-1.645c-0.696-0.112-1.524,0.974-2.373,1.311
			c-1.919,0.762-3.866,1.473-5.846,2.052c-0.981,0.286-2.184-0.032-3.076,0.38c-5.116,2.368-5.475,3.594-4.24,9.354
			c0.359,1.675-0.425,3.594-0.685,5.399c-0.771-0.887-1.441-1.901-2.349-2.616c-0.642-0.509-1.619-0.572-2.423-0.895
			c-1.276-0.511-3.025-0.721-3.707-1.675c-2.614-3.664-4.712-7.696-7.321-11.364c-4.327-6.079-8.9-11.98-13.369-17.961
			c-0.37,0.25-0.74,0.501-1.11,0.751c1.254,2.311,2.714,4.532,3.723,6.943c3.25,7.766,5.787,15.887,9.678,23.306
			c2.48,4.729,6.118,10.506,10.583,12.146c6.665,2.448,7.611,8.825,12.113,12.514c3.968,3.249,6.274,8.469,10.068,12.01
			c3.719,3.468,6.173,8.052,8.886,11.899c2.528,3.583,4.281,5.497,8.37,6.656c2.375,0.672,5.591,1.053,6.992,4.732
			c0.879,2.313,4.082,4.127,6.638,5.316c3.089,1.437,8.317-2.518,9.688,3.831c0.046,0.209,3.031-0.307,3.124-0.007
			c1.006,3.219,3.742,2.027,5.792,2.514c0-25.296,0-50.591,0.003-75.887C399.641,382.09,399.012,383.823,398.192,386.083z
			 M359.491,154.043c-0.612-0.553-1.581-0.999-1.745-1.648c-1.359-5.404-6.217-7.206-10.317-7.556
			c-11.872-1.014-22.885,2.788-33.231,8.469c-0.688,0.379-1.108,1.394-1.463,2.197c-0.777,1.76-1.227,4.988-2.171,5.125
			c-4.528,0.656-4.481,4.86-7.46,8.289c3.609-1.962,6.147-3.346,8.688-4.725c8.376-4.544,17.177-4.603,26.125-2.282
			c2.854,0.74,5.393,1.23,7.021-2.321c1.296,0.981,2.273,2.31,3.375,2.422c1.956,0.2,3.986-0.339,5.986-0.569
			C353.55,157.143,357.753,156.323,359.491,154.043z M400.269,269.173c-1.807,2.753-6.492,2.04-7.354,6.055
			c-0.04,0.19-1.794,0.389-2.401,0.016c-2.804-1.722-7.017-1.365-8.211-5.664c-0.164-0.591-2.746-1.258-3.593-0.785
			c-4.077,2.273-7.944,4.925-12.114,7.59c6.087,8.02,12.4,5.482,19.005,2.876c-0.534,0.672-1.067,1.344-1.6,2.015
			c8.543,6.9,8.543,6.9,6.551,9.356c3.38,0.515,6.549,1,9.72,1.483C400.27,284.467,400.27,276.82,400.269,269.173z M326.834,205.052
			c2.592,0.881,5.756-0.023,8.647,0.132c1.437,0.077,3.944,0.471,4.083,1.123c0.861,4.036,4.8,2.991,6.134,2.595
			c6.071-1.8,12.057-4.142,17.682-7.047c2.046-1.056,3.128-4.149,4.423-6.441c1.268-2.242,2.319-4.618,3.317-6.998
			c0.4-0.953,0.898-2.442,0.463-3.032c-0.63-0.854-2.03-1.364-3.174-1.53c-0.667-0.097-1.474,0.762-2.218,1.19
			c-0.22-0.221-0.439-0.444-0.659-0.665c0.793-1.602,1.585-3.204,2.072-4.189c-3.283-0.404-7.119,0.234-9.212-1.383
			c-3.588-2.772-6.419-1.454-9.667-0.358c-2.967,1.001-5.897,2.154-8.925,2.918c-3.217,0.812-6.574,1.07-9.794,1.877
			c-7.169,1.795-12.96,5.884-17.28,11.765c-2.637,3.59-4.59,7.682-6.85,11.549c0.487,0.298,0.973,0.596,1.459,0.892
			C313.608,204.846,319.802,202.663,326.834,205.052z M348.276,210.837c-1.224,0.728-2.158,2.124-3.443,2.535
			c-3.682,1.179-7.494,1.939-11.216,3.003c-2.189,0.625-4.304,1.517-7.042,2.5c12.007,3.776,29.356-1.227,37.302-10.505
			C357.87,207.045,353.485,207.736,348.276,210.837z M400.27,299.174c-0.699-1.084-1.398-2.168-2.284-3.538
			c-2.664,2.262-4.457,3.786-6.399,5.437c-0.3-0.156-1.049-0.548-1.719-0.896v5.317c3.759-1.965,7.081-3.701,10.402-5.437V299.174
			L400.27,299.174z"/>
		<path id="pauline_3_" fill="#FFFFFF" d="M353.836,92.168c-1.244-3.598,0.03-5.904,4.13-7.073c1.992,4.382-1.722,5.336-4.254,6.937
			C353.722,92.042,353.836,92.168,353.836,92.168z"/>
	</g>
</g>
<g>
	<polygon fill="none" points="309.5,48 329.875,48 319.665,20.833 	"/>
	<a>
		<path fill="#AA2B2C" d="M253.689,10.144v47.333h131.333V10.144H253.689z M309.5,48l10.165-27.167L329.875,48H309.5z"/>
	</a>
</g>
<a>
	<path fill="#AA2B2C" d="M424.086,10.769v47.333h131.333V10.769H424.086z M481.5,47l10.165-27.167L501.875,47H481.5z"/>
</a>
<a>
	<path fill="#AA2B2C" d="M253.689,545.501v47.333h131.333v-47.333H253.689z M319.71,583.166L309.5,556h20.375L319.71,583.166z"/>
</a>
<a>
	<path fill="#AA2B2C" d="M424.083,545.501v47.333h131.333v-47.333H424.083z M489.71,583.166L479.5,556h20.375L489.71,583.166z"/>
</a>
<rect y="269" width="169" height="19"/>
<rect y="189" width="169" height="19"/>
<rect y="309" width="169" height="19"/>
<rect y="229" width="169" height="19"/>
<rect y="429" width="169" height="19"/>
<rect y="389" width="169" height="19"/>
<rect y="349" width="169" height="19"/>
<text transform="matrix(1 0 0 1 33.2695 186.832)" font-family="'Simplifica'" font-size="20">PHOTOSHOP</text>
<text transform="matrix(1 0 0 1 30.5996 225.4453)" font-family="'Simplifica'" font-size="20">ILLUSTRATOR</text>
<text transform="matrix(1 0 0 1 41.7397 265.499)" font-family="'Simplifica'" font-size="20">INDESIGN</text>
<text transform="matrix(1 0 0 1 36.7695 305.498)" font-family="'Simplifica'" font-size="20">HTML/CSS</text>
<text transform="matrix(1 0 0 1 33.3296 344.498)" font-family="'Simplifica'" font-size="20">PHP/MySQL</text>
<text transform="matrix(1 0 0 1 31.5195 385.248)" font-family="'Simplifica'" font-size="20">JAVASCRIPT</text>
<text transform="matrix(1 0 0 1 15.6011 425.832)" font-family="'Simplifica'" font-size="20">GESTION DE PROJET</text>
<rect x="631" y="269" width="169" height="19"/>
<rect x="631" y="189" width="169" height="19"/>
<rect x="631" y="309" width="169" height="19"/>
<rect x="631" y="229" width="169" height="19"/>
<rect x="631" y="429" width="169" height="19"/>
<rect x="631" y="389" width="169" height="19"/>
<rect x="631" y="349" width="169" height="19"/>
<text transform="matrix(1 0 0 1 699.2695 186.832)" font-family="'Simplifica'" font-size="20">PHOTOSHOP</text>
<text transform="matrix(1 0 0 1 696.5996 225.4453)" font-family="'Simplifica'" font-size="20">ILLUSTRATOR</text>
<text transform="matrix(1 0 0 1 707.7402 265.499)" font-family="'Simplifica'" font-size="20">INDESIGN</text>
<text transform="matrix(1 0 0 1 702.7695 305.498)" font-family="'Simplifica'" font-size="20">HTML/CSS</text>
<text transform="matrix(1 0 0 1 699.3301 344.498)" font-family="'Simplifica'" font-size="20">PHP/MySQL</text>
<text transform="matrix(1 0 0 1 697.5195 385.248)" font-family="'Simplifica'" font-size="20">JAVASCRIPT</text>
<text transform="matrix(1 0 0 1 681.6016 425.832)" font-family="'Simplifica'" font-size="20">GESTION DE PROJET</text>
<rect x="717" y="269" fill="#AA2B2C" width="83" height="19"/>
<rect x="717" y="309" fill="#AA2B2C" width="83" height="19"/>
<rect x="685" y="189" fill="#AA2B2C" width="115" height="19"/>
<rect x="695" y="229" fill="#AA2B2C" width="105" height="19"/>
<rect x="670" y="429" fill="#AA2B2C" width="130" height="19"/>
<rect x="785" y="389" fill="#AA2B2C" width="15" height="19"/>
<rect x="792" y="349" fill="#AA2B2C" width="8" height="19"/>
<rect y="189" fill="#AA2B2C" width="108" height="19"/>
<rect y="229" fill="#AA2B2C" width="122" height="19"/>
<rect y="269" fill="#AA2B2C" width="91" height="19"/>
<rect y="309" fill="#AA2B2C" width="157" height="19"/>
<rect y="349" fill="#AA2B2C" width="100" height="19"/>
<rect y="389" fill="#AA2B2C" width="114" height="19"/>
<rect y="429" fill="#AA2B2C" width="65" height="19"/>
<text id="prenom" transform="matrix(1 0 0 1 56.7847 95.1104)" fill="#AA2B2C" font-family="'Sofia-Regular'" font-size="37">Pierrick</text>
<text id="prenom_1_" transform="matrix(1 0 0 1 617.0518 95.1104)" fill="#AA2B2C" font-family="'Sofia-Regular'" font-size="37">Pauline</text>
<text id="nomfam" transform="matrix(1 0 0 1 600.6504 143.9521)" font-family="'Simplifica'" font-size="62">COURTOIS</text>
<text id="nomfam_1_" transform="matrix(1 0 0 1 68.6499 143.9521)" font-family="'Simplifica'" font-size="62">FABRE</text>
</svg>
