<?xml version="1.0" encoding="utf-8"?>
<!-- Generator: Adobe Illustrator 15.0.0, SVG Export Plug-In . SVG Version: 6.00 Build 0)  -->
<!DOCTYPE svg PUBLIC "-//W3C//DTD SVG 1.1//EN" "http://www.w3.org/Graphics/SVG/1.1/DTD/svg11.dtd">
<svg version="1.1" xmlns="http://www.w3.org/2000/svg" xmlns:xlink="http://www.w3.org/1999/xlink" x="0px" y="0px" width="800px"
	 height="600px" viewBox="0 0 800 600" enable-background="new 0 0 800 600" xml:space="preserve">
<g id="Background">
	<rect fill="#0098A0" width="800" height="600"/>
</g>
<g id="Silhouette">
	<path fill="#FFFFFF" d="M227.661,235.645c0,0-20.999-191.99,223.489-161.991c0,0,79.495,10.5,118.493,79.496
		c0,0,73.497,104.994-20.998,187.49c0,0-32.998,52.497-19.499,94.495c0,0-85.496,34.499-133.494,124.494
		c0,0-32.998-74.996-37.498-79.496s-7.5-23.998-58.497-13.499c0,0-64.497,7.498-47.998-34.499c0,0,2.999-11.999-9-26.998
		c0,0-3-4.501,3-12c0,0-12-3-12-14.999c0,0,4.5-25.498-9-25.498c0,0-29.998-10.499-6-38.998s4.5-6,4.5-6l15-29.999
		C238.161,277.643,248.66,268.643,227.661,235.645z"/>
</g>
<g id="Cerveau">
	<g>
		<path fill="#163846" d="M390.212,192.143c13.502-5.78,25.397-2.453,30.776-0.271c3.104-2.821,9.142-7.572,17.261-10.55
			c-1.913-10.295-1.15-28.282,11.756-39.413c-0.978-7.674-10.609-24.149-32.876-23.137c-20.477,0.924-26.127,19.512-26.356,20.303
			c-0.416,1.43-1.544,2.55-2.977,2.951c-1.436,0.403-2.976,0.038-4.073-0.969c-0.277-0.233-8.491-6.912-27.081,1.832
			c-15.18,7.139-15.95,19.986-15.699,24.586c0.978,0.351,1.952,0.738,2.914,1.165c18.772,8.333,27.634,26.264,31.678,38.847
			C377.894,201.589,382.241,195.556,390.212,192.143z"/>
		<path fill="#163846" d="M562.708,184.407c-8.373-34.43-30.804-43.487-30.804-43.487s-5.802-16.244-24.733-30.903
			c-29.007-20.885-58.019-9.965-58.019-9.965c-46.766-29.543-80.436,7.863-80.436,7.863c-58.979-6.498-65.614,40.049-65.614,40.049
			c-30.84,9.966-48.755,52.488-17.347,87.333c24.088,26.724,50.241,21.603,61.123,17.766c1.627-10.295,7.257-22.672,23.275-31
			c-0.224-1.688-4.943-34.536-29.787-45.565c-14.881-6.606-28.785-1.259-35.404,6.5c-6.278,7.358-6.52,16.749-0.668,25.759
			c3.066,4.579,6.734,7.246,11.184,8.103c8.607,1.657,17.246-4.17,17.333-4.229c1.956-1.341,4.633-0.848,5.979,1.104
			c1.345,1.951,0.863,4.622-1.085,5.972c-0.466,0.325-11.594,7.924-23.78,5.617c-6.759-1.28-12.417-5.259-16.814-11.828
			c-7.99-12.301-7.49-25.769,1.305-36.079c8.092-9.484,20.973-13.809,33.849-12.065c0.218-9.206,4.637-22.691,20.715-30.252
			c15.364-7.224,25.765-5.606,31.437-3.348c4.327-8.979,14.478-20.769,32.324-21.577c14.878-0.676,24.652,5.154,30.233,10.163
			c5.18,4.653,9.013,10.618,10.734,16.542c15.426-7.475,35.468-6.436,48.889,2.571c10.962,7.357,16.745,19.256,16.456,33.712
			c4.999,3.203,15.29,11.924,16.536,29.958c0.655,9.51-2.968,17.719-10.202,23.113c-9.271,6.917-23.523,8.291-36.315,3.504
			c-18.117-6.782-43.211-2.084-52.646,9.855c-7.343,9.291-16.096,18.759-25.977,20.016c-0.776,0.097-1.561,0.145-2.351,0.139
			c-6.006-0.054-11.475-3.266-16.26-9.547c-1.441-1.889-1.077-4.589,0.814-6.03c1.89-1.441,4.59-1.075,6.03,0.815
			c3.134,4.115,6.238,6.127,9.491,6.156c7.265,0.067,15.746-9.606,21.498-16.885c11.883-15.036,40.467-20.799,62.417-12.581
			c10.118,3.787,21.169,2.868,28.154-2.342c4.878-3.635,7.216-9.04,6.762-15.625c-1.263-18.296-13.979-24.114-14.106-24.17
			c-1.662-0.736-2.683-2.433-2.556-4.242c0.905-12.666-3.434-22.593-12.54-28.705c-11.086-7.438-27.792-8.191-40.624-1.839
			c-16.899,8.368-15.48,28.049-14.538,34.378c10.572-1.652,23.455,0.468,37.424,11.712c1.849,1.49,2.142,4.199,0.65,6.05
			c-1.488,1.852-4.196,2.142-6.048,0.653c-29.719-23.924-52.61,1.234-53.571,2.318c-1.355,1.527-3.602,1.901-5.371,0.884
			c-0.475-0.264-12.171-6.676-26.125-0.701c-13.274,5.682-12.193,23.044-12.181,23.219c0.134,1.859-0.945,3.592-2.671,4.292
			c-30.889,12.544-23.211,40.389-22.869,41.568c0.412,1.418,0.061,2.879-0.812,3.94c13.604,40.888,68.943,25.353,68.943,25.353
			c0.201,0.445,0.418,0.87,0.623,1.307c1.725,0.281,42.316,6.596,55.062-17.165c2.76-7.874,2.893-14.177,0.384-18.241
			c-2.798-4.532-8.158-5.31-8.211-5.316c-2.36-0.291-4.037-2.438-3.746-4.797c0.289-2.359,2.437-4.038,4.796-3.743
			c0.384,0.045,9.494,1.252,14.482,9.336c4.015,6.505,4.115,15.231,0.3,25.938c-0.068,0.188-0.146,0.374-0.239,0.548
			c-7.859,15.026-23.464,20.588-37.345,22.349c-7.732,0.982-14.926,0.787-19.955,0.39c14.395,19.67,38.549,25.052,62.379,21.237
			c27.661-4.424,28.635-26.256,28.635-26.256c33.986-22.385,18.171-57.985,18.171-57.985
			C554.329,240.477,571.081,218.837,562.708,184.407z"/>
	</g>
</g>
<g id="Bulles">
	<g>
		<rect x="331.131" y="179.207" fill="#DA1C5C" width="26.032" height="23.667"/>
		<rect x="441.982" y="152.193" fill="#DA1C5C" width="26.031" height="23.666"/>
		<rect x="442.04" y="256.688" fill="#DA1C5C" width="26.031" height="23.667"/>
		<polygon fill="#9E1F63" points="331.131,179.212 256.664,60.194 256.465,136.878 331.131,202.878 		"/>
		<rect x="34.06" y="60.218" fill="#DA1C5C" width="222.675" height="76.613"/>
		<polygon fill="#9E1F63" points="468.014,152.197 542.481,33.18 542.68,109.864 468.014,175.864 		"/>
		<rect x="542.41" y="33.204" fill="#DA1C5C" width="222.676" height="76.613"/>
		<polygon fill="#9E1F63" points="468.071,280.351 542.539,399.368 542.737,322.685 468.071,256.685 		"/>
		<rect x="542.468" y="322.731" fill="#DA1C5C" width="222.676" height="76.613"/>
	</g>
</g>
<g id="CV_Interactif">
	<text transform="matrix(1 0 0 1 43.5088 530.6201)" fill="#FFFFFF" font-family="'HaginCapsThin'" font-size="15">Mahed</text>
	<text transform="matrix(1 0 0 1 145.292 530.6201)" fill="#FFFFFF" font-family="'HaginCapsThin'" font-size="15">Iqbal</text>
	<text transform="matrix(1 0 0 1 94.9985 536.2861)" fill="#FFFFFF" font-family="'HaginCapsMedium'" font-size="30.1008">CV</text>
	<text transform="matrix(1 0 0 1 47.5752 566.3867)" fill="#FFFFFF" font-family="'HaginCapsMedium'" font-size="30.1008">Interactif</text>
	
		<line fill="none" stroke="#FFFFFF" stroke-width="0.5" stroke-miterlimit="10" x1="88.869" y1="536.381" x2="34.869" y2="536.381"/>
	<line fill="none" stroke="#FFFFFF" stroke-width="0.5" stroke-miterlimit="10" x1="88.869" y1="515.21" x2="34.869" y2="515.21"/>
	
		<line fill="none" stroke="#FFFFFF" stroke-width="0.5" stroke-miterlimit="10" x1="186.797" y1="536.381" x2="132.797" y2="536.381"/>
	
		<line fill="none" stroke="#FFFFFF" stroke-width="0.5" stroke-miterlimit="10" x1="186.797" y1="515.21" x2="132.797" y2="515.21"/>
</g>
<g id="Flat_Icon">
	<g>
		<path fill="#FFFFFF" d="M66.937,110.364c-0.472,0.085-0.948,0.15-1.435,0.176c-6.469,0.359-11.95-4.708-12.297-11.215
			c-0.169-3.167,0.891-6.207,2.982-8.561c2.085-2.347,4.946-3.729,8.057-3.895c0.208-0.011,0.415-0.017,0.62-0.017
			c6.212,0,11.34,4.937,11.675,11.237c0.043,0.815,0.002,1.622-0.114,2.411l4.151,4.023c0.324-0.904,0.582-1.832,0.751-2.783
			l3.924-0.819l-0.06-1.101l-0.146-2.777l-0.061-1.102l-3.688-0.369c-0.158-0.848-0.371-1.675-0.648-2.473l2.98-2.664l-0.599-0.925
			l-1.52-2.333l-0.604-0.923l-3.314,1.495c-0.563-0.669-1.175-1.293-1.833-1.865l1.222-3.722l-0.979-0.499l-2.485-1.263
			l-0.982-0.494l-2.062,2.865c-0.836-0.3-1.707-0.522-2.598-0.686l-0.786-3.763l-1.102,0.059l-2.78,0.149l-1.1,0.059l-0.352,3.518
			c-0.889,0.167-1.762,0.389-2.603,0.695l-2.551-2.855l-0.924,0.601l-2.333,1.517l-0.921,0.599l1.478,3.277
			c-0.521,0.458-1.025,0.938-1.493,1.465c-0.119,0.135-0.221,0.279-0.336,0.417l-3.741-1.23l-0.502,0.984l-1.26,2.479l-0.5,0.979
			l2.974,2.142c-0.275,0.809-0.477,1.641-0.628,2.486l-3.925,0.823l0.058,1.099l0.149,2.783l0.059,1.094l3.688,0.372
			c0.158,0.85,0.366,1.68,0.645,2.478l-2.975,2.656l0.599,0.927l1.517,2.335l0.601,0.921l3.314-1.493
			c0.564,0.668,1.184,1.283,1.842,1.855l-1.225,3.731l0.981,0.501l2.479,1.26l0.981,0.499l2.077-2.888
			c0.836,0.3,1.695,0.542,2.585,0.705l0.787,3.761l1.099-0.058l2.783-0.149l1.096-0.061l0.354-3.517
			c1.004-0.188,1.979-0.476,2.921-0.84L66.937,110.364z"/>
		<path fill="#FFFFFF" d="M86.536,114.892c0.104-0.661-0.262-1.525-0.643-1.894c-4.374-4.237-8.746-8.477-13.121-12.716
			c0.626-2.649-0.087-5.549-2.151-7.614c-2.376-2.378-5.861-2.973-8.795-1.785l4.486,4.484c0.381,0.382,0.381,0.998,0,1.378
			l-3.102,3.103c-0.379,0.382-0.997,0.382-1.378,0l-4.483-4.484c-1.185,2.933-0.59,6.416,1.788,8.794
			c2.064,2.063,4.961,2.775,7.61,2.148c4.238,4.374,8.478,8.748,12.717,13.121c0.368,0.384,1.231,0.746,1.893,0.645
			C83.952,119.667,86.133,117.484,86.536,114.892z"/>
	</g>
	<g>
		<g>
			<path fill="#F2F2F2" d="M575.556,339.962c-4.517,0-8.178,9.938-8.178,22.199c0,12.26,3.661,22.2,8.178,22.2
				c4.519,0,8.179-9.94,8.179-22.2C583.734,349.9,580.074,339.962,575.556,339.962z M575.556,380.749
				c-3.781,0-6.848-8.322-6.848-18.588s3.066-18.588,6.848-18.588c3.782,0,6.849,8.322,6.849,18.588
				S579.338,380.749,575.556,380.749z"/>
			<path fill="#F2F2F2" d="M597.755,362.162c0-4.517-9.938-8.179-22.199-8.179c-12.261,0-22.199,3.661-22.199,8.178
				c0,4.518,9.938,8.179,22.199,8.179C587.817,370.34,597.755,366.68,597.755,362.162z M556.967,362.161
				c0-3.781,8.323-6.848,18.589-6.848c10.267,0,18.589,3.066,18.589,6.849c0,3.781-8.322,6.848-18.589,6.848
				C565.29,369.01,556.967,365.943,556.967,362.161z"/>
			<path fill="#F2F2F2" d="M591.254,346.464c-3.194-3.194-12.812,1.245-21.481,9.914c-8.67,8.67-13.108,18.287-9.915,21.481
				c3.195,3.193,12.813-1.245,21.481-9.914C590.009,359.274,594.447,349.657,591.254,346.464z M562.411,375.306
				c-2.673-2.675,1.045-10.728,8.303-17.986c7.259-7.259,15.313-10.977,17.986-8.302c2.674,2.674-1.043,10.728-8.303,17.985
				C573.14,374.263,565.087,377.979,562.411,375.306z"/>
			<path fill="#F2F2F2" d="M591.254,377.859c3.193-3.194-1.245-12.812-9.915-21.481c-8.669-8.67-18.286-13.109-21.481-9.914
				c-3.193,3.193,1.245,12.811,9.915,21.48C578.442,376.613,588.06,381.053,591.254,377.859z M562.411,349.017
				c2.676-2.674,10.729,1.043,17.986,8.301c7.26,7.26,10.977,15.313,8.303,17.988c-2.674,2.674-10.728-1.044-17.986-8.303
				C563.456,359.745,559.738,351.691,562.411,349.017z"/>
			<circle fill="#F2F2F2" cx="575.583" cy="362.161" r="3.426"/>
		</g>
	</g>
	<g>
		<g>
			<path fill="#FFFFFF" d="M576.366,79.316c-2.389,0-4.332-1.943-4.332-4.333s1.943-4.333,4.332-4.333
				c2.391,0,4.334,1.943,4.334,4.333S578.757,79.316,576.366,79.316L576.366,79.316z M576.366,72.65
				c-1.285,0-2.332,1.047-2.332,2.333s1.047,2.333,2.332,2.333c1.287,0,2.334-1.047,2.334-2.333S577.653,72.65,576.366,72.65
				L576.366,72.65z"/>
		</g>
		<path fill="#FFFFFF" d="M587.319,79.883c-3.514,0.6-7.385,0.934-11.453,0.934s-7.938-0.334-11.453-0.934
			c-0.023,0.309-0.047,0.618-0.047,0.934c0,6.352,5.148,11.5,11.5,11.5s11.5-5.148,11.5-11.5
			C587.366,80.501,587.345,80.191,587.319,79.883z M574.7,85.232c-0.783,0-1.416-0.634-1.416-1.416s0.633-1.417,1.416-1.417
			c0.781,0,1.416,0.635,1.416,1.417S575.481,85.232,574.7,85.232z M580.284,87.733c-1.197,0-2.168-0.97-2.168-2.166
			s0.971-2.167,2.168-2.167c1.195,0,2.166,0.971,2.166,2.167S581.479,87.733,580.284,87.733z"/>
		<circle fill="#FFFFFF" cx="576.366" cy="65.65" r="2.166"/>
		<g>
			<path fill="#FFFFFF" d="M575.866,97.316c-9.098,0-16.5-7.402-16.5-16.5c0-6.467,3.695-12.221,9.5-14.932V52.062l2.145,1.018
				c2.68,1.273,7.031,1.273,9.713,0l2.143-1.018v13.823c5.805,2.711,9.5,8.465,9.5,14.932
				C592.366,89.914,584.964,97.316,575.866,97.316L575.866,97.316z M571.866,56.566v11.325l-0.949,0.375
				c-5.193,2.051-8.551,6.977-8.551,12.55c0,7.444,6.057,13.5,13.5,13.5s13.5-6.056,13.5-13.5c0-5.573-3.355-10.499-8.551-12.55
				l-0.949-0.375V56.566C577.378,57.225,574.354,57.225,571.866,56.566L571.866,56.566z"/>
		</g>
		<g>
			<path fill="#FFFFFF" d="M580.681,52.379c-0.094,0-0.189-0.017-0.283-0.053c-2.514-0.969-6.547-0.969-9.063,0
				c-0.406,0.157-0.863-0.046-1.02-0.453c-0.156-0.406,0.045-0.863,0.453-1.02c2.867-1.105,7.328-1.105,10.197,0
				c0.406,0.156,0.609,0.613,0.451,1.02C581.298,52.187,580.999,52.379,580.681,52.379L580.681,52.379z"/>
		</g>
	</g>
</g>
<g id="Texte_bulle">
	<text transform="matrix(1 0 0 1 96.3789 84.2471)" fill="#FFFFFF" font-family="'BaronNeueBlack'" font-size="12">Compétences</text>
	<rect x="97" y="92" fill="none" width="152.667" height="40"/>
	<text transform="matrix(1 0 0 1 97 97.3203)"><tspan x="0" y="0" fill="#FFFFFF" font-family="'OpenSans'" font-size="7">Lorem ipsum dolor sit amet, consectetur </tspan><tspan x="0" y="8.4" fill="#FFFFFF" font-family="'OpenSans'" font-size="7">adipiscing elit. Nunc ac tempor ipsum, at </tspan><tspan x="0" y="16.8" fill="#FFFFFF" font-family="'OpenSans'" font-size="7">condimentum lacus. Suspendisse dignissim </tspan><tspan x="0" y="25.2" fill="#FFFFFF" font-family="'OpenSans'" font-size="7">lobortis erat, sed lacinia.</tspan></text>
	<text transform="matrix(1 0 0 1 608 346.2471)" fill="#FFFFFF" font-family="'BaronNeueBlack'" font-size="12">Formation</text>
	<rect x="608" y="354" fill="none" width="152.666" height="40"/>
	<text transform="matrix(1 0 0 1 608 359.3203)"><tspan x="0" y="0" fill="#FFFFFF" font-family="'OpenSans'" font-size="7">Lorem ipsum dolor sit amet, consectetur </tspan><tspan x="0" y="8.4" fill="#FFFFFF" font-family="'OpenSans'" font-size="7">adipiscing elit. Nunc ac tempor ipsum, at </tspan><tspan x="0" y="16.801" fill="#FFFFFF" font-family="'OpenSans'" font-size="7">condimentum lacus. Suspendisse dignissim </tspan><tspan x="0" y="25.2" fill="#FFFFFF" font-family="'OpenSans'" font-size="7">lobortis erat, sed lacinia.</tspan></text>
	<text transform="matrix(1 0 0 1 608 57.7617)" fill="#FFFFFF" font-family="'BaronNeueBlack'" font-size="12">Expériences</text>
	<rect x="608" y="65.515" fill="none" width="152.666" height="40"/>
	<text transform="matrix(1 0 0 1 608 70.835)"><tspan x="0" y="0" fill="#FFFFFF" font-family="'OpenSans'" font-size="7">Lorem ipsum dolor sit amet, consectetur </tspan><tspan x="0" y="8.4" fill="#FFFFFF" font-family="'OpenSans'" font-size="7">adipiscing elit. Nunc ac tempor ipsum, at </tspan><tspan x="0" y="16.8" fill="#FFFFFF" font-family="'OpenSans'" font-size="7">condimentum lacus. Suspendisse dignissim </tspan><tspan x="0" y="25.2" fill="#FFFFFF" font-family="'OpenSans'" font-size="7">lobortis erat, sed lacinia.</tspan></text>
</g>
</svg>
