<?xml version="1.0" encoding="utf-8"?>
<!-- Generator: Adobe Illustrator 14.0.0, SVG Export Plug-In . SVG Version: 6.00 Build 43363)  -->
<!DOCTYPE svg PUBLIC "-//W3C//DTD SVG 1.1//EN" "http://www.w3.org/Graphics/SVG/1.1/DTD/svg11.dtd">
<svg version="1.1" id="Calque_1" xmlns="http://www.w3.org/2000/svg" xmlns:xlink="http://www.w3.org/1999/xlink" x="0px" y="0px"
	 width="800px" height="600px" viewBox="0 0 800 600" enable-background="new 0 0 800 600" xml:space="preserve">
<text transform="matrix(0.7234 -0.6904 0.6904 0.7234 481.4805 536.5225)" font-family="'ArialMT'" font-size="60">Suivez-moi</text>
<path fill="#4FBB93" d="M377.5,438.7h-28.4c-1.4,0-2.6,1.2-2.6,2.6c0,1.4,1.2,2.601,2.6,2.601h28.4c1.4,0,2.6-1.2,2.6-2.601
	C380.1,439.9,378.9,438.7,377.5,438.7z M377.5,425.8h-28.4c-1.4,0-2.6,1.2-2.6,2.601c0,1.399,1.2,2.6,2.6,2.6h28.4
	c1.4,0,2.6-1.2,2.6-2.6C380.1,427,378.9,425.8,377.5,425.8z M377.5,412.9h-28.4c-1.4,0-2.6,1.199-2.6,2.6s1.2,2.6,2.6,2.6h28.4
	c1.4,0,2.6-1.199,2.6-2.6S378.9,412.9,377.5,412.9z M377.5,400h-28.4c-1.4,0-2.6,1.2-2.6,2.6c0,1.4,1.2,2.601,2.6,2.601h28.4
	c1.4,0,2.6-1.2,2.6-2.601C380.1,401.2,378.9,400,377.5,400z M377.5,387.1h-28.4c-1.4,0-2.6,1.2-2.6,2.601c0,1.399,1.2,2.6,2.6,2.6
	h28.4c1.4,0,2.6-1.2,2.6-2.6C380.1,388.3,378.9,387.1,377.5,387.1z M377.5,374.2h-28.4c-1.4,0-2.6,1.2-2.6,2.6
	c0,1.4,1.2,2.601,2.6,2.601h28.4c1.4,0,2.6-1.2,2.6-2.601C380.1,375.4,378.9,374.2,377.5,374.2z M377.5,361.4h-28.4
	c-1.4,0-2.6,1.199-2.6,2.6s1.2,2.6,2.6,2.6h28.4c1.4,0,2.6-1.199,2.6-2.6C380.1,362.5,378.9,361.4,377.5,361.4z M377.5,348.5h-28.4
	c-1.4,0-2.6,1.2-2.6,2.6c0,1.4,1.2,2.601,2.6,2.601h28.4c1.4,0,2.6-1.2,2.6-2.601C380.1,349.6,378.9,348.5,377.5,348.5z
	 M377.5,335.6h-28.4c-1.4,0-2.6,1.2-2.6,2.601c0,1.399,1.2,2.6,2.6,2.6h28.4c1.4,0,2.6-1.2,2.6-2.6
	C380.1,336.8,378.9,335.6,377.5,335.6z"/>
<path fill="#4FBB93" d="M339.2,412.8h-28.4c-1.4,0-2.6,1.2-2.6,2.601c0,1.399,1.2,2.6,2.6,2.6h28.4c1.4,0,2.6-1.2,2.6-2.6
	C341.8,414,340.6,412.8,339.2,412.8z"/>
<path fill="#4FBB93" d="M339.2,400.1h-28.4c-1.4,0-2.6,1.2-2.6,2.601c0,1.399,1.2,2.6,2.6,2.6h28.4c1.4,0,2.6-1.2,2.6-2.6
	C341.8,401.3,340.6,400.1,339.2,400.1z M339.2,387.2h-28.4c-1.4,0-2.6,1.2-2.6,2.6c0,1.4,1.2,2.601,2.6,2.601h28.4
	c1.4,0,2.6-1.2,2.6-2.601C341.8,388.3,340.6,387.2,339.2,387.2z M339.2,374.3h-28.4c-1.4,0-2.6,1.2-2.6,2.601
	c0,1.399,1.2,2.6,2.6,2.6h28.4c1.4,0,2.6-1.2,2.6-2.6C341.8,375.5,340.6,374.3,339.2,374.3z M339.2,361.4h-28.4
	c-1.4,0-2.6,1.199-2.6,2.6s1.2,2.6,2.6,2.6h28.4c1.4,0,2.6-1.199,2.6-2.6S340.6,361.4,339.2,361.4z M339.2,348.5h-28.4
	c-1.4,0-2.6,1.2-2.6,2.6c0,1.4,1.2,2.601,2.6,2.601h28.4c1.4,0,2.6-1.2,2.6-2.601C341.8,349.7,340.6,348.5,339.2,348.5z
	 M339.2,335.6h-28.4c-1.4,0-2.6,1.2-2.6,2.601c0,1.399,1.2,2.6,2.6,2.6h28.4c1.4,0,2.6-1.2,2.6-2.6
	C341.8,336.8,340.6,335.6,339.2,335.6z M339.2,322.7h-28.4c-1.4,0-2.6,1.2-2.6,2.6c0,1.4,1.2,2.601,2.6,2.601h28.4
	c1.4,0,2.6-1.2,2.6-2.601C341.8,323.9,340.6,322.7,339.2,322.7z M339.2,309.8h-28.4c-1.4,0-2.6,1.2-2.6,2.601
	c0,1.399,1.2,2.6,2.6,2.6h28.4c1.4,0,2.6-1.2,2.6-2.6C341.8,311,340.6,309.8,339.2,309.8z"/>
<path fill="#4FBB93" d="M299.4,438.7H271c-1.4,0-2.6,1.2-2.6,2.6c0,1.4,1.2,2.601,2.6,2.601h28.4c1.4,0,2.6-1.2,2.6-2.601
	C302,439.9,300.8,438.7,299.4,438.7z M299.4,425.8H271c-1.4,0-2.6,1.2-2.6,2.601c0,1.399,1.2,2.6,2.6,2.6h28.4
	c1.4,0,2.6-1.2,2.6-2.6C301.9,427,300.8,425.8,299.4,425.8z M299.4,412.9H271c-1.4,0-2.6,1.199-2.6,2.6s1.2,2.6,2.6,2.6h28.4
	c1.4,0,2.6-1.199,2.6-2.6S300.8,412.9,299.4,412.9z M299.4,400H271c-1.4,0-2.6,1.2-2.6,2.6c0,1.4,1.2,2.601,2.6,2.601h28.4
	c1.4,0,2.6-1.2,2.6-2.601C302,401.2,300.8,400,299.4,400z M299.4,387.2H271c-1.4,0-2.6,1.2-2.6,2.6c0,1.4,1.2,2.601,2.6,2.601h28.4
	c1.4,0,2.6-1.2,2.6-2.601C301.9,388.3,300.8,387.2,299.4,387.2z M299.4,374.3H271c-1.4,0-2.6,1.2-2.6,2.601c0,1.399,1.2,2.6,2.6,2.6
	h28.4c1.4,0,2.6-1.2,2.6-2.6C302,375.5,300.8,374.3,299.4,374.3z"/>
<rect x="259" y="145" fill="none" stroke="#000000" stroke-width="0.5" stroke-miterlimit="10" width="130" height="301.8"/>
<rect x="412.3" y="169.7" fill="none" stroke="#000000" stroke-width="0.5" stroke-miterlimit="10" width="338.4" height="197.8"/>
<polygon fill="#4FBB93" points="800,230 430,600 800,600 "/>
<text transform="matrix(1 0 0 1 471.1348 101)" font-family="'ArialMT'" font-size="120">Kraimps</text>
<g>
	<line fill="none" x1="0" y1="105" x2="800" y2="105"/>
	<g>
		<g>
			<g>
				<path fill="#4FBB93" d="M799.1,105c0.9,0,0.801,0,0.9,0C798,104.9,799.1,105,799.1,105z"/>
				<polygon fill="#4FBB93" points="779.6,104.5 779.9,104.5 777,104.6 				"/>
				<path fill="#4FBB93" d="M761.3,104.1c1.7,0.4,6.601,0.1,9.9,0.3l0.5,0.1l1.5-0.2C769.2,104.2,764.1,104.3,761.3,104.1z"/>
				<path fill="#4FBB93" d="M751.6,102.8c0.601,0.2-2.1,0.1,2.301,0.2c-0.2,0-0.301,0-0.4-0.1C753.1,102.9,752.5,102.8,751.6,102.8z
					"/>
				<path fill="#4FBB93" d="M753.5,102.9C755.4,103,752.2,102.7,753.5,102.9L753.5,102.9z"/>
				<path fill="#4FBB93" d="M744.6,102.6l2.5-0.1c-0.5-0.2-2.8-0.3-1.899-0.4C742.6,102.2,743.1,102.3,744.6,102.6z"/>
				<path fill="#4FBB93" d="M742.2,103h1.3C743.3,102.9,742.9,102.8,742.2,103z"/>
				<path fill="#4FBB93" d="M746.3,102.9l-2.8,0.1c0.4,0.1,0.4,0.3,1.3,0C744.6,103.1,745.1,102.9,746.3,102.9z"/>
				<path fill="#4FBB93" d="M747.9,103c1.399,0.2,3.3,0.3,0.699,0.4C753.4,103.5,752.7,103.1,747.9,103z"/>
				<path fill="#4FBB93" d="M760.4,104.6l1.899,0.1l1.601-0.1C763.1,104.6,760.3,104.4,760.4,104.6z"/>
				<path fill="#4FBB93" d="M728.8,101.6c-0.2,0.2,0.9,0.5,1,0.7l1.9-0.1C730.8,102,729,101.8,728.8,101.6z"/>
				<path fill="#4FBB93" d="M729.9,102.2l-2.801,0.2C729.6,102.5,730,102.4,729.9,102.2z"/>
				<polygon fill="#4FBB93" points="741.8,103.6 746.3,103.3 740.9,103.6 				"/>
				<polygon fill="#4FBB93" points="718.2,101 719.8,100.7 716.9,101.2 				"/>
				<path fill="#4FBB93" d="M711.1,100.8c1.2-0.3-1.6-0.7-0.399-0.9c-1.9,0-3.601,0.2-5,0.5C707.2,100.2,708.9,100.3,711.1,100.8z"
					/>
				<path fill="#4FBB93" d="M703.2,100.6c0.8-0.1,1.6-0.2,2.5-0.4C704.8,100.3,704,100.4,703.2,100.6z"/>
				<path fill="#4FBB93" d="M722.3,102.2c-0.2-0.1-0.6-0.4-2.2-0.6l1.101,0.6C721.6,102.1,721.9,102.1,722.3,102.2z"/>
				<path fill="#4FBB93" d="M721.3,102.1L721.3,102.1c-1.2-0.1-2.1-0.1-2.399-0.1C719.2,102,719.9,102,721.3,102.1z"/>
				<path fill="#4FBB93" d="M722.6,102.2c-0.1,0-0.199,0-0.3,0C722.4,102.2,722.5,102.2,722.6,102.2z"/>
				<path fill="#4FBB93" d="M734.4,103.1c-1.601,0.2-5.101,0.4-1.801,0.8C733.9,103.6,732,103.4,734.4,103.1z"/>
				<path fill="#4FBB93" d="M724,102.8l3,0.2c-0.1-0.1-0.6-0.3,0.2-0.4L724,102.8z"/>
				<polygon fill="#4FBB93" points="722.5,102.9 724,102.8 722.9,102.8 				"/>
				<path fill="#4FBB93" d="M708.3,101.4c-1.3,0.2-2.7,0.2-4.3,0.2c1.7,0.2,3.5,0.3,5.1,0.4C709.4,101.8,710.1,101.5,708.3,101.4z"
					/>
				<path fill="#4FBB93" d="M714.6,101.8c-0.1,0-0.199,0-0.3,0C714.5,101.9,714.6,101.9,714.6,101.8z"/>
				<path fill="#4FBB93" d="M688.4,101c0.1,0,0.199,0.1,0.3,0.1c0,0,0-0.1,0.1-0.1H688.4z"/>
				<path fill="#4FBB93" d="M709.4,102.1c1.3,0.2,2,0,2.8-0.1c-1,0-2,0-3.101,0C709,102,709,102.1,709.4,102.1z"/>
				<path fill="#4FBB93" d="M698.8,100.7c0.7,0.2,1.4,0.3,2.2,0.4C700.4,101,699.1,100.6,698.8,100.7z"/>
				<path fill="#4FBB93" d="M713.9,101.7c0.1,0,0.1,0,0.199,0C713.6,101.5,713.7,101.6,713.9,101.7z"/>
				<path fill="#4FBB93" d="M713.9,101.7c-0.7,0.1-1.2,0.2-1.7,0.3c0.8,0,1.5-0.1,2.1-0.1C714.1,101.8,714,101.7,713.9,101.7z"/>
				<path fill="#4FBB93" d="M683.7,105.6c0.2-0.7,3.6-1.3,6.5-0.6c2.899-0.5,1-2.6-1.5-3.9c-0.101,0.3-0.101,0.5-3,0.9
					c1,0.4,6.5,1,4,1.5c-3.9,0.3-3.2-0.3-5.101-0.7c1.601,0.9-4.899,1.2-4.1,2.5l3.4-0.5C684,105.1,682.7,105.5,683.7,105.6z"/>
				<path fill="#4FBB93" d="M694.3,101.4h1.2c-1.4-0.2-2.4-0.4-4.2-1c-2,0.2-2.399,0.5-2.6,0.7l5.899,0.3H694.3z"/>
				<path fill="#4FBB93" d="M700.9,101.6c-0.9,0.6-3.801,0.8-2.101,1.6c3.5,0,2.5-0.5,4.601-0.7
					C697.7,102.4,705.1,102.1,700.9,101.6c1.199,0,2.199,0,3.1,0c-1-0.1-2-0.2-3-0.4c0.1,0,0.1,0,0.1,0l0,0l0,0
					c0.2,0.1,0.301,0.1,0,0.1H701C701.1,101.4,701,101.5,700.9,101.6c-1.7-0.2-0.301-0.2,0.3-0.2l0.1-0.1l0,0l-5.7,0.2
					C696.7,101.5,698.2,101.5,700.9,101.6z"/>
				<path fill="#4FBB93" d="M729.6,104.8c-0.199,0-0.199-0.1-0.199-0.1C729.1,104.8,728.9,104.8,729.6,104.8z"/>
				<path fill="#4FBB93" d="M727.3,104.6c0.4-0.1,0.8-0.2,2.101-0.2c1.199,0.1,0,0.2,0.1,0.4c0.8-0.1,2.9-0.3,0.3-0.5l-0.4,0.1
					c-2.3-0.2-5.3-0.8-4.899-0.9C725.1,103.8,725.7,104.1,727.3,104.6z"/>
				<path fill="#4FBB93" d="M713.9,103.4l-4.801,0.2l2.4,0.5l-0.1-0.3C714.2,104,713.6,103.6,713.9,103.4z"/>
				<polygon fill="#4FBB93" points="687.9,100.6 688.5,99.9 685.7,100.9 				"/>
				<polygon fill="#4FBB93" points="681.7,100.5 681.9,99.8 680.3,100.2 				"/>
				<path fill="#4FBB93" d="M331.9,121.7l-1.4,0.8C331.2,122.2,331.6,122,331.9,121.7z"/>
				<path fill="#4FBB93" d="M342.1,121.5l0.2-1.3C341.9,120.9,341.7,121.5,342.1,121.5z"/>
				<path fill="#4FBB93" d="M529.5,94.9c-2-1.6-4.3-4-4.1-2.2l0.6,1.8C527.4,94.2,528.5,94.5,529.5,94.9z"/>
				<path fill="#4FBB93" d="M425.2,105.6c0.2,0.2,0.399,0.5,0.6,0.7c0.5-0.8,1-1.6,1.4-2.3C426.6,104.5,425.9,105,425.2,105.6z"/>
				<path fill="#4FBB93" d="M423.8,115.7l-2.7-1.5C421.7,114.7,422.5,115.2,423.8,115.7z"/>
				<path fill="#4FBB93" d="M276.5,127.3l-1.6,3.6C277.4,130.7,276.3,129,276.5,127.3z"/>
				<path fill="#4FBB93" d="M618.2,98.5c-1.8-0.5-3.2-0.8-4.4-0.9C615.9,98.4,617.6,99.5,618.2,98.5z"/>
				<path fill="#4FBB93" d="M335.9,89.5c-0.9,0.5-1.2,1.1-1.2,1.8C335.6,90.8,336.1,90.2,335.9,89.5z"/>
				<path fill="#4FBB93" d="M608.7,97.4c0.3,0.1,0.6,0.2,0.899,0.3c1.301-0.2,2.601-0.3,4.2-0.1C612.2,97.1,610.4,96.6,608.7,97.4z"
					/>
				<path fill="#4FBB93" d="M75.6,131.9c-0.1-0.2-0.3-0.3-0.5-0.5C75.1,132,75.3,132,75.6,131.9z"/>
				<path fill="#4FBB93" d="M17,82.7c0.6-0.3,1.5-0.3,2.4-0.3C19,82,18.3,82,17,82.7z"/>
				<path fill="#4FBB93" d="M656.7,99.1C658,99.1,656.9,99.1,656.7,99.1L656.7,99.1z"/>
				<path fill="#4FBB93" d="M663.1,102.9c-0.3,0.1-0.5,0.2-0.5,0.4C662.7,103.1,662.9,103,663.1,102.9z"/>
				<path fill="#4FBB93" d="M595.6,105.2h-0.1C595.9,105.5,595.8,105.4,595.6,105.2z"/>
				<path fill="#4FBB93" d="M658.7,99.6c-0.5-0.1-1.101-0.2-1.7-0.3C657.3,99.4,657.8,99.5,658.7,99.6z"/>
				<path fill="#4FBB93" d="M658.4,99.2c0.5,0.1,0.8,0.1,1.1,0.1C659.8,99.2,659.6,99.1,658.4,99.2z"/>
				<path fill="#4FBB93" d="M654.9,99.1c0.8,0,1.5,0.1,2.1,0.2c-0.3-0.1-0.4-0.1-0.3-0.2C656.3,99.1,655.8,99.1,654.9,99.1z"/>
				<path fill="#4FBB93" d="M183.2,117.2c-0.1-0.1-0.2-0.2-0.3-0.4C181.6,118.5,182.2,118.2,183.2,117.2z"/>
				<path fill="#4FBB93" d="M495.2,114.2c0.1,0,0.1-0.1,0.2-0.1c-0.101,0-0.101,0-0.2-0.1V114.2z"/>
				<path fill="#4FBB93" d="M490.5,115.9c2-2.6,3.2-2.3,4.7-1.8l-1.601-5.7L490.5,115.9z"/>
				<path fill="#4FBB93" d="M307.6,123.5l3.3,2.7c-4,4.9-6.9,3.4-3.8,7.3c0.2-5,3.5-5.4,6.7-5.8c3.2-0.4,6.4-0.8,6.7-5.7l2.2,2
					c-0.6-0.1-0.7,0.5-1.3,0.4c4.3,4.5,3.2-7.1,8.6-5.9c1.9,0.7,3.2,2,1.9,3.2l4.3-2.5c1.2,0.1,0.9,1.8-0.3,1.7l6.5-1v0.3
					c0.9-1.5,3-3.8,4-4.8c1.6,1.3-0.8,1-0.4,2.1l3.6-2.3c1.5,2.3-1.5,4.7-4,4.5c1.7,4.6,2.4,3.9,3.7,2.8c1.2-1.1,2.9-2.7,6.6-0.2
					l-3.4,1.3c2.2,5.1,4.8,3.1,8.7,6c-0.9-1.6-7.7-7.7-3.8-10.1c1.1,0.6,2.5,0.9,4.6-1c0,3.2,2.1,2.3,4.6,2l-0.2,4.2
					c2.8-1.3,2.6-3.4,4.2-5.3c3.1,0.3,3.7,3.4,4.5,6.1c5,0.4-3.4-4.9,2.4-5.9c4.1,1.4,7-0.4,12-2.9c2.9,1.3-0.5,2.4,0.5,3.5l2.6-3.2
					c0.6,0.1,0.4,1,0.3,1.5c2.2-1.3,0.2-3.9,3.6-5c0.5-2.1,2.2-0.6,4.301,0.8c2.1,1.4,4.699,2.7,6.799,0.3c1,1-0.5,2.3-0.199,3.8
					c5.8-3.3,4.9-2.4,9.699-6.6l4,2.3c-3-2.7,0.801-6,4.101-8.6c-1-1.3-1.9-2.5-2.5-3l5.3-1.9c0.601,0.6,0.101,1.8-0.8,3.3
					c0.4-0.3,0.7-0.6,1-0.9c1.9,1.3,0.9,3.4-0.4,5.4c-0.6-0.7-1.3-1.4-1.899-2.2c-1.3,2.2-2.5,4.6-2.3,6.7c0.3-0.4,1-0.8,1.699-1
					c-0.3,0.6-0.6,1.1-0.399,1.5s0.7-0.4,1.6-1.4l1.2,4l0.3-1.6l6.9,2.3c4.899-4.1,9.2-9.8,17.1-11.4c-1.899,2.7-0.399,4.5-0.5,7.7
					c-2.1-3.4-6.1,1.6-10.1,1c2.1,0.3,1.7,1.9,1.1,2.5c0,0,1.8-0.9,3.601-1.7c1.8-0.8,3.6-1.7,3.6-1.7c-0.2,2.7,1.5,2,3.4,3
					c-1.4-5.2,5.399-3.6,8.399-5.2c0.2,1.7-0.5,3.5-4.1,3.2c4,3.7,5.1-6.1,9-2.9c-0.9,0.1-1.4-0.2-1.7,0.7c2.1-1.5,7.1-0.4,5.9,1
					l-0.9,0.1c5.8,0.4,17.8-0.4,18.6-4.4c0.101,0.5-0.8,4.8-1.1,5.6c0,0,2.6-3.4,5.2-6.8c2.6-3.3,5.2-6.5,5.2-6.5
					c-0.9,3.3,2.6,11.1-2.2,13.1c1.399,0.4,3.1,0.9,6-0.3c-0.9-0.4-2.4-4.7-1.101-5c3.601,3.6,2.5,1.9,6.9,4.9
					c-1.4-0.7,0.2-5.7,2.4-5.6c-0.4,0.8,0.199,4.9-0.601,5.5c0,0,1.4-1.3,2.8-2.5c1.4-1.2,2.801-2.5,2.801-2.5
					c-1.4,0.9-0.2,4.1,1,5.4c-0.601-0.9,4.8-0.1,6.3-0.6l-2.4-1c6.3,0.5,6.2-6.7,12.5-6.4c-0.8,0.9-1.9,5.8,1.3,6.3
					c0.7-1.2,2.3-4,4.5-6.6c2.101-2.7,4.8-5.2,7.5-6l1.101,1.3l4.3-1.3c-1.3,1.6-3.8,4.1-6.5,6.6s-5.601,5.1-7.601,6.5
					c2.4,1,0.7,1.5,4.2,1.3c1.2,1.2-1.899,1.9-3,2l8.2,0.4c-0.4-2.6,6.3-2.8,6-4.9c0,0-2.2,0.7-4.5,1.4c-2.2,0.7-4.5,1.5-4.5,1.5
					c-0.2-1.3,1.1-3.2,3.2-4.6c2.1-1.5,4.9-2.5,7.8-2.4c1.5,1-1.1,4.4-1,5.3c0.8-0.9,5.5-1.8,6.1-1.2l-2.5,1.4
					c3.2,0.8,5.301-3.4,9.2-1.2c1.3,0.1,4,2.9,4.3,1.5c-2.199-2.6-2.6-10.9-1.199-12.8c0.5,0.2,7.1,2.6,8.6,3.9
					c2.2,2-3.3,4.8-1.4,6.5c0.101-0.6,1.301-1.4,1.801-1.7c1.399,0.5-0.601,1.9,2.5,1.6c0.5-2.3,6.3,0.1,1.5-1.9
					c3-0.7,3.199,0.4,6.699,0.2c-1.1-1.4,3.2-4.8,6.2-5.3c-0.2,0.5,0.5,1.2,0.8,1.5c6.2,0.2,9.5,1.1,15.2,1.1
					c0.5,0.5,3.3,1,2.101,1.8c0.8-0.4,1.6-1,3.399-1.1c3.4,1.6-4,0.3-1.3,2.2c0.2-1.1,4.6-1.6,7.1-2.3c-0.8-1.6-5.8-0.3-8.399,0.5
					c0-2.4,4.399-4.8,10.399-5.7c4.801-0.5,2.101,1.5,2.9,1.2c9,0.4,7.6-3.5,15.1-1.9c3,1.3,0.101,2.5,0.801,3.5
					c-3.9,0.5-6-0.8-8.601-0.8l3.2,0.6c-1.2,0.4-3.8,0.8-5.2,0.4c2.5,1.2,15.2,0.3,22.101,1.2c1.199-0.4,3.399-0.8,2.3-1.3l-2.2,0.2
					c-2-1,4.1-1.3,1.3-1.7c2.9-0.6,6.2-1.5,10.4-0.9l0.8,1.2c-0.1-0.4-2.7-0.8-3.9-0.4c1.7-0.5,6.3,1.7,8.2,0.2l-2.9-0.9
					c2.9-0.6,6.601-1.7,10.301-1.2c-1.7-1.2-0.801,0.1-3.4-1.3c2.3,1.7-9.4-0.4-5.7,1.5c-2.7-1.7-4.6-0.8-8.1-2.4
					c0.1,0.4,1.2,0.9-1.8,0.5c-0.101,0.1-0.5,0.3-0.7,0.3c-0.101,0-0.101,0-0.2,0c0.1,0,0.1,0,0.2,0.1c-0.101,0.1-0.101,0.1,0.1,0
					c0.7,0.2,1.3,0.5,1.601,0.7c-1.5,0.9-6.4,0.8-8.101,1.3c-1.8-0.3,0.8-0.5-0.2-1l-2.5,0.7c-0.199-1-4.8-1.9-0.5-2.3L645.5,99
					c-2.3-0.7-5.4-1.1-7.3-0.7c-1.801-0.3-4.601,1-3,0.2L629.1,99l-0.1-0.3c-3-0.2-6.101,0.2-9.3,0.3c-3.2,0.1-6.5,0.1-9.9-1.2
					c-2,0.2-4.1,0.6-7.5,0.1l-0.7-1.2c-2.6,0.3-7.8-1.5-8.899-0.3c-1.4-1.7-4.5-2-7.9-2s-6.9,0.4-9.2-0.1l-0.2,1.7
					c-3.1-0.2-6.1,0.1-10,0.7l0.2,1.6c-3.399,1.2-8.6-1.4-13.899-1.4c0.399-0.6,1.699-0.4,2.699,0c-3.199-2-6.5-1.5-9.8-0.7
					c-3.3,0.7-6.5,1.6-9.3,0.1c-1.4,0.6-2.5,0.4-3.5-0.1c0.1,0,0.3,0,0.4-0.1c-0.101,0-0.4,0-0.601,0c-0.6-0.3-1.3-0.7-2-1
					c0.601,0.5,1.2,0.8,1.7,1c-1.1,0-2.8,0.2-4.4,0.6l-0.699-2c-0.101,0-0.2,0-0.4,0c-1.6-0.8-1.3,0.9-0.4,2.4
					c-0.8,0.3-1.6,0.7-2.199,1.1c-1.301-3.3-4.301,1-6.101-2.6c-1.1,1.7-8.3,1-9.1,4.8c-0.101-0.5-0.5-0.7,0.3-0.7
					c-1.8-0.5-3.7-0.9-5.3,0.1l-0.8-2.8l-4,3.6c-2.4-1.7-3.4-2.8-1-4.8c-5.801,3.2-4.7,1.1-9.7,4.4l0.2-1.9
					c-1.801,0-4.601,2.5-5.7,0.9c-2-1.8-6.9-2.1-12.601-2.3c-5.699-0.2-12.1-0.4-17.199-2.4c2,6.1-4.7-2.9-5.101,1.9
					c-0.6-1.5-2-2.3-0.399-3.6c-5.2,1.3-7.801-2.7-11.4,1.4c-0.6-1.5,1.1-2.2,0.6-3.1c-0.399,0.3-1.6,1.3-2.199,0.3
					c-0.5-0.9,0.8-1.2,1.6-1.9c-5.3,0-5.8,4.7-6.2,9.2c-2.7-2.1-4-1.9-6,1c-0.899-1.5-2.5-3.1,0.8-3.5C422,96,412.6,93.7,412.4,97.4
					c-0.601-1-2.601-0.3-3.101,0.1c-4.2-0.3-4.5-0.7-8.601-0.4l1.101,0.6c-1.6,4.6-3.4,1-6.7,1.5l0.1-0.5c-7.5-3.5-3.3,1.6-10.7-2.5
					l0.4,3c-0.3,3.2-2,2.3-4.1,0.8s-4.7-3.5-6.8-2.3l1.6,1.8c-2.4,2.3-6.6-9.1-9-10.1c-0.5-0.6,0.8-0.9,1.5-1.3
					c-6.2-4.2-0.8,4-5.4,4.9c-0.9-2.3,1.1-5.6-2-6.1c-0.8-0.9-3,0.8-5.6,2.2s-5.5,2.6-7.6,0.3c0.9,1.8,1.9,3.6-0.3,4.9
					c-3.3,0.6-8.9-7.1-11.9-1.4c-0.4-0.5-0.6-1-0.6-1.4c-2.5,1.4-8.2,2.3-9.7,5.4c-1.2-5.9-5.1-4.6-8.7-3.1s-6.9,3.2-6.9-2.5
					l-7.7,0.4l0.2-1.2c-4.9-0.9-6.7,1.8-8.4,4.6c-1.1-0.8-0.3-1.9-0.2-2.5c-7.2-2.5-7.9-2.1-14,3.7l-0.6-3.9
					c-0.8,1.1-3.4-0.5-6.7-1.8c-3.3-1.3-7.3-2.5-10.8-0.2c0.1-0.5,0.2-1.2,0.8-1.8c-4,2.2-8.8-0.7-12.9-2.4
					c-4.1-1.7-7.7-2.2-9.1,5.3l-5.3,3.6c6.8,1.3-1,6.6,1.8,9.2c-2.7,0.9-6.9-4.7-3.6-5.4l0.5,0.8c1.2-8-8.5-3-8.3-8.5
					c-13.4,0.1-26.5-4.9-39-5.7l1.4,6.8l-4.4-0.5c-1.1-1.6-1.5-5.3,1.6-5c-1.6-3.9-5.2,3.1-5.3,4.6c-6.1-2.9,2.4-7.9,0.5-8.1
					l-2.5,0.4l0.6,0.8c-2.1,2.7-2.2,5.7-6,5.3c-2.4-1.4-1.2-4.3-2.2-4.6c0-0.5-0.3-0.7-1.4-0.2l-5.5-0.8l2.2,5.6
					c-2.4,2.7-5.2-0.4-2.6,5.9c-1.9-4.8-7-5.9-12-6c-5-0.2-9.7,0.6-10.9-1c-3.4,4.1-6.8,4-11,3.4c1,1.2,1.7,7.8-1.9,6.9
					c1.3-13.5-6.6-6-9.5-15.9c2.6,6.6-10.3,1.3-6.2,10.8c-3-1.2-0.2-5.2-2.5-8.5c-3.6,2.6-7.5,1.6-11.7,0.2c-4.2-1.5-8.5-3.4-13-2.6
					c-0.1,1.9,1.3,4.8-0.6,7.6L78.5,81c-1.8,0.9-1.6,11-4.8,4.2c0.5,1.6,1.1,4.1,0,4.7C65,85,56.1,86.7,47.2,87.4
					c-8.9,0.7-17.8,0.5-26.7-9.2c2.4,4.1,0.8,4.4-1,4.5c1.2,1,0,5.1,0.2,7.9l-7.4-8c-1.3,7.8-7.9,0.3-8.7,7.8l2.3-1.3
					c-1.6,4.4-0.5,9.4,1,14.6c1.4,5.3,3.2,10.8,2.9,16.5c1.7-5.1,4-1.4,6.6,1.7c2.6,3.1,5.4,5.6,8.3-1.5c1.3,2.2-1.1,3.6-0.4,6.2
					c1.4-4.8,3.2-5.8,6.4-3.8l-0.4,1.2c9.1-1.4,13,3.2,23.2,5.9l-0.8-5.3c2.2,0.7,2.7,2.3,3.7,3.6c2.5-8.1-6.2-0.3-3.9-9.2
					c1.5,5.4,5.3,5.3,9.1,5.4c3.8,0.1,7.4,0.4,8.4,6.4c3.4,0-1-6,2.4-6l0.9,3.2l0.9-4.2c2.2,0.6,3.3,4.6,3.4,7.3
					c-0.5-0.3-1.5,0.8-2.1,1.1c2.9,3.7,8.1-1.6,9.1-0.4l-3.2-1.8c4.6-1.6,9.7-1.5,14.8-1.8c5.1-0.3,10.1-1,14.6-4.3l-0.7-2.3
					c6.8-4.4,5.5,2.4,12.9,0.2l-0.3,0.5c1.5-2.3,3.5-3.5,5.5-3.3c-1.9,2.7,3.6,5,1.1,8c7.4-4.7,3.7-3.6,8.5-12l1.1,3.7
					c1.7-3.4,1.8-5.1,5.5-6.1c-3.1,3.2,2.4,5.5-1,9.7c3.9,3.9,6.8,1.8,9.2,0.2s4.2-2.7,6,3c3.6-10-6.8-5.3-4.8-7.5
					c-1.7-3.2,3-7.5,5.4-6.5c2.5,0.2,4.3,12.5,10.5,12.1c-0.6,0-0.7,0.7-1.3,0.7c2.4,2.4,4.6-3.5,7.5,0.4c1.6-5.8,3.8,0.2,4.2-7.2
					l-5.8,1.8c3.3-2,6.3-10.7,11.7-6.6c-0.4,1.5-2,3.4-3.1,4.5c1.6,2.1,3-1.5,4.7,0.7c-0.5,7.3-7,1.7-10.5,7.5
					c1.7,3.1,6.6-5.5,4.9,2.5c1.3-5.1,2.8-4.8,4.6-4.3c1.8,0.6,3.7,1.4,5.9-2.5l-0.3,4.3c0.7-0.7,2.1-2.8,3.3-2.7l-2.2,5.7
					c3.5-4.9,6.7,3.9,10,1.2c-6.9,0.4-1.6-5.1-4.5-8.1c8.5-5.9,4.9,11,14.5,8.5c-1.3,0.7-4.9-2.3-2.8-4.3c1.8,0.8,4.2,2.3,5.3,4.4
					c6.3-1.1-1-4.2,1.7-6.9c2.2,5,3.1-2.2,5.9-3.8v4.2c7.2,2.4,1.9-8.7,8.4-5.6l-2.7,5.8l3.4-1.6l-0.7,4.7c3.7-3.6,4.8-2.7,8.5-1.6
					c-0.8-2.8,0.5-7.4,3.7-7.6c2.2,2.3-1.2,3.9,3.3,3.2c-1,2.5-2.1,5.7-4.1,2.1c-0.2,1.3-1,2.6-1.2,3.9c2.4,2.7,5.9,0.4,7.5,0.3
					c-0.6-0.1-1.4-0.3-1.8-0.9l6.6-5.7c1,1.5,0.2,2.7-0.6,3.9c1.3-0.5,2.3-2.3,4.2-2.7c-0.5,3.2-0.4,6.5-3.2,8.1l6.3-3.8
					c0.4,1.4,3.2,3.6,2.4,4.8c3.5,1.7,8.5-6.5,13.1-4.2c0.2-0.6,0.7-1.2,1.7-1.7c4.3,0.5,8.2,4.1,13.3-0.3l2.9,5.2
					c4-1.4-3.9-6.6,2.7-8.8c4.7-1.8,1.8,4.4,3.4,5.8c2.4-2.8,6.5-8.2,10.8-4.2C310.1,123.8,309,123,307.6,123.5z M357.2,119.5
					c-1,0.7-2.9,2.9-3.6,1C354.7,116.8,355.5,118.5,357.2,119.5z M432.5,110.7c-0.7,0.9-1.8,0.5-3.1-0.5
					C430.3,109.9,431.4,110,432.5,110.7z M642.3,99.5c0,0-0.1,0-0.1,0.1C640.1,99,640.8,99.2,642.3,99.5z M646.8,100.1
					c0.4-0.1,0.4-0.3,0.2-0.5c-0.3,0.3-1.3,0.3-2.4,0.1C644.9,100.1,645.4,100.3,646.8,100.1z M169.2,86.7l0.9,1.2
					C168.1,89.2,168.7,88,169.2,86.7z"/>
				<path fill="#4FBB93" d="M424,114.5c-0.3-0.5-0.3-1-0.4-1.5C423.2,113.5,423.2,114,424,114.5z"/>
				<path fill="#4FBB93" d="M276.8,126.6c-0.1,0-0.1,0-0.2,0c-0.1,0.2-0.1,0.5-0.2,0.7L276.8,126.6z"/>
				<path fill="#4FBB93" d="M577.9,111.6c-0.9-0.2-1.4-0.5-1.801-0.8C576.1,111.2,576.5,111.5,577.9,111.6z"/>
				<path fill="#4FBB93" d="M670.3,99.3l-2.8,0.1c1.4,0,1.9,0.2,2.6,0.4C670,99.6,669.4,99.3,670.3,99.3z"/>
				<path fill="#4FBB93" d="M695.1,105.1c0.4-0.1,0.9,0,1.301-0.1l-0.101-0.3C694.5,104.6,693.2,104.9,695.1,105.1z"/>
				<path fill="#4FBB93" d="M673,102.4c0.2,0.8,2,0.5,4,0.4c-0.1,0-0.2,0-0.4,0C677.2,101.8,675.1,102.1,673,102.4z"/>
				<path fill="#4FBB93" d="M677.4,102.9c0.6,0,1.199,0,1.8,0C679.5,102.5,678.5,102.8,677.4,102.9z"/>
				<path fill="#4FBB93" d="M652.4,99.7c0.899,0.3,0.6-1.1,1.1-0.7C654.6,97.9,647.2,100.1,652.4,99.7z"/>
				<polygon fill="#4FBB93" points="674.6,105 673.9,104 672.8,104.8 				"/>
				<path fill="#4FBB93" d="M658.8,104.2l3.2,0.3c0-0.2,0.4-0.3,0.9-0.3C660.9,104.1,658.8,103.9,658.8,104.2z"/>
				<path fill="#4FBB93" d="M662.9,104.2c1,0,2,0,2.6-0.2C664.9,104,663.7,104.1,662.9,104.2z"/>
				<polygon fill="#4FBB93" points="670.2,105.3 669.3,105.1 667,105 				"/>
				<path fill="#4FBB93" d="M624.6,103.8l-3.5,0.4c-0.399,0.5,0.601,0.7,1.9,0.6C623.8,104.4,625.1,104.2,624.6,103.8z"/>
				<path fill="#4FBB93" d="M635.1,107.2c-0.899-0.2-1-0.5-1.5-0.9l-0.1,1.6L635.1,107.2z"/>
				<path fill="#4FBB93" d="M624.9,107.8c-0.301,0.5-5.101,1.4-0.601,1.2C624.6,108.5,628.1,108.1,624.9,107.8z"/>
				<polygon fill="#4FBB93" points="572.5,105.9 573.4,105.9 573.3,102.4 				"/>
				<path fill="#4FBB93" d="M526.3,116.1c4.101,0.8,1-2.6,4.7-1.5c1-1-3-0.9-2.1-1.8C526.5,113.9,525.1,113.4,526.3,116.1z"/>
				<path fill="#4FBB93" d="M528.9,112.8c0.399-0.2,0.8-0.4,1.3-0.7C529.5,112.4,529.2,112.6,528.9,112.8z"/>
				<polygon fill="#4FBB93" points="7.3,75.9 4.7,73.2 6.4,77.4 				"/>
				<path fill="#4FBB93" d="M2.2,84.7l-0.6-7.8l-1.6,7C0.6,83.6,1.8,83,2.2,84.7z"/>
				<path fill="#4FBB93" d="M364.6,127.8l0.2-1c-0.4-1.1-1-1.1-2.3-1.3L364.6,127.8z"/>
				<polygon fill="#4FBB93" points="328.6,126.3 329.2,126.4 328.1,122.2 				"/>
				<path fill="#4FBB93" d="M298.4,133.3c1.2,0.1,2.7-0.9,3.9-0.8C299.6,133.4,298.1,127.8,298.4,133.3z"/>
			</g>
		</g>
	</g>
</g>
<g id="XMLID_1_">
	<g>
		<path fill="#FFFFFF" d="M567,514.2c19.2,0,34.7,15.5,34.7,34.7c0,19.199-15.5,34.699-34.7,34.699s-34.7-15.5-34.7-34.699
			C532.3,529.7,547.8,514.2,567,514.2z M580.2,531.8V523.4h-7c-6.9,0-11.7,4.199-11.7,12v6.699h-7.8v9.101h7.8v23.3h9.4v-23.3h9V542
			h-9v-5.8c0-2.601,0.699-4.4,4.5-4.4H580.2z"/>
	</g>
</g>
<g>
	<path fill="#FFFFFF" d="M691.7,500.9c-13.2,0-24,10.8-24,24c0,13.199,10.8,24,24,24s24-10.801,24-24
		C715.7,511.7,704.9,500.9,691.7,500.9z M703.7,519.5v0.9c0,7.8-6,16.8-16.8,16.8c-3.301,0-6.301-0.9-9-2.7c0.6,0,0.899,0,1.5,0
		c2.699,0,5.399-0.9,7.199-2.4c-2.699,0-4.8-1.8-5.399-4.199c0.3,0,0.6,0,1.2,0c0.6,0,1.199,0,1.5-0.301
		c-2.7-0.6-4.801-3-4.801-5.699l0,0c0.9,0.3,1.801,0.6,2.7,0.6c-1.5-1.2-2.7-3-2.7-4.8c0-1.2,0.301-2.101,0.9-3
		c3,3.6,7.2,6,12.3,6.3c0-0.3-0.3-0.9-0.3-1.2c0-3.3,2.7-6,6-6c1.8,0,3.3,0.601,4.2,1.8c1.2-0.3,2.7-0.899,3.9-1.5
		c-0.301,1.5-1.5,2.4-2.7,3.301c1.2,0,2.399-0.601,3.3-0.9C705.8,517.7,704.9,518.6,703.7,519.5z"/>
</g>
<line fill="none" stroke="#FFFFFF" stroke-width="2" stroke-miterlimit="10" x1="601" y1="542.2" x2="668.1" y2="529"/>
<g>
	<path fill="#FFFFFF" d="M643.8,448.8c0-2.899-1.7-7.399-5-7.399c-1,0-2.2,0.5-2.8,1.3c-0.7,0.8-0.9,1.899-0.9,3
		c0,2.7,1.601,7.1,5,7.1c1,0,2.101-0.5,2.7-1.1C643.7,450.8,643.8,449.5,643.8,448.8z"/>
	<path fill="#FFFFFF" d="M641.6,459.4c-0.3,0-0.5,0-0.899,0c-0.4,0-2.5,0.1-4.2,0.6c-0.9,0.3-3.4,1.3-3.4,4.1
		c0,2.9,2.8,4.9,7.101,4.9c3.8,0,5.899-1.9,5.899-4.3C646,462.6,644.7,461.5,641.6,459.4z"/>
	<path fill="#FFFFFF" d="M643,434.4c-11.5,0-20.9,9.3-20.9,20.899c0,11.5,9.301,20.9,20.9,20.9s20.9-9.3,20.9-20.9
		C663.9,443.8,654.5,434.4,643,434.4z M638.1,470.7c-5.8,0-8.6-2.8-8.6-5.7c0-1.4,0.7-3.5,3.1-4.9c2.5-1.5,5.9-1.699,7.7-1.899
		c-0.6-0.7-1.2-1.5-1.2-2.7c0-0.7,0.2-1.1,0.4-1.6c-0.4,0-0.9,0.1-1.3,0.1c-4.2,0-6.7-3.2-6.7-6.3c0-1.8,0.8-3.9,2.6-5.4
		c2.301-1.899,5.4-2.399,7.601-2.399h7.899l-2.6,1.6h-2.5c0.9,0.8,2.8,2.4,2.8,5.4s-1.7,4.399-3.399,5.699
		c-0.5,0.5-1.101,1.101-1.101,2c0,0.9,0.601,1.4,1,1.7l1.4,1.101c1.8,1.5,3.399,2.899,3.399,5.6C648.7,466.9,645,470.7,638.1,470.7z
		 M655.4,454.8v4h-2v-4h-4v-2h4v-4h2v4h4v2H655.4z"/>
</g>
<path id="WordPress__x28_alt_x29_" fill="#FFFFFF" d="M728.6,438.9c4.801-8.9,14.301-14.7,25.301-14.7c7.1,0,13.6,3,18.6,7.3
	c-1.4-0.3-3,0-4.6,0.9c-3.7,2.1-4.9,8.1-0.101,11.1c3,1.9,4,6.5,3.9,9.4c-0.101,2.8-6.9,15.899-6.9,15.899l-6.6-22.8
	c0,0-0.2-1.6-0.2-2.1c0-0.601,0.2-1.301,0.6-1.7c0.2-0.3,0.601-0.8,1.101-0.8h3.1v-2.5h-17.1v2.5h0.5c0.6,0,1.1,0.8,1.6,1.3
	c0.6,0.6,1.4,3.1,2.4,5.6l2.5,8.2l-5.4,12.4l-5.9-24.7c0,0,0.2-1.7,0.5-2c0.2-0.2,0.601-0.7,1-0.7h0.2V439h-14.5V438.9z M732,443.2
	c0,0-1.4-1.8-2.9-1.8h-1.5c-1.399,3.199-2.199,7.399-2.199,11.3c0,11.7,7.199,21.8,17.399,26.1L732,443.2z M778.4,438.7
	c0.5,2.6,0.399,5.7-0.601,9.1c-2.8,8.9-9.6,25-12.2,31.101c9.9-4.4,16.801-14.301,16.801-25.801C782.4,447.9,781,442.9,778.4,438.7z
	 M754.5,462.8l-7.3,17.8c2.2,0.5,4.399,0.801,6.7,0.801c2.399,0,4.699-0.301,6.899-0.801L754.5,462.8z"/>
<g>
	<ellipse fill="#FFFFFF" cx="749.2" cy="559.8" rx="7.2" ry="7"/>
	<path fill="#FFFFFF" d="M760.4,560.2c0,6-5,10.8-11.2,10.8s-11.2-4.8-11.2-10.8c0-1.101,0.2-2.101,0.5-3.101h-3.3v15.2
		c0,0.8,0.6,1.4,1.399,1.4h25c0.801,0,1.4-0.601,1.4-1.4v-15.2h-3.2C760.2,558.1,760.4,559.1,760.4,560.2z"/>
	<path fill="#FFFFFF" d="M757.4,553h4.1c0.9,0,1.6-0.7,1.6-1.6v-3.9c0-0.9-0.699-1.6-1.6-1.6h-4.1c-0.9,0-1.601,0.699-1.601,1.6v3.9
		C755.8,552.3,756.5,553,757.4,553z"/>
	<path fill="#FFFFFF" d="M749.2,535.5c-13.4,0-24.3,10.9-24.3,24.3c0,13.4,10.899,24.3,24.3,24.3c13.399,0,24.3-10.899,24.3-24.3
		C773.5,546.4,762.6,535.5,749.2,535.5z M762.5,577.8h-26.7c-2.5,0-4.6-1.899-4.6-4.6v-26.7c0-2.7,2.1-4.6,4.6-4.6h26.7
		c2.5,0,4.6,1.899,4.6,4.6v26.7C767.1,575.9,765.1,577.8,762.5,577.8z"/>
</g>
<line fill="none" stroke="#FFFFFF" stroke-width="2" stroke-miterlimit="10" x1="708.3" y1="542.2" x2="724.9" y2="553"/>
<line fill="none" stroke="#FFFFFF" stroke-width="2" stroke-miterlimit="10" x1="594.4" y1="570.1" x2="731.3" y2="573.2"/>
<line fill="none" stroke="#FFFFFF" stroke-width="2" stroke-miterlimit="10" x1="593.9" y1="526.3" x2="731.3" y2="455.3"/>
<rect x="515.4" y="118" width="258.699" height="39"/>
<text transform="matrix(1 0 0 1 446 145)" font-family="'ArialMT'" font-size="24">Je suis </text>
<text transform="matrix(1 0 0 1 517.5996 145)" fill="#FFFFFF" font-family="'ArialMT'" font-size="24">à la recherche d’un stage</text>
<text transform="matrix(1 0 0 1 84.2075 31)" font-family="'ArialMT'" font-size="12">Baccalauréat STG Communication et Ressources Humaines </text>
<text transform="matrix(1 0 0 1 60.3076 47.7998)" font-family="'ArialMT'" font-size="14">Licence Information et Communication mention assez bien</text>
<text transform="matrix(1 0 0 1 22.9077 69.4004)" font-family="'ArialMT'" font-size="18">Etudiante M1 Design d’interface Internet et Multimédia</text>
<g>
	<line fill="none" x1="430" y1="600" x2="800" y2="230"/>
	<g>
		<g>
			<g>
				<path fill="#4FBB93" d="M799.6,230.4c0.4-0.4,0.4-0.4,0.4-0.4C799.1,230.9,799.6,230.4,799.6,230.4z"/>
				<polygon fill="#4FBB93" points="790.4,239.3 790.5,239.1 789.2,240.4 				"/>
				<path fill="#4FBB93" d="M781.8,247.5c1-0.6,3.101-3,4.7-4.4l0.3-0.2l0.601-0.8C785.4,243.9,783.1,246.3,781.8,247.5z"/>
				<path fill="#4FBB93" d="M776.7,251.5c0.399-0.2-0.9,1,1.1-1c-0.1,0.1-0.1,0.1-0.2,0.2C777.4,250.8,777.2,251.1,776.7,251.5z"/>
				<path fill="#4FBB93" d="M777.6,250.7C778.5,249.8,776.9,251.1,777.6,250.7L777.6,250.7z"/>
				<path fill="#4FBB93" d="M773.4,254.6l1.1-1.2c-0.3,0.2-1.4,1.2-1,0.8C772.3,255.4,772.6,255.2,773.4,254.6z"/>
				<path fill="#4FBB93" d="M772.4,255.9l0.6-0.6C772.9,255.3,772.7,255.5,772.4,255.9z"/>
				<path fill="#4FBB93" d="M774.3,254l-1.3,1.3c0.2-0.1,0.3-0.1,0.6-0.6C773.6,254.8,773.8,254.5,774.3,254z"/>
				<path fill="#4FBB93" d="M775.1,253.3c0.7-0.6,1.601-1.4,0.5-0.2C777.8,250.9,777.4,251.1,775.1,253.3z"/>
				<path fill="#4FBB93" d="M781.5,248.1l0.9-0.8l0.699-0.8C782.8,246.9,781.4,248.1,781.5,248.1z"/>
				<path fill="#4FBB93" d="M765.7,261.5c0,0.1,0.6-0.2,0.8-0.2l0.8-0.9C766.7,260.8,765.8,261.5,765.7,261.5z"/>
				<path fill="#4FBB93" d="M766.4,261.3l-1.2,1.4C766.4,261.5,766.6,261.3,766.4,261.3z"/>
				<polygon fill="#4FBB93" points="772.5,256.4 774.5,254.1 772.1,256.8 				"/>
				<polygon fill="#4FBB93" points="760.5,266.2 761.1,265.3 760,266.8 				"/>
				<path fill="#4FBB93" d="M757.1,269.4c0.4-0.7-1.1,0.4-0.5-0.2c-0.899,0.9-1.6,1.7-2.1,2.5C755.1,270.9,756,270.2,757.1,269.4z"
					/>
				<path fill="#4FBB93" d="M753.4,273c0.3-0.4,0.699-0.8,1-1.3C754.1,272.1,753.7,272.5,753.4,273z"/>
				<path fill="#4FBB93" d="M762.9,264.7c-0.101,0.1-0.5,0.1-1.301,0.8l0.7-0.3C762.5,265.1,762.7,264.9,762.9,264.7z"/>
				<path fill="#4FBB93" d="M762.4,265.2L762.4,265.2c-0.601,0.5-1,0.9-1.2,1.1C761.4,266.2,761.7,265.8,762.4,265.2z"/>
				<path fill="#4FBB93" d="M763,264.6l-0.1,0.1C763,264.7,763,264.7,763,264.6z"/>
				<path fill="#4FBB93" d="M768.9,259.5c-0.7,0.8-2.2,2.5-0.5,1.1C768.8,260,767.9,260.8,768.9,259.5z"/>
				<path fill="#4FBB93" d="M763.9,264.3l1.5-1.3c-0.101,0-0.4,0.1-0.101-0.3L763.9,264.3z"/>
				<polygon fill="#4FBB93" points="763.3,265 763.9,264.3 763.4,264.7 				"/>
				<path fill="#4FBB93" d="M756.1,270.9c-0.5,0.7-1.199,1.3-1.899,2c0.899-0.7,1.7-1.5,2.5-2.2C756.7,270.6,757,270.1,756.1,270.9z
					"/>
				<path fill="#4FBB93" d="M759.2,268.2l-0.101,0.1C759.2,268.3,759.2,268.2,759.2,268.2z"/>
				<path fill="#4FBB93" d="M746.7,280c0.1,0,0.1,0,0.2-0.1c0,0,0,0,0-0.1L746.7,280z"/>
				<path fill="#4FBB93" d="M756.9,270.7c0.699-0.5,1-0.9,1.199-1.3c-0.399,0.5-0.899,0.9-1.399,1.4
					C756.7,270.8,756.7,270.9,756.9,270.7z"/>
				<path fill="#4FBB93" d="M751.5,275c0.4-0.2,0.8-0.5,1.2-0.8C752.3,274.4,751.5,274.9,751.5,275z"/>
				<path fill="#4FBB93" d="M758.8,268.5C758.8,268.4,758.8,268.4,758.8,268.5C758.6,268.5,758.7,268.5,758.8,268.5z"/>
				<path fill="#4FBB93" d="M758.8,268.5c-0.3,0.3-0.5,0.6-0.7,0.9c0.4-0.4,0.7-0.7,0.9-1C759,268.4,758.9,268.4,758.8,268.5z"/>
				<path fill="#4FBB93" d="M746.5,284.1c-0.2-0.4,1.1-2.2,2.8-3.2c1.101-1.5-0.6-1.5-2.3-0.9c0.1,0.2,0.2,0.3-1,1.8
					c0.6-0.3,3.4-2.6,2.5-1.2c-1.7,1.9-1.6,1.4-2.6,2.1c1.1-0.4-1.801,2.8-0.9,2.9l1.4-1.8C746.4,283.7,746,284.4,746.5,284.1z"/>
				<path fill="#4FBB93" d="M749.6,277.4l0.5-0.6c-0.699,0.6-1.3,0.9-2.399,1.5c-0.8,1-0.9,1.3-0.9,1.5l2.9-2.6L749.6,277.4z"/>
				<path fill="#4FBB93" d="M752.7,274.4c-0.2,0.7-1.4,2.1-0.3,1.6c1.6-1.6,0.899-1.4,1.8-2.4C751.6,276.3,754.9,272.7,752.7,274.4
					c0.5-0.5,1-1,1.5-1.4c-0.5,0.4-1,0.8-1.5,1.2h0.1l0,0l0,0c0.2-0.1,0.2-0.1,0.101,0c0,0,0,0-0.101,0.1
					C752.8,274.3,752.8,274.3,752.7,274.4c-0.8,0.7-0.2,0,0-0.2v-0.1l0,0l-2.601,2.7C750.8,276.4,751.5,275.7,752.7,274.4z"/>
				<path fill="#4FBB93" d="M767.4,262.5c-0.101,0.1-0.101,0-0.101,0C767.1,262.7,767.1,262.8,767.4,262.5z"/>
				<path fill="#4FBB93" d="M766.2,263.5c0.2-0.2,0.3-0.5,0.899-1.1c0.601-0.5,0.101,0.1,0.2,0.1c0.3-0.4,1.2-1.4-0.1-0.4l-0.2,0.2
					c-1.1,1-2.8,2.1-2.6,1.9C764.9,264.1,765.3,264,766.2,263.5z"/>
				<path fill="#4FBB93" d="M759.5,269.2l-2.1,2.3l1.3-0.9l-0.2-0.1C759.9,269.3,759.5,269.4,759.5,269.2z"/>
				<polygon fill="#4FBB93" points="746.3,280.1 746.3,279.5 745.5,281.1 				"/>
				<polygon fill="#4FBB93" points="743.4,282.9 743.2,282.5 742.6,283.4 				"/>
				<path fill="#4FBB93" d="M590.4,453.4l-0.301,1C590.3,453.9,590.4,453.6,590.4,453.4z"/>
				<path fill="#4FBB93" d="M595,448.6l-0.4-0.699C594.7,448.5,594.8,448.8,595,448.6z"/>
				<path fill="#4FBB93" d="M670.7,351c-1.601,0.3-3.7,0.3-2.8,1l1,0.5C669.5,351.6,670.1,351.2,670.7,351z"/>
				<path fill="#4FBB93" d="M626.9,403.6c0.199,0,0.399,0,0.6,0c-0.1-0.6-0.2-1.1-0.3-1.6C627.1,402.5,627,403,626.9,403.6z"/>
				<path fill="#4FBB93" d="M630.4,408.4l-1.9,0.6C629,409,629.6,408.8,630.4,408.4z"/>
				<path fill="#4FBB93" d="M567.1,481.3l0.7,2.2C568.9,482.3,567.7,482.1,567.1,481.3z"/>
				<path fill="#4FBB93" d="M713.2,311.4c-1,0.6-1.8,1.1-2.4,1.699C712.1,312.4,713.4,312.1,713.2,311.4z"/>
				<path fill="#4FBB93" d="M579,438.2c-0.2,0.6-0.1,1,0.2,1.3C579.4,438.9,579.4,438.5,579,438.2z"/>
				<path fill="#4FBB93" d="M708.4,315.4c0.199-0.101,0.399-0.2,0.6-0.301c0.5-0.699,1.1-1.3,1.9-2
					C709.9,313.6,708.9,314.2,708.4,315.4z"/>
				<path fill="#4FBB93" d="M476,576.1c-0.2,0-0.3,0-0.4,0C475.9,576.4,476,576.3,476,576.1z"/>
				<path fill="#4FBB93" d="M428.7,582.9c0.1-0.4,0.6-0.801,1-1.2C429.3,581.7,429,582.1,428.7,582.9z"/>
				<path fill="#4FBB93" d="M731.3,293.8C731.9,293.2,731.4,293.7,731.3,293.8L731.3,293.8z"/>
				<path fill="#4FBB93" d="M735.8,292.5c-0.1,0.2-0.1,0.3-0.1,0.4C735.7,292.7,735.8,292.6,735.8,292.5z"/>
				<path fill="#4FBB93" d="M705.6,324.6C705.5,324.6,705.5,324.6,705.6,324.6C705.8,324.6,705.7,324.6,705.6,324.6z"/>
				<path fill="#4FBB93" d="M732.4,293.1c-0.301,0.2-0.601,0.4-0.9,0.6C731.7,293.7,732,293.5,732.4,293.1z"/>
				<path fill="#4FBB93" d="M732.1,293.1c0.2-0.2,0.4-0.3,0.601-0.5C732.7,292.5,732.6,292.5,732.1,293.1z"/>
				<path fill="#4FBB93" d="M730.5,294.7c0.4-0.3,0.7-0.6,1.1-0.9c-0.1,0.1-0.199,0.1-0.199,0.1C731.1,294,730.9,294.3,730.5,294.7z
					"/>
				<path fill="#4FBB93" d="M519.8,520.3c-0.1,0-0.2,0-0.3,0C519.6,521.6,519.7,521.2,519.8,520.3z"/>
				<path fill="#4FBB93" d="M662.8,374.7V374.6C662.8,374.7,662.8,374.7,662.8,374.7L662.8,374.7z"/>
				<path fill="#4FBB93" d="M661.3,377.6c-0.1-2,0.5-2.399,1.4-2.899L659.6,373.1L661.3,377.6z"/>
				<path fill="#4FBB93" d="M579.9,465.3l2.699-0.399c0.2,3.899-1.8,4.6,1.301,4.8c-3.9-4.4,5.199-6.7,1.399-10.9l1.8-0.2
					c-0.3,0.301-0.1,0.5-0.399,0.801c3.8-0.101-1.5-4.4,1.6-6.4c1.2-0.6,2.3-0.7,2.2,0.4l0.9-3c0.6-0.5,1.199,0.3,0.5,0.8l2.6-3.4
					l0.1,0.101c-0.199-1-0.199-3-0.1-3.801c1.3-0.199,0,0.801,0.7,1.101l0.7-2.601c1.6,0.301,1.3,2.7,0,3.7
					c5.3,2.2,0.399-2.399,5.8-3.6l-1,2.1c3.1,1.101,3.5-1,6.5-1.5c-1.101-0.2-6.7,0.4-5.9-2.399c0.8-0.2,1.601-0.801,1.8-2.5
					c1.301,1.3,1.9,0,3-1.301l1.601,1.801c0.7-1.801-0.2-2.601-0.3-4.101c1.6-1.3,3.1-0.3,4.6,0.4c2.5-2.101-3.6-0.4-1.3-3.601
					c2.5-1.3,3.1-3.399,4.3-6.699c1.9-0.801,0.8,1.199,1.7,1.199l-0.101-2.5c0.301-0.3,0.601,0.2,0.801,0.5
					c0.5-1.5-1.5-1.699-0.4-3.699c-1.3-2.2,5.7-0.7,5.6-4.7c0.9,0,0.7,1.2,1.5,1.6c1.3-4,1.3-3.3,1.8-7.2l2.801-0.899
					c-2.5,0.3-2.101-2.9-1.601-5.5c-1-0.101-1.899-0.101-2.399-0.101l1.699-3.199c0.5-0.101,0.801,0.699,1,1.699
					c0-0.3,0.101-0.6,0.101-0.8c1.399-0.3,1.8,1,2,2.4c-0.601,0-1.2,0-1.8,0c0.3,1.5,0.699,3.1,1.699,3.8c0-0.3,0.101-0.8,0.4-1.2
					c0.1,0.4,0.2,0.7,0.4,0.8c0.2,0.101,0.2-0.5,0.2-1.3l2.199,1.101l-0.5-0.801l4.101-2.3c0.6-4,0.2-8.3,3.2-12.6
					c0.199,2,1.699,2,2.899,3.399c-2.399-0.399-2.2,3.5-4.3,5.101c1.1-0.9,1.6,0,1.5,0.5l2-4.7c1,1.2,1.5,0.1,2.8-0.4
					c-2.8-1.5,1-4,1.7-6c0.8,0.601,1.2,1.7-0.6,3.2c3.399-0.3-0.101-4.899,3-5.399c-0.4,0.399-0.7,0.5-0.5,1.1
					c0.3-1.6,3.1-3.5,3.1-2.3l-0.4,0.399c2.9-2.5,8-8.399,6.801-10.399c0.199,0.2,1.6,2.3,1.8,2.8c0,0-0.2-2.6-0.4-5.2
					c-0.1-2.6-0.3-5.1-0.3-5.1c1,1.8,5.8,3.399,4.4,6.5c0.8-0.5,1.8-1.101,2.699-2.9c-0.6,0.3-3-0.8-2.6-1.6
					c3.1-0.2,1.9-0.3,5.2-1.2c-0.9,0.4-2.3-2.4-1.2-3.4c0.1,0.5,2.1,1.9,2,2.5l0.5-4.6c-0.3,1,1.6,1.8,2.7,1.8
					c-0.601-0.1,2.2-2.3,2.7-3.2l-1.5,0.7c3.1-2.7,0.1-5.6,3.1-8.399c0,0.699,1.5,3.3,3.2,2c-0.3-1.7-1.601-7.601,0.399-10.7h1
					l1.4-2.5c0.1,2.5-0.5,8.8-1.1,11.899c1.5-0.699,0.899,0.301,2.5-1.399c1.1-0.101-0.101,1.7-0.5,2.2l4-3.601
					c-1.2-0.899,1.8-4.1,0.8-4.8c0,0-0.7,1.3-1.5,2.7c-0.7,1.3-1.5,2.7-1.5,2.7c-1.2-0.9-0.7-5.5,2.2-8c1.1-0.301,1.3,2.3,1.7,2.6
					c0-0.7,1.8-3.3,2.3-3.3l-0.601,1.7c1.801-1.2,1.101-3.801,3.801-4.7c0.699-0.601,3-0.7,2.6-1.4c-2.1,0-5.7-3.3-5.8-4.8
					c0.3-0.1,4.399-2.2,5.6-2.4c1.8-0.199,0.5,3.5,2,3.4c-0.2-0.3,0-1.2,0.2-1.5c0.9-0.5,0.5,1.1,1.8-0.5c-0.7-1.2,2.9-2.9-0.1-1.5
					c1.1-1.7,1.6-1.3,3.2-3c-1.101-0.1-0.5-3.4,0.699-5.1c0.101,0.3,0.7,0.3,1,0.3c2.9-2.8,4.801-3.9,7.5-6.601
					c0.4-0.1,1.9-1.1,1.7-0.199c0.2-0.5,0.3-1.101,1.101-2c2.199-0.9-1.7,2,0.3,1.5c-0.4-0.601,1.5-2.801,2.3-4.2
					c-1-0.3-2.8,2.6-3.7,4.1c-1-1,0-4,2.4-7.2c2-2.399,1.6-0.399,1.8-0.899c4.3-4,2.1-5,6.2-7.7c1.899-0.8,1.1,1,1.8,1.1
					c-1.6,2-3.1,2.4-4.3,3.601l1.8-1.2c-0.4,0.7-1.5,2.1-2.3,2.6c1.6-0.699,7.1-6.899,10.7-9.7c0.399-0.7,1.199-1.9,0.6-1.6
					l-0.9,1.1c-1.3,0.5,1.4-2.4-0.1-1.3c1.1-1.6,2.2-3.5,4.4-5.2l0.899,0.2c-0.2-0.1-1.6,0.9-2,1.6c0.601-1,3.601-2.2,3.9-3.7
					l-1.7,1c1.1-1.6,2.4-3.7,4.3-5.2c-1.3,0.3-0.3,0.4-2.1,1.1c1.8-0.3-4.5,4.2-2,3.3c-1.9,0.5-2.5,1.8-4.8,2.8
					c0.199,0.1,0.899-0.2-0.601,1.1c0,0.1-0.1,0.3-0.2,0.5c-0.1,0-0.1,0-0.1,0.1c0,0,0.1,0,0.1-0.1c0,0.1,0,0.1,0,0
					c0.4-0.3,0.801-0.4,1-0.4c-0.3,1.1-2.699,3.3-3.199,4.3c-1,0.7,0.1-0.6-0.5-0.3L729,298c-0.5-0.3-3,1.5-1.2-0.7L726,299
					c-1.3,0.8-2.9,2.1-3.7,3.1c-1,0.7-1.7,2.601-1.3,1.5l-2.6,3l-0.101-0.1c-2.899,2.6-5,6.4-9.2,8.5c-0.8,1-1.699,2.1-3.399,3.5
					l-0.8-0.2c-1.101,1.3-4.2,3-4.2,4c-2.7-0.1-6.4,5.3-8.8,7l0.6,0.8c-1.5,1.4-2.8,2.9-4.3,4.9l0.8,0.5c-1,2.1-4.6,3.4-7,5.9
					c-0.1-0.4,0.6-1,1.2-1.2c-2.3,0.6-3.601,2.399-4.8,4.2c-1.2,1.8-2.301,3.699-4.301,4.399c-0.399,0.9-1,1.3-1.699,1.601
					c0.1-0.101,0.1-0.101,0.1-0.2c-0.1,0.1-0.2,0.2-0.3,0.3c-0.4,0.2-0.9,0.3-1.3,0.5c0.5-0.1,0.899-0.2,1.199-0.3
					c-0.5,0.5-1.199,1.399-1.8,2.3l-1.1-0.5c-0.1,0.1-0.1,0.1-0.2,0.2c-1.1,0.399-0.2,1,0.8,1.2c-0.3,0.5-0.5,1-0.5,1.5
					c-2-0.7-1.6,2.399-3.899,1.8c0.199,1.2-3.4,4.2-2.301,6.2c-0.199-0.2-0.5,0-0.1-0.5c-1,0.699-2.1,1.3-2.4,2.5l-1.5-0.801
					L658.7,367.9c-1.8,0.399-2.7,0.399-2.5-1.5c-1.4,4-1.7,2.6-2.7,6.3l-0.7-0.9c-0.8,0.8-1.1,3.2-2.2,3c-1.699,0.2-4,2.3-6.8,4.8
					c-2.7,2.5-5.8,5.4-9,7c3.4,1.601-3.399,1-1.6,3.101c-0.9-0.3-1.9,0-1.601-1.3c-1.899,2.899-4.699,2.5-4.699,5.8
					c-0.9-0.4-0.4-1.4-1-1.5c-0.101,0.3-0.2,1.3-0.9,1.1c-0.6-0.1-0.2-0.899,0-1.5c-2.4,2.5-0.7,4.601,0.9,6.7
					c-2.101,0.4-2.601,1.1-2.301,3.2c-1-0.2-2.399-0.101-1.1-1.8c-1,0.8-6.3,4.199-4.8,5.8c-0.7-0.101-1.3,1.1-1.4,1.5
					c-2,1.8-2.399,1.8-4.1,3.8l0.8-0.3c1.1,2.6-1.2,2-2.5,3.7l-0.2-0.2c-4.899,2-0.8,2.2-6,3.899l1.4,1c2.3,3-4.7,1.4-5.7,4.4h1.5
					c-0.2,2-6.8-0.7-8.3,0c-0.5,0,0-0.8,0.2-1.2c-4.601,1.101,1.3,2-0.5,4.5c-1.3-0.5-1.8-2.8-3.5-1.6c-1.5-0.101-1.3,7.1-5.101,7.2
					c1.2,0.3,2.301,0.6,1.9,2.1c-1.3,1.8-7,1.2-6.1,4.9c-0.4,0-0.7-0.101-0.9-0.301c-0.6,1.7-2.9,4.7-2.3,6.7
					c-3-1.899-4.3,0.4-5.3,2.7c-1.101,2.3-1.9,4.5-4.2,2.2l-3.4,3.7l-0.399-0.601c-2.7,1.9-2.4,3.8-2,5.8
					c-0.9,0.2-0.9-0.6-1.101-0.899c-4.399,2.3-4.6,2.8-5,8l-1.899-1.3c0.199,1.699-7.5,2.199-9,7.3c-0.2-0.2-0.4-0.601-0.4-1.101
					c-0.9,2.801-4.3,3.801-7,5c-2.6,1.2-4.4,2.601-2,6.4l-0.9,3.9c3.7-2.601,2.3,3.199,4.601,3c-0.9,1.6-5.101,1.3-3.9-0.601
					l0.6,0.101c-2.699-3.9-5.1,2.699-7.3,0.3c-6.1,6.2-14.2,10.2-20.399,15.7l3.5,2.1l-2.2,1.8c-1.2-0.1-2.9-1.5-1.3-2.8
					c-2.4-0.8-1.2,3.7-0.601,4.3c-4,1.601-2.1-4.399-3.1-3.6l-1,1.399l0.6,0.101c0.2,2.1,1.3,3.399-0.6,4.899
					c-1.7,0.5-2.3-1.199-2.9-0.899c-0.2-0.2-0.399-0.2-0.8,0.6l-2.9,2.2l3.301,1.3c0,2.2-2.601,2.2,1.199,3.7
					c-5.699-2.3-11.1,7.9-13.5,7.7c0.101,3.3-1.5,4.8-3.699,6.5c1,0,4,2.399,2,3.8c-5-6.2-5.5,0.6-11-2.2c3.899,1.5-4.2,5.3,1.6,7.3
					c-1.9,0.9-2.2-2.1-4.7-2.399c-1.2,5.5-9,5.7-12.399,10.399c0.699,0.801,2.6,1.4,2.899,3.4l-6.1-1.8c-0.5,1.2,3.8,5.3-0.5,4
					c0.899,0.5,2.2,1.2,1.899,1.899c-6,2-9.399,6.801-13.3,11.2c-3.8,4.4-8.1,8.4-16.1,8.5c2.8,0.601,2.2,1.4,1.399,2.3
					c1-0.1,2.101,2.101,3.301,3.2l-6.7,0.101c2.6,3.8-3.5,3.8-0.8,7.3l0.5-1.601c2.199,5.101,10.199,6.2,14.6,11
					c-1.3-2.899,1.3-2.399,3.8-2.3c2.5,0.101,4.8-0.2,3.2-4.5c1.5,0.3,1,2,2.4,2.7c-1.301-2.7-0.9-3.9,1.399-4.5l0.3,0.7
					c3.601-4.8,7.301-4.7,13.2-8.3l-2.5-1.801c1.3-0.699,2.2-0.3,3.2-0.199c-2.2-4.5-3,2.699-5.6-2c5.8,3.1,7.1-7.2,13-3.2
					c1.5-1.601-2.9-2-1.4-3.601l1.7,0.9l-1.3-2.1c1.3-0.801,3.399,0.399,4.6,1.399c-0.4,0.101-0.4,1-0.5,1.4c2.8,0.2,3.1-4.4,4-4.4
					l-2.3,0.7c2.899-5.6,9.7-9.3,11.1-16.1l-1.3-0.601c1.3-5,3.5-1.5,6.1-5.899l0.101,0.399c-0.3-1.6,0.2-3,1.2-3.899
					c0.199,2,3.699,0.399,3.8,2.8c1.5-5.3,0.2-3.2-1-8.9l2,1c-0.601-2.2-1.3-2.899,0-5.1c-0.101,2.7,3.399,1.2,3.5,4.5
					c6.8-0.5,2-8.8,8.3-5.7c-2.4-5.8-5.3,0.9-5.3-0.9c-2.101-0.6-1.7-4.5-0.2-5.199c1.2-1.101,7.1,3.199,9.9,0.1
					c-0.301,0.3,0,0.6-0.301,0.9c2.101-0.101,0.7-3.601,3.7-3.301c-1.7-3.199,1.8-1.6-1-4.899L516.4,525.1
					c0.699-2.399-1.5-7.3,2.699-8.1c0.4,0.8,0.5,2.4,0.4,3.3c1.6,0.101,0.8-2,2.4-1.899c2.8,3.199-2.5,4-1.8,7.899
					c2,0.5,0.8-5.399,3.3-1.2c-3-5.399,3.3-2.399,2.1-7.6l1.7,1.9c0-0.601-0.2-2.101,0.4-2.7l1.3,3.4c-0.4-3.601,4.7-1.5,5.1-4.101
					c-3,3.4-2.8-1.399-5.4-1.3c1.5-6.4,6.801,2.3,10.2-3.2c-0.3,0.9-3.2,1.3-3.1-0.5c1.2-0.5,2.9-1,4.3-0.6c2.5-3.4-2.2-1.3-2-3.601
					c3,1.101,0.5-2.3,1.1-4.3l1.7,1.7c4.3-2.3-2.7-4.5,1.601-6.2l1.1,3.7l0.9-2.2l1.6,2.3c0.2-3.199,1.1-3.399,3.3-4.6
					c-1.6-0.8-2.8-3.3-1.399-4.8c2,0,1,2.2,2.8-0.2c0.6,1.5,1.399,3.4-1,2.8c0.5,0.601,0.6,1.5,1,2.2c2.2,0,2.899-2.6,3.6-3.4
					c-0.3,0.2-0.8,0.5-1.2,0.5l0.7-5.399c1.1,0.1,1.2,1,1.3,1.899c0.4-0.8,0.101-2,0.8-3.1c1.101,1.6,2.5,2.9,1.9,4.8l1.3-4.5
					c0.8,0.4,3,0,3.101,0.9c2.3-0.9,1.3-6.601,4.3-7.8c-0.101-0.4-0.2-0.801,0.1-1.5c2.2-1.801,5.4-2.101,6-6.301l3.5,0.801
					c1.3-2.4-4.5-0.9-2.399-4.9c1.399-2.9,2.699,1,4,0.8c-0.101-2.2-0.4-6.399,3.3-6.7C581.2,464.3,580.3,464.5,579.9,465.3z
					 M601.2,440.8c-0.2,0.7-0.101,2.5-1.2,2.101C598.9,440.8,600,441.1,601.2,440.8z M632.4,402.3c0,0.7-0.601,1-1.601,1.2
					C631.1,403,631.6,402.6,632.4,402.3z M724.8,300.7L724.8,300.7C723.6,301.5,724,301.2,724.8,300.7z M727.1,298.9
					c0.101-0.301,0.101-0.301-0.1-0.301c0,0.301-0.5,0.7-1.1,1.2C726.2,299.7,726.6,299.6,727.1,298.9z M500.7,514.2l0.899,0.1
					C501.2,515.7,501,515,500.7,514.2z"/>
				<path fill="#4FBB93" d="M630,407.8c-0.3-0.1-0.6-0.2-0.8-0.399C629.2,407.8,629.4,408,630,407.8z"/>
				<path fill="#4FBB93" d="M566.9,480.9L566.9,480.9c0,0.199,0,0.3,0.1,0.399L566.9,480.9z"/>
				<path fill="#4FBB93" d="M700,335.4c-0.5,0.3-0.9,0.5-1.1,0.5C699,336.1,699.3,336.1,700,335.4z"/>
				<path fill="#4FBB93" d="M737.7,287.6l-1.3,1.4c0.6-0.6,1-0.8,1.399-1C737.6,287.9,737.2,288,737.7,287.6z"/>
				<path fill="#4FBB93" d="M751.5,278.6c0.2-0.2,0.4-0.4,0.6-0.6l-0.199-0.1C751,278.7,750.6,279.3,751.5,278.6z"/>
				<path fill="#4FBB93" d="M740.2,287.7c0.399,0.2,1.2-0.7,2-1.7c-0.101,0.1-0.101,0.1-0.2,0.2C741.9,285.5,741,286.6,740.2,287.7z
					"/>
				<path fill="#4FBB93" d="M742.4,285.8c0.3-0.3,0.6-0.6,0.899-0.8C743.2,284.7,742.9,285.3,742.4,285.8z"/>
				<path fill="#4FBB93" d="M729.6,296.1c0.5-0.3-0.199-0.7,0.2-0.8C729.8,294.3,727.3,298.6,729.6,296.1z"/>
				<polygon fill="#4FBB93" points="742,288 741.3,287.9 741.1,288.8 				"/>
				<path fill="#4FBB93" d="M734.4,295l1.6-1.3c-0.1,0,0.1-0.3,0.3-0.5C735.3,294,734.2,294.9,734.4,295z"/>
				<path fill="#4FBB93" d="M736.2,293.1c0.5-0.5,0.899-0.9,1.1-1.2C737.1,292.1,736.6,292.6,736.2,293.1z"/>
				<polygon fill="#4FBB93" points="740.1,290.1 739.6,290.5 738.5,291.5 				"/>
				<path fill="#4FBB93" d="M718.4,310.6l-1.5,1.801c0,0.399,0.6,0,1.1-0.601C718.3,311.2,718.8,310.6,718.4,310.6z"/>
				<path fill="#4FBB93" d="M724.6,307.2c-0.5,0.3-0.699,0.2-1.1,0.3l0.6,0.7L724.6,307.2z"/>
				<path fill="#4FBB93" d="M720.2,312.1c0,0.301-1.8,2.9,0.2,0.801C720.3,312.5,721.8,310.8,720.2,312.1z"/>
				<polygon fill="#4FBB93" points="695.2,335.6 695.6,335.2 694.1,333.8 				"/>
				<path fill="#4FBB93" d="M678,361.2c2.2-1.601-0.6-1.5,1.6-2.8c0-0.9-1.8,1-1.699,0.199C677.2,360.2,676.3,360.6,678,361.2z"/>
				<path fill="#4FBB93" d="M677.9,358.6c0.1-0.3,0.199-0.5,0.3-0.899C678,358.2,677.9,358.4,677.9,358.6z"/>
				<polygon fill="#4FBB93" points="421.4,584.6 419.1,584.7 421.6,585.7 				"/>
				<path fill="#4FBB93" d="M422.7,590.6l-3.5-2.899l2.1,3.6C421.5,590.9,421.7,590.1,422.7,590.6z"/>
				<path fill="#4FBB93" d="M608,440.8l-0.3-0.5c-0.601-0.3-0.9,0-1.601,0.5H608z"/>
				<polygon fill="#4FBB93" points="590.8,456.8 591.1,456.5 588.8,455.4 				"/>
				<path fill="#4FBB93" d="M579.7,473.7c0.6-0.5,0.8-1.601,1.5-2.2C580.3,473.1,577.3,471.5,579.7,473.7z"/>
			</g>
		</g>
	</g>
</g>
<rect x="15" y="180" fill="#FFFFFF" stroke="#000000" stroke-width="0.5" stroke-miterlimit="10" width="230.2" height="77"/>
<text transform="matrix(1 0 0 1 32.6567 206)" font-family="'ArialMT'" font-size="14">36 rue du Moulin - 75 000 Paris </text>
<text transform="matrix(1 0 0 1 44.0566 222.7998)" font-family="'ArialMT'" font-size="14">kraimps.pauline@gmail.com</text>
<text transform="matrix(1 0 0 1 83.3569 239.5996)" font-family="'ArialMT'" font-size="14">06 70 98 65 45</text>
<text transform="matrix(1 0 0 1 472.627 201.2754)" font-family="'ArialMT'" font-size="14">Rédactrice Web </text>
<text transform="matrix(1 0 0 1 569.2266 201.2754)" fill="#41B992" font-family="'ArialMT'" font-size="14" text-decoration=" underline">worldconnected.com</text>
<text transform="matrix(1 0 0 1 457.3262 234.876)" font-family="'ArialMT'" font-size="14">Assistante chargée de projet social média </text>
<text transform="matrix(1 0 0 1 483.2266 249.2754)" font-family="'ArialMT'" font-size="12">3 mois / Omnicom Média Group (FUSE)</text>
<text transform="matrix(1 0 0 1 427.4268 280.4756)" font-family="'ArialMT'" font-size="14">Animatrice centre de loisirs et colonies de vacances </text>
<text transform="matrix(1 0 0 1 480.127 294.876)" font-family="'ArialMT'" font-size="12">CCE BNP PARIBAS / Mairie de St Gratien</text>
<text transform="matrix(1 0 0 1 530.4268 326.0762)" font-family="'ArialMT'" font-size="14">Hotesse de caisse</text>
<text transform="matrix(1 0 0 1 483.7266 340.4756)" font-family="'ArialMT'" font-size="12">Librairie centre commercial Lecler (95)</text>
<path fill="#010101" d="M274.2,415.4c-0.5,3,0,5.8,1.4,7.899c-2.8,4.3-2.5,10.7,0.7,15.3c-1.1,2-1.6,4.601-1.2,7.301
	c0.4,3,1.7,5.8,3.6,7.6c-1.5,4.4,0,9.3,3.9,12.3c1.1,0.7,2.4,1.4,3.9,2c2.2,0.9,4.5,1.5,6.7,2.101c0.7,0.199,1.5,0.399,2.3,0.6
	c1.4,0.2,2.7,0.6,4.1,0.9c2.9,0.699,5.8,1.399,8.7,1.3c2.4-0.2,4.7-0.9,6.9-1.601c0.7-0.199,1.4-0.399,2.2-0.6
	c0.7-0.2,1.5-0.6,2.3-0.9c1.4-0.6,2.8-1.3,3.9-1.1c1,0.2,1.9,0.4,2.7,0.6c1,0.301,1.9,0.5,2.9,0.7l0.4,0.2c0.9,0.4,1.9,0.8,3,1.3
	c1.2,0.601,22.7,9.101,22.7,9.101L370,437c0,0-27.3-11.2-27.8-11.4c-1.5-1-2.6-1.899-3.4-3.3c-1.6-3.2-2.7-6.899-3.8-10.399
	l-0.8-2.5c-1.5-4.5-3.2-10.301-3.1-15.801c0-2.8,0.5-5.5,1.7-8.6c0.2-0.6,0.4-1.2,0.7-1.7c0.9-2.2,1.7-4.3,1.8-6.8
	c0.1-3.7-1.6-6.5-4.8-7.8c-2.2-0.9-4.7-0.9-7-0.101c-5.4,1.5-10.3,6.601-13,13.5c-1.5,3.9-1.6,7.7-1.6,11.4c0,3.2,0,6.3-1.1,9.2
	c-1.5,4.399-5.5,4.2-11,3.5c-0.6-0.101-1.2-0.2-1.7-0.2c-0.6-0.1-1.2-0.2-1.9-0.4c-4-0.8-8.5-1.699-12.7,0.2
	C277.4,407.5,274.9,411.2,274.2,415.4z M285.3,411.8c3-0.5,6.3,0.2,9.5,0.8c1.7,0.4,3.5,0.7,5.2,0.9c5.9,0.6,11.2-2.4,13.4-7.4
	c1.6-3.699,1.6-7.699,1.7-11.5c0.1-3.199,0.1-6.3,1-9.199c0.9-2.801,2.6-5.601,5.1-7.9c2.1-1.8,5.3-3.3,7.1-2.6
	c0.1,0,0.2,0.1,0.3,0.1c1.1,0.6,0.3,2.9-0.6,5l-0.2,0.5c-1.4,3.5-2.4,6.4-2.9,10.1c-0.5,5.101,0.7,9.9,1.8,14.5
	c0.2,1,0.5,2,0.7,3.101c1.1,4.399,2.6,9.3,4.5,14.1c0.3,1,0.7,2.101,1.3,3c0.1,0.5,0.3,0.8,0.5,1c1.4,2.4,3.1,4.101,5.6,5.601
	c1.8,1.1,3.3,2.1,3.6,3.899c0.6,3.8-0.8,8.101-2,11.601l-0.3,0.8c-1.2,3.7-2.7,7.899-4.9,11.3c-2.2,3.3-4.6,4.1-8.6,2.9
	c-1.2-0.5-2.7-1.101-4.4-0.7c-1.6-0.2-3.3,0.6-4.7,1.2c-0.6,0.3-1.1,0.5-1.6,0.699c-0.7,0.2-1.3,0.4-2,0.601
	c-2.1,0.7-4.2,1.399-6,1.6c-1-0.1-2.1-0.3-3.2-0.399L303,465.1c-4.5-0.899-9-2.1-13.2-3.399c-1.4-0.5-2.8-1.101-4.1-2.101
	c-0.8-0.399-1.2-1.1-1.4-1.899c-0.2-1.101,0.2-2.5,1-3.5c0.6-0.7,0.9-1.601,0.7-2.5c-0.3-1.4-1.5-2.4-2.5-2.8l-0.1-0.101h-0.1
	c-0.1,0-0.3-0.1-0.4-0.1c-0.9-0.3-1.5-1.4-1.7-3c-0.2-1.9,0.3-3.9,1.2-4.5c0.9-0.601,1.4-1.7,1.3-3c-0.1-1.101-0.6-2.101-1.4-2.5
	c-1.7-1.5-2.6-3.4-2.5-5.5c0.1-1.7,0.9-3.5,1.8-4.101c1-0.899,1.7-2.199,1.6-3.399c0-1-0.5-1.9-1.4-2.601c-1.8-1.1-1.8-3-1.5-4.399
	C281,413.2,283.4,412,285.3,411.8z"/>
<path fill="#4FBB93" d="M299.4,362.3H271c-1.4,0-2.6,1.2-2.6,2.601c0,1.399,1.2,2.6,2.6,2.6h28.4c1.4,0,2.6-1.2,2.6-2.6
	C302,363.5,300.8,362.3,299.4,362.3z M299.4,349.4H271c-1.4,0-2.6,1.199-2.6,2.6s1.2,2.6,2.6,2.6h28.4c1.4,0,2.6-1.199,2.6-2.6
	C301.9,350.6,300.8,349.4,299.4,349.4z M299.4,336.5H271c-1.4,0-2.6,1.2-2.6,2.6c0,1.4,1.2,2.601,2.6,2.601h28.4
	c1.4,0,2.6-1.2,2.6-2.601C302,337.7,300.8,336.5,299.4,336.5z M299.4,323.7H271c-1.4,0-2.6,1.2-2.6,2.6c0,1.4,1.2,2.601,2.6,2.601
	h28.4c1.4,0,2.6-1.2,2.6-2.601C302,324.9,300.8,323.7,299.4,323.7z M299.4,310.8H271c-1.4,0-2.6,1.2-2.6,2.601
	c0,1.399,1.2,2.6,2.6,2.6h28.4c1.4,0,2.6-1.2,2.6-2.6C301.9,311.9,300.8,310.8,299.4,310.8z M299.4,297.9H271
	c-1.4,0-2.6,1.2-2.6,2.6s1.2,2.6,2.6,2.6h28.4c1.4,0,2.6-1.199,2.6-2.6S300.8,297.9,299.4,297.9z M299.4,285H271
	c-1.4,0-2.6,1.2-2.6,2.6s1.2,2.6,2.6,2.6h28.4c1.4,0,2.6-1.2,2.6-2.6S300.8,285,299.4,285z M299.4,272.1H271c-1.4,0-2.6,1.2-2.6,2.6
	c0,1.4,1.2,2.6,2.6,2.6h28.4c1.4,0,2.6-1.2,2.6-2.6C301.9,273.2,300.8,272.1,299.4,272.1z M299.4,259.2H271c-1.4,0-2.6,1.2-2.6,2.6
	c0,1.4,1.2,2.6,2.6,2.6h28.4c1.4,0,2.6-1.2,2.6-2.6C302,260.4,300.8,259.2,299.4,259.2z"/>
<g>
	<path fill="#010101" d="M321.5,273.2c-0.6,0-0.9,0.1-1.1,0.1v3.6c0.2,0.1,0.5,0.1,0.9,0.1c1.4,0,2.3-0.7,2.3-2
		C323.6,273.9,322.8,273.2,321.5,273.2z"/>
	<path fill="#010101" d="M334.6,267h-19.2c-0.7,0-1.3,0.6-1.3,1.3v19.2c0,0.7,0.6,1.3,1.3,1.3h19.2c0.7,0,1.3-0.6,1.3-1.3v-19.2
		C335.9,267.6,335.3,267,334.6,267z M325.2,277.7c-0.9,0.9-2.3,1.3-3.9,1.3c-0.4,0-0.7,0-0.9-0.1v4.3h-2.7v-11.9
		c0.8-0.1,2-0.2,3.7-0.2c1.7,0,2.9,0.3,3.7,1c0.8,0.6,1.3,1.6,1.3,2.8C326.3,276.1,325.9,277.1,325.2,277.7z M329.3,283.4
		c-1.1,0-2.2-0.2-2.8-0.6l0.5-1.9c0.5,0.3,1.5,0.7,2.3,0.7c0.8,0,1.2-0.3,1.2-0.7s-0.3-0.7-1.3-1c-1.8-0.6-2.5-1.6-2.5-2.6
		c0-1.6,1.4-2.9,3.6-2.9c1,0,1.9,0.2,2.5,0.5l-0.5,1.9c-0.4-0.2-1.1-0.5-1.9-0.5c-0.7,0-1,0.3-1,0.7s0.3,0.6,1.4,1
		c1.7,0.6,2.4,1.4,2.4,2.7C333.1,282.2,331.8,283.4,329.3,283.4z"/>
</g>
<g id="drive-ms-word">
	<path fill="#010101" d="M293.5,216.3h-16.6c-1.3,0-2.4,1.1-2.4,2.4v16.6c0,1.3,1.1,2.4,2.4,2.4h16.6c1.3,0,2.4-1.1,2.4-2.4v-16.6
		C295.9,217.4,294.8,216.3,293.5,216.3z M289.3,232.9h-1.8l-2.4-8.9l-2.4,8.9H281l-2.8-11.9h2l1.8,8.9l2.4-8.9h1.7l2.4,8.9l1.8-8.9
		h2L289.3,232.9z"/>
</g>
<g>
	<path fill="#030303" d="M358.9,303.7c-0.4-0.101-0.8-0.101-1.4-0.101H356v5.5h1.7c0.3,0,0.5,0.101,0.7,0c0.2,0,0.3,0,0.5-0.1
		c0.2-0.1,0.3-0.1,0.4-0.2c0.6-0.5,0.9-1.3,0.9-2.5c0-0.899-0.1-1.399-0.4-1.899C359.6,304,359.3,303.8,358.9,303.7z"/>
	<path fill="#030303" d="M368.6,295.9h-10.1c-3.2,0-6.2,2.7-6.2,6v9.5c0,3.3,3,6,6.2,6h10.2c3.2,0,5.5-2.7,5.5-6v-9.5
		C374.2,298.6,371.8,295.9,368.6,295.9z M362,307.8c-0.1,0.4-0.2,0.9-0.4,1.2c-0.2,0.4-0.5,0.7-0.8,1c-0.2,0.2-0.5,0.4-0.8,0.5
		s-0.6,0.3-0.9,0.3c-0.3,0.101-0.7,0.101-1.1,0.101h-2.3c-0.3,0-0.6-0.101-0.8-0.2c-0.2-0.101-0.4-0.3-0.5-0.5s-0.2-0.4-0.2-0.7V303
		c0-0.4,0.2-0.7,0.4-0.9c0.2-0.199,0.6-0.3,1-0.3h2.3c0.6,0,1.1,0.101,1.6,0.2c0.4,0.1,0.9,0.3,1.2,0.7c0.9,0.8,1.4,2,1.4,3.7
		C362.2,306.9,362.1,307.4,362,307.8z M372.4,305.7l-1.3,3.899c-0.1,0.301-0.2,0.601-0.3,0.7c-0.1,0.2-0.2,0.3-0.3,0.4
		c-0.2,0.1-0.4,0.2-0.6,0.2c-0.3,0-0.5-0.101-0.6-0.2c-0.2-0.101-0.3-0.3-0.3-0.5c-0.1-0.2-0.1-0.4-0.2-0.7l-0.9-2.9l-0.8,2.9
		c-0.1,0.5-0.3,0.8-0.4,1c-0.2,0.3-0.4,0.4-0.8,0.4c-0.2,0-0.4,0-0.5-0.101c-0.1-0.1-0.3-0.2-0.3-0.3c-0.1-0.1-0.2-0.3-0.2-0.5
		c-0.1-0.2-0.1-0.3-0.2-0.4l-1.3-3.899c-0.1-0.4-0.2-0.601-0.2-0.8c0-0.2,0.1-0.4,0.2-0.5c0.2-0.2,0.4-0.2,0.6-0.2
		c0.3,0,0.5,0.1,0.6,0.3s0.2,0.4,0.3,0.8l1,3.4l0.9-3.101c0.1-0.399,0.2-0.6,0.2-0.699c0.1-0.101,0.2-0.301,0.3-0.4
		c0.2-0.1,0.4-0.2,0.6-0.2c0.3,0,0.5,0.101,0.6,0.2s0.3,0.3,0.3,0.4c0.1,0.1,0.1,0.399,0.2,0.699l0.9,3.101l1-3.4
		c0.1-0.3,0.1-0.5,0.2-0.6c0-0.101,0.1-0.2,0.2-0.3c0.1-0.101,0.3-0.2,0.5-0.2c0.2,0,0.4,0.1,0.6,0.2c0.2,0.199,0.2,0.3,0.2,0.5
		C372.5,305.1,372.5,305.4,372.4,305.7z"/>
</g>
<g>
	<path fill="#010101" d="M361.4,273.9L361.4,273.9c-0.2,0.6-0.3,1.4-0.5,2l-0.6,2.2h2.3l-0.6-2.2
		C361.7,275.2,361.6,274.5,361.4,273.9z"/>
	<path fill="#010101" d="M372.1,267h-17.7c-0.7,0-1.2,0.6-1.2,1.2v17.7c0,0.7,0.6,1.2,1.2,1.2h17.7c0.7,0,1.2-0.6,1.2-1.2v-17.7
		C373.4,267.5,372.8,267,372.1,267z M363.7,282.4l-0.8-2.6H360l-0.7,2.6h-2.4l3.1-10.2h3l3.2,10.2H363.7z M369.7,282.4h-2.3V275h2.3
		V282.4z M368.5,274c-0.7,0-1.2-0.5-1.2-1.2c0-0.7,0.5-1.2,1.2-1.2s1.2,0.5,1.2,1.2C369.8,273.5,369.3,274,368.5,274z"/>
</g>
<g>
	<path fill="#010101" d="M277.9,198h-2.6v2.6h2.6c0.8,0,1.3-0.5,1.3-1.3C279.2,198.5,278.7,198,277.9,198z"/>
	<path fill="#010101" d="M285.8,198h-2.6v2.6h2.6c0.8,0,1.3-0.5,1.3-1.3C287.2,198.5,286.6,198,285.8,198z"/>
	<path fill="#010101" d="M296.4,192.7h-22.5c-2.2,0-4,1.7-4,4v9.3c0,2.2,1.7,4,4,4h22.5c2.2,0,4-1.7,4-4v-9.3
		C300.4,194.4,298.7,192.7,296.4,192.7z M277.9,201.9h-2.6v4H274v-6.6v-2.6h4c1.5,0,2.6,1.2,2.6,2.6
		C280.6,200.7,279.4,201.9,277.9,201.9z M285.8,201.9h-2.6v4h-1.3v-6.6v-2.6h4c1.5,0,2.6,1.2,2.6,2.6
		C288.5,200.7,287.3,201.9,285.8,201.9z M296.4,198h-2.6v7.9h-1.3V198h-2.6v-1.3h6.6v1.3H296.4z"/>
</g>
<path id="WordPress__x28_alt_x29__1_" fill="#010101" d="M354,243.1c1.7-3.3,5.2-5.4,9.3-5.4c2.6,0,5,1.1,6.8,2.7
	c-0.5-0.1-1.1,0-1.7,0.3c-1.3,0.8-1.8,3,0,4.1c1.1,0.7,1.5,2.4,1.4,3.4c0,1-2.5,5.8-2.5,5.8l-2.4-8.4c0,0-0.1-0.6-0.1-0.8
	c0-0.2,0.1-0.5,0.2-0.6c0.1-0.1,0.2-0.3,0.4-0.3h1.2V243h-6.3v0.9h0.2c0.2,0,0.4,0.3,0.6,0.5c0.2,0.2,0.5,1.1,0.9,2.1l0.9,3l-2,4.5
	l-2.2-9.1c0,0,0.1-0.6,0.2-0.7c0.1-0.1,0.2-0.3,0.4-0.3h0.1V243H354V243.1z M355.3,244.6c0,0-0.5-0.6-1-0.6h-0.5
	c-0.5,1.2-0.8,2.7-0.8,4.2c0,4.3,2.6,8,6.4,9.6L355.3,244.6z M372.3,243c0.2,0.9,0.2,2.1-0.2,3.3c-1,3.3-3.5,9.2-4.5,11.4
	c3.6-1.6,6.2-5.3,6.2-9.5C373.8,246.3,373.2,244.5,372.3,243z M363.5,251.8l-2.7,6.5c0.8,0.2,1.6,0.3,2.5,0.3c0.9,0,1.7-0.1,2.5-0.3
	L363.5,251.8z"/>
<path fill="#FFFFFF" d="M763.1,309.8c-11.1,0-20.199,9-20.199,20.2s9,20.2,20.199,20.2c11.2,0,20.2-9,20.2-20.2
	S774.2,309.8,763.1,309.8z M770.9,334.6c-0.101,2.101-0.801,3.9-2,5.601c-0.601,0.8-1.301,1.6-2.2,2.2c-1.101,0.8-2.3,1.3-3.601,1.6
	c-1,0.2-1.899,0.3-2.899,0.2C759.1,344.1,758.1,344,757.1,343.6c-1.1-0.399-2-1-2.899-1.8c-1.101-1-2-2.3-2.601-3.7
	c-0.399-0.899-0.6-1.8-0.699-2.699c-0.101-0.7-0.101-1.301-0.101-2c0.101-2.301,0.9-4.4,2.5-6.2c0.7-0.8,1.5-1.5,2.4-2.101
	c0.9-0.6,2-1,3.1-1.199c0.9-0.2,1.8-0.2,2.8-0.2c0.9,0,1.7,0.2,2.5,0.5c0.101,0,0.2,0,0.301,0.1c-0.2,0.4-0.301,0.8-0.5,1.101
	c-0.101,0.399-0.2,0.8-0.301,1.199c-0.1,0-0.1,0-0.199-0.1c-0.601-0.2-1.2-0.4-1.9-0.4c-0.5,0-1,0-1.5,0c-0.6,0.101-1.1,0.2-1.7,0.4
	c-0.8,0.3-1.6,0.8-2.3,1.4c-0.9,0.8-1.6,1.699-2,2.699c-0.3,0.7-0.5,1.5-0.6,2.2c-0.101,0.601-0.101,1.3,0,1.9
	c0.1,1.1,0.399,2.1,0.899,3.1c0.5,0.9,1.101,1.7,1.9,2.3c0.9,0.7,2,1.2,3.1,1.4c0.101,0,0.2,0,0.3,0c0.9-0.4,1.601-0.9,2.301-1.5
	c0.699-0.7,1.3-1.5,1.8-2.4c0.5-1,0.899-2,1.2-3.1c0.3-0.9,0.5-1.8,0.6-2.7c0.1-0.7,0.2-1.399,0.3-2.2c0.2-1.6,0.2-3.1,0.2-4.699
	c0-0.301,0-0.601,0-0.9c0-0.2,0-0.2,0-0.3l-0.1-0.101c-0.2-0.6-0.4-1.1-0.7-1.699c-0.8-2.101-1.8-4.101-3-6
	c0-0.101-0.101-0.2-0.101-0.2s0,0,0-0.101c0.101,0.101,0.101,0.101,0.2,0.2c0.601,0.601,1.2,1.2,1.601,1.9c0.699,1,1.1,2.2,1.5,3.3
	c0.199,0.9,0.399,1.8,0.5,2.7v0.1c0,0,0,0.101,0,0.3c0,0,0.1,0.101,0.1,0.2c0.4,1,0.7,2.101,0.9,3.2c0.199,1,0.3,1.9,0.199,2.9
	c0,2-0.5,3.899-1.399,5.699c-1.101,2.101-2.601,3.9-4.5,5.4c-0.101,0.1-0.2,0.1-0.3,0.2c0,0,0,0,0,0.1c0.199,0,0.399,0,0.5,0
	c1.8-0.2,3.399-0.899,4.699-2.2c0.9-0.899,1.5-2,1.801-3.199c0.199-0.801,0.399-1.601,0.3-2.5c0-1-0.2-2-0.5-2.9v-0.1
	c0,0,0,0,0-0.101c0.3-0.1,0.5-0.1,0.8-0.2c0.3-0.1,0.5-0.199,0.8-0.3c0.3-0.1,0.5-0.3,0.8-0.399c0,0,0,0.1,0.101,0.1
	c0.3,0.7,0.399,1.3,0.6,2.1C770.9,332.9,770.9,333.8,770.9,334.6z M775.3,322c-0.1,0.8-0.2,1.6-0.5,2.4
	c-0.1,0.399-0.3,0.699-0.5,1.1c-0.3,0.6-0.7,1.1-1.3,1.6c-0.5,0.5-1.1,0.801-1.8,0.9c-0.601,0.1-1.101,0.1-1.7-0.1
	c-0.6-0.2-1.1-0.5-1.6-0.9c-0.101-0.1-0.2-0.2-0.4-0.3c0.1-0.101,0.1-0.101,0.2-0.101c0.899-0.5,1.8-1.1,2.6-1.8
	c0.7-0.5,1.4-1.1,1.9-1.8c0.3-0.4,0.6-0.8,0.899-1.2c0.101-0.2,0.2-0.399,0.2-0.6c0,0,0-0.101,0-0.2c-1.5,2.6-3.6,4.2-6.5,4.9
	l-0.1-0.101c-0.4-0.6-0.6-1.3-0.6-2c0-0.899,0.199-1.7,0.8-2.399c0.3-0.4,0.6-0.7,1.1-0.9c0.6-0.4,1.3-0.6,1.9-0.8
	c0.1,0,0.2,0,0.2-0.101c0.899-0.199,1.699-0.699,2.3-1.3c0.399-0.399,0.8-0.899,1.1-1.5c0-0.1,0.1-0.2,0.1-0.3
	c0.101,0.1,0.101,0.2,0.2,0.3c0.4,0.7,0.7,1.5,0.9,2.3C775.2,320,775.3,321,775.3,322z"/>
<path fill="#FFFFFF" d="M711.1,391.1c0-1.5-0.199-2.699-0.6-3.8c-0.4-1.1-0.9-2-1.5-2.7c-0.7-0.699-1.4-1.199-2.3-1.6
	c-0.9-0.3-1.8-0.5-2.9-0.5c-0.8,0-1.6,0.1-2.2,0.3c-0.6,0.2-1.199,0.5-1.6,0.8c-0.4,0.301-0.8,0.7-1.1,1
	c-0.301,0.4-0.601,0.7-0.801,1V382.9h-6.3c0,0.5,0,1.5,0,3.1v5.8c0,0,0,3.4,0,10.3h6.3V391.4c0-0.301,0-0.5,0-0.801
	c0-0.3,0.101-0.5,0.2-0.699c0.2-0.601,0.601-1.101,1.101-1.601s1.199-0.7,2.1-0.7c1.1,0,2,0.4,2.5,1.2s0.7,1.8,0.7,3.101V402h6.3
	v-10.9H711.1z M685.1,380.3c1.101,0,2-0.3,2.601-1c0.7-0.7,1-1.399,0.899-2.3c0-0.9-0.3-1.7-1-2.3c-0.6-0.601-1.5-1-2.6-1
	s-2,0.3-2.6,1c-0.7,0.6-1,1.399-1,2.3s0.3,1.7,0.899,2.3C683.1,380,683.9,380.3,685.1,380.3L685.1,380.3L685.1,380.3z M688.2,382.9
	h-6.3V402h6.3V382.9z M717,365.1c0.3,0,0.6,0.101,0.8,0.301c0.2,0.199,0.3,0.5,0.3,0.8V408c0,0.3-0.1,0.6-0.3,0.8s-0.5,0.3-0.8,0.3
	h-41.3c-0.3,0-0.601-0.1-0.8-0.3c-0.2-0.2-0.301-0.5-0.301-0.8v-41.8c0-0.3,0.101-0.601,0.301-0.8c0.199-0.2,0.5-0.301,0.8-0.301
	H717L717,365.1z"/>
<line fill="none" stroke="#FFFFFF" stroke-width="2" stroke-miterlimit="10" x1="713.2" y1="514.2" x2="735.2" y2="474.2"/>
<line fill="none" stroke="#FFFFFF" stroke-width="2" stroke-miterlimit="10" x1="701" y1="409" x2="696.3" y2="500.9"/>
<line fill="none" stroke="#FFFFFF" stroke-width="2" stroke-miterlimit="10" x1="659.5" y1="452.8" x2="685" y2="409"/>
<line fill="none" stroke="#FFFFFF" stroke-width="2" stroke-miterlimit="10" x1="718.1" y1="389.7" x2="749.2" y2="424.3"/>
<line fill="none" stroke="#FFFFFF" stroke-width="2" stroke-miterlimit="10" x1="763.1" y1="350.1" x2="763.1" y2="426"/>
<line fill="none" stroke="#FFFFFF" stroke-width="2" stroke-miterlimit="10" x1="743.7" y1="335.6" x2="708.3" y2="365.1"/>
<line fill="none" stroke="#FFFFFF" stroke-width="2" stroke-miterlimit="10" x1="753.9" y1="347.9" x2="701" y2="502.8"/>
<line fill="none" stroke="#FFFFFF" stroke-width="2" stroke-miterlimit="10" x1="562" y1="447.1" x2="553.7" y2="516.8"/>
<line fill="none" stroke="#FFFFFF" stroke-width="2" stroke-miterlimit="10" x1="567" y1="447.1" x2="622.1" y2="455.3"/>
<line fill="none" stroke="#FFFFFF" stroke-width="2" stroke-miterlimit="10" x1="567" y1="447.1" x2="669.1" y2="516.8"/>
<line fill="none" stroke="#FFFFFF" stroke-width="2" stroke-miterlimit="10" x1="567" y1="451.1" x2="681.9" y2="393.7"/>
</svg>
